<?xml version="1.0" encoding="UTF-8" standalone="no"?>
<!-- Created with Inkscape (http://www.inkscape.org/) -->
<?xml-stylesheet href="../../css/fonts/fonts.css" type="text/css"?>
<svg xmlns:dc="http://purl.org/dc/elements/1.1/" xmlns:cc="http://creativecommons.org/ns#" xmlns:rdf="http://www.w3.org/1999/02/22-rdf-syntax-ns#" xmlns:svg="http://www.w3.org/2000/svg" xmlns="http://www.w3.org/2000/svg" preserveAspectRatio="xMinYMin meet" viewBox="0 0 694 808" id="svg4401" version="1.1">
  <defs id="defs4403">
    <marker refX="0" refY="0" orient="auto" id="Arrow1Mend" style="overflow:visible">
      <path d="M 0,0 5,-5 -12.5,0 5,5 0,0 z" transform="matrix(-0.4,0,0,-0.4,-4,0)" id="path4415" style="fill:#383838;fill-rule:evenodd;stroke:#383838;stroke-width:1pt;marker-start:none"/>
    </marker>
    <marker refX="0" refY="0" orient="auto" id="marker4990" style="overflow:visible">
      <path d="M 0,0 5,-5 -12.5,0 5,5 0,0 z" transform="matrix(-0.4,0,0,-0.4,-4,0)" id="path4992" style="fill:#383838;fill-rule:evenodd;stroke:#383838;stroke-width:1pt;marker-start:none"/>
    </marker>
    <marker refX="0" refY="0" orient="auto" id="marker4994" style="overflow:visible">
      <path d="M 0,0 5,-5 -12.5,0 5,5 0,0 z" transform="matrix(-0.4,0,0,-0.4,-4,0)" id="path4996" style="fill:#383838;fill-rule:evenodd;stroke:#383838;stroke-width:1pt;marker-start:none"/>
    </marker>
    <marker refX="0" refY="0" orient="auto" id="marker4998" style="overflow:visible">
      <path d="M 0,0 5,-5 -12.5,0 5,5 0,0 z" transform="matrix(-0.4,0,0,-0.4,-4,0)" id="path5000" style="fill:#383838;fill-rule:evenodd;stroke:#383838;stroke-width:1pt;marker-start:none"/>
    </marker>
    <marker refX="0" refY="0" orient="auto" id="marker5002" style="overflow:visible">
      <path d="M 0,0 5,-5 -12.5,0 5,5 0,0 z" transform="matrix(-0.4,0,0,-0.4,-4,0)" id="path5004" style="fill:#383838;fill-rule:evenodd;stroke:#383838;stroke-width:1pt;marker-start:none"/>
    </marker>
    <marker refX="0" refY="0" orient="auto" id="marker5006" style="overflow:visible">
      <path d="M 0,0 5,-5 -12.5,0 5,5 0,0 z" transform="matrix(-0.4,0,0,-0.4,-4,0)" id="path5008" style="fill:#383838;fill-rule:evenodd;stroke:#383838;stroke-width:1pt;marker-start:none"/>
    </marker>
    <marker refX="0" refY="0" orient="auto" id="marker5010" style="overflow:visible">
      <path d="M 0,0 5,-5 -12.5,0 5,5 0,0 z" transform="matrix(-0.4,0,0,-0.4,-4,0)" id="path5012" style="fill:#383838;fill-rule:evenodd;stroke:#383838;stroke-width:1pt;marker-start:none"/>
    </marker>
    <marker refX="0" refY="0" orient="auto" id="Arrow1Mend-5" style="overflow:visible">
      <path d="M 0,0 5,-5 -12.5,0 5,5 0,0 z" transform="matrix(-0.4,0,0,-0.4,-4,0)" id="path4415-4" style="fill:#383838;fill-rule:evenodd;stroke:#383838;stroke-width:1pt;marker-start:none"/>
    </marker>
    <marker refX="0" refY="0" orient="auto" id="Arrow1Mend-4" style="overflow:visible">
      <path d="M 0,0 5,-5 -12.5,0 5,5 0,0 z" transform="matrix(-0.4,0,0,-0.4,-4,0)" id="path4415-9" style="fill:#383838;fill-rule:evenodd;stroke:#383838;stroke-width:1pt;marker-start:none"/>
    </marker>
    <marker refX="0" refY="0" orient="auto" id="Arrow1Mend-48" style="overflow:visible">
      <path d="M 0,0 5,-5 -12.5,0 5,5 0,0 z" transform="matrix(-0.4,0,0,-0.4,-4,0)" id="path4415-7" style="fill:#383838;fill-rule:evenodd;stroke:#383838;stroke-width:1pt;marker-start:none"/>
    </marker>
    <marker refX="0" refY="0" orient="auto" id="Arrow1Mend-7" style="overflow:visible">
      <path d="M 0,0 5,-5 -12.5,0 5,5 0,0 z" transform="matrix(-0.4,0,0,-0.4,-4,0)" id="path4415-0" style="fill:#383838;fill-rule:evenodd;stroke:#383838;stroke-width:1pt;marker-start:none"/>
    </marker>
    <marker refX="0" refY="0" orient="auto" id="Arrow1Mend-9" style="overflow:visible">
      <path d="M 0,0 5,-5 -12.5,0 5,5 0,0 z" transform="matrix(-0.4,0,0,-0.4,-4,0)" id="path4415-1" style="fill:#383838;fill-rule:evenodd;stroke:#383838;stroke-width:1pt;marker-start:none"/>
    </marker>
    <marker refX="0" refY="0" orient="auto" id="Arrow1Mend-2" style="overflow:visible">
      <path d="M 0,0 5,-5 -12.5,0 5,5 0,0 z" transform="matrix(-0.4,0,0,-0.4,-4,0)" id="path4415-2" style="fill:#383838;fill-rule:evenodd;stroke:#383838;stroke-width:1pt;marker-start:none"/>
    </marker>
    <marker refX="0" refY="0" orient="auto" id="Arrow1Mend-28" style="overflow:visible">
      <path d="M 0,0 5,-5 -12.5,0 5,5 0,0 z" transform="matrix(-0.4,0,0,-0.4,-4,0)" id="path4415-93" style="fill:#383838;fill-rule:evenodd;stroke:#383838;stroke-width:1pt;marker-start:none"/>
    </marker>
  </defs>
  <metadata id="metadata_5.4">
  <!--
    <rdf:RDF>
      <cc:Work rdf:about="">
        <dc:format>image/svg+xml</dc:format>
        <dc:type rdf:resource="http://purl.org/dc/dcmitype/StillImage"></dc:type>
        <dc:title></dc:title>
        <cc:license rdf:resource="http://creativecommons.org/licenses/by-sa/3.0/"></cc:license>
        <dc:description>Based on the diagram in Abelson, Sussman &amp; Sussman's "Structure and Interpretation of Computer Programs", 2nd ed.</dc:description>
        <dc:source>http://mitpress.mit.edu/sicp/full-text/book/book-Z-H-31.html#%_fig_5.4</dc:source>
        <dc:creator>
          <cc:Agent>
            <dc:title>Andres Raba</dc:title>
          </cc:Agent>
        </dc:creator>
        <dc:date>2012-11-17</dc:date>
        <dc:subject>
          <rdf:Bag>
            <rdf:li>gcd</rdf:li>
            <rdf:li>machine</rdf:li>
            <rdf:li>input</rdf:li>
            <rdf:li>output</rdf:li>
            <rdf:li>print</rdf:li>
          </rdf:Bag>
        </dc:subject>
      </cc:Work>
      <cc:License rdf:about="http://creativecommons.org/licenses/by-sa/3.0/">
        <cc:permits rdf:resource="http://creativecommons.org/ns#Reproduction"></cc:permits>
        <cc:permits rdf:resource="http://creativecommons.org/ns#Distribution"></cc:permits>
        <cc:requires rdf:resource="http://creativecommons.org/ns#Notice"></cc:requires>
        <cc:requires rdf:resource="http://creativecommons.org/ns#Attribution"></cc:requires>
        <cc:permits rdf:resource="http://creativecommons.org/ns#DerivativeWorks"></cc:permits>
        <cc:requires rdf:resource="http://creativecommons.org/ns#ShareAlike"></cc:requires>
      </cc:License>
    </rdf:RDF>
  -->
</metadata>
  <g transform="translate(-27,-49.75)" id="layer4" style="display:inline">
    <path d="m 312.77466,55.25235 99.27282,0 c 5.72728,0 7.70857,5.47992 5.72728,9.54547 l -19.96279,40.96283 c -1.64175,3.36879 -4.85542,6.76448 -10.5827,6.76448 l -49.63641,0 c -5.72727,0 -8.94095,-3.39569 -10.58269,-6.76448 L 307.04738,64.79782 c -1.98129,-4.06555 0,-9.54547 5.72728,-9.54547 z" id="rect6788-7-2-7-4-3-4-8" style="fill:none;stroke:#383838;stroke-width:1.01467526;stroke-linecap:round;stroke-linejoin:round;stroke-miterlimit:4;stroke-opacity:1;stroke-dasharray:none;stroke-dashoffset:0;display:inline"/>
    <path d="m 360.61429,262.45673 13.49933,-13.49932" id="path4116" style="fill:none;stroke:#383838;stroke-width:1.01467526;stroke-linecap:round;stroke-linejoin:round;stroke-miterlimit:4;stroke-opacity:1;stroke-dasharray:none"/>
    <path d="M 374.11362,262.45673 360.61429,248.95741" id="path4118" style="fill:none;stroke:#383838;stroke-width:1.01467526;stroke-linecap:round;stroke-linejoin:round;stroke-miterlimit:4;stroke-opacity:1;stroke-dasharray:none"/>
    <path d="m 210,87.362183 a 5,5 0 1 1 -10,0 5,5 0 1 1 10,0 z" transform="matrix(-1.3499324,-1.3499324,1.3499324,-1.3499324,526.16704,650.37625)" id="path4086-0" style="fill:none;stroke:#383838;stroke-width:0.53149605;stroke-linecap:round;stroke-linejoin:round;stroke-miterlimit:4;stroke-opacity:1;stroke-dasharray:none;stroke-dashoffset:0"/>
    <path d="m 465.61439,350.13934 13.49932,13.49933" id="path4116-8" style="fill:none;stroke:#383838;stroke-width:1.01467526;stroke-linecap:round;stroke-linejoin:round;stroke-miterlimit:4;stroke-opacity:1;stroke-dasharray:none"/>
    <path d="m 465.61439,363.63867 13.49932,-13.49933" id="path4118-6" style="fill:none;stroke:#383838;stroke-width:1.01467526;stroke-linecap:round;stroke-linejoin:round;stroke-miterlimit:4;stroke-opacity:1;stroke-dasharray:none"/>
    <path d="m 210,87.362183 a 5,5 0 1 1 -10,0 5,5 0 1 1 10,0 z" transform="matrix(1.3499324,-1.3499324,1.3499324,1.3499324,77.69487,515.69209)" id="path4086-0-9" style="fill:none;stroke:#383838;stroke-width:0.53149605;stroke-linecap:round;stroke-linejoin:round;stroke-miterlimit:4;stroke-opacity:1;stroke-dasharray:none;stroke-dashoffset:0"/>
    <path d="m 355.94379,491.54786 13.49933,-13.49933" id="path4116-0" style="fill:none;stroke:#383838;stroke-width:1.01467526;stroke-linecap:round;stroke-linejoin:round;stroke-miterlimit:4;stroke-opacity:1;stroke-dasharray:none"/>
    <path d="M 369.44312,491.54786 355.94379,478.04853" id="path4118-3" style="fill:none;stroke:#383838;stroke-width:1.01467526;stroke-linecap:round;stroke-linejoin:round;stroke-miterlimit:4;stroke-opacity:1;stroke-dasharray:none"/>
    <path d="m 210,87.362183 a 5,5 0 1 1 -10,0 5,5 0 1 1 10,0 z" transform="matrix(-1.3499324,-1.3499324,1.3499324,-1.3499324,521.49654,879.46738)" id="path4086-0-97" style="fill:none;stroke:#383838;stroke-width:0.53149605;stroke-linecap:round;stroke-linejoin:round;stroke-miterlimit:4;stroke-opacity:1;stroke-dasharray:none;stroke-dashoffset:0"/>
    <rect width="95.454636" height="57.272781" rx="6.7645016" ry="6.7645016" x="224.18198" y="227.07068" id="rect6788-7-2-7-4-3" style="fill:#e8e8e8;fill-opacity:1;stroke:#383838;stroke-width:1.01467526;stroke-linecap:round;stroke-linejoin:round;stroke-miterlimit:4;stroke-opacity:1;stroke-dasharray:none;stroke-dashoffset:0;display:inline"/>
    <rect width="95.454636" height="57.272781" rx="6.7645016" ry="6.7645016" x="405.54578" y="227.07068" id="rect6788-7-2-7-4-3-6" style="fill:#e8e8e8;fill-opacity:1;stroke:#383838;stroke-width:1.01467526;stroke-linecap:round;stroke-linejoin:round;stroke-miterlimit:4;stroke-opacity:1;stroke-dasharray:none;stroke-dashoffset:0;display:inline"/>
    <path d="m 577.36414,378.91173 0,-91.94326" id="path8845-6-0-7-0" style="fill:none;stroke:#383838;stroke-width:1.48819029;stroke-linecap:butt;stroke-linejoin:round;stroke-miterlimit:4;stroke-opacity:1;stroke-dasharray:none;marker-end:url(#Arrow1Mend)"/>
    <path d="m 357.81848,255.70708 -35.55685,0" id="path8845-6-0-7-0-4" style="fill:none;stroke:#383838;stroke-width:1.48819029;stroke-linecap:butt;stroke-linejoin:round;stroke-miterlimit:4;stroke-opacity:1;stroke-dasharray:none;marker-end:url(#Arrow1Mend)"/>
    <path d="m 376.90941,255.70708 28.63639,0" id="path4298" style="fill:none;stroke:#383838;stroke-width:1.48819029;stroke-linecap:butt;stroke-linejoin:round;stroke-miterlimit:4;stroke-opacity:1;stroke-dasharray:none"/>
    <path d="m 472.36404,347.34353 0,-60.37506" id="path8845-6-0-7-0-4-7" style="fill:none;stroke:#383838;stroke-width:1.48819029;stroke-linecap:butt;stroke-linejoin:round;stroke-miterlimit:4;stroke-opacity:1;stroke-dasharray:none;marker-end:url(#Arrow1Mend)"/>
    <path d="m 362.69344,437.07089 0,38.18185" id="path4298-8" style="fill:none;stroke:#383838;stroke-width:1.48819029;stroke-linecap:butt;stroke-linejoin:round;stroke-miterlimit:4;stroke-opacity:1;stroke-dasharray:none"/>
    <path d="m 362.69344,494.34367 0,35.38638" id="path8845-6-0-7-0-4-7-6" style="fill:none;stroke:#383838;stroke-width:1.48819029;stroke-linecap:butt;stroke-linejoin:round;stroke-miterlimit:4;stroke-opacity:1;stroke-dasharray:none;marker-end:url(#Arrow1Mend)"/>
    <path d="m 472.36404,366.43446 0,185.18199 c 0,5.72727 -3.81819,9.54546 -9.54546,9.54546 l -52.05688,8e-5" id="path8845-1-4-88" style="fill:none;stroke:#383838;stroke-width:1.48819029;stroke-linecap:butt;stroke-linejoin:round;stroke-miterlimit:4;stroke-opacity:1;stroke-dasharray:none;marker-end:none"/>
    <path d="m 291.00023,284.34347 0,38.18185 c 0,5.72728 3.81819,9.54547 9.54547,9.54547 l 19.09092,0 c 5.72728,0 9.54547,3.81818 9.54547,9.54546 l 0,35.38639" id="path8845-1-0" style="fill:none;stroke:#383838;stroke-width:1.48819029;stroke-linecap:butt;stroke-linejoin:round;stroke-miterlimit:4;stroke-opacity:1;stroke-dasharray:none;marker-end:url(#Arrow1Mend)"/>
    <path d="m 434.18219,284.34347 0,38.18185 c 0,5.72728 -3.81819,9.54547 -9.54547,9.54547 l -19.09092,0 c -5.72728,0 -9.54547,3.81818 -9.54547,9.54546 l 0,35.55685" id="path8845-1-0-3" style="fill:none;stroke:#383838;stroke-width:1.48819029;stroke-linecap:butt;stroke-linejoin:round;stroke-miterlimit:4;stroke-opacity:1;stroke-dasharray:none;marker-end:url(#Arrow1Mend)"/>
    <path d="m 501.00043,255.70708 45.10231,0" id="path8845-6-0-7-0-4-7-9" style="fill:none;stroke:#383838;stroke-width:1.48819029;stroke-linecap:butt;stroke-linejoin:round;stroke-miterlimit:4;stroke-opacity:1;stroke-dasharray:none;marker-end:url(#Arrow1Mend)"/>
    <rect width="95.454636" height="57.272781" rx="6.7645016" ry="6.7645016" x="314.96613" y="532.52551" id="rect6788-7-2-7-4-3-4" style="fill:#e8e8e8;fill-opacity:1;stroke:#383838;stroke-width:1.01467526;stroke-linecap:round;stroke-linejoin:round;stroke-miterlimit:4;stroke-opacity:1;stroke-dasharray:none;stroke-dashoffset:0;display:inline"/>
    <path d="m 313.20556,379.7981 99.27282,0 c 5.72728,0 7.70857,5.47992 5.72728,9.54547 l -19.96279,40.96283 c -1.64175,3.3688 -4.85542,6.76449 -10.5827,6.76449 l -49.63641,0 c -5.72727,0 -8.94094,-3.39569 -10.58269,-6.76449 l -19.96279,-40.96283 c -1.98129,-4.06555 0,-9.54547 5.72728,-9.54547 z" id="rect6788-7-2-7-4-3-4-8-4" style="fill:none;stroke:#383838;stroke-width:1.01467526;stroke-linecap:round;stroke-linejoin:round;stroke-miterlimit:4;stroke-opacity:1;stroke-dasharray:none;stroke-dashoffset:0;display:inline"/>
    <path d="m 554.45503,437.07089 45.81822,0 c 5.72728,0 8.74021,-3.77069 5.72728,-9.54547 l -22.90911,-43.90913 c -2.99386,-5.72728 -8.41981,-5.66701 -11.45456,0 l -22.90911,43.90913 c -3.01293,5.77478 0,9.54546 5.72728,9.54546 z" id="rect6788-7-2-7-4-3-4-8-3" style="fill:none;stroke:#383838;stroke-width:1.01467526;stroke-linecap:round;stroke-linejoin:round;stroke-miterlimit:4;stroke-opacity:1;stroke-dasharray:none;stroke-dashoffset:0;display:inline"/>
    <path d="m 310,72.362183 a 15,15 0 1 1 -30,0 15,15 0 1 1 30,0 z" transform="matrix(1.9090927,0,0,1.9090927,14.1818,117.56097)" id="path4082" style="fill:none;stroke:#383838;stroke-width:0.53149605;stroke-linecap:round;stroke-linejoin:round;stroke-miterlimit:4;stroke-opacity:1;stroke-dasharray:none;stroke-dashoffset:0"/>
    <path d="m 165.00012,379.7981 99.27282,0 c 5.72727,0 7.70857,5.47992 5.72727,9.54547 l -19.96279,40.96283 c -1.64174,3.3688 -4.85541,6.76449 -10.58269,6.76449 l -49.63641,0 c -5.72728,0 -8.94095,-3.39569 -10.58269,-6.76449 l -19.96279,-40.96283 c -1.9813,-4.06555 0,-9.54547 5.72728,-9.54547 z" id="rect6788-7-2-7-4-3-4-8-9" style="fill:none;stroke:#383838;stroke-width:1.01467526;stroke-linecap:round;stroke-linejoin:round;stroke-miterlimit:4;stroke-opacity:1;stroke-dasharray:none;stroke-dashoffset:0;display:inline"/>
    <path d="m 361.63666,150.70698 -80.18189,0 c -5.72728,0 -9.54546,3.81819 -9.54546,9.54547 l -8e-5,64.02277" id="path8845-1-0-4" style="fill:none;stroke:#383838;stroke-width:1.48819029;stroke-linecap:butt;stroke-linejoin:round;stroke-miterlimit:4;stroke-opacity:1;stroke-dasharray:none;marker-end:url(#Arrow1Mend)"/>
    <path d="m 363.54576,150.70698 80.18189,0 c 5.72728,0 9.54546,3.81819 9.54546,9.54547 l 8e-5,64.02277" id="path8845-1-0-4-5" style="fill:none;stroke:#383838;stroke-width:1.48819029;stroke-linecap:butt;stroke-linejoin:round;stroke-miterlimit:4;stroke-opacity:1;stroke-dasharray:none;marker-end:url(#Arrow1Mend)"/>
    <path d="m 237,128.36218 a 1,1 0 1 1 -2,0 1,1 0 1 1 2,0 z" transform="matrix(1.9090927,0,0,1.9090927,-87.96436,-94.34831)" id="path9674-69-6-1-6" style="fill:#383838;fill-opacity:1;stroke:#383838;stroke-width:1.0629921;stroke-linecap:round;stroke-linejoin:round;stroke-miterlimit:4;stroke-opacity:1;stroke-dasharray:none;stroke-dashoffset:0;display:inline"/>
    <path d="m 252.81838,284.34347 0,38.18185 c 0,5.72728 -3.81818,9.54547 -9.54546,9.54547 l -19.09093,0 c -5.72728,0 -9.54546,3.81818 -9.54546,9.54546 l 0,35.55685" id="path8845-1-0-1" style="fill:none;stroke:#383838;stroke-width:1.48819029;stroke-linecap:butt;stroke-linejoin:round;stroke-miterlimit:4;stroke-opacity:1;stroke-dasharray:none;marker-end:url(#Arrow1Mend)"/>
    <path d="m 362.58153,112.52513 0,38.18185" id="path4298-8-8" style="fill:none;stroke:#383838;stroke-width:1.48819029;stroke-linecap:butt;stroke-linejoin:round;stroke-miterlimit:4;stroke-opacity:1;stroke-dasharray:none"/>
    <path d="m 210,87.362183 a 5,5 0 1 1 -10,0 5,5 0 1 1 10,0 z" transform="matrix(-1.3499324,-1.3499324,1.3499324,-1.3499324,430.71241,583.55801)" id="path4086-0-4-4" style="fill:#ffffff;fill-opacity:1;stroke:#383838;stroke-width:0.53149605;stroke-linecap:round;stroke-linejoin:round;stroke-miterlimit:4;stroke-opacity:1;stroke-dasharray:none;stroke-dashoffset:0"/>
    <path d="m 265.15965,195.63849 13.49933,-13.49931" id="path4116-3-1" style="fill:none;stroke:#383838;stroke-width:1.01467526;stroke-linecap:round;stroke-linejoin:round;stroke-miterlimit:4;stroke-opacity:1;stroke-dasharray:none"/>
    <path d="M 278.65898,195.63849 265.15965,182.13918" id="path4118-65-6" style="fill:none;stroke:#383838;stroke-width:1.01467526;stroke-linecap:round;stroke-linejoin:round;stroke-miterlimit:4;stroke-opacity:1;stroke-dasharray:none"/>
    <path d="m 210,87.362183 a 5,5 0 1 1 -10,0 5,5 0 1 1 10,0 z" transform="matrix(-1.3499324,-1.3499324,1.3499324,-1.3499324,612.07622,583.55801)" id="path4086-0-4-2" style="fill:#ffffff;fill-opacity:1;stroke:#383838;stroke-width:0.53149605;stroke-linecap:round;stroke-linejoin:round;stroke-miterlimit:4;stroke-opacity:1;stroke-dasharray:none;stroke-dashoffset:0"/>
    <path d="m 446.52346,195.63849 13.49933,-13.49931" id="path4116-3-8" style="fill:none;stroke:#383838;stroke-width:1.01467526;stroke-linecap:round;stroke-linejoin:round;stroke-miterlimit:4;stroke-opacity:1;stroke-dasharray:none"/>
    <path d="M 460.02279,195.63849 446.52346,182.13918" id="path4118-65-0" style="fill:none;stroke:#383838;stroke-width:1.01467526;stroke-linecap:round;stroke-linejoin:round;stroke-miterlimit:4;stroke-opacity:1;stroke-dasharray:none"/>
    <g transform="matrix(1.3499324,1.3499324,-1.3499324,1.3499324,55.83342,90.12903)" id="g4122-0-5-8" style="stroke-width:0.53149605;stroke-linecap:butt;stroke-miterlimit:4;stroke-dasharray:none">
      <path d="m 205,82.362183 0,10" id="path4116-0-3-0" style="fill:none;stroke:#383838;stroke-width:0.53149605;stroke-linecap:butt;stroke-linejoin:round;stroke-miterlimit:4;stroke-opacity:1;stroke-dasharray:none"/>
      <path d="m 200,87.362183 10,0" id="path4118-3-8-2" style="fill:none;stroke:#383838;stroke-width:0.53149605;stroke-linecap:butt;stroke-linejoin:round;stroke-miterlimit:4;stroke-opacity:1;stroke-dasharray:none"/>
      <path d="m 210,87.362183 a 5,5 0 1 1 -10,0 5,5 0 1 1 10,0 z" id="path4086-0-97-1-1" style="fill:none;stroke:#383838;stroke-width:0.53149605;stroke-linecap:butt;stroke-linejoin:round;stroke-miterlimit:4;stroke-opacity:1;stroke-dasharray:none;stroke-dashoffset:0"/>
    </g>
    <path d="m 214.63653,522.98006 0,-28.21027" id="path4298-8-6-0" style="fill:none;stroke:#383838;stroke-width:1.48819029;stroke-linecap:round;stroke-linejoin:round;stroke-miterlimit:4;stroke-opacity:1;stroke-dasharray:none"/>
    <path d="m 214.63653,475.25274 0,-35.72732" id="path8845-6-0-7-0-4-7-6-5-5" style="fill:none;stroke:#383838;stroke-width:1.48819029;stroke-linecap:butt;stroke-linejoin:round;stroke-miterlimit:4;stroke-opacity:1;stroke-dasharray:none;marker-end:url(#Arrow1Mend)"/>
  </g>
  <g transform="translate(-27,-49.75)" id="layer5" style="display:inline">
    <text x="39" y="606.9801" id="text5698" xml:space="preserve" style="font-size:20px;font-style:normal;font-variant:normal;font-weight:normal;font-stretch:normal;text-align:start;line-height:139.99999762%;letter-spacing:0px;word-spacing:0px;text-anchor:start;fill:#383838;fill-opacity:1;stroke:none;font-family:Inconsolata LGC;-inkscape-font-specification:Inconsolata LGC"><tspan x="39" y="606.9801" id="tspan5700" xml:space="preserve" style="font-size:19.09092712px;line-height:139.99999762%"> (controller</tspan><tspan x="39" y="633.7074" id="tspan5702" xml:space="preserve" style="font-size:19.09092712px;line-height:139.99999762%">  gcd-loop</tspan><tspan x="39" y="660.43469" id="tspan5704" xml:space="preserve" style="font-size:19.09092712px;line-height:139.99999762%">    (assign a (op read))</tspan><tspan x="39" y="687.16199" id="tspan5706" xml:space="preserve" style="font-size:19.09092712px;line-height:139.99999762%">    (assign b (op read))</tspan><tspan x="39" y="713.88928" id="tspan5708" xml:space="preserve" style="font-size:19.09092712px;line-height:139.99999762%">  test-b</tspan><tspan x="39" y="740.61658" id="tspan5806" xml:space="preserve" style="font-size:19.09092712px;line-height:139.99999762%">    (test </tspan><tspan x="39" y="767.34387" id="tspan3223" xml:space="preserve" style="font-size:19.09092712px;line-height:139.99999762%">     (op =) (reg b) (const 0))</tspan><tspan x="39" y="794.07117" id="tspan5712" xml:space="preserve" style="font-size:19.09092712px;line-height:139.99999762%">    (branch (label gcd-done))</tspan><tspan x="39" y="820.79846" id="tspan3249" xml:space="preserve" style="font-size:19.09092712px;line-height:139.99999762%">    (assign </tspan><tspan x="39" y="847.52576" id="tspan3255" xml:space="preserve" style="font-size:19.09092712px;line-height:139.99999762%">     t (op rem) (reg a) (reg b))</tspan><tspan x="39" y="874.25305" id="tspan3257" xml:space="preserve" style="font-size:19.09092712px;line-height:139.99999762%"/><tspan x="39" y="900.98035" id="tspan5812" xml:space="preserve" style="font-size:19.09092712px;line-height:139.99999762%"/><tspan x="39" y="927.7077" id="tspan5726" xml:space="preserve" style="font-size:19.09092712px;line-height:139.99999762%"/></text>
    <text x="362.41107" y="89.981079" id="text6689-7-1-3-1" xml:space="preserve" style="font-size:20px;font-style:normal;font-variant:normal;font-weight:normal;font-stretch:normal;text-align:center;line-height:125%;letter-spacing:0px;word-spacing:0px;text-anchor:middle;fill:#383838;fill-opacity:1;stroke:none;display:inline;font-family:Inconsolata LGC;-inkscape-font-specification:Sans"><tspan x="362.41107" y="89.981079" id="tspan6691-7-5-6-0">read</tspan></text>
    <text x="271.9093" y="262.48129" id="text6689-7-1" xml:space="preserve" style="font-size:20px;font-style:normal;font-variant:normal;font-weight:normal;font-stretch:normal;text-align:center;line-height:125%;letter-spacing:0px;word-spacing:0px;text-anchor:middle;fill:#383838;fill-opacity:1;stroke:none;display:inline;font-family:Inconsolata LGC;-inkscape-font-specification:Sans"><tspan x="271.9093" y="262.48129" id="tspan6691-7-5">a</tspan></text>
    <text x="453.27313" y="262.48129" id="text6689-7-1-5" xml:space="preserve" style="font-size:20px;font-style:normal;font-variant:normal;font-weight:normal;font-stretch:normal;text-align:center;line-height:125%;letter-spacing:0px;word-spacing:0px;text-anchor:middle;fill:#383838;fill-opacity:1;stroke:none;display:inline;font-family:Inconsolata LGC;-inkscape-font-specification:Sans"><tspan x="453.27313" y="262.48129" id="tspan6691-7-5-7">b</tspan></text>
    <text x="362.69348" y="568.61792" id="text6689-7-1-3" xml:space="preserve" style="font-size:20px;font-style:normal;font-variant:normal;font-weight:normal;font-stretch:normal;text-align:center;line-height:125%;letter-spacing:0px;word-spacing:0px;text-anchor:middle;fill:#383838;fill-opacity:1;stroke:none;display:inline;font-family:Inconsolata LGC;-inkscape-font-specification:Sans"><tspan x="362.69348" y="568.61792" id="tspan6691-7-5-6">t</tspan></text>
    <text x="362.84198" y="414.52686" id="text6689-7-1-3-1-1" xml:space="preserve" style="font-size:20px;font-style:normal;font-variant:normal;font-weight:normal;font-stretch:normal;text-align:center;line-height:125%;letter-spacing:0px;word-spacing:0px;text-anchor:middle;fill:#383838;fill-opacity:1;stroke:none;display:inline;font-family:Inconsolata LGC;-inkscape-font-specification:Sans"><tspan x="362.84198" y="414.52686" id="tspan6691-7-5-6-0-9">rem</tspan></text>
    <text x="367.36395" y="288.16165" id="text4630" xml:space="preserve" style="font-size:20px;font-style:normal;font-variant:normal;font-weight:normal;font-stretch:normal;text-align:center;line-height:125%;letter-spacing:0px;word-spacing:0px;text-anchor:middle;fill:#383838;fill-opacity:1;stroke:none;display:inline;font-family:Inconsolata LGC;-inkscape-font-specification:Inconsolata LGC"><tspan x="367.36395" y="288.16165" dx="0 3.8181853 3.8181853" id="tspan4632">a←b</tspan></text>
    <text x="383.48895" y="490.52548" id="text4634" xml:space="preserve" style="font-size:20px;font-style:normal;font-variant:normal;font-weight:normal;font-stretch:normal;text-align:start;line-height:125%;letter-spacing:0px;word-spacing:0px;text-anchor:start;fill:#383838;fill-opacity:1;stroke:none;display:inline;font-family:Inconsolata LGC;-inkscape-font-specification:Inconsolata LGC"><tspan x="383.48895" y="490.52548" dx="0 3.8181853 3.8181853" id="tspan4636">t←r</tspan></text>
    <text x="493.36407" y="362.61627" id="text4638" xml:space="preserve" style="font-size:20px;font-style:normal;font-variant:normal;font-weight:normal;font-stretch:normal;text-align:start;line-height:125%;letter-spacing:0px;word-spacing:0px;text-anchor:start;fill:#383838;fill-opacity:1;stroke:none;display:inline;font-family:Inconsolata LGC;-inkscape-font-specification:Inconsolata LGC"><tspan x="493.36407" y="362.61627" dx="0 3.8181853 3.8181853" id="tspan4640">b←t</tspan></text>
    <text x="577.36414" y="423.70724" id="text4051" xml:space="preserve" style="font-size:20px;font-style:normal;font-variant:normal;font-weight:normal;font-stretch:normal;text-align:center;line-height:125%;letter-spacing:0px;word-spacing:0px;text-anchor:middle;fill:#383838;fill-opacity:1;stroke:none;display:inline;font-family:Inconsolata LGC;-inkscape-font-specification:Inconsolata LGC"><tspan x="577.36414" y="423.70724" id="tspan4053">0</tspan></text>
    <text x="577.36414" y="262.52524" id="text4171" xml:space="preserve" style="font-size:20px;font-style:normal;font-variant:normal;font-weight:normal;font-stretch:normal;text-align:center;line-height:125%;letter-spacing:0px;word-spacing:0px;text-anchor:middle;fill:#383838;fill-opacity:1;stroke:none;display:inline;font-family:Inconsolata LGC;-inkscape-font-specification:Inconsolata LGC"><tspan x="577.36414" y="262.52524" id="tspan4173">=</tspan></text>
    <text x="214.63654" y="414.52686" id="text6689-7-1-3-1-3" xml:space="preserve" style="font-size:20px;font-style:normal;font-variant:normal;font-weight:normal;font-stretch:normal;text-align:center;line-height:125%;letter-spacing:0px;word-spacing:0px;text-anchor:middle;fill:#383838;fill-opacity:1;stroke:none;display:inline;font-family:Inconsolata LGC;-inkscape-font-specification:Sans"><tspan x="214.63654" y="414.52686" id="tspan6691-7-5-6-0-0">print</tspan></text>
    <text x="250.9093" y="194.61612" id="text4630-9" xml:space="preserve" style="font-size:20px;font-style:normal;font-variant:normal;font-weight:normal;font-stretch:normal;text-align:end;line-height:125%;letter-spacing:0px;word-spacing:0px;text-anchor:end;fill:#383838;fill-opacity:1;stroke:none;display:inline;font-family:Inconsolata LGC;-inkscape-font-specification:Inconsolata LGC"><tspan x="250.9093" y="194.61612" dx="0 3.8181853 3.8181853" id="tspan4632-0">a←rd</tspan></text>
    <text x="474.27313" y="194.61612" id="text4630-9-2" xml:space="preserve" style="font-size:20px;font-style:normal;font-variant:normal;font-weight:normal;font-stretch:normal;text-align:start;line-height:125%;letter-spacing:0px;word-spacing:0px;text-anchor:start;fill:#383838;fill-opacity:1;stroke:none;display:inline;font-family:Inconsolata LGC;-inkscape-font-specification:Inconsolata LGC"><tspan x="474.27313" y="194.61612" dx="0 3.8181853 3.8181853" id="tspan4632-0-2">b←rd</tspan></text>
    <text x="235.63654" y="492.43457" id="text5516-3" xml:space="preserve" style="font-size:20px;font-style:normal;font-variant:normal;font-weight:normal;font-stretch:normal;text-align:start;line-height:125%;letter-spacing:0px;word-spacing:0px;text-anchor:start;fill:#383838;fill-opacity:1;stroke:none;display:inline;font-family:Inconsolata LGC;-inkscape-font-specification:Inconsolata LGC"><tspan x="235.63654" y="492.43457" id="tspan5518-1">P</tspan></text>
        <text x="390.27307" y="660.43469" id="text3168" xml:space="preserve" style="font-size:20px;font-style:normal;font-variant:normal;font-weight:normal;font-stretch:normal;text-align:start;line-height:139.99999762%;letter-spacing:0px;word-spacing:0px;text-anchor:start;fill:#383838;fill-opacity:1;stroke:none;font-family:Inconsolata LGC;-inkscape-font-specification:Inconsolata LGC"><tspan x="390.27307" y="660.43469" id="tspan3219" xml:space="preserve" style="font-size:19.09092712px;line-height:139.99999762%">    (assign a (reg b))</tspan><tspan x="390.27307" y="687.16199" id="tspan3172" xml:space="preserve" style="font-size:19.09092712px;line-height:139.99999762%">    (assign b (reg t))</tspan><tspan x="390.27307" y="713.88928" id="tspan3174" xml:space="preserve" style="font-size:19.09092712px;line-height:139.99999762%">    (goto (label test-b))</tspan><tspan x="390.27307" y="740.61658" id="tspan3176" xml:space="preserve" style="font-size:19.09092712px;line-height:139.99999762%">  gcd-done</tspan><tspan x="390.27307" y="767.34387" id="tspan3178" xml:space="preserve" style="font-size:19.09092712px;line-height:139.99999762%">    (perform (op print) </tspan><tspan x="390.27307" y="794.07117" id="tspan3180" xml:space="preserve" style="font-size:19.09092712px;line-height:139.99999762%">             (reg a))</tspan><tspan x="390.27307" y="820.79846" id="tspan3182" xml:space="preserve" style="font-size:19.09092712px;line-height:139.99999762%">    (goto (label gcd-loop)))</tspan></text>
  </g>
</svg>
