<?xml version="1.0" encoding="UTF-8" standalone="no"?>
<!-- Created with Inkscape (http://www.inkscape.org/) -->
<?xml-stylesheet href="../../css/fonts/fonts.css" type="text/css"?>
<svg xmlns:dc="http://purl.org/dc/elements/1.1/" xmlns:cc="http://creativecommons.org/ns#" xmlns:rdf="http://www.w3.org/1999/02/22-rdf-syntax-ns#" xmlns:svg="http://www.w3.org/2000/svg" xmlns="http://www.w3.org/2000/svg" preserveAspectRatio="xMinYMin meet" viewBox="0 0 439 302" id="svg2" style="display:inline" version="1.1">
  <defs id="defs4">
    <marker refX="0" refY="0" orient="auto" id="Arrow1Mend" style="overflow:visible">
      <path d="M 0,0 5,-5 -12.5,0 5,5 0,0 z" transform="matrix(-0.4,0,0,-0.4,-4,0)" id="path4415" style="fill:#383838;fill-rule:evenodd;stroke:#383838;stroke-width:1pt;marker-start:none"/>
    </marker>
    <marker refX="0" refY="0" orient="auto" id="Arrow1Mend-7" style="overflow:visible">
      <path d="M 0,0 5,-5 -12.5,0 5,5 0,0 z" transform="matrix(-0.4,0,0,-0.4,-4,0)" id="path4415-2" style="fill:#383838;fill-rule:evenodd;stroke:#383838;stroke-width:1pt;marker-start:none"/>
    </marker>
    <marker refX="0" refY="0" orient="auto" id="Arrow1Mend-4" style="overflow:visible">
      <path d="M 0,0 5,-5 -12.5,0 5,5 0,0 z" transform="matrix(-0.4,0,0,-0.4,-4,0)" id="path4415-9" style="fill:#383838;fill-rule:evenodd;stroke:#383838;stroke-width:1pt;marker-start:none"/>
    </marker>
    <marker refX="0" refY="0" orient="auto" id="Arrow1Mend-1" style="overflow:visible">
      <path d="M 0,0 5,-5 -12.5,0 5,5 0,0 z" transform="matrix(-0.4,0,0,-0.4,-4,0)" id="path4415-23" style="fill:#383838;fill-rule:evenodd;stroke:#383838;stroke-width:1pt;marker-start:none"/>
    </marker>
    <marker refX="0" refY="0" orient="auto" id="Arrow1Mend-9" style="overflow:visible">
      <path d="M 0,0 5,-5 -12.5,0 5,5 0,0 z" transform="matrix(-0.4,0,0,-0.4,-4,0)" id="path4415-4" style="fill:#383838;fill-rule:evenodd;stroke:#383838;stroke-width:1pt;marker-start:none"/>
    </marker>
    <marker refX="0" refY="0" orient="auto" id="Arrow1Mend-93" style="overflow:visible">
      <path d="M 0,0 5,-5 -12.5,0 5,5 0,0 z" transform="matrix(-0.4,0,0,-0.4,-4,0)" id="path4415-7" style="fill:#383838;fill-rule:evenodd;stroke:#383838;stroke-width:1pt;marker-start:none"/>
    </marker>
    <marker refX="0" refY="0" orient="auto" id="Arrow1Mend-2" style="overflow:visible">
      <path d="M 0,0 5,-5 -12.5,0 5,5 0,0 z" transform="matrix(-0.4,0,0,-0.4,-4,0)" id="path4415-97" style="fill:#383838;fill-rule:evenodd;stroke:#383838;stroke-width:1pt;marker-start:none"/>
    </marker>
    <marker refX="0" refY="0" orient="auto" id="Arrow1Mend-48" style="overflow:visible">
      <path d="M 0,0 5,-5 -12.5,0 5,5 0,0 z" transform="matrix(-0.4,0,0,-0.4,-4,0)" id="path4415-22" style="fill:#383838;fill-rule:evenodd;stroke:#383838;stroke-width:1pt;marker-start:none"/>
    </marker>
    <marker refX="0" refY="0" orient="auto" id="Arrow1Mend-90" style="overflow:visible">
      <path d="M 0,0 5,-5 -12.5,0 5,5 0,0 z" transform="matrix(-0.4,0,0,-0.4,-4,0)" id="path4415-1" style="fill:#383838;fill-rule:evenodd;stroke:#383838;stroke-width:1pt;marker-start:none"/>
    </marker>
  </defs>
  <metadata id="metadata_5.1">
  <!--
    <rdf:RDF>
      <cc:Work rdf:about="">
        <dc:format>image/svg+xml</dc:format>
        <dc:type rdf:resource="http://purl.org/dc/dcmitype/StillImage"></dc:type>
        <dc:title></dc:title>
        <cc:license rdf:resource="http://creativecommons.org/licenses/by-sa/3.0/"></cc:license>
        <dc:description>Based on the diagram in Abelson, Sussman &amp; Sussman's "Structure and Interpretation of Computer Programs", 2nd ed.</dc:description>
        <dc:source>http://mitpress.mit.edu/sicp/full-text/book/book-Z-H-31.html#%_fig_5.1</dc:source>
        <dc:creator>
          <cc:Agent>
            <dc:title>Andres Raba</dc:title>
          </cc:Agent>
        </dc:creator>
        <dc:date>2012-11-17</dc:date>
        <dc:subject>
          <rdf:Bag>
            <rdf:li>gcd</rdf:li>
            <rdf:li>machine</rdf:li>
            <rdf:li>data</rdf:li>
            <rdf:li>path</rdf:li>
            <rdf:li>register</rdf:li>
          </rdf:Bag>
        </dc:subject>
      </cc:Work>
      <cc:License rdf:about="http://creativecommons.org/licenses/by-sa/3.0/">
        <cc:permits rdf:resource="http://creativecommons.org/ns#Reproduction"></cc:permits>
        <cc:permits rdf:resource="http://creativecommons.org/ns#Distribution"></cc:permits>
        <cc:requires rdf:resource="http://creativecommons.org/ns#Notice"></cc:requires>
        <cc:requires rdf:resource="http://creativecommons.org/ns#Attribution"></cc:requires>
        <cc:permits rdf:resource="http://creativecommons.org/ns#DerivativeWorks"></cc:permits>
        <cc:requires rdf:resource="http://creativecommons.org/ns#ShareAlike"></cc:requires>
      </cc:License>
    </rdf:RDF>
  -->
</metadata>
  <g transform="translate(-106.71875,-68.698303)" id="layer2" style="display:inline">
    <path d="M 261.94687,106.59686 275.44621,93.097511" id="path4116" style="fill:none;stroke:#383838;stroke-width:1.01467681;stroke-linecap:round;stroke-linejoin:round;stroke-miterlimit:4;stroke-opacity:1;stroke-dasharray:none"/>
    <path d="M 275.44621,106.59686 261.94687,93.097511" id="path4118" style="fill:none;stroke:#383838;stroke-width:1.01467681;stroke-linecap:round;stroke-linejoin:round;stroke-miterlimit:4;stroke-opacity:1;stroke-dasharray:none"/>
    <path d="m 210,87.362183 a 5,5 0 1 1 -10,0 5,5 0 1 1 10,0 z" transform="matrix(-1.3499345,-1.3499345,1.3499345,-1.3499345,427.49988,494.51698)" id="path4086-0" style="fill:none;stroke:#383838;stroke-width:0.53149605;stroke-linecap:round;stroke-linejoin:round;stroke-miterlimit:4;stroke-opacity:1;stroke-dasharray:none;stroke-dashoffset:0"/>
    <path d="m 389.85627,175.18864 13.49935,13.49935" id="path4116-8" style="fill:none;stroke:#383838;stroke-width:1.01467681;stroke-linecap:round;stroke-linejoin:round;stroke-miterlimit:4;stroke-opacity:1;stroke-dasharray:none"/>
    <path d="m 389.85627,188.68799 13.49935,-13.49935" id="path4118-6" style="fill:none;stroke:#383838;stroke-width:1.01467681;stroke-linecap:round;stroke-linejoin:round;stroke-miterlimit:4;stroke-opacity:1;stroke-dasharray:none"/>
    <path d="m 210,87.362183 a 5,5 0 1 1 -10,0 5,5 0 1 1 10,0 z" transform="matrix(1.3499345,-1.3499345,1.3499345,1.3499345,1.936152,340.74166)" id="path4086-0-9" style="fill:none;stroke:#383838;stroke-width:0.53149605;stroke-linecap:round;stroke-linejoin:round;stroke-miterlimit:4;stroke-opacity:1;stroke-dasharray:none;stroke-dashoffset:0"/>
    <path d="M 261.09455,278.41547 274.5939,264.91612" id="path4116-0" style="fill:none;stroke:#383838;stroke-width:1.01467681;stroke-linecap:round;stroke-linejoin:round;stroke-miterlimit:4;stroke-opacity:1;stroke-dasharray:none"/>
    <path d="M 274.5939,278.41547 261.09455,264.91612" id="path4118-3" style="fill:none;stroke:#383838;stroke-width:1.01467681;stroke-linecap:round;stroke-linejoin:round;stroke-miterlimit:4;stroke-opacity:1;stroke-dasharray:none"/>
    <path d="m 210,87.362183 a 5,5 0 1 1 -10,0 5,5 0 1 1 10,0 z" transform="matrix(-1.3499345,-1.3499345,1.3499345,-1.3499345,426.64756,666.33559)" id="path4086-0-97" style="fill:none;stroke:#383838;stroke-width:0.53149605;stroke-linecap:round;stroke-linejoin:round;stroke-miterlimit:4;stroke-opacity:1;stroke-dasharray:none;stroke-dashoffset:0"/>
    <rect width="95.454781" height="57.272869" rx="6.7645121" ry="6.7645121" x="110.24159" y="71.21077" id="rect6788-7-2-7-4-3" style="fill:#e8e8e8;fill-opacity:1;stroke:#383838;stroke-width:1.01467681;stroke-linecap:round;stroke-linejoin:round;stroke-miterlimit:4;stroke-opacity:1;stroke-dasharray:none;stroke-dashoffset:0;display:inline"/>
    <rect width="95.454781" height="57.272869" rx="6.7645121" ry="6.7645121" x="329.7876" y="71.21077" id="rect6788-7-2-7-4-3-6" style="fill:#e8e8e8;fill-opacity:1;stroke:#383838;stroke-width:1.01467681;stroke-linecap:round;stroke-linejoin:round;stroke-miterlimit:4;stroke-opacity:1;stroke-dasharray:none;stroke-dashoffset:0;display:inline"/>
    <path d="m 511.15168,184.87013 0,-53.65308" id="path8845-6-0-7-0" style="fill:none;stroke:#383838;stroke-width:1.48819268;stroke-linecap:butt;stroke-linejoin:round;stroke-miterlimit:4;stroke-opacity:1;stroke-dasharray:none;marker-end:url(#Arrow1Mend)"/>
    <path d="m 259.15105,99.847195 -50.3183,0" id="path8845-6-0-7-0-4" style="fill:none;stroke:#383838;stroke-width:1.48819268;stroke-linecap:butt;stroke-linejoin:round;stroke-miterlimit:4;stroke-opacity:1;stroke-dasharray:none;marker-end:url(#Arrow1Mend)"/>
    <path d="m 278.24201,99.847195 51.54558,0" id="path4298" style="fill:none;stroke:#383838;stroke-width:1.48819268;stroke-linecap:butt;stroke-linejoin:round;stroke-miterlimit:4;stroke-opacity:1;stroke-dasharray:none"/>
    <path d="m 396.60594,172.39283 0,-41.05525" id="path8845-6-0-7-0-4-7" style="fill:none;stroke:#383838;stroke-width:1.48819268;stroke-linecap:butt;stroke-linejoin:round;stroke-miterlimit:4;stroke-opacity:1;stroke-dasharray:none;marker-end:url(#Arrow1Mend)"/>
    <path d="m 267.84421,243.02937 0,19.09096" id="path4298-8" style="fill:none;stroke:#383838;stroke-width:1.48819268;stroke-linecap:butt;stroke-linejoin:round;stroke-miterlimit:4;stroke-opacity:1;stroke-dasharray:none"/>
    <path d="m 267.84421,281.21128 0,25.78249" id="path8845-6-0-7-0-4-7-6" style="fill:none;stroke:#383838;stroke-width:1.48819268;stroke-linecap:butt;stroke-linejoin:round;stroke-miterlimit:4;stroke-opacity:1;stroke-dasharray:none;marker-end:url(#Arrow1Mend)"/>
    <path d="m 396.60594,191.48379 0,137.45488 c 0,5.72729 -3.81819,9.54548 -9.54548,9.54548 l -71.11866,8e-5" id="path8845-1-4-88" style="fill:none;stroke:#383838;stroke-width:1.48819268;stroke-linecap:butt;stroke-linejoin:round;stroke-miterlimit:4;stroke-opacity:1;stroke-dasharray:none;marker-end:none"/>
    <path d="m 157.96898,128.48363 0,19.09096 c 0,5.72728 3.81819,9.54548 9.54548,9.54548 l 57.27287,0 c 5.72729,0 9.54548,3.81819 9.54548,9.54547 l 0,16.11647" id="path8845-1-0" style="fill:none;stroke:#383838;stroke-width:1.48819268;stroke-linecap:butt;stroke-linejoin:round;stroke-miterlimit:4;stroke-opacity:1;stroke-dasharray:none;marker-end:url(#Arrow1Mend)"/>
    <path d="m 358.42403,128.48363 0,19.09096 c 0,5.72728 -3.8182,9.54548 -9.54548,9.54548 l -38.18192,0 c -5.72728,0 -9.54547,3.81819 -9.54547,9.54547 l 0,16.11647" id="path8845-1-0-3" style="fill:none;stroke:#383838;stroke-width:1.48819268;stroke-linecap:butt;stroke-linejoin:round;stroke-miterlimit:4;stroke-opacity:1;stroke-dasharray:none;marker-end:url(#Arrow1Mend)"/>
    <path d="m 425.24237,99.847195 54.41893,0" id="path8845-6-0-7-0-4-7-9" style="fill:none;stroke:#383838;stroke-width:1.48819268;stroke-linecap:butt;stroke-linejoin:round;stroke-miterlimit:4;stroke-opacity:1;stroke-dasharray:none;marker-end:url(#Arrow1Mend)"/>
    <path d="m 218.35625,185.7565 99.27298,0 c 5.72729,0 7.70858,5.47992 5.72729,9.54548 l -19.96283,40.96289 c -1.64174,3.36881 -4.85542,6.7645 -10.5827,6.7645 l -49.63649,0 c -5.72729,0 -8.94096,-3.39569 -10.58271,-6.7645 l -19.96282,-40.96289 c -1.9813,-4.06555 0,-9.54548 5.72728,-9.54548 z" id="rect6788-7-2-7-4-3-4-8" style="fill:none;stroke:#383838;stroke-width:1.01467681;stroke-linecap:round;stroke-linejoin:round;stroke-miterlimit:4;stroke-opacity:1;stroke-dasharray:none;stroke-dashoffset:0;display:inline"/>
    <rect width="95.454781" height="57.272869" rx="6.7645121" ry="6.7645121" x="220.11681" y="309.84772" id="rect6788-7-2-7-4-3-4" style="fill:#e8e8e8;fill-opacity:1;stroke:#383838;stroke-width:1.01467681;stroke-linecap:round;stroke-linejoin:round;stroke-miterlimit:4;stroke-opacity:1;stroke-dasharray:none;stroke-dashoffset:0;display:inline"/>
    <path d="m 488.24253,243.02937 45.8183,0 c 5.72728,0 8.74022,-3.77069 5.72728,-9.54548 l -22.90914,-43.9092 c -2.99387,-5.72729 -8.41982,-5.66702 -11.45458,0 l -22.90915,43.9092 c -3.01293,5.77479 0,9.54548 5.72729,9.54548 z" id="rect6788-7-2-7-4-3-4-8-3" style="fill:none;stroke:#383838;stroke-width:1.01467681;stroke-linecap:round;stroke-linejoin:round;stroke-miterlimit:4;stroke-opacity:1;stroke-dasharray:none;stroke-dashoffset:0;display:inline"/>
    <path d="m 310,72.362183 a 15,15 0 1 1 -30,0 15,15 0 1 1 30,0 z" transform="matrix(1.9090957,0,0,1.9090957,-52.031541,-38.29913)" id="path4082" style="fill:none;stroke:#383838;stroke-width:0.53149605;stroke-linecap:round;stroke-linejoin:round;stroke-miterlimit:4;stroke-opacity:1;stroke-dasharray:none;stroke-dashoffset:0;display:inline"/>
  </g>
  <g transform="translate(-106.71875,-68.698303)" id="layer3" style="display:inline">
    <text x="157.96898" y="106.62141" id="text6689-7-1" xml:space="preserve" style="font-size:20px;font-style:normal;font-variant:normal;font-weight:normal;font-stretch:normal;text-align:center;line-height:125%;letter-spacing:0px;word-spacing:0px;text-anchor:middle;fill:#383838;fill-opacity:1;stroke:none;font-family:Inconsolata LGC;-inkscape-font-specification:Sans"><tspan x="157.96898" y="106.62141" id="tspan6691-7-5">a</tspan></text>
    <text x="377.51498" y="106.62141" id="text6689-7-1-5" xml:space="preserve" style="font-size:20px;font-style:normal;font-variant:normal;font-weight:normal;font-stretch:normal;text-align:center;line-height:125%;letter-spacing:0px;word-spacing:0px;text-anchor:middle;fill:#383838;fill-opacity:1;stroke:none;font-family:Inconsolata LGC;-inkscape-font-specification:Sans"><tspan x="377.51498" y="106.62141" id="tspan6691-7-5-7">b</tspan></text>
    <text x="267.84421" y="345.94019" id="text6689-7-1-3" xml:space="preserve" style="font-size:20px;font-style:normal;font-variant:normal;font-weight:normal;font-stretch:normal;text-align:center;line-height:125%;letter-spacing:0px;word-spacing:0px;text-anchor:middle;fill:#383838;fill-opacity:1;stroke:none;font-family:Inconsolata LGC;-inkscape-font-specification:Sans"><tspan x="267.84421" y="345.94019" id="tspan6691-7-5-6">t</tspan></text>
    <text x="267.99274" y="220.48529" id="text6689-7-1-3-1" xml:space="preserve" style="font-size:20px;font-style:normal;font-variant:normal;font-weight:normal;font-stretch:normal;text-align:center;line-height:125%;letter-spacing:0px;word-spacing:0px;text-anchor:middle;fill:#383838;fill-opacity:1;stroke:none;font-family:Inconsolata LGC;-inkscape-font-specification:Sans"><tspan x="267.99274" y="220.48529" id="tspan6691-7-5-6-0">rem</tspan></text>
    <text x="268.69653" y="132.30182" id="text4630" xml:space="preserve" style="font-size:20px;font-style:normal;font-variant:normal;font-weight:normal;font-stretch:normal;text-align:center;line-height:125%;letter-spacing:0px;word-spacing:0px;text-anchor:middle;fill:#383838;fill-opacity:1;stroke:none;font-family:Inconsolata LGC;-inkscape-font-specification:Inconsolata LGC"><tspan x="268.69653" y="132.30182" dx="0 3.8181913 3.8181913" id="tspan4632">a←b</tspan></text>
    <text x="288.63971" y="277.3931" id="text4634" xml:space="preserve" style="font-size:20px;font-style:normal;font-variant:normal;font-weight:normal;font-stretch:normal;text-align:start;line-height:125%;letter-spacing:0px;word-spacing:0px;text-anchor:start;fill:#383838;fill-opacity:1;stroke:none;font-family:Inconsolata LGC;-inkscape-font-specification:Inconsolata LGC"><tspan x="288.63971" y="277.3931" dx="0 3.8181913 3.8181913" id="tspan4636">t←r</tspan></text>
    <text x="417.60599" y="187.6656" id="text4638" xml:space="preserve" style="font-size:20px;font-style:normal;font-variant:normal;font-weight:normal;font-stretch:normal;text-align:start;line-height:125%;letter-spacing:0px;word-spacing:0px;text-anchor:start;fill:#383838;fill-opacity:1;stroke:none;font-family:Inconsolata LGC;-inkscape-font-specification:Inconsolata LGC"><tspan x="417.60599" y="187.6656" dx="0 3.8181913 3.8181913" id="tspan4640">b←t</tspan></text>
    <text x="511.15167" y="229.66571" id="text4051" xml:space="preserve" style="font-size:20px;font-style:normal;font-variant:normal;font-weight:normal;font-stretch:normal;text-align:center;line-height:125%;letter-spacing:0px;word-spacing:0px;text-anchor:middle;fill:#383838;fill-opacity:1;stroke:none;display:inline;font-family:Inconsolata LGC;-inkscape-font-specification:Inconsolata LGC"><tspan x="511.15167" y="229.66571" id="tspan4053">0</tspan></text>
    <text x="511.15167" y="106.66537" id="text4171" xml:space="preserve" style="font-size:20px;font-style:normal;font-variant:normal;font-weight:normal;font-stretch:normal;text-align:center;line-height:125%;letter-spacing:0px;word-spacing:0px;text-anchor:middle;fill:#383838;fill-opacity:1;stroke:none;display:inline;font-family:Inconsolata LGC;-inkscape-font-specification:Inconsolata LGC"><tspan x="511.15167" y="106.66537" id="tspan4173">=</tspan></text>
  </g>
</svg>
