<?xml version="1.0" encoding="UTF-8" standalone="no"?>
<!-- Created with Inkscape (http://www.inkscape.org/) -->
<?xml-stylesheet href="../../css/fonts/fonts.css" type="text/css"?>
<svg xmlns:dc="http://purl.org/dc/elements/1.1/" xmlns:cc="http://creativecommons.org/ns#" xmlns:rdf="http://www.w3.org/1999/02/22-rdf-syntax-ns#" xmlns:svg="http://www.w3.org/2000/svg" xmlns="http://www.w3.org/2000/svg" xmlns:sodipodi="http://sodipodi.sourceforge.net/DTD/sodipodi-0.dtd" xmlns:inkscape="http://www.inkscape.org/namespaces/inkscape" version="1.1" preserveAspectRatio="xMinYMin meet" viewBox="0 0 766 847" id="svg2" width="100%" height="100%">
  
  <defs id="defs4">
    <marker refX="0" refY="0" orient="auto" id="Arrow1Lstart" style="overflow:visible">
      <path d="M 0,0 5,-5 -12.5,0 5,5 0,0 z" transform="matrix(0.8,0,0,0.8,10,0)" id="path5443" style="fill:#383838;fill-rule:evenodd;stroke:#383838;stroke-width:1pt;marker-start:none"/>
    </marker>
    <marker refX="0" refY="0" orient="auto" id="Arrow1Mend" style="overflow:visible">
      <path d="M 0,0 5,-5 -12.5,0 5,5 0,0 z" transform="matrix(-0.4,0,0,-0.4,-4,0)" id="path4415" style="fill:#383838;fill-rule:evenodd;stroke:#383838;stroke-width:1pt;marker-start:none"/>
    </marker>
    <marker refX="0" refY="0" orient="auto" id="Arrow1Mend-1" style="overflow:visible">
      <path d="M 0,0 5,-5 -12.5,0 5,5 0,0 z" transform="matrix(-0.4,0,0,-0.4,-4,0)" id="path4415-7" style="fill:#383838;fill-rule:evenodd;stroke:#383838;stroke-width:1pt;marker-start:none"/>
    </marker>
    <marker refX="0" refY="0" orient="auto" id="Arrow1Mend-3" style="overflow:visible">
      <path d="M 0,0 5,-5 -12.5,0 5,5 0,0 z" transform="matrix(-0.4,0,0,-0.4,-4,0)" id="path4415-6" style="fill:#383838;fill-rule:evenodd;stroke:#383838;stroke-width:1pt;marker-start:none"/>
    </marker>
    <marker refX="0" refY="0" orient="auto" id="Arrow1Mend-6" style="overflow:visible">
      <path d="M 0,0 5,-5 -12.5,0 5,5 0,0 z" transform="matrix(-0.4,0,0,-0.4,-4,0)" id="path4415-4" style="fill:#383838;fill-rule:evenodd;stroke:#383838;stroke-width:1pt;marker-start:none"/>
    </marker>
    <marker refX="0" refY="0" orient="auto" id="Arrow1Mend-2" style="overflow:visible">
      <path d="M 0,0 5,-5 -12.5,0 5,5 0,0 z" transform="matrix(-0.4,0,0,-0.4,-4,0)" id="path4415-2" style="fill:#383838;fill-rule:evenodd;stroke:#383838;stroke-width:1pt;marker-start:none"/>
    </marker>
    <marker refX="0" refY="0" orient="auto" id="Arrow1Mend-9" style="overflow:visible">
      <path d="M 0,0 5,-5 -12.5,0 5,5 0,0 z" transform="matrix(-0.4,0,0,-0.4,-4,0)" id="path4415-70" style="fill:#383838;fill-rule:evenodd;stroke:#383838;stroke-width:1pt;marker-start:none"/>
    </marker>
    <marker refX="0" refY="0" orient="auto" id="Arrow1Mend-99" style="overflow:visible">
      <path d="M 0,0 5,-5 -12.5,0 5,5 0,0 z" transform="matrix(-0.4,0,0,-0.4,-4,0)" id="path4415-0" style="fill:#383838;fill-rule:evenodd;stroke:#383838;stroke-width:1pt;marker-start:none"/>
    </marker>
    <marker refX="0" refY="0" orient="auto" id="Arrow1Mend-5" style="overflow:visible">
      <path d="M 0,0 5,-5 -12.5,0 5,5 0,0 z" transform="matrix(-0.4,0,0,-0.4,-4,0)" id="path4415-8" style="fill:#383838;fill-rule:evenodd;stroke:#383838;stroke-width:1pt;marker-start:none"/>
    </marker>
    <marker refX="0" refY="0" orient="auto" id="Arrow1Mend-29" style="overflow:visible">
      <path d="M 0,0 5,-5 -12.5,0 5,5 0,0 z" transform="matrix(-0.4,0,0,-0.4,-4,0)" id="path4415-29" style="fill:#383838;fill-rule:evenodd;stroke:#383838;stroke-width:1pt;marker-start:none"/>
    </marker>
    <marker refX="0" refY="0" orient="auto" id="Arrow1Mend-19" style="overflow:visible">
      <path d="M 0,0 5,-5 -12.5,0 5,5 0,0 z" transform="matrix(-0.4,0,0,-0.4,-4,0)" id="path4415-22" style="fill:#383838;fill-rule:evenodd;stroke:#383838;stroke-width:1pt;marker-start:none"/>
    </marker>
    <marker refX="0" refY="0" orient="auto" id="Arrow1Mend-8" style="overflow:visible">
      <path d="M 0,0 5,-5 -12.5,0 5,5 0,0 z" transform="matrix(-0.4,0,0,-0.4,-4,0)" id="path4415-43" style="fill:#383838;fill-rule:evenodd;stroke:#383838;stroke-width:1pt;marker-start:none"/>
    </marker>
    <marker refX="0" refY="0" orient="auto" id="Arrow1Mend-4" style="overflow:visible">
      <path d="M 0,0 5,-5 -12.5,0 5,5 0,0 z" transform="matrix(-0.4,0,0,-0.4,-4,0)" id="path4415-3" style="fill:#383838;fill-rule:evenodd;stroke:#383838;stroke-width:1pt;marker-start:none"/>
    </marker>
    <marker refX="0" refY="0" orient="auto" id="Arrow1Mend-38" style="overflow:visible">
      <path d="M 0,0 5,-5 -12.5,0 5,5 0,0 z" transform="matrix(-0.4,0,0,-0.4,-4,0)" id="path4415-5" style="fill:#383838;fill-rule:evenodd;stroke:#383838;stroke-width:1pt;marker-start:none"/>
    </marker>
    <marker refX="0" refY="0" orient="auto" id="Arrow1Mend-52" style="overflow:visible">
      <path d="M 0,0 5,-5 -12.5,0 5,5 0,0 z" transform="matrix(-0.4,0,0,-0.4,-4,0)" id="path4415-57" style="fill:#383838;fill-rule:evenodd;stroke:#383838;stroke-width:1pt;marker-start:none"/>
    </marker>
    <marker refX="0" refY="0" orient="auto" id="Arrow1Mend-28" style="overflow:visible">
      <path d="M 0,0 5,-5 -12.5,0 5,5 0,0 z" transform="matrix(-0.4,0,0,-0.4,-4,0)" id="path4415-20" style="fill:#383838;fill-rule:evenodd;stroke:#383838;stroke-width:1pt;marker-start:none"/>
    </marker>
    <marker refX="0" refY="0" orient="auto" id="Arrow1Mend-523" style="overflow:visible">
      <path d="M 0,0 5,-5 -12.5,0 5,5 0,0 z" transform="matrix(-0.4,0,0,-0.4,-4,0)" id="path4415-07" style="fill:#383838;fill-rule:evenodd;stroke:#383838;stroke-width:1pt;marker-start:none"/>
    </marker>
    <marker refX="0" refY="0" orient="auto" id="Arrow1Mend-31" style="overflow:visible">
      <path d="M 0,0 5,-5 -12.5,0 5,5 0,0 z" transform="matrix(-0.4,0,0,-0.4,-4,0)" id="path4415-35" style="fill:#383838;fill-rule:evenodd;stroke:#383838;stroke-width:1pt;marker-start:none"/>
    </marker>
    <marker refX="0" refY="0" orient="auto" id="Arrow1Mend-198" style="overflow:visible">
      <path d="M 0,0 5,-5 -12.5,0 5,5 0,0 z" transform="matrix(-0.4,0,0,-0.4,-4,0)" id="path4415-1" style="fill:#383838;fill-rule:evenodd;stroke:#383838;stroke-width:1pt;marker-start:none"/>
    </marker>
    <marker refX="0" refY="0" orient="auto" id="Arrow1Mend-35" style="overflow:visible">
      <path d="M 0,0 5,-5 -12.5,0 5,5 0,0 z" transform="matrix(-0.4,0,0,-0.4,-4,0)" id="path4415-06" style="fill:#383838;fill-rule:evenodd;stroke:#383838;stroke-width:1pt;marker-start:none"/>
    </marker>
  </defs>
  <metadata id="metadata_5.11">
  <!--
    <rdf:RDF>
      <cc:Work rdf:about="">
        <dc:format>image/svg+xml</dc:format>
        <dc:type rdf:resource="http://purl.org/dc/dcmitype/StillImage"></dc:type>
        <dc:title></dc:title>
        <cc:license rdf:resource="http://creativecommons.org/licenses/by-sa/3.0/"></cc:license>
        <dc:description>Based on the diagram in Abelson, Sussman &amp; Sussman's "Structure and Interpretation of Computer Programs", 2nd ed.</dc:description>
        <dc:source>http://mitpress.mit.edu/sicp/full-text/book/book-Z-H-31.html#%_fig_5.11</dc:source>
        <dc:creator>
          <cc:Agent>
            <dc:title>Andres Raba</dc:title>
          </cc:Agent>
        </dc:creator>
        <dc:date>2012-11-17</dc:date>
        <dc:subject>
          <rdf:Bag>
            <rdf:li>recursive</rdf:li>
            <rdf:li>factorial</rdf:li>
            <rdf:li>machine</rdf:li>
          </rdf:Bag>
        </dc:subject>
      </cc:Work>
      <cc:License rdf:about="http://creativecommons.org/licenses/by-sa/3.0/">
        <cc:permits rdf:resource="http://creativecommons.org/ns#Reproduction"></cc:permits>
        <cc:permits rdf:resource="http://creativecommons.org/ns#Distribution"></cc:permits>
        <cc:requires rdf:resource="http://creativecommons.org/ns#Notice"></cc:requires>
        <cc:requires rdf:resource="http://creativecommons.org/ns#Attribution"></cc:requires>
        <cc:permits rdf:resource="http://creativecommons.org/ns#DerivativeWorks"></cc:permits>
        <cc:requires rdf:resource="http://creativecommons.org/ns#ShareAlike"></cc:requires>
      </cc:License>
    </rdf:RDF>
  -->
</metadata>
  <g id="g3870">
    <g style="display:inline" id="layer2" transform="translate(-7.7046566,-39.197702)">
      <path style="fill:none;stroke:#383838;stroke-width:1.01467347;stroke-linecap:round;stroke-linejoin:round;stroke-miterlimit:4;stroke-opacity:1;stroke-dasharray:none;stroke-dashoffset:0;display:inline" id="rect6788-7-2-7-4-3-4-8-3" d="m 178.696,445.61891 45.81814,0 c 5.72727,0 8.7402,-3.77068 5.72727,-9.54544 l -22.90907,-43.90906 c -2.99385,-5.72727 -8.41979,-5.667 -11.45454,0 l -22.90907,43.90906 c -3.01292,5.77476 0,9.54544 5.72727,9.54544 z"/>
      <path style="fill:none;stroke:#383838;stroke-width:1.01467347;stroke-linecap:round;stroke-linejoin:round;stroke-miterlimit:4;stroke-opacity:1;stroke-dasharray:none;stroke-dashoffset:0;display:inline" id="rect6788-7-2-7-4-3-4-8-3-7" d="m 445.9685,445.61892 45.81814,0 c 5.72727,0 8.74019,-3.77068 5.72727,-9.54545 l -22.90907,-43.90905 c -2.99386,-5.72727 -8.41979,-5.667 -11.45454,0 l -22.90907,43.90905 c -3.01292,5.77477 0,9.54545 5.72727,9.54545 z"/>
      <text style="font-size:20px;font-style:normal;font-variant:normal;font-weight:normal;font-stretch:normal;text-align:center;line-height:125%;letter-spacing:0px;word-spacing:0px;text-anchor:middle;fill:#383838;fill-opacity:1;stroke:none;font-family:Inconsolata LGC;-inkscape-font-specification:Inconsolata LGC" xml:space="preserve" id="text4051-6" y="432.25531" x="468.87756"><tspan id="tspan4053-5" y="432.25531" x="468.87756"/></text>
      <path style="fill:none;stroke:#383838;stroke-width:1.01467347;stroke-linecap:round;stroke-linejoin:round;stroke-miterlimit:4;stroke-opacity:1;stroke-dasharray:none;stroke-dashoffset:0;display:inline" id="rect6788-7-2-7-4-3-4-8-3-4" d="m 522.33207,445.61892 45.81815,0 c 5.72727,0 8.74019,-3.77068 5.72727,-9.54545 l -22.90908,-43.90905 c -2.99385,-5.72727 -8.41979,-5.667 -11.45453,0 l -22.90907,43.90905 c -3.01293,5.77477 0,9.54545 5.72726,9.54545 z"/>
      <text style="font-size:20px;font-style:normal;font-variant:normal;font-weight:normal;font-stretch:normal;text-align:center;line-height:125%;letter-spacing:0px;word-spacing:0px;text-anchor:middle;fill:#383838;fill-opacity:1;stroke:none;font-family:Inconsolata LGC;-inkscape-font-specification:Inconsolata LGC" xml:space="preserve" id="text4051-9" y="432.25531" x="545.24115"><tspan id="tspan4053-4" y="432.25531" x="545.24115"/></text>
      <rect style="fill:#e8e8e8;fill-opacity:1;stroke:#383838;stroke-width:1.01467347;stroke-linecap:round;stroke-linejoin:round;stroke-miterlimit:4;stroke-opacity:1;stroke-dasharray:none;stroke-dashoffset:0;display:inline" id="rect6788-7-2-7-4-3-31" y="273.80087" x="440.24124" ry="6.7644897" rx="6.7644897" height="57.272678" width="133.63625"/>
      <path style="fill:none;stroke:#383838;stroke-width:1.01467347;stroke-linecap:round;stroke-linejoin:round;stroke-miterlimit:4;stroke-opacity:1;stroke-dasharray:none;stroke-dashoffset:0;display:inline" id="rect6788-7-2-7-4-3-4-8-4" d="m 75.605179,273.80087 99.272641,0 c 5.72727,0 7.70856,5.47991 5.72727,9.54545 l -19.96275,40.96276 c -1.64174,3.3688 -4.85541,6.76447 -10.58268,6.76447 l -49.63632,0 c -5.72727,0 -8.94093,-3.39567 -10.58267,-6.76447 L 69.877911,283.34632 c -1.981291,-4.06554 0,-9.54545 5.727268,-9.54545 z"/>
      <path style="fill:none;stroke:#383838;stroke-width:1.48818767;stroke-linecap:butt;stroke-linejoin:round;stroke-miterlimit:4;stroke-opacity:1;stroke-dasharray:none;marker-end:url(#Arrow1Mend)" id="path8845-6-0-7-0-4-6" d="m 87.05971,197.4373 0,73.73858"/>
      <path style="fill:none;stroke:#383838;stroke-width:1.01467347;stroke-linecap:round;stroke-linejoin:round;stroke-miterlimit:4;stroke-opacity:1;stroke-dasharray:none" id="path4116-8-9" d="m 42.128282,229.00566 13.4993,13.4993"/>
      <path style="fill:none;stroke:#383838;stroke-width:1.01467347;stroke-linecap:round;stroke-linejoin:round;stroke-miterlimit:4;stroke-opacity:1;stroke-dasharray:none" id="path4118-6-3" d="m 42.128282,242.50496 13.4993,-13.4993"/>
      <path style="fill:none;stroke:#383838;stroke-width:0.53149605;stroke-linecap:round;stroke-linejoin:round;stroke-miterlimit:4;stroke-opacity:1;stroke-dasharray:none;stroke-dashoffset:0" id="path4086-0-9-2" transform="matrix(1.34993,-1.34993,1.34993,1.34993,-345.79055,394.55812)" d="m 210,87.362183 a 5,5 0 1 1 -10,0 5,5 0 1 1 10,0 z"/>
      <path style="fill:none;stroke:#383838;stroke-width:1.48818767;stroke-linecap:butt;stroke-linejoin:round;stroke-miterlimit:4;stroke-opacity:1;stroke-dasharray:none;marker-end:url(#Arrow1Mend);display:inline" id="path8845-6-0-7-0-4-7-8" d="m 48.877928,225.73276 0,-25.67046"/>
      <path style="fill:none;stroke:#383838;stroke-width:1.48818767;stroke-linecap:butt;stroke-linejoin:round;stroke-miterlimit:4;stroke-opacity:1;stroke-dasharray:none;marker-end:none;display:inline" id="path8845-1-4-88-7" d="m 48.877928,245.67592 0,104.48853 c 0,5.72727 3.818179,9.54544 9.545447,9.54544 l 57.272675,0 c 5.72727,-5e-5 9.54545,-3.81817 9.54545,-9.54544 l 0,-19.0909"/>
      <path style="fill:none;stroke:#383838;stroke-width:1.48818767;stroke-linecap:butt;stroke-linejoin:round;stroke-miterlimit:4;stroke-opacity:1;stroke-dasharray:none;marker-end:url(#Arrow1Mend)" id="path8845-1-4-88-8" d="m 316.15043,226.07364 -143.1817,0 c -5.72726,0 -9.54544,3.81818 -9.54544,9.54545 l -8e-5,35.55679"/>
      <path style="fill:none;stroke:#383838;stroke-width:1.01467347;stroke-linecap:round;stroke-linejoin:round;stroke-miterlimit:4;stroke-opacity:1;stroke-dasharray:none;stroke-dashoffset:0;display:inline" id="rect6788-7-2-7-4-3-4-8-4-4" d="m 228.33232,273.80087 99.27265,0 c 5.72727,0 7.70856,5.47991 5.72727,9.54545 l -19.96276,40.96276 c -1.64174,3.3688 -4.85541,6.76447 -10.58267,6.76447 l -49.63633,0 c -5.72726,0 -8.94093,-3.39567 -10.58267,-6.76447 l -19.96275,-40.96276 c -1.9813,-4.06554 0,-9.54545 5.72726,-9.54545 z"/>
      <path style="fill:none;stroke:#383838;stroke-width:1.48818767;stroke-linecap:butt;stroke-linejoin:round;stroke-miterlimit:4;stroke-opacity:1;stroke-dasharray:none;marker-end:url(#Arrow1Mend)" id="path8845-1-4-88-8-9" d="m 201.60507,245.16454 28.63634,0 c 5.72727,0 9.54545,3.81817 9.54545,9.54544 l 8e-5,16.12499"/>
      <path style="fill:none;stroke:#383838;stroke-width:1.48818767;stroke-linecap:butt;stroke-linejoin:round;stroke-miterlimit:4;stroke-opacity:1;stroke-dasharray:none" id="path4298-4" d="m 201.60507,387.38199 0,-314.03549"/>
      <path style="fill:none;stroke:#383838;stroke-width:1.48818767;stroke-linecap:butt;stroke-linejoin:round;stroke-miterlimit:4;stroke-opacity:1;stroke-dasharray:none;marker-end:url(#Arrow1Mend)" id="path8845-6-0-7-0-4-6-6" d="m 316.15043,197.4373 0,73.39767"/>
      <path style="fill:none;stroke:#383838;stroke-width:1.01467347;stroke-linecap:round;stroke-linejoin:round;stroke-miterlimit:4;stroke-opacity:1;stroke-dasharray:none" id="path4116-8-9-3" d="m 361.08186,229.00606 -13.4993,13.4993"/>
      <path style="fill:none;stroke:#383838;stroke-width:1.01467347;stroke-linecap:round;stroke-linejoin:round;stroke-miterlimit:4;stroke-opacity:1;stroke-dasharray:none" id="path4118-6-3-5" d="m 361.08186,242.50536 -13.4993,-13.4993"/>
      <path style="fill:none;stroke:#383838;stroke-width:0.53149605;stroke-linecap:round;stroke-linejoin:round;stroke-miterlimit:4;stroke-opacity:1;stroke-dasharray:none;stroke-dashoffset:0" id="path4086-0-9-2-3" transform="matrix(-1.34993,-1.34993,-1.34993,1.34993,749.00069,394.55852)" d="m 210,87.362183 a 5,5 0 1 1 -10,0 5,5 0 1 1 10,0 z"/>
      <path style="fill:none;stroke:#383838;stroke-width:1.48818767;stroke-linecap:butt;stroke-linejoin:round;stroke-miterlimit:4;stroke-opacity:1;stroke-dasharray:none;marker-end:url(#Arrow1Mend);display:inline" id="path8845-6-0-7-0-4-7-8-8" d="m 354.33222,225.73274 0,-25.49998"/>
      <path style="fill:none;stroke:#383838;stroke-width:1.48818767;stroke-linecap:butt;stroke-linejoin:round;stroke-miterlimit:4;stroke-opacity:1;stroke-dasharray:none;marker-end:none;display:inline" id="path8845-1-4-88-7-9" d="m 354.33222,245.67592 0,104.48853 c 0,5.72727 -3.81818,9.54544 -9.54545,9.54544 l -57.27268,0 c -5.72727,-5e-5 -9.54544,-3.81817 -9.54544,-9.54544 l 0,-19.0909"/>
      <path style="fill:none;stroke:#383838;stroke-width:1.01467347;stroke-linecap:round;stroke-linejoin:round;stroke-miterlimit:4;stroke-opacity:1;stroke-dasharray:none" id="path4116-9" d="M 156.67364,175.55061 170.17295,162.0513"/>
      <path style="fill:none;stroke:#383838;stroke-width:1.01467347;stroke-linecap:round;stroke-linejoin:round;stroke-miterlimit:4;stroke-opacity:1;stroke-dasharray:none" id="path4118-60" d="M 170.17295,175.55061 156.67364,162.0513"/>
      <path style="fill:none;stroke:#383838;stroke-width:0.53149605;stroke-linecap:round;stroke-linejoin:round;stroke-miterlimit:4;stroke-opacity:1;stroke-dasharray:none;stroke-dashoffset:0" id="path4086-0-8" transform="matrix(-1.34993,-1.34993,1.34993,-1.34993,322.22611,563.46944)" d="m 210,87.362183 a 5,5 0 1 1 -10,0 5,5 0 1 1 10,0 z"/>
      <path style="fill:none;stroke:#383838;stroke-width:1.48818767;stroke-linecap:butt;stroke-linejoin:round;stroke-miterlimit:4;stroke-opacity:1;stroke-dasharray:none;marker-end:url(#Arrow1Mend)" id="path8845-6-0-7-0-4-5" d="m 153.63678,168.80098 -35.14527,0"/>
      <path style="fill:none;stroke:#383838;stroke-width:1.48818767;stroke-linecap:butt;stroke-linejoin:round;stroke-miterlimit:4;stroke-opacity:1;stroke-dasharray:none" id="path4298-0" d="m 173.20979,168.80098 114.3043,0"/>
      <path style="fill:none;stroke:#383838;stroke-width:1.01467347;stroke-linecap:round;stroke-linejoin:round;stroke-miterlimit:4;stroke-opacity:1;stroke-dasharray:none" id="path4116-8-5" d="m 61.219175,108.86851 13.4993,-13.4993"/>
      <path style="fill:none;stroke:#383838;stroke-width:1.01467347;stroke-linecap:round;stroke-linejoin:round;stroke-miterlimit:4;stroke-opacity:1;stroke-dasharray:none" id="path4118-6-1" d="m 61.219175,95.36921 13.4993,13.4993"/>
      <path style="fill:none;stroke:#383838;stroke-width:0.53149605;stroke-linecap:round;stroke-linejoin:round;stroke-miterlimit:4;stroke-opacity:1;stroke-dasharray:none;stroke-dashoffset:0" id="path4086-0-9-7" transform="matrix(1.34993,1.34993,1.34993,-1.34993,-326.69965,-56.68396)" d="m 210,87.362183 a 5,5 0 1 1 -10,0 5,5 0 1 1 10,0 z"/>
      <path style="fill:none;stroke:#383838;stroke-width:1.48818767;stroke-linecap:butt;stroke-linejoin:round;stroke-miterlimit:4;stroke-opacity:1;stroke-dasharray:none;marker-end:url(#Arrow1Mend);display:inline" id="path8845-6-0-7-0-4-7-7" d="m 67.968823,111.8692 0,25.49998"/>
      <path style="fill:none;stroke:#383838;stroke-width:1.48818767;stroke-linecap:butt;stroke-linejoin:round;stroke-miterlimit:4;stroke-opacity:1;stroke-dasharray:none;marker-start:none;marker-end:url(#Arrow1Mend-35);display:inline" id="path8845-1-4-88-0" d="m 67.968823,92.09649 0,-9.20454 c 0,-5.72727 3.818179,-9.54545 9.545445,-9.54545 l 226.295252,0"/>
      <path style="fill:none;stroke:#383838;stroke-width:1.48818767;stroke-linecap:butt;stroke-linejoin:round;stroke-miterlimit:4;stroke-opacity:1;stroke-dasharray:none;marker-end:url(#Arrow1Mend);display:inline" id="path8845-6-0-7-0-4-7-8-88" d="m 335.24132,140.16463 0,-35.55679"/>
      <path style="fill:none;stroke:#383838;stroke-width:1.01467347;stroke-linecap:round;stroke-linejoin:round;stroke-miterlimit:4;stroke-opacity:1;stroke-dasharray:none" id="path4116-5" d="m 414.3663,190.10012 13.4993,-13.49931"/>
      <path style="fill:none;stroke:#383838;stroke-width:1.01467347;stroke-linecap:round;stroke-linejoin:round;stroke-miterlimit:4;stroke-opacity:1;stroke-dasharray:none" id="path4118-65" d="M 427.8656,190.10012 414.3663,176.60081"/>
      <path style="fill:none;stroke:#383838;stroke-width:0.53149605;stroke-linecap:round;stroke-linejoin:round;stroke-miterlimit:4;stroke-opacity:1;stroke-dasharray:none;stroke-dashoffset:0" id="path4086-0-4" transform="matrix(-1.34993,-1.34993,1.34993,-1.34993,579.91876,578.01895)" d="m 210,87.362183 a 5,5 0 1 1 -10,0 5,5 0 1 1 10,0 z"/>
      <path style="fill:none;stroke:#383838;stroke-width:1.48818767;stroke-linecap:butt;stroke-linejoin:round;stroke-miterlimit:4;stroke-opacity:1;stroke-dasharray:none;marker-end:url(#Arrow1Mend)" id="path8845-6-0-7-0-4-9" d="m 411.26399,183.3505 -25.49997,0"/>
      <path style="fill:none;stroke:#383838;stroke-width:1.48818767;stroke-linecap:butt;stroke-linejoin:round;stroke-miterlimit:4;stroke-opacity:1;stroke-dasharray:none" id="path4298-1" d="m 431.0367,183.3505 28.29543,0"/>
      <path style="fill:none;stroke:#383838;stroke-width:1.01467347;stroke-linecap:round;stroke-linejoin:round;stroke-miterlimit:4;stroke-opacity:1;stroke-dasharray:none" id="path4116-5-7" d="M 427.93439,161.24211 414.43508,147.74282"/>
      <path style="fill:none;stroke:#383838;stroke-width:1.01467347;stroke-linecap:round;stroke-linejoin:round;stroke-miterlimit:4;stroke-opacity:1;stroke-dasharray:none" id="path4118-65-9" d="m 414.43508,161.24211 13.49931,-13.49929"/>
      <path style="fill:none;stroke:#383838;stroke-width:0.53149605;stroke-linecap:round;stroke-linejoin:round;stroke-miterlimit:4;stroke-opacity:1;stroke-dasharray:none;stroke-dashoffset:0" id="path4086-0-4-7" transform="matrix(1.34993,-1.34993,-1.34993,-1.34993,262.38192,549.16095)" d="m 210,87.362183 a 5,5 0 1 1 -10,0 5,5 0 1 1 10,0 z"/>
      <path style="fill:none;stroke:#383838;stroke-width:1.48818767;stroke-linecap:butt;stroke-linejoin:round;stroke-miterlimit:4;stroke-opacity:1;stroke-dasharray:none;marker-end:url(#Arrow1Mend)" id="path8845-6-0-7-0-4-9-6" d="m 430.69579,154.49249 25.87498,0"/>
      <path style="fill:none;stroke:#383838;stroke-width:1.48818767;stroke-linecap:butt;stroke-linejoin:round;stroke-miterlimit:4;stroke-opacity:1;stroke-dasharray:none" id="path4298-1-6" d="m 411.6049,154.49249 -28.63634,0"/>
      <path style="fill:none;stroke:#383838;stroke-width:1.01467347;stroke-linecap:round;stroke-linejoin:round;stroke-miterlimit:4;stroke-opacity:1;stroke-dasharray:none" id="path4116-5-7-6" d="m 532.89986,228.97122 -13.4993,13.4993"/>
      <path style="fill:none;stroke:#383838;stroke-width:1.01467347;stroke-linecap:round;stroke-linejoin:round;stroke-miterlimit:4;stroke-opacity:1;stroke-dasharray:none" id="path4118-65-9-8" d="m 532.89986,242.47052 -13.4993,-13.4993"/>
      <path style="fill:none;stroke:#383838;stroke-width:0.53149605;stroke-linecap:round;stroke-linejoin:round;stroke-miterlimit:4;stroke-opacity:1;stroke-dasharray:none;stroke-dashoffset:0" id="path4086-0-4-7-0" transform="matrix(-1.34993,-1.34993,-1.34993,1.34993,920.81869,394.52368)" d="m 210,87.362183 a 5,5 0 1 1 -10,0 5,5 0 1 1 10,0 z"/>
      <path style="fill:none;stroke:#383838;stroke-width:1.48818767;stroke-linecap:butt;stroke-linejoin:round;stroke-miterlimit:4;stroke-opacity:1;stroke-dasharray:none;marker-end:url(#Arrow1Mend)" id="path8845-6-0-7-0-4-9-6-5" d="m 526.15026,225.73276 0,-25.67046"/>
      <path style="fill:none;stroke:#383838;stroke-width:1.48818767;stroke-linecap:butt;stroke-linejoin:round;stroke-miterlimit:4;stroke-opacity:1;stroke-dasharray:none" id="path4298-1-6-2" d="m 526.15026,245.50546 0,28.29541"/>
      <path style="fill:none;stroke:#383838;stroke-width:1.01467347;stroke-linecap:round;stroke-linejoin:round;stroke-miterlimit:4;stroke-opacity:1;stroke-dasharray:none" id="path4116-5-7-6-0" d="m 494.71807,242.57358 -13.4993,-13.49931"/>
      <path style="fill:none;stroke:#383838;stroke-width:1.01467347;stroke-linecap:round;stroke-linejoin:round;stroke-miterlimit:4;stroke-opacity:1;stroke-dasharray:none" id="path4118-65-9-8-4" d="m 494.71807,229.07427 -13.4993,13.49931"/>
      <path style="fill:none;stroke:#383838;stroke-width:0.53149605;stroke-linecap:round;stroke-linejoin:round;stroke-miterlimit:4;stroke-opacity:1;stroke-dasharray:none;stroke-dashoffset:0" id="path4086-0-4-7-0-6" transform="matrix(-1.34993,1.34993,-1.34993,-1.34993,882.63691,77.02111)" d="m 210,87.362183 a 5,5 0 1 1 -10,0 5,5 0 1 1 10,0 z"/>
      <path style="fill:none;stroke:#383838;stroke-width:1.48818767;stroke-linecap:butt;stroke-linejoin:round;stroke-miterlimit:4;stroke-opacity:1;stroke-dasharray:none;marker-end:url(#Arrow1Mend)" id="path8845-6-0-7-0-4-9-6-5-0" d="m 487.96847,245.67588 0,25.5"/>
      <path style="fill:none;stroke:#383838;stroke-width:1.48818767;stroke-linecap:butt;stroke-linejoin:round;stroke-miterlimit:4;stroke-opacity:1;stroke-dasharray:none" id="path4298-1-6-2-6" d="m 487.96847,225.90318 0,-28.46588"/>
      <path style="fill:none;stroke:#383838;stroke-width:1.01467347;stroke-linecap:round;stroke-linejoin:round;stroke-miterlimit:4;stroke-opacity:1;stroke-dasharray:none" id="path4116-5-7-6-6" d="m 475.62718,357.8008 -13.4993,13.49931"/>
      <path style="fill:none;stroke:#383838;stroke-width:1.01467347;stroke-linecap:round;stroke-linejoin:round;stroke-miterlimit:4;stroke-opacity:1;stroke-dasharray:none" id="path4118-65-9-8-3" d="M 475.62718,371.30011 462.12788,357.8008"/>
      <path style="fill:none;stroke:#383838;stroke-width:0.53149605;stroke-linecap:round;stroke-linejoin:round;stroke-miterlimit:4;stroke-opacity:1;stroke-dasharray:none;stroke-dashoffset:0" id="path4086-0-4-7-0-65" transform="matrix(-1.34993,-1.34993,-1.34993,1.34993,863.54601,523.35327)" d="m 210,87.362183 a 5,5 0 1 1 -10,0 5,5 0 1 1 10,0 z"/>
      <path style="fill:none;stroke:#383838;stroke-width:1.48818767;stroke-linecap:butt;stroke-linejoin:round;stroke-miterlimit:4;stroke-opacity:1;stroke-dasharray:none;marker-end:url(#Arrow1Mend)" id="path8845-6-0-7-0-4-9-6-5-3" d="m 468.87758,354.69853 0,-20.82952"/>
      <path style="fill:none;stroke:#383838;stroke-width:1.48818767;stroke-linecap:butt;stroke-linejoin:round;stroke-miterlimit:4;stroke-opacity:1;stroke-dasharray:none" id="path4298-1-6-2-4" d="m 468.87758,374.2667 0,13.35637"/>
      <path style="fill:none;stroke:#383838;stroke-width:1.01467347;stroke-linecap:round;stroke-linejoin:round;stroke-miterlimit:4;stroke-opacity:1;stroke-dasharray:none" id="path4116-5-7-6-04" d="m 551.99075,357.8008 -13.4993,13.49931"/>
      <path style="fill:none;stroke:#383838;stroke-width:1.01467347;stroke-linecap:round;stroke-linejoin:round;stroke-miterlimit:4;stroke-opacity:1;stroke-dasharray:none" id="path4118-65-9-8-40" d="M 551.99075,371.30011 538.49145,357.8008"/>
      <path style="fill:none;stroke:#383838;stroke-width:0.53149605;stroke-linecap:round;stroke-linejoin:round;stroke-miterlimit:4;stroke-opacity:1;stroke-dasharray:none;stroke-dashoffset:0" id="path4086-0-4-7-0-3" transform="matrix(-1.34993,-1.34993,-1.34993,1.34993,939.90959,523.35327)" d="m 210,87.362183 a 5,5 0 1 1 -10,0 5,5 0 1 1 10,0 z"/>
      <path style="fill:none;stroke:#383838;stroke-width:1.48818767;stroke-linecap:butt;stroke-linejoin:round;stroke-miterlimit:4;stroke-opacity:1;stroke-dasharray:none;marker-end:url(#Arrow1Mend)" id="path8845-6-0-7-0-4-9-6-5-5" d="m 545.24115,354.69853 0,-20.82952"/>
      <path style="fill:none;stroke:#383838;stroke-width:1.48818767;stroke-linecap:butt;stroke-linejoin:round;stroke-miterlimit:4;stroke-opacity:1;stroke-dasharray:none" id="path4298-1-6-2-9" d="m 545.24115,374.2667 0,13.35637"/>
      <path style="fill:none;stroke:#383838;stroke-width:1.48818767;stroke-linecap:butt;stroke-linejoin:round;stroke-miterlimit:4;stroke-opacity:1;stroke-dasharray:none;marker-end:url(#Arrow1Mend)" id="path8845-6-0-7-0-4-3" d="m 573.87749,302.43721 24.81816,0"/>
      <path style="fill:#383838;fill-opacity:1;stroke:#383838;stroke-width:1.0629921;stroke-linecap:round;stroke-linejoin:round;stroke-miterlimit:4;stroke-opacity:1;stroke-dasharray:none;stroke-dashoffset:0;display:inline" id="path9674-69-6-1-6-9" transform="matrix(1.9090893,0,0,1.9090893,-248.9594,-171.70837)" d="m 237,128.36218 a 1,1 0 1 1 -2,0 1,1 0 1 1 2,0 z"/>
      <path style="fill:#383838;fill-opacity:1;stroke:#383838;stroke-width:1.0629921;stroke-linecap:round;stroke-linejoin:round;stroke-miterlimit:4;stroke-opacity:1;stroke-dasharray:none;stroke-dashoffset:0;display:inline" id="path9674-69-6-1-6-9-5" transform="matrix(1.9090893,0,0,1.9090893,-248.9594,0.10967)" d="m 237,128.36218 a 1,1 0 1 1 -2,0 1,1 0 1 1 2,0 z"/>
      <path style="fill:#383838;fill-opacity:1;stroke:#383838;stroke-width:1.0629921;stroke-linecap:round;stroke-linejoin:round;stroke-miterlimit:4;stroke-opacity:1;stroke-dasharray:none;stroke-dashoffset:0;display:inline" id="path9674-69-6-1-6-9-51" transform="matrix(1.9090893,0,0,1.9090893,-134.41404,-18.98122)" d="m 237,128.36218 a 1,1 0 1 1 -2,0 1,1 0 1 1 2,0 z"/>
    </g>
    <text x="360.90411" y="368.23944" id="text5280" xml:space="preserve" style="font-size:20px;font-style:normal;font-variant:normal;font-weight:normal;font-stretch:normal;text-align:start;line-height:125%;letter-spacing:0px;word-spacing:0px;text-anchor:start;fill:#383838;fill-opacity:1;stroke:none;font-family:Inconsolata LGC;-inkscape-font-specification:Inconsolata LGC"><tspan x="360.90411" y="368.23944" id="tspan5282">after-</tspan><tspan x="360.90411" y="394.48941" id="tspan5284">fact</tspan></text>
    <text x="585.26373" y="368.23944" id="text5286" xml:space="preserve" style="font-size:20px;font-style:normal;font-variant:normal;font-weight:normal;font-stretch:normal;text-align:start;line-height:125%;letter-spacing:0px;word-spacing:0px;text-anchor:start;fill:#383838;fill-opacity:1;stroke:none;font-family:Inconsolata LGC;-inkscape-font-specification:Inconsolata LGC"><tspan x="585.26373" y="368.23944" id="tspan5288">fact-</tspan><tspan x="585.26373" y="394.48941" id="tspan5290">done</tspan></text>
    <text x="12.536932" y="435.05756" id="text5356" xml:space="preserve" style="font-size:19.09089279px;font-style:normal;font-variant:normal;font-weight:normal;font-stretch:normal;text-align:start;line-height:129.99999523%;letter-spacing:0px;word-spacing:0px;text-anchor:start;fill:#383838;fill-opacity:1;stroke:none;font-family:Inconsolata LGC;-inkscape-font-specification:Inconsolata LGC"><tspan x="12.536932" y="435.05756" id="tspan5358" xml:space="preserve" style="font-size:17.18180466px;line-height:129.99999523%">(controller</tspan><tspan x="12.536932" y="457.39389" dx="0 0 0 0 0 0 0 0 0 0 0 0 0 0 0 0 0 0 0 0 0 0 0 0 0 0 0 0 0 0 0 0 0 0 0 0 0 0 0 0 0 0 0 0 0 0 -1.9090893 0 0 -1.9090893 0 0 0 0 0 -1.9090893 0 0 0 0 0 0 -1.9090893" dy="0 0 0 0 0 0 0 0 0 0 0 0 0 0 0 0 0 0 0 0 0 0 0 0 0 0 0 0 0 0 0 0 0 0 0 0 0 0 0 0 0 0 0 0 0 0 0 0 0 0 0 0 0 0 0 0 0 0 0 0 0 0 0" id="tspan3341" xml:space="preserve" style="font-size:17.18180466px;line-height:129.99999523%">   (assign continue (label fact-done))   ; set up final return address</tspan><tspan x="12.536932" y="479.73022" id="tspan5362" xml:space="preserve" style="font-size:17.18180466px;line-height:129.99999523%"> fact-loop</tspan><tspan x="12.536932" y="502.06659" id="tspan5364" xml:space="preserve" style="font-size:17.18180466px;line-height:129.99999523%">   (test (op =) (reg n) (const 1))</tspan><tspan x="12.536932" y="524.40295" id="tspan5366" xml:space="preserve" style="font-size:17.18180466px;line-height:129.99999523%">   (branch (label base-case))</tspan><tspan x="12.536932" y="546.73926" id="tspan5374" xml:space="preserve" style="font-size:17.18180466px;line-height:129.99999523%">   (save continue)                       ; Set up for the recursive call</tspan><tspan x="12.536932" y="569.07562" id="tspan5376" xml:space="preserve" style="font-size:17.18180466px;line-height:129.99999523%">   (save n)                              ; by saving n and continue.</tspan><tspan x="12.536932" y="591.41199" id="tspan5378" xml:space="preserve" style="font-size:17.18180466px;line-height:129.99999523%">   (assign n (op -) (reg n) (const 1))   ; Set up continue so that the</tspan><tspan x="12.536932" y="613.74829" id="tspan5380" xml:space="preserve" style="font-size:17.18180466px;line-height:129.99999523%">   (assign continue (label after-fact))  ; computation will continue</tspan><tspan x="12.536932" y="636.08466" id="tspan5382" xml:space="preserve" style="font-size:17.18180466px;line-height:129.99999523%">   (goto (label fact-loop))              ; at after-fact when the</tspan><tspan x="12.536932" y="658.42102" id="tspan5384" xml:space="preserve" style="font-size:17.18180466px;line-height:129.99999523%"> after-fact                              ; subroutine returns.</tspan><tspan x="12.536932" y="680.75732" id="tspan5386" xml:space="preserve" style="font-size:17.18180466px;line-height:129.99999523%">   (restore n)</tspan><tspan x="12.536932" y="703.09369" id="tspan5388" xml:space="preserve" style="font-size:17.18180466px;line-height:129.99999523%">   (restore continue)</tspan><tspan x="12.536932" y="725.43005" id="tspan3347" xml:space="preserve" style="font-size:17.18180466px;line-height:129.99999523%">   (assign val (op *) (reg n) (reg val)) ; val now contains n(n - 1)!</tspan><tspan x="12.536932" y="747.76642" id="tspan5392" xml:space="preserve" style="font-size:17.18180466px;line-height:129.99999523%">   (goto (reg continue))                 ; return to caller</tspan><tspan x="12.536932" y="770.10272" id="tspan5394" xml:space="preserve" style="font-size:17.18180466px;line-height:129.99999523%"> base-case</tspan><tspan x="12.536932" y="792.43909" id="tspan5396" xml:space="preserve" style="font-size:17.18180466px;line-height:129.99999523%">   (assign val (const 1))                ; base case: 1! = 1</tspan><tspan x="12.536932" y="814.77545" id="tspan5398" xml:space="preserve" style="font-size:17.18180466px;line-height:129.99999523%">   (goto (reg continue))                 ; return to caller</tspan><tspan x="12.536932" y="837.11176" id="tspan5400" xml:space="preserve" style="font-size:17.18180466px;line-height:129.99999523%"> fact-done)</tspan></text>
    <text x="193.90042" y="393.05759" id="text4051" xml:space="preserve" style="font-size:20px;font-style:normal;font-variant:normal;font-weight:normal;font-stretch:normal;text-align:center;line-height:125%;letter-spacing:0px;word-spacing:0px;text-anchor:middle;fill:#383838;fill-opacity:1;stroke:none;display:inline;font-family:Inconsolata LGC;-inkscape-font-specification:Inconsolata LGC"><tspan x="193.90042" y="393.05759" id="tspan4053">1</tspan></text>
    <path d="m 356.173,34.148799 a 28.63634,28.63634 0 0 1 -57.27268,0 28.63634,28.63634 0 1 1 57.27268,0 z" id="path4082" style="fill:none;stroke:#383838;stroke-width:1.01467347;stroke-linecap:round;stroke-linejoin:round;stroke-miterlimit:4;stroke-opacity:1;stroke-dasharray:none;stroke-dashoffset:0;display:inline"/>
    <text x="327.53668" y="40.966942" id="text4171" xml:space="preserve" style="font-size:20px;font-style:normal;font-variant:normal;font-weight:normal;font-stretch:normal;text-align:center;line-height:125%;letter-spacing:0px;word-spacing:0px;text-anchor:middle;fill:#383838;fill-opacity:1;stroke:none;display:inline;font-family:Inconsolata LGC;-inkscape-font-specification:Inconsolata LGC"><tspan x="327.53668" y="40.966942" id="tspan4173">=</tspan></text>
    <g transform="matrix(1.9090893,0,0,1.9090893,-44.735748,-56.269832)" id="g3208" style="stroke-width:0.53149605;stroke-miterlimit:4;stroke-dasharray:none">
      <rect width="50" height="30" rx="3.5433071" ry="3.5433071" x="30" y="82.362183" id="rect6788-7-2-7-4-3" style="fill:#e8e8e8;fill-opacity:1;stroke:#383838;stroke-width:0.53149605;stroke-linecap:round;stroke-linejoin:round;stroke-miterlimit:4;stroke-opacity:1;stroke-dasharray:none;stroke-dashoffset:0;display:inline"/>
      <text x="55" y="100.91057" id="text6689-7-1" xml:space="preserve" style="font-size:10.47700024px;font-style:normal;font-variant:normal;font-weight:normal;font-stretch:normal;text-align:center;line-height:125%;letter-spacing:0px;word-spacing:0px;text-anchor:middle;fill:#383838;fill-opacity:1;stroke:none;display:inline;font-family:Inconsolata LGC;-inkscape-font-specification:Sans"><tspan x="55" y="100.91057" id="tspan6691-7-5">val</tspan></text>
    </g>
    <g transform="matrix(1.9090893,0,0,1.9090893,-63.826641,-56.269832)" id="g3214" style="stroke-width:0.53149605;stroke-miterlimit:4;stroke-dasharray:none">
      <rect width="50" height="30" rx="3.5433071" ry="3.5433071" x="180" y="82.362183" id="rect6788-7-2-7-4-3-3" style="fill:#e8e8e8;fill-opacity:1;stroke:#383838;stroke-width:0.53149605;stroke-linecap:round;stroke-linejoin:round;stroke-miterlimit:4;stroke-opacity:1;stroke-dasharray:none;stroke-dashoffset:0;display:inline"/>
      <text x="205" y="100.91057" id="text6689-7-1-7" xml:space="preserve" style="font-size:10.47700024px;font-style:normal;font-variant:normal;font-weight:normal;font-stretch:normal;text-align:center;line-height:125%;letter-spacing:0px;word-spacing:0px;text-anchor:middle;fill:#383838;fill-opacity:1;stroke:none;display:inline;font-family:Inconsolata LGC;-inkscape-font-specification:Sans"><tspan x="205" y="100.91057" id="tspan6691-7-5-3">n</tspan></text>
    </g>
    <g transform="matrix(1.9090893,0,0,1.9090893,-102.00843,-56.269832)" id="g3220" style="stroke-width:0.53149605;stroke-miterlimit:4;stroke-dasharray:none">
      <rect width="50" height="30" rx="3.5433071" ry="3.5433071" x="290" y="82.362183" id="rect6788-7-2-7-4-3-0" style="fill:#e8e8e8;fill-opacity:1;stroke:#383838;stroke-width:0.53149605;stroke-linecap:round;stroke-linejoin:round;stroke-miterlimit:4;stroke-opacity:1;stroke-dasharray:none;stroke-dashoffset:0;display:inline"/>
      <text x="315" y="100.91057" id="text6689-7-1-0" xml:space="preserve" style="font-size:10.47700024px;font-style:normal;font-variant:normal;font-weight:normal;font-stretch:normal;text-align:center;line-height:125%;letter-spacing:0px;word-spacing:0px;text-anchor:middle;fill:#383838;fill-opacity:1;stroke:none;display:inline;font-family:Inconsolata LGC;-inkscape-font-specification:Sans"><tspan x="315" y="100.91057" id="tspan6691-7-5-0">stack</tspan></text>
    </g>
    <text x="499.35474" y="270.0137" id="text6689-7-1-4" xml:space="preserve" style="font-size:20px;font-style:normal;font-variant:normal;font-weight:normal;font-stretch:normal;text-align:center;line-height:125%;letter-spacing:0px;word-spacing:0px;text-anchor:middle;fill:#383838;fill-opacity:1;stroke:none;display:inline;font-family:Inconsolata LGC;-inkscape-font-specification:Sans"><tspan x="499.35474" y="270.0137" id="tspan6691-7-5-2">continue</tspan></text>
    <text x="117.53684" y="270.91382" id="text6689-7-1-3-1-1" xml:space="preserve" style="font-size:20px;font-style:normal;font-variant:normal;font-weight:normal;font-stretch:normal;text-align:center;line-height:125%;letter-spacing:0px;word-spacing:0px;text-anchor:middle;fill:#383838;fill-opacity:1;stroke:none;display:inline;font-family:Inconsolata LGC;-inkscape-font-specification:Sans"><tspan x="117.53684" y="270.91382" id="tspan6691-7-5-6-0-9">*</tspan></text>
    <text x="270.09348" y="270.23572" id="text6689-7-1-3-1-1-3" xml:space="preserve" style="font-size:20px;font-style:normal;font-variant:normal;font-weight:normal;font-stretch:normal;text-align:center;line-height:125%;letter-spacing:0px;word-spacing:0px;text-anchor:middle;fill:#383838;fill-opacity:1;stroke:none;display:inline;font-family:Inconsolata LGC;-inkscape-font-specification:Sans"><tspan x="270.09348" y="270.23572" dx="0 -7.6363573" id="tspan6691-7-5-6-0-9-7">--</tspan></text>
    <text x="413.44568" y="96.20388" id="text4974" xml:space="preserve" style="font-size:20px;font-style:normal;font-variant:normal;font-weight:normal;font-stretch:normal;text-align:center;line-height:125%;letter-spacing:0px;word-spacing:0px;text-anchor:middle;fill:#383838;fill-opacity:1;stroke:none;display:inline;font-family:Inconsolata LGC;-inkscape-font-specification:Inconsolata LGC"><tspan x="413.44568" y="96.20388" id="tspan4976">sn</tspan></text>
    <text x="413.44568" y="174.69824" id="text4978" xml:space="preserve" style="font-size:20px;font-style:normal;font-variant:normal;font-weight:normal;font-stretch:normal;text-align:center;line-height:125%;letter-spacing:0px;word-spacing:0px;text-anchor:middle;fill:#383838;fill-opacity:1;stroke:none;display:inline;font-family:Inconsolata LGC;-inkscape-font-specification:Inconsolata LGC"><tspan x="413.44568" y="174.69824" id="tspan4980">rn</tspan></text>
    <text x="535.62738" y="202.14865" id="text5268" xml:space="preserve" style="font-size:20px;font-style:normal;font-variant:normal;font-weight:normal;font-stretch:normal;text-align:start;line-height:125%;letter-spacing:0px;word-spacing:0px;text-anchor:start;fill:#383838;fill-opacity:1;stroke:none;display:inline;font-family:Inconsolata LGC;-inkscape-font-specification:Inconsolata LGC"><tspan x="535.62738" y="202.14865" id="tspan5270">sc</tspan></text>
    <text x="463.082" y="202.14865" id="text5272" xml:space="preserve" style="font-size:20px;font-style:normal;font-variant:normal;font-weight:normal;font-stretch:normal;text-align:end;line-height:125%;letter-spacing:0px;word-spacing:0px;text-anchor:end;fill:#383838;fill-opacity:1;stroke:none;display:inline;font-family:Inconsolata LGC;-inkscape-font-specification:Inconsolata LGC"><tspan x="463.082" y="202.14865" id="tspan5274">rc</tspan></text>
    <text x="602.44556" y="268.9668" id="text5316" xml:space="preserve" style="font-size:20px;font-style:normal;font-variant:normal;font-weight:normal;font-stretch:normal;text-align:start;line-height:125%;letter-spacing:0px;word-spacing:0px;text-anchor:start;fill:#383838;fill-opacity:1;stroke:none;display:inline;font-family:Inconsolata LGC;-inkscape-font-specification:Inconsolata LGC"><tspan x="602.44556" y="268.9668" id="tspan5320">controller</tspan></text>
  </g>
</svg>
