<?xml version="1.0" encoding="UTF-8" standalone="no"?>
<!-- Created with Inkscape (http://www.inkscape.org/) -->
<?xml-stylesheet href="../../css/fonts/fonts.css" type="text/css"?>
<svg xmlns:dc="http://purl.org/dc/elements/1.1/" xmlns:cc="http://creativecommons.org/ns#" xmlns:rdf="http://www.w3.org/1999/02/22-rdf-syntax-ns#" xmlns:svg="http://www.w3.org/2000/svg" xmlns="http://www.w3.org/2000/svg" preserveAspectRatio="xMinYMin meet" viewBox="0 0 510 819" id="svg5835" version="1.1">
  <defs id="defs5837">
    <marker refX="0" refY="0" orient="auto" id="Arrow1Mend" style="overflow:visible">
      <path d="M 0,0 5,-5 -12.5,0 5,5 0,0 z" transform="matrix(-0.4,0,0,-0.4,-4,0)" id="path4415" style="fill:#383838;fill-rule:evenodd;stroke:#383838;stroke-width:1pt;marker-start:none"/>
    </marker>
    <marker refX="0" refY="0" orient="auto" id="marker6610" style="overflow:visible">
      <path d="M 0,0 5,-5 -12.5,0 5,5 0,0 z" transform="matrix(-0.4,0,0,-0.4,-4,0)" id="path6612" style="fill:#383838;fill-rule:evenodd;stroke:#383838;stroke-width:1pt;marker-start:none"/>
    </marker>
    <marker refX="0" refY="0" orient="auto" id="Arrow1Mend-2" style="overflow:visible">
      <path d="M 0,0 5,-5 -12.5,0 5,5 0,0 z" transform="matrix(-0.4,0,0,-0.4,-4,0)" id="path4415-6" style="fill:#383838;fill-rule:evenodd;stroke:#383838;stroke-width:1pt;marker-start:none"/>
    </marker>
    <marker refX="0" refY="0" orient="auto" id="Arrow1Mend-4" style="overflow:visible">
      <path d="M 0,0 5,-5 -12.5,0 5,5 0,0 z" transform="matrix(-0.4,0,0,-0.4,-4,0)" id="path4415-0" style="fill:#383838;fill-rule:evenodd;stroke:#383838;stroke-width:1pt;marker-start:none"/>
    </marker>
    <marker refX="0" refY="0" orient="auto" id="Arrow1Mend-8" style="overflow:visible">
      <path d="M 0,0 5,-5 -12.5,0 5,5 0,0 z" transform="matrix(-0.4,0,0,-0.4,-4,0)" id="path4415-8" style="fill:#383838;fill-rule:evenodd;stroke:#383838;stroke-width:1pt;marker-start:none"/>
    </marker>
    <marker refX="0" refY="0" orient="auto" id="Arrow1Mend-23" style="overflow:visible">
      <path d="M 0,0 5,-5 -12.5,0 5,5 0,0 z" transform="matrix(-0.4,0,0,-0.4,-4,0)" id="path4415-4" style="fill:#383838;fill-rule:evenodd;stroke:#383838;stroke-width:1pt;marker-start:none"/>
    </marker>
    <marker refX="0" refY="0" orient="auto" id="Arrow1Mend-1" style="overflow:visible">
      <path d="M 0,0 5,-5 -12.5,0 5,5 0,0 z" transform="matrix(-0.4,0,0,-0.4,-4,0)" id="path4415-00" style="fill:#383838;fill-rule:evenodd;stroke:#383838;stroke-width:1pt;marker-start:none"/>
    </marker>
    <marker refX="0" refY="0" orient="auto" id="Arrow1Mend-232" style="overflow:visible">
      <path d="M 0,0 5,-5 -12.5,0 5,5 0,0 z" transform="matrix(-0.4,0,0,-0.4,-4,0)" id="path4415-1" style="fill:#383838;fill-rule:evenodd;stroke:#383838;stroke-width:1pt;marker-start:none"/>
    </marker>
    <marker refX="0" refY="0" orient="auto" id="Arrow1Mend-48" style="overflow:visible">
      <path d="M 0,0 5,-5 -12.5,0 5,5 0,0 z" transform="matrix(-0.4,0,0,-0.4,-4,0)" id="path4415-3" style="fill:#383838;fill-rule:evenodd;stroke:#383838;stroke-width:1pt;marker-start:none"/>
    </marker>
    <marker refX="0" refY="0" orient="auto" id="Arrow1Mend-22" style="overflow:visible">
      <path d="M 0,0 5,-5 -12.5,0 5,5 0,0 z" transform="matrix(-0.4,0,0,-0.4,-4,0)" id="path4415-45" style="fill:#383838;fill-rule:evenodd;stroke:#383838;stroke-width:1pt;marker-start:none"/>
    </marker>
    <marker refX="0" refY="0" orient="auto" id="Arrow1Mend-5" style="overflow:visible">
      <path d="M 0,0 5,-5 -12.5,0 5,5 0,0 z" transform="matrix(-0.4,0,0,-0.4,-4,0)" id="path4415-40" style="fill:#383838;fill-rule:evenodd;stroke:#383838;stroke-width:1pt;marker-start:none"/>
    </marker>
    <marker refX="0" refY="0" orient="auto" id="Arrow1Mend-26" style="overflow:visible">
      <path d="M 0,0 5,-5 -12.5,0 5,5 0,0 z" transform="matrix(-0.4,0,0,-0.4,-4,0)" id="path4415-2" style="fill:#383838;fill-rule:evenodd;stroke:#383838;stroke-width:1pt;marker-start:none"/>
    </marker>
    <marker refX="0" refY="0" orient="auto" id="marker7204" style="overflow:visible">
      <path d="M 0,0 5,-5 -12.5,0 5,5 0,0 z" transform="matrix(-0.4,0,0,-0.4,-4,0)" id="path7206" style="fill:#383838;fill-rule:evenodd;stroke:#383838;stroke-width:1pt;marker-start:none"/>
    </marker>
    <marker refX="0" refY="0" orient="auto" id="marker7208" style="overflow:visible">
      <path d="M 0,0 5,-5 -12.5,0 5,5 0,0 z" transform="matrix(-0.4,0,0,-0.4,-4,0)" id="path7210" style="fill:#383838;fill-rule:evenodd;stroke:#383838;stroke-width:1pt;marker-start:none"/>
    </marker>
    <marker refX="0" refY="0" orient="auto" id="Arrow1Mend-25" style="overflow:visible">
      <path d="M 0,0 5,-5 -12.5,0 5,5 0,0 z" transform="matrix(-0.4,0,0,-0.4,-4,0)" id="path4415-9" style="fill:#383838;fill-rule:evenodd;stroke:#383838;stroke-width:1pt;marker-start:none"/>
    </marker>
    <marker refX="0" refY="0" orient="auto" id="marker7204-9" style="overflow:visible">
      <path d="M 0,0 5,-5 -12.5,0 5,5 0,0 z" transform="matrix(-0.4,0,0,-0.4,-4,0)" id="path7206-8" style="fill:#383838;fill-rule:evenodd;stroke:#383838;stroke-width:1pt;marker-start:none"/>
    </marker>
    <marker refX="0" refY="0" orient="auto" id="marker7208-8" style="overflow:visible">
      <path d="M 0,0 5,-5 -12.5,0 5,5 0,0 z" transform="matrix(-0.4,0,0,-0.4,-4,0)" id="path7210-4" style="fill:#383838;fill-rule:evenodd;stroke:#383838;stroke-width:1pt;marker-start:none"/>
    </marker>
    <marker refX="0" refY="0" orient="auto" id="Arrow1Mend-10" style="overflow:visible">
      <path d="M 0,0 5,-5 -12.5,0 5,5 0,0 z" transform="matrix(-0.4,0,0,-0.4,-4,0)" id="path4415-12" style="fill:#383838;fill-rule:evenodd;stroke:#383838;stroke-width:1pt;marker-start:none"/>
    </marker>
    <marker refX="0" refY="0" orient="auto" id="marker7333" style="overflow:visible">
      <path d="M 0,0 5,-5 -12.5,0 5,5 0,0 z" transform="matrix(-0.4,0,0,-0.4,-4,0)" id="path7335" style="fill:#383838;fill-rule:evenodd;stroke:#383838;stroke-width:1pt;marker-start:none"/>
    </marker>
    <marker refX="0" refY="0" orient="auto" id="Arrow1Mend-3" style="overflow:visible">
      <path d="M 0,0 5,-5 -12.5,0 5,5 0,0 z" transform="matrix(-0.4,0,0,-0.4,-4,0)" id="path4415-85" style="fill:#383838;fill-rule:evenodd;stroke:#383838;stroke-width:1pt;marker-start:none"/>
    </marker>
    <marker refX="0" refY="0" orient="auto" id="Arrow1Mend-7" style="overflow:visible">
      <path d="M 0,0 5,-5 -12.5,0 5,5 0,0 z" transform="matrix(-0.4,0,0,-0.4,-4,0)" id="path4415-05" style="fill:#383838;fill-rule:evenodd;stroke:#383838;stroke-width:1pt;marker-start:none"/>
    </marker>
    <marker refX="0" refY="0" orient="auto" id="Arrow1Mend-14" style="overflow:visible">
      <path d="M 0,0 5,-5 -12.5,0 5,5 0,0 z" transform="matrix(-0.4,0,0,-0.4,-4,0)" id="path4415-63" style="fill:#383838;fill-rule:evenodd;stroke:#383838;stroke-width:1pt;marker-start:none"/>
    </marker>
    <marker refX="0" refY="0" orient="auto" id="Arrow1Mend-86" style="overflow:visible">
      <path d="M 0,0 5,-5 -12.5,0 5,5 0,0 z" transform="matrix(-0.4,0,0,-0.4,-4,0)" id="path4415-80" style="fill:#383838;fill-rule:evenodd;stroke:#383838;stroke-width:1pt;marker-start:none"/>
    </marker>
    <marker refX="0" refY="0" orient="auto" id="Arrow1Mend-20" style="overflow:visible">
      <path d="M 0,0 5,-5 -12.5,0 5,5 0,0 z" transform="matrix(-0.4,0,0,-0.4,-4,0)" id="path4415-7" style="fill:#383838;fill-rule:evenodd;stroke:#383838;stroke-width:1pt;marker-start:none"/>
    </marker>
  </defs>
  <metadata id="metadata_5.5">
  <!--
    <rdf:RDF>
      <cc:Work rdf:about="">
        <dc:format>image/svg+xml</dc:format>
        <dc:type rdf:resource="http://purl.org/dc/dcmitype/StillImage"></dc:type>
        <dc:title></dc:title>
        <cc:license rdf:resource="http://creativecommons.org/licenses/by-sa/3.0/"></cc:license>
        <dc:description>Based on the diagram in Abelson, Sussman &amp; Sussman's "Structure and Interpretation of Computer Programs", 2nd ed.</dc:description>
        <dc:source>http://mitpress.mit.edu/sicp/full-text/book/book-Z-H-31.html#%_fig_5.5</dc:source>
        <dc:creator>
          <cc:Agent>
            <dc:title>Andres Raba</dc:title>
          </cc:Agent>
        </dc:creator>
        <dc:date>2012-11-17</dc:date>
        <dc:subject>
          <rdf:Bag>
            <rdf:li>gcd</rdf:li>
            <rdf:li>machine</rdf:li>
            <rdf:li>controller</rdf:li>
            <rdf:li>data</rdf:li>
            <rdf:li>path</rdf:li>
          </rdf:Bag>
        </dc:subject>
      </cc:Work>
      <cc:License rdf:about="http://creativecommons.org/licenses/by-sa/3.0/">
        <cc:permits rdf:resource="http://creativecommons.org/ns#Reproduction"></cc:permits>
        <cc:permits rdf:resource="http://creativecommons.org/ns#Distribution"></cc:permits>
        <cc:requires rdf:resource="http://creativecommons.org/ns#Notice"></cc:requires>
        <cc:requires rdf:resource="http://creativecommons.org/ns#Attribution"></cc:requires>
        <cc:permits rdf:resource="http://creativecommons.org/ns#DerivativeWorks"></cc:permits>
        <cc:requires rdf:resource="http://creativecommons.org/ns#ShareAlike"></cc:requires>
      </cc:License>
    </rdf:RDF>
  -->
</metadata>
  <g transform="translate(-124.71875,-112.24304)" id="layer6" style="display:inline">
    <rect width="95.45472" height="57.272831" rx="6.7645073" ry="6.7645073" x="130.24158" y="115.75549" id="rect6788-7-2-7-4-3" style="fill:#e8e8e8;fill-opacity:1;stroke:#383838;stroke-width:1.01467609;stroke-linecap:round;stroke-linejoin:round;stroke-miterlimit:4;stroke-opacity:1;stroke-dasharray:none;stroke-dashoffset:0;display:inline"/>
    <rect width="95.45472" height="57.272831" rx="6.7645073" ry="6.7645073" x="330.69647" y="115.75549" id="rect6788-7-2-7-4-3-6" style="fill:#e8e8e8;fill-opacity:1;stroke:#383838;stroke-width:1.01467609;stroke-linecap:round;stroke-linejoin:round;stroke-miterlimit:4;stroke-opacity:1;stroke-dasharray:none;stroke-dashoffset:0;display:inline"/>
    <rect width="95.45472" height="57.272831" rx="6.7645073" ry="6.7645073" x="130.24158" y="249.39212" id="rect6788-7-2-7-4-3-4" style="fill:#e8e8e8;fill-opacity:1;stroke:#383838;stroke-width:1.01467609;stroke-linecap:round;stroke-linejoin:round;stroke-miterlimit:4;stroke-opacity:1;stroke-dasharray:none;stroke-dashoffset:0;display:inline"/>
    <path d="m 597.9697,210.35796 0,-34.87507" id="path8845-6-0-7-0" style="fill:none;stroke:#383838;stroke-width:1.4881916;stroke-linecap:butt;stroke-linejoin:round;stroke-miterlimit:4;stroke-opacity:1;stroke-dasharray:none;marker-end:url(#Arrow1Mend);display:inline"/>
    <path d="m 426.15121,144.39191 140.38661,0" id="path8845-6-0-7-0-4-7-9" style="fill:none;stroke:#383838;stroke-width:1.4881916;stroke-linecap:butt;stroke-linejoin:round;stroke-miterlimit:4;stroke-opacity:1;stroke-dasharray:none;marker-end:url(#Arrow1Mend);display:inline"/>
    <path d="m 575.06057,268.48305 45.81826,0 c 5.72728,0 8.74022,-3.7707 5.72728,-9.54548 L 603.69698,215.0284 c -2.99386,-5.72728 -8.41981,-5.66701 -11.45456,0 l -22.90914,43.90917 c -3.01293,5.77478 0,9.54548 5.72729,9.54548 z" id="rect6788-7-2-7-4-3-4-8-3" style="fill:none;stroke:#383838;stroke-width:1.01467609;stroke-linecap:round;stroke-linejoin:round;stroke-miterlimit:4;stroke-opacity:1;stroke-dasharray:none;stroke-dashoffset:0;display:inline"/>
    <path d="m 310,72.362183 a 15,15 0 1 1 -30,0 15,15 0 1 1 30,0 z" transform="matrix(1.9090943,0,0,1.9090943,34.78687,6.24569)" id="path4082" style="fill:none;stroke:#383838;stroke-width:0.53149605;stroke-linecap:round;stroke-linejoin:round;stroke-miterlimit:4;stroke-opacity:1;stroke-dasharray:none;stroke-dashoffset:0"/>
    <path d="m 310,72.362183 a 15,15 0 1 1 -30,0 15,15 0 1 1 30,0 z" transform="matrix(1.9090943,0,0,1.9090943,-60.66784,139.88229)" id="path4082-9" style="fill:none;stroke:#383838;stroke-width:0.53149605;stroke-linecap:round;stroke-linejoin:round;stroke-miterlimit:4;stroke-opacity:1;stroke-dasharray:none;stroke-dashoffset:0"/>
    <path d="m 285.93501,316.2104 99.2729,0 c 5.72729,0 7.70858,5.47993 5.72729,9.54548 l -19.96281,40.96286 c -1.64174,3.36881 -4.85542,6.76449 -10.5827,6.76449 l -49.63645,0 c -5.72729,0 -8.94096,-3.39568 -10.58271,-6.76449 l -19.9628,-40.96286 c -1.9813,-4.06555 0,-9.54548 5.72728,-9.54548 z" id="rect6788-7-2-7-4-3-4-8-4" style="fill:none;stroke:#383838;stroke-width:1.01467609;stroke-linecap:round;stroke-linejoin:round;stroke-miterlimit:4;stroke-opacity:1;stroke-dasharray:none;stroke-dashoffset:0;display:inline"/>
    <path d="m 266.674,151.14157 13.49934,-13.49933" id="path4116" style="fill:none;stroke:#383838;stroke-width:1.01467609;stroke-linecap:round;stroke-linejoin:round;stroke-miterlimit:4;stroke-opacity:1;stroke-dasharray:none"/>
    <path d="M 280.17334,151.14157 266.674,137.64224" id="path4118" style="fill:none;stroke:#383838;stroke-width:1.01467609;stroke-linecap:round;stroke-linejoin:round;stroke-miterlimit:4;stroke-opacity:1;stroke-dasharray:none"/>
    <path d="m 210,87.362183 a 5,5 0 1 1 -10,0 5,5 0 1 1 10,0 z" transform="matrix(-1.3499335,-1.3499335,1.3499335,-1.3499335,432.2269,539.06143)" id="path4086-0" style="fill:none;stroke:#383838;stroke-width:0.53149605;stroke-linecap:round;stroke-linejoin:round;stroke-miterlimit:4;stroke-opacity:1;stroke-dasharray:none;stroke-dashoffset:0"/>
    <path d="m 263.87819,144.39192 -35.55688,0" id="path8845-6-0-7-0-4" style="fill:none;stroke:#383838;stroke-width:1.4881916;stroke-linecap:butt;stroke-linejoin:round;stroke-miterlimit:4;stroke-opacity:1;stroke-dasharray:none;marker-end:url(#Arrow1Mend)"/>
    <path d="m 282.96914,144.39192 47.72735,0" id="path4298" style="fill:none;stroke:#383838;stroke-width:1.4881916;stroke-linecap:butt;stroke-linejoin:round;stroke-miterlimit:4;stroke-opacity:1;stroke-dasharray:none"/>
    <path d="m 171.21929,217.95988 13.49934,-13.49934" id="path4116-0" style="fill:none;stroke:#383838;stroke-width:1.01467609;stroke-linecap:round;stroke-linejoin:round;stroke-miterlimit:4;stroke-opacity:1;stroke-dasharray:none"/>
    <path d="M 184.71863,217.95988 171.21929,204.46054" id="path4118-3" style="fill:none;stroke:#383838;stroke-width:1.01467609;stroke-linecap:round;stroke-linejoin:round;stroke-miterlimit:4;stroke-opacity:1;stroke-dasharray:none"/>
    <path d="m 210,87.362183 a 5,5 0 1 1 -10,0 5,5 0 1 1 10,0 z" transform="matrix(-1.3499335,-1.3499335,1.3499335,-1.3499335,336.77219,605.87973)" id="path4086-0-97" style="fill:none;stroke:#383838;stroke-width:0.53149605;stroke-linecap:round;stroke-linejoin:round;stroke-miterlimit:4;stroke-opacity:1;stroke-dasharray:none;stroke-dashoffset:0"/>
    <path d="m 177.96895,173.02833 0,28.12506" id="path4298-8" style="fill:none;stroke:#383838;stroke-width:1.4881916;stroke-linecap:butt;stroke-linejoin:round;stroke-miterlimit:4;stroke-opacity:1;stroke-dasharray:none;display:inline"/>
    <path d="m 177.96895,220.92615 0,25.50004" id="path8845-6-0-7-0-4-7-6" style="fill:none;stroke:#383838;stroke-width:1.4881916;stroke-linecap:butt;stroke-linejoin:round;stroke-miterlimit:4;stroke-opacity:1;stroke-dasharray:none;marker-end:url(#Arrow1Mend);display:inline"/>
    <path d="m 359.33291,173.02833 0,140.55707" id="path8845-6-0-7-0-4-7-6-5" style="fill:none;stroke:#383838;stroke-width:1.4881916;stroke-linecap:butt;stroke-linejoin:round;stroke-miterlimit:4;stroke-opacity:1;stroke-dasharray:none;marker-end:url(#Arrow1Mend);display:inline"/>
    <path d="m 390.76514,204.46056 13.49933,13.49933" id="path4116-1" style="fill:none;stroke:#383838;stroke-width:1.01467609;stroke-linecap:butt;stroke-linejoin:round;stroke-miterlimit:4;stroke-opacity:1;stroke-dasharray:none"/>
    <path d="m 390.76514,217.95989 13.49933,-13.49933" id="path4118-9" style="fill:none;stroke:#383838;stroke-width:1.01467609;stroke-linecap:butt;stroke-linejoin:round;stroke-miterlimit:4;stroke-opacity:1;stroke-dasharray:none"/>
    <path d="m 210,87.362183 a 5,5 0 1 1 -10,0 5,5 0 1 1 10,0 z" transform="matrix(1.3499335,-1.3499335,1.3499335,1.3499335,2.84528,370.01345)" id="path4086-0-8" style="fill:none;stroke:#383838;stroke-width:0.53149605;stroke-linecap:butt;stroke-linejoin:round;stroke-miterlimit:4;stroke-opacity:1;stroke-dasharray:none;stroke-dashoffset:0"/>
    <path d="m 397.5148,201.66474 0,-25.84094" id="path8845-6-0-7-0-4-6" style="fill:none;stroke:#383838;stroke-width:1.4881916;stroke-linecap:butt;stroke-linejoin:round;stroke-miterlimit:4;stroke-opacity:1;stroke-dasharray:none;marker-end:url(#Arrow1Mend)"/>
    <path d="m 397.5148,220.75569 0,57.27283" id="path4298-5" style="fill:none;stroke:#383838;stroke-width:1.4881916;stroke-linecap:butt;stroke-linejoin:round;stroke-miterlimit:4;stroke-opacity:1;stroke-dasharray:none"/>
    <path d="m 225.69631,278.02852 245.38679,0" id="path8845-6-0-7-0-4-7-6-5-4" style="fill:none;stroke:#383838;stroke-width:1.4881916;stroke-linecap:butt;stroke-linejoin:round;stroke-miterlimit:4;stroke-opacity:1;stroke-dasharray:none;marker-end:url(#Arrow1Mend);display:inline"/>
    <path d="m 311.60555,278.02852 0,35.55688" id="path8845-6-0-7-0-4-7-6-9" style="fill:none;stroke:#383838;stroke-width:1.4881916;stroke-linecap:round;stroke-linejoin:round;stroke-miterlimit:4;stroke-opacity:1;stroke-dasharray:none;marker-end:url(#Arrow1Mend);display:inline"/>
    <path d="m 237,128.36218 a 1,1 0 1 1 -2,0 1,1 0 1 1 2,0 z" transform="matrix(1.9090943,0,0,1.9090943,-138.96011,32.97301)" id="path9674-69-6-1-6" style="fill:#383838;fill-opacity:1;stroke:#383838;stroke-width:1.0629921;stroke-linecap:round;stroke-linejoin:round;stroke-miterlimit:4;stroke-opacity:1;stroke-dasharray:none;stroke-dashoffset:0;display:inline"/>
    <path d="m 171.21929,343.82444 13.49934,13.49934" id="path4116-8" style="fill:none;stroke:#383838;stroke-width:1.01467609;stroke-linecap:round;stroke-linejoin:round;stroke-miterlimit:4;stroke-opacity:1;stroke-dasharray:none"/>
    <path d="m 171.21929,357.32378 13.49934,-13.49934" id="path4118-6" style="fill:none;stroke:#383838;stroke-width:1.01467609;stroke-linecap:round;stroke-linejoin:round;stroke-miterlimit:4;stroke-opacity:1;stroke-dasharray:none"/>
    <path d="m 210,87.362183 a 5,5 0 1 1 -10,0 5,5 0 1 1 10,0 z" transform="matrix(1.3499335,-1.3499335,1.3499335,1.3499335,-216.70056,509.37734)" id="path4086-0-9" style="fill:none;stroke:#383838;stroke-width:0.53149605;stroke-linecap:round;stroke-linejoin:round;stroke-miterlimit:4;stroke-opacity:1;stroke-dasharray:none;stroke-dashoffset:0"/>
    <path d="m 177.96895,341.02863 0,-31.73869" id="path8845-6-0-7-0-4-7" style="fill:none;stroke:#383838;stroke-width:1.4881916;stroke-linecap:butt;stroke-linejoin:round;stroke-miterlimit:4;stroke-opacity:1;stroke-dasharray:none;marker-end:url(#Arrow1Mend);display:inline"/>
    <path d="m 177.96895,360.11957 0,32.45461 c 0,5.72728 3.81819,9.54547 9.54547,9.54547 l 138.51161,0 c 5.72728,-6e-5 9.54547,-3.81819 9.54547,-9.54547 l 0,-19.09095" id="path8845-1-4-88" style="fill:none;stroke:#383838;stroke-width:1.4881916;stroke-linecap:butt;stroke-linejoin:round;stroke-miterlimit:4;stroke-opacity:1;stroke-dasharray:none;marker-end:none;display:inline"/>
    <path d="m 502.51498,144.39192 0,102.37518" id="path8845-6-0-7-0-4-7-6-5-9" style="fill:none;stroke:#383838;stroke-width:1.4881916;stroke-linecap:round;stroke-linejoin:round;stroke-miterlimit:4;stroke-opacity:1;stroke-dasharray:none;marker-end:url(#Arrow1Mend);display:inline"/>
    <path d="m 237,128.36218 a 1,1 0 1 1 -2,0 1,1 0 1 1 2,0 z" transform="matrix(1.9090943,0,0,1.9090943,-53.05086,32.97301)" id="path9674-69-6-1-6-9" style="fill:#383838;fill-opacity:1;stroke:#383838;stroke-width:1.0629921;stroke-linecap:round;stroke-linejoin:round;stroke-miterlimit:4;stroke-opacity:1;stroke-dasharray:none;stroke-dashoffset:0;display:inline"/>
    <path d="m 237,128.36218 a 1,1 0 1 1 -2,0 1,1 0 1 1 2,0 z" transform="matrix(1.9090943,0,0,1.9090943,51.94933,-100.6636)" id="path9674-69-6-1-6-95" style="fill:#383838;fill-opacity:1;stroke:#383838;stroke-width:1.0629921;stroke-linecap:round;stroke-linejoin:round;stroke-miterlimit:4;stroke-opacity:1;stroke-dasharray:none;stroke-dashoffset:0;display:inline"/>
    <rect width="66.818275" height="66.818275" rx="6.7645073" ry="6.7645073" x="-245.88258" y="525.2901" transform="matrix(0.70710678,-0.70710678,0.70710678,0.70710678,0,0)" id="rect6788-7-2-7-4" style="fill:none;stroke:#383838;stroke-width:1.01467609;stroke-linecap:round;stroke-linejoin:round;stroke-miterlimit:4;stroke-opacity:1;stroke-dasharray:none;stroke-dashoffset:0;display:inline"/>
    <path d="m 289.75324,545.30172 59.35235,0" id="path8845-6-0-7-0-4-7-6-0" style="fill:none;stroke:#383838;stroke-width:1.4881916;stroke-linecap:butt;stroke-linejoin:round;stroke-miterlimit:4;stroke-opacity:1;stroke-dasharray:none;marker-end:url(#Arrow1Mend)"/>
    <path d="m 244.78725,468.93795 0,28.97734" id="path8845-6-0-7-0-4-7-6-2" style="fill:none;stroke:#383838;stroke-width:1.4881916;stroke-linecap:round;stroke-linejoin:round;stroke-miterlimit:4;stroke-opacity:1;stroke-dasharray:none;marker-end:url(#Arrow1Mend)"/>
    <rect width="66.818275" height="66.818275" rx="6.7645073" ry="6.7645073" x="-137.88792" y="795.27734" transform="matrix(0.70710678,-0.70710678,0.70710678,0.70710678,0,0)" id="rect6788-7-2-7-4-39" style="fill:none;stroke:#383838;stroke-width:1.01467609;stroke-linecap:round;stroke-linejoin:round;stroke-miterlimit:4;stroke-opacity:1;stroke-dasharray:none;stroke-dashoffset:0;display:inline"/>
    <path d="m 512.06046,573.93814 0,38.42295" id="path8845-6-0-7-0-4-7-6-2-7" style="fill:none;stroke:#383838;stroke-width:1.4881916;stroke-linecap:butt;stroke-linejoin:round;stroke-miterlimit:4;stroke-opacity:1;stroke-dasharray:none;marker-end:url(#Arrow1Mend)"/>
    <rect width="95.45472" height="57.272831" rx="6.7645073" ry="6.7645073" x="302.06009" y="631.21094" id="rect6788-7-2-7-4-3-60" style="fill:#e8e8e8;fill-opacity:1;stroke:#383838;stroke-width:1.01467609;stroke-linecap:round;stroke-linejoin:round;stroke-miterlimit:4;stroke-opacity:1;stroke-dasharray:none;stroke-dashoffset:0;display:inline"/>
    <rect width="95.45472" height="57.272831" rx="6.7645073" ry="6.7645073" x="197.05991" y="774.39307" id="rect6788-7-2-7-4-3-4-4" style="fill:#e8e8e8;fill-opacity:1;stroke:#383838;stroke-width:1.01467609;stroke-linecap:round;stroke-linejoin:round;stroke-miterlimit:4;stroke-opacity:1;stroke-dasharray:none;stroke-dashoffset:0;display:inline"/>
    <rect width="95.45472" height="57.272831" rx="6.7645073" ry="6.7645073" x="197.05991" y="869.84778" id="rect6788-7-2-7-4-3-2" style="fill:#e8e8e8;fill-opacity:1;stroke:#383838;stroke-width:1.01467609;stroke-linecap:round;stroke-linejoin:round;stroke-miterlimit:4;stroke-opacity:1;stroke-dasharray:none;stroke-dashoffset:0;display:inline"/>
    <path d="m 244.78725,831.66587 0,35.32794" id="path8845-6-0-7-0-4-7-6-6-0" style="fill:none;stroke:#383838;stroke-width:1.4881916;stroke-linecap:butt;stroke-linejoin:round;stroke-miterlimit:4;stroke-opacity:1;stroke-dasharray:none;marker-end:url(#Arrow1Mend)"/>
    <rect width="95.45472" height="57.272831" rx="6.7645073" ry="6.7645073" x="464.33307" y="516.66528" id="rect6788-7-2-7-4-3-60-8" style="fill:#e8e8e8;fill-opacity:1;stroke:#383838;stroke-width:1.01467609;stroke-linecap:round;stroke-linejoin:round;stroke-miterlimit:4;stroke-opacity:1;stroke-dasharray:none;stroke-dashoffset:0;display:inline"/>
    <path d="m 397.5148,659.84738 67.17988,0" id="path8845-6-0-7-0-4-7-6-0-9" style="fill:none;stroke:#383838;stroke-width:1.4881916;stroke-linecap:butt;stroke-linejoin:round;stroke-miterlimit:4;stroke-opacity:1;stroke-dasharray:none;marker-end:url(#Arrow1Mend)"/>
    <path d="m 556.8219,659.84738 41.1478,0 c 5.72728,0 9.54547,-3.81819 9.54547,-9.54547 l 0,-95.45472 c 0,-5.72728 -3.81819,-9.54547 -9.54547,-9.54547 l -35.2074,-7e-5" id="path8845-1-4-88-5" style="fill:none;stroke:#383838;stroke-width:1.4881916;stroke-linecap:butt;stroke-linejoin:round;stroke-miterlimit:4;stroke-opacity:1;stroke-dasharray:none;marker-end:url(#Arrow1Mend)"/>
    <path d="m 512.06046,704.55891 0,22.10677 c 0,5.72729 -3.81819,9.54548 -9.54548,9.54548 l -248.18226,0 c -5.72728,0 -9.54547,3.81818 -9.54547,9.54547 l 0,25.66193" id="path8845-1-0-3" style="fill:none;stroke:#383838;stroke-width:1.4881916;stroke-linecap:butt;stroke-linejoin:round;stroke-miterlimit:4;stroke-opacity:1;stroke-dasharray:none;marker-end:url(#Arrow1Mend);display:inline"/>
    <path d="m 244.78725,590.06317 0,60.23874 c 0,5.72728 3.81819,9.54547 9.54547,9.54547 l 44.75288,8e-5" id="path8845-1-4-88-8" style="fill:none;stroke:#383838;stroke-width:1.4881916;stroke-linecap:butt;stroke-linejoin:round;stroke-miterlimit:4;stroke-opacity:1;stroke-dasharray:none;marker-end:url(#Arrow1Mend)"/>
    <path d="m 197.05989,898.48417 -38.18189,0 c -5.72728,0 -9.54547,-3.81819 -9.54547,-9.54547 l 0,-334.09151 c 0,-5.72728 3.81819,-9.54547 9.54547,-9.54547 l 38.69326,-7e-5" id="path8845-1-4-88-5-3" style="fill:none;stroke:#383838;stroke-width:1.4881916;stroke-linecap:butt;stroke-linejoin:round;stroke-miterlimit:4;stroke-opacity:1;stroke-dasharray:none;marker-end:url(#Arrow1Mend)"/>
  </g>
  <g transform="translate(-124.71875,-112.24304)" id="layer7" style="display:inline">
    <text x="273.42368" y="176.84653" id="text4630" xml:space="preserve" style="font-size:20px;font-style:normal;font-variant:normal;font-weight:normal;font-stretch:normal;text-align:center;line-height:125%;letter-spacing:0px;word-spacing:0px;text-anchor:middle;fill:#383838;fill-opacity:1;stroke:none;font-family:Inconsolata LGC;-inkscape-font-specification:Inconsolata LGC"><tspan x="273.42368" y="176.84653" dx="0 3.8181887 3.8181887" id="tspan4632">a←b</tspan></text>
    <text x="198.76443" y="216.9375" id="text4634" xml:space="preserve" style="font-size:20px;font-style:normal;font-variant:normal;font-weight:normal;font-stretch:normal;text-align:start;line-height:125%;letter-spacing:0px;word-spacing:0px;text-anchor:start;fill:#383838;fill-opacity:1;stroke:none;display:inline;font-family:Inconsolata LGC;-inkscape-font-specification:Inconsolata LGC"><tspan x="198.76443" y="216.9375" dx="0 3.8181887 3.8181887" id="tspan4636">t←a</tspan></text>
    <text x="418.51483" y="216.9375" id="text4638" xml:space="preserve" style="font-size:20px;font-style:normal;font-variant:normal;font-weight:normal;font-stretch:normal;text-align:start;line-height:125%;letter-spacing:0px;word-spacing:0px;text-anchor:start;fill:#383838;fill-opacity:1;stroke:none;display:inline;font-family:Inconsolata LGC;-inkscape-font-specification:Inconsolata LGC"><tspan x="418.51483" y="216.9375" dx="0 3.8181887 3.8181887" id="tspan4640">b←t</tspan></text>
    <text x="198.96899" y="356.30139" id="text4634-5" xml:space="preserve" style="font-size:20px;font-style:normal;font-variant:normal;font-weight:normal;font-stretch:normal;text-align:start;line-height:125%;letter-spacing:0px;word-spacing:0px;text-anchor:start;fill:#383838;fill-opacity:1;stroke:none;display:inline;font-family:Inconsolata LGC;-inkscape-font-specification:Inconsolata LGC"><tspan x="198.96899" y="356.30139" dx="0 3.8181887 3.8181887" id="tspan4636-2">t←d</tspan></text>
    <text x="177.96893" y="151.16611" id="text6689-7-1" xml:space="preserve" style="font-size:20px;font-style:normal;font-variant:normal;font-weight:normal;font-stretch:normal;text-align:center;line-height:125%;letter-spacing:0px;word-spacing:0px;text-anchor:middle;fill:#383838;fill-opacity:1;stroke:none;display:inline;font-family:Inconsolata LGC;-inkscape-font-specification:Sans"><tspan x="177.96893" y="151.16611" id="tspan6691-7-5">a</tspan></text>
    <text x="378.42383" y="151.16611" id="text6689-7-1-5" xml:space="preserve" style="font-size:20px;font-style:normal;font-variant:normal;font-weight:normal;font-stretch:normal;text-align:center;line-height:125%;letter-spacing:0px;word-spacing:0px;text-anchor:middle;fill:#383838;fill-opacity:1;stroke:none;display:inline;font-family:Inconsolata LGC;-inkscape-font-specification:Sans"><tspan x="378.42383" y="151.16611" id="tspan6691-7-5-7">b</tspan></text>
    <text x="177.96893" y="285.48453" id="text6689-7-1-3" xml:space="preserve" style="font-size:20px;font-style:normal;font-variant:normal;font-weight:normal;font-stretch:normal;text-align:center;line-height:125%;letter-spacing:0px;word-spacing:0px;text-anchor:middle;fill:#383838;fill-opacity:1;stroke:none;display:inline;font-family:Inconsolata LGC;-inkscape-font-specification:Sans"><tspan x="177.96893" y="285.48453" id="tspan6691-7-5-6">t</tspan></text>
    <text x="335.40094" y="350.5741" id="text6689-7-1-3-1-1" xml:space="preserve" style="font-size:20px;font-style:normal;font-variant:normal;font-weight:normal;font-stretch:normal;text-align:center;line-height:125%;letter-spacing:0px;word-spacing:0px;text-anchor:middle;fill:#383838;fill-opacity:1;stroke:none;display:inline;font-family:Inconsolata LGC;-inkscape-font-specification:Sans"><tspan x="335.40094" y="350.5741" dx="0 -7.6363773" id="tspan6691-7-5-6-0-9">--</tspan></text>
    <text x="502.51495" y="284.84668" id="text4171-6" xml:space="preserve" style="font-size:20px;font-style:normal;font-variant:normal;font-weight:normal;font-stretch:normal;text-align:center;line-height:125%;letter-spacing:0px;word-spacing:0px;text-anchor:middle;fill:#383838;fill-opacity:1;stroke:none;display:inline;font-family:Inconsolata LGC;-inkscape-font-specification:Inconsolata LGC"><tspan x="502.51495" y="284.84668" id="tspan4173-6">&lt;</tspan></text>
    <text x="597.96973" y="255.11938" id="text4051" xml:space="preserve" style="font-size:20px;font-style:normal;font-variant:normal;font-weight:normal;font-stretch:normal;text-align:center;line-height:125%;letter-spacing:0px;word-spacing:0px;text-anchor:middle;fill:#383838;fill-opacity:1;stroke:none;display:inline;font-family:Inconsolata LGC;-inkscape-font-specification:Inconsolata LGC"><tspan x="597.96973" y="255.11938" id="tspan4053">0</tspan></text>
    <text x="597.96973" y="151.21008" id="text4171" xml:space="preserve" style="font-size:20px;font-style:normal;font-variant:normal;font-weight:normal;font-stretch:normal;text-align:center;line-height:125%;letter-spacing:0px;word-spacing:0px;text-anchor:middle;fill:#383838;fill-opacity:1;stroke:none;display:inline;font-family:Inconsolata LGC;-inkscape-font-specification:Inconsolata LGC"><tspan x="597.96973" y="151.21008" id="tspan4173">=</tspan></text>
    <text x="245.29861" y="552.05176" id="text3191" xml:space="preserve" style="font-size:20px;font-style:normal;font-variant:normal;font-weight:normal;font-stretch:normal;text-align:center;line-height:125%;letter-spacing:0px;word-spacing:0px;text-anchor:middle;fill:#383838;fill-opacity:1;stroke:none;display:inline;font-family:Inconsolata LGC;-inkscape-font-specification:Inconsolata LGC"><tspan x="245.29861" y="552.05176" id="tspan3193">=</tspan></text>
    <text x="244.78726" y="457.27872" id="text4364" xml:space="preserve" style="font-size:20px;font-style:normal;font-variant:normal;font-weight:normal;font-stretch:normal;text-align:center;line-height:125%;letter-spacing:0px;word-spacing:0px;text-anchor:middle;fill:#383838;fill-opacity:1;stroke:none;display:inline;font-family:Inconsolata LGC;-inkscape-font-specification:Inconsolata LGC"><tspan x="244.78726" y="457.27872" id="tspan4366">start</tspan></text>
    <text x="296.33279" y="531.93805" id="text4368" xml:space="preserve" style="font-size:20px;font-style:normal;font-variant:normal;font-weight:normal;font-stretch:normal;text-align:start;line-height:125%;letter-spacing:0px;word-spacing:0px;text-anchor:start;fill:#383838;fill-opacity:1;stroke:none;display:inline;font-family:Inconsolata LGC;-inkscape-font-specification:Inconsolata LGC"><tspan x="296.33279" y="531.93805" id="tspan4370">yes</tspan></text>
    <text x="365.06018" y="551.02899" id="text4372" xml:space="preserve" style="font-size:20px;font-style:normal;font-variant:normal;font-weight:normal;font-stretch:normal;text-align:start;line-height:125%;letter-spacing:0px;word-spacing:0px;text-anchor:start;fill:#383838;fill-opacity:1;stroke:none;display:inline;font-family:Inconsolata LGC;-inkscape-font-specification:Inconsolata LGC"><tspan x="365.06018" y="551.02899" id="tspan4374">done</tspan></text>
    <text x="256.24182" y="619.75641" id="text4376" xml:space="preserve" style="font-size:20px;font-style:normal;font-variant:normal;font-weight:normal;font-stretch:normal;text-align:start;line-height:125%;letter-spacing:0px;word-spacing:0px;text-anchor:start;fill:#383838;fill-opacity:1;stroke:none;display:inline;font-family:Inconsolata LGC;-inkscape-font-specification:Inconsolata LGC"><tspan x="256.24182" y="619.75641" id="tspan4378">no</tspan></text>
    <text x="512.06042" y="666.59741" id="text3191-1" xml:space="preserve" style="font-size:20px;font-style:normal;font-variant:normal;font-weight:normal;font-stretch:normal;text-align:center;line-height:125%;letter-spacing:0px;word-spacing:0px;text-anchor:middle;fill:#383838;fill-opacity:1;stroke:none;display:inline;font-family:Inconsolata LGC;-inkscape-font-specification:Inconsolata LGC"><tspan x="512.06042" y="666.59741" id="tspan3193-1">&lt;</tspan></text>
    <text x="569.33331" y="646.48376" id="text4368-2" xml:space="preserve" style="font-size:20px;font-style:normal;font-variant:normal;font-weight:normal;font-stretch:normal;text-align:start;line-height:125%;letter-spacing:0px;word-spacing:0px;text-anchor:start;fill:#383838;fill-opacity:1;stroke:none;display:inline;font-family:Inconsolata LGC;-inkscape-font-specification:Inconsolata LGC"><tspan x="569.33331" y="646.48376" id="tspan4370-7">no</tspan></text>
    <text x="523.51501" y="726.66565" id="text4376-6" xml:space="preserve" style="font-size:20px;font-style:normal;font-variant:normal;font-weight:normal;font-stretch:normal;text-align:start;line-height:125%;letter-spacing:0px;word-spacing:0px;text-anchor:start;fill:#383838;fill-opacity:1;stroke:none;display:inline;font-family:Inconsolata LGC;-inkscape-font-specification:Inconsolata LGC"><tspan x="523.51501" y="726.66565" id="tspan4378-2">yes</tspan></text>
    <text x="349.78741" y="666.62158" id="text6689-7-1-9" xml:space="preserve" style="font-size:20px;font-style:normal;font-variant:normal;font-weight:normal;font-stretch:normal;text-align:center;line-height:125%;letter-spacing:0px;word-spacing:0px;text-anchor:middle;fill:#383838;fill-opacity:1;stroke:none;display:inline;font-family:Inconsolata LGC;-inkscape-font-specification:Sans"><tspan x="349.78741" y="666.62158" dx="0 3.8181887 3.8181887" id="tspan6691-7-5-8">t←a</tspan></text>
    <text x="244.78726" y="809.80371" id="text6689-7-1-1" xml:space="preserve" style="font-size:20px;font-style:normal;font-variant:normal;font-weight:normal;font-stretch:normal;text-align:center;line-height:125%;letter-spacing:0px;word-spacing:0px;text-anchor:middle;fill:#383838;fill-opacity:1;stroke:none;display:inline;font-family:Inconsolata LGC;-inkscape-font-specification:Sans"><tspan x="244.78726" y="809.80371" dx="0 3.8181887 3.8181887" id="tspan6691-7-5-7-7">a←b</tspan></text>
    <text x="244.78726" y="905.25842" id="text6689-7-1-12" xml:space="preserve" style="font-size:20px;font-style:normal;font-variant:normal;font-weight:normal;font-stretch:normal;text-align:center;line-height:125%;letter-spacing:0px;word-spacing:0px;text-anchor:middle;fill:#383838;fill-opacity:1;stroke:none;display:inline;font-family:Inconsolata LGC;-inkscape-font-specification:Sans"><tspan x="244.78726" y="905.25842" dx="0 3.8181887 3.8181887" id="tspan6691-7-5-5">b←t</tspan></text>
    <text x="512.06042" y="552.07593" id="text6689-7-1-9-0" xml:space="preserve" style="font-size:20px;font-style:normal;font-variant:normal;font-weight:normal;font-stretch:normal;text-align:center;line-height:125%;letter-spacing:0px;word-spacing:0px;text-anchor:middle;fill:#383838;fill-opacity:1;stroke:none;display:inline;font-family:Inconsolata LGC;-inkscape-font-specification:Sans"><tspan x="512.06042" y="552.07593" dx="0 3.8181887 3.8181887" id="tspan6691-7-5-8-2">t←d</tspan></text>
  </g>
</svg>
