<?xml version="1.0" encoding="UTF-8" standalone="no"?>
<!-- Created with Inkscape (http://www.inkscape.org/) -->
<svg xmlns:dc="http://purl.org/dc/elements/1.1/" xmlns:cc="http://creativecommons.org/ns#" xmlns:rdf="http://www.w3.org/1999/02/22-rdf-syntax-ns#" xmlns:svg="http://www.w3.org/2000/svg" xmlns="http://www.w3.org/2000/svg" preserveAspectRatio="xMinYMin meet" viewBox="0 0 28 28" id="svg9357" xml:space="preserve" version="1.1">
  <metadata id="metadata9363">
    <!--<rdf:RDF><cc:Work
         rdf:about=""><dc:format>image/svg+xml</dc:format><dc:type
           rdf:resource="http://purl.org/dc/dcmitype/StillImage" /><dc:title></dc:title></cc:Work></rdf:RDF>-->
  </metadata>
  <defs id="defs9361"/>
  <g transform="matrix(1.25,0,0,-1.25,1,25.999997)" id="g9365">
    <g transform="scale(0.03639566,0.03639566)" id="g9367">
      <path d="m 274.27,549.516 c 77.191,0 142.285,-26.493 195.273,-79.489 53.309,-53.312 79.973,-118.406 79.973,-195.269 0,-77.199 -26.172,-141.473 -78.504,-192.8205 C 415.402,27.3047 349.824,0 274.27,0 200.012,0 135.578,26.9883 80.957,80.957 26.9883,134.926 0,199.52 0,274.758 c 0,75.226 26.9883,140.32 80.957,195.269 52.988,52.996 117.422,79.489 193.313,79.489 z m 0.98,-49.555 c -62.48,0 -115.305,-21.918 -158.477,-65.746 C 71.9531,388.418 49.5547,335.27 49.5547,274.758 c 0,-60.84 22.2383,-113.508 66.7263,-157.985 44.481,-44.4878 97.469,-66.73 158.969,-66.73 61.16,0 114.477,22.4023 159.945,67.219 43.18,41.539 64.766,94.039 64.766,157.496 0,62.472 -21.918,115.625 -65.746,159.457 -43.832,43.828 -96.82,65.746 -158.965,65.746 z m 73.594,-157.008 0,-112.351 -31.403,0 0,-133.4536 -85.371,0 0,133.4536 -31.402,0 0,112.351 c 0,4.906 1.719,9.078 5.152,12.516 3.438,3.433 7.61,5.152 12.516,5.152 l 112.848,0 c 4.574,0 8.66,-1.719 12.261,-5.152 3.598,-3.438 5.399,-7.61 5.399,-12.516 z m -112.356,70.656 c 0,25.832 12.754,38.758 38.27,38.758 25.512,0 38.269,-12.926 38.269,-38.758 0,-25.515 -12.757,-38.273 -38.269,-38.273 -25.516,0 -38.27,12.758 -38.27,38.273" id="path9369" style="fill:#000000;fill-opacity:1;fill-rule:nonzero;stroke:none"/>
    </g>
  </g>
</svg>
