<?xml version="1.0" encoding="UTF-8" standalone="no"?>
<!-- Created with Inkscape (http://www.inkscape.org/) -->
<svg xmlns:dc="http://purl.org/dc/elements/1.1/" xmlns:cc="http://creativecommons.org/ns#" xmlns:rdf="http://www.w3.org/1999/02/22-rdf-syntax-ns#" xmlns:svg="http://www.w3.org/2000/svg" xmlns="http://www.w3.org/2000/svg" preserveAspectRatio="xMinYMin meet" viewBox="0 0 28 28" id="svg2" xml:space="preserve" version="1.1">
  <metadata id="metadata8">
    <!--<rdf:RDF><cc:Work
         rdf:about=""><dc:format>image/svg+xml</dc:format><dc:type
           rdf:resource="http://purl.org/dc/dcmitype/StillImage" /><dc:title></dc:title></cc:Work></rdf:RDF>-->
  </metadata>
  <defs id="defs6"/>
  <g transform="matrix(1.25,0,0,-1.25,1,25.999997)" id="g10">
    <g transform="scale(0.03639566,0.03639566)" id="g12">
      <path d="m 274.27,549.516 c 76.859,0 142.285,-26.825 196.253,-80.469 25.836,-25.84 45.457,-55.359 58.875,-88.559 13.411,-33.203 20.118,-68.441 20.118,-105.73 0,-37.621 -6.625,-72.86 -19.871,-105.735 C 516.398,136.152 496.848,107.121 471.012,81.9375 444.191,55.4453 413.77,35.1562 379.758,21.0977 345.734,7.03125 310.578,0 274.27,0 237.961,0 203.203,6.94141 170.004,20.8555 136.801,34.75 107.035,54.8672 80.707,81.2031 54.375,107.523 34.3477,137.211 20.6055,170.25 6.87109,203.285 0,238.121 0,274.758 c 0,36.304 6.94531,71.219 20.8555,104.75 13.8945,33.523 34.0976,63.539 60.5898,90.035 52.3277,53.309 116.6017,79.973 192.8247,79.973 z m 0.98,-49.555 c -62.805,0 -115.629,-21.918 -158.477,-65.746 C 95.1875,412.297 78.5781,387.68 66.9727,360.371 55.3555,333.055 49.5547,304.516 49.5547,274.758 c 0,-29.442 5.8008,-57.82 17.418,-85.125 11.6054,-27.321 28.2148,-51.688 49.8003,-73.106 21.586,-21.4293 45.954,-37.7809 73.106,-49.0661 27.144,-11.2851 55.601,-16.9218 85.371,-16.9218 29.438,0 57.969,5.7148 85.613,17.1718 27.637,11.4453 52.575,27.9649 74.825,49.5511 42.847,41.863 64.273,94.363 64.273,157.496 0,30.418 -5.566,59.199 -16.684,86.351 -11.125,27.149 -27.316,51.348 -48.57,72.618 -44.16,44.156 -97.312,66.234 -159.457,66.234 z M 271.812,320.387 235.016,301.25 c -3.926,8.176 -8.754,13.902 -14.473,17.172 -5.727,3.266 -11.039,4.91 -15.949,4.91 -24.532,0 -36.797,-16.195 -36.797,-48.574 0,-14.719 3.105,-26.496 9.324,-35.324 6.211,-8.832 15.371,-13.254 27.473,-13.254 16.027,0 27.312,7.851 33.859,23.554 l 33.852,-17.172 c -7.196,-13.417 -17.172,-23.964 -29.93,-31.644 -12.754,-7.691 -26.824,-11.535 -42.195,-11.535 -24.532,0 -44.325,7.527 -59.364,22.57 -15.05,15.043 -22.574,35.981 -22.574,62.805 0,26.164 7.61,46.93 22.817,62.312 15.211,15.371 34.421,23.059 57.648,23.059 34.02,0 58.387,-13.25 73.105,-39.742 z m 158.477,0 -36.305,-19.137 c -3.925,8.176 -8.754,13.902 -14.476,17.172 -5.727,3.266 -11.207,4.91 -16.438,4.91 -24.531,0 -36.797,-16.195 -36.797,-48.574 0,-14.719 3.106,-26.496 9.325,-35.324 6.211,-8.832 15.371,-13.254 27.472,-13.254 16.028,0 27.313,7.851 33.856,23.554 l 34.344,-17.172 c -7.528,-13.417 -17.661,-23.964 -30.418,-31.644 -12.754,-7.691 -26.661,-11.535 -41.707,-11.535 -24.856,0 -44.731,7.527 -59.61,22.57 -14.887,15.043 -22.324,35.981 -22.324,62.805 0,26.164 7.605,46.93 22.812,62.312 15.211,15.371 34.426,23.059 57.653,23.059 34.015,0 58.219,-13.25 72.613,-39.742" id="path14" style="fill:#000000;fill-opacity:1;fill-rule:nonzero;stroke:none"/>
    </g>
  </g>
</svg>
