<?xml version="1.0" encoding="UTF-8" standalone="no"?>
<!-- Created with Inkscape (http://www.inkscape.org/) -->
<?xml-stylesheet href="../../css/fonts/fonts.css" type="text/css"?>
<svg xmlns:dc="http://purl.org/dc/elements/1.1/" xmlns:cc="http://creativecommons.org/ns#" xmlns:rdf="http://www.w3.org/1999/02/22-rdf-syntax-ns#" xmlns:svg="http://www.w3.org/2000/svg" xmlns="http://www.w3.org/2000/svg" preserveAspectRatio="xMinYMin meet" viewBox="0 0 644 329" id="svg2" style="display:inline" version="1.1">
  <title id="title4943">SICP Figure 2.3</title>
  <defs id="defs4">
    <marker refX="0" refY="0" orient="auto" id="Arrow1Mstart" style="overflow:visible">
      <path d="M 0,0 5,-5 -12.5,0 5,5 0,0 z" transform="matrix(0.4,0,0,0.4,4,0)" id="path4565" style="fill:#383838;fill-rule:evenodd;stroke:#383838;stroke-width:1pt;marker-start:none"/>
    </marker>
    <marker refX="0" refY="0" orient="auto" id="Arrow1Lstart" style="overflow:visible">
      <path d="M 0,0 5,-5 -12.5,0 5,5 0,0 z" transform="matrix(0.8,0,0,0.8,10,0)" id="path4559" style="fill-rule:evenodd;stroke:#383838;stroke-width:1pt;marker-start:none"/>
    </marker>
    <marker refX="0" refY="0" orient="auto" id="Arrow1Mstart-0" style="overflow:visible">
      <path d="M 0,0 5,-5 -12.5,0 5,5 0,0 z" transform="matrix(0.4,0,0,0.4,4,0)" id="path4565-7" style="fill-rule:evenodd;stroke:#383838;stroke-width:1pt;marker-start:none"/>
    </marker>
    <marker refX="0" refY="0" orient="auto" id="Arrow1Mstart-9" style="overflow:visible">
      <path d="M 0,0 5,-5 -12.5,0 5,5 0,0 z" transform="matrix(0.4,0,0,0.4,4,0)" id="path4565-6" style="fill-rule:evenodd;stroke:#383838;stroke-width:1pt;marker-start:none"/>
    </marker>
    <marker refX="0" refY="0" orient="auto" id="Arrow1Mstart-2" style="overflow:visible">
      <path d="M 0,0 5,-5 -12.5,0 5,5 0,0 z" transform="matrix(0.4,0,0,0.4,4,0)" id="path4565-4" style="fill-rule:evenodd;stroke:#383838;stroke-width:1pt;marker-start:none"/>
    </marker>
    <marker refX="0" refY="0" orient="auto" id="Arrow1Mstart-3" style="overflow:visible">
      <path d="M 0,0 5,-5 -12.5,0 5,5 0,0 z" transform="matrix(0.4,0,0,0.4,4,0)" id="path4565-2" style="fill-rule:evenodd;stroke:#383838;stroke-width:1pt;marker-start:none"/>
    </marker>
    <marker refX="0" refY="0" orient="auto" id="marker3340" style="overflow:visible">
      <path d="M 0,0 5,-5 -12.5,0 5,5 0,0 z" transform="matrix(0.4,0,0,0.4,4,0)" id="path3342" style="fill-rule:evenodd;stroke:#383838;stroke-width:1pt;marker-start:none"/>
    </marker>
    <marker refX="0" refY="0" orient="auto" id="marker3344" style="overflow:visible">
      <path d="M 0,0 5,-5 -12.5,0 5,5 0,0 z" transform="matrix(0.4,0,0,0.4,4,0)" id="path3346" style="fill-rule:evenodd;stroke:#383838;stroke-width:1pt;marker-start:none"/>
    </marker>
    <marker refX="0" refY="0" orient="auto" id="Arrow1Mstart-6" style="overflow:visible">
      <path d="M 0,0 5,-5 -12.5,0 5,5 0,0 z" transform="matrix(0.4,0,0,0.4,4,0)" id="path4565-9" style="fill-rule:evenodd;stroke:#383838;stroke-width:1pt;marker-start:none"/>
    </marker>
    <marker refX="0" refY="0" orient="auto" id="marker3411" style="overflow:visible">
      <path d="M 0,0 5,-5 -12.5,0 5,5 0,0 z" transform="matrix(0.4,0,0,0.4,4,0)" id="path3413" style="fill-rule:evenodd;stroke:#383838;stroke-width:1pt;marker-start:none"/>
    </marker>
    <marker refX="0" refY="0" orient="auto" id="marker3415" style="overflow:visible">
      <path d="M 0,0 5,-5 -12.5,0 5,5 0,0 z" transform="matrix(0.4,0,0,0.4,4,0)" id="path3417" style="fill-rule:evenodd;stroke:#383838;stroke-width:1pt;marker-start:none"/>
    </marker>
    <marker refX="0" refY="0" orient="auto" id="Arrow1Mstart-8" style="overflow:visible">
      <path d="M 0,0 5,-5 -12.5,0 5,5 0,0 z" transform="matrix(0.4,0,0,0.4,4,0)" id="path4565-95" style="fill-rule:evenodd;stroke:#383838;stroke-width:1pt;marker-start:none"/>
    </marker>
    <marker refX="0" refY="0" orient="auto" id="marker3505" style="overflow:visible">
      <path d="M 0,0 5,-5 -12.5,0 5,5 0,0 z" transform="matrix(0.4,0,0,0.4,4,0)" id="path3507" style="fill-rule:evenodd;stroke:#383838;stroke-width:1pt;marker-start:none"/>
    </marker>
    <marker refX="0" refY="0" orient="auto" id="marker3509" style="overflow:visible">
      <path d="M 0,0 5,-5 -12.5,0 5,5 0,0 z" transform="matrix(0.4,0,0,0.4,4,0)" id="path3511" style="fill-rule:evenodd;stroke:#383838;stroke-width:1pt;marker-start:none"/>
    </marker>
    <marker refX="0" refY="0" orient="auto" id="Arrow1Mstart-88" style="overflow:visible">
      <path d="M 0,0 5,-5 -12.5,0 5,5 0,0 z" transform="matrix(0.4,0,0,0.4,4,0)" id="path4565-45" style="fill-rule:evenodd;stroke:#383838;stroke-width:1pt;marker-start:none"/>
    </marker>
    <marker refX="0" refY="0" orient="auto" id="Arrow1Mstart-33" style="overflow:visible">
      <path d="M 0,0 5,-5 -12.5,0 5,5 0,0 z" transform="matrix(0.4,0,0,0.4,4,0)" id="path4565-46" style="fill-rule:evenodd;stroke:#383838;stroke-width:1pt;marker-start:none"/>
    </marker>
    <marker refX="0" refY="0" orient="auto" id="marker3610" style="overflow:visible">
      <path d="M 0,0 5,-5 -12.5,0 5,5 0,0 z" transform="matrix(0.4,0,0,0.4,4,0)" id="path3612" style="fill-rule:evenodd;stroke:#383838;stroke-width:1pt;marker-start:none"/>
    </marker>
    <marker refX="0" refY="0" orient="auto" id="Arrow1Mstart-27" style="overflow:visible">
      <path d="M 0,0 5,-5 -12.5,0 5,5 0,0 z" transform="matrix(0.4,0,0,0.4,4,0)" id="path4565-91" style="fill-rule:evenodd;stroke:#383838;stroke-width:1pt;marker-start:none"/>
    </marker>
    <marker refX="0" refY="0" orient="auto" id="marker3686" style="overflow:visible">
      <path d="M 0,0 5,-5 -12.5,0 5,5 0,0 z" transform="matrix(0.4,0,0,0.4,4,0)" id="path3688" style="fill-rule:evenodd;stroke:#383838;stroke-width:1pt;marker-start:none"/>
    </marker>
    <marker refX="0" refY="0" orient="auto" id="marker3690" style="overflow:visible">
      <path d="M 0,0 5,-5 -12.5,0 5,5 0,0 z" transform="matrix(0.4,0,0,0.4,4,0)" id="path3692" style="fill-rule:evenodd;stroke:#383838;stroke-width:1pt;marker-start:none"/>
    </marker>
    <marker refX="0" refY="0" orient="auto" id="Arrow1Mstart-1" style="overflow:visible">
      <path d="M 0,0 5,-5 -12.5,0 5,5 0,0 z" transform="matrix(0.4,0,0,0.4,4,0)" id="path4565-26" style="fill-rule:evenodd;stroke:#383838;stroke-width:1pt;marker-start:none"/>
    </marker>
    <marker refX="0" refY="0" orient="auto" id="marker3750" style="overflow:visible">
      <path d="M 0,0 5,-5 -12.5,0 5,5 0,0 z" transform="matrix(0.4,0,0,0.4,4,0)" id="path3752" style="fill-rule:evenodd;stroke:#383838;stroke-width:1pt;marker-start:none"/>
    </marker>
  </defs>
  <metadata id="metadata_2.3">
  <!--
    <rdf:RDF>
      <cc:Work rdf:about="">
        <dc:format>image/svg+xml</dc:format>
        <dc:type rdf:resource="http://purl.org/dc/dcmitype/StillImage"></dc:type>
        <dc:title>SICP Figure 2.3</dc:title>
        <cc:license rdf:resource="http://creativecommons.org/licenses/by-sa/3.0/"></cc:license>
        <dc:description>Based on the diagram in Abelson, Sussman &amp; Sussman's "Structure and Interpretation of Computer Programs", 2nd ed.</dc:description>
        <dc:source>http://mitpress.mit.edu/sicp/full-text/book/book-Z-H-15.html#%_fig_2.3</dc:source>
        <dc:creator>
          <cc:Agent>
            <dc:title>Andres Raba</dc:title>
          </cc:Agent>
        </dc:creator>
        <dc:date>2012-11-17</dc:date>
        <dc:subject>
          <rdf:Bag>
            <rdf:li>pair</rdf:li>
            <rdf:li>hierarchical</rdf:li>
            <rdf:li>data</rdf:li>
            <rdf:li>structure</rdf:li>
            <rdf:li>combination</rdf:li>
            <rdf:li>box-and-pointer</rdf:li>
            <rdf:li>box</rdf:li>
            <rdf:li>pointer</rdf:li>
            <rdf:li>notation</rdf:li>
            <rdf:li>cons</rdf:li>
            <rdf:li>car</rdf:li>
            <rdf:li>cdr</rdf:li>
            <rdf:li>closure</rdf:li>
          </rdf:Bag>
        </dc:subject>
      </cc:Work>
      <cc:License rdf:about="http://creativecommons.org/licenses/by-sa/3.0/">
        <cc:permits rdf:resource="http://creativecommons.org/ns#Reproduction"></cc:permits>
        <cc:permits rdf:resource="http://creativecommons.org/ns#Distribution"></cc:permits>
        <cc:requires rdf:resource="http://creativecommons.org/ns#Notice"></cc:requires>
        <cc:requires rdf:resource="http://creativecommons.org/ns#Attribution"></cc:requires>
        <cc:permits rdf:resource="http://creativecommons.org/ns#DerivativeWorks"></cc:permits>
        <cc:requires rdf:resource="http://creativecommons.org/ns#ShareAlike"></cc:requires>
      </cc:License>
    </rdf:RDF>
  -->
</metadata>
  <g transform="translate(-36.639543,-60.65625)" id="layer5">
    <rect width="95.454552" height="47.727276" rx="6.7644958" ry="6.7644958" x="107.17252" y="63.069424" id="rect3794-7-1-0" style="fill:#e8e8e8;fill-opacity:1;stroke:#383838;stroke-width:0.8117395;stroke-linecap:round;stroke-linejoin:round;stroke-miterlimit:4;stroke-opacity:1;stroke-dasharray:none;stroke-dashoffset:0;display:inline"/>
    <rect width="95.454552" height="47.727276" rx="6.7644958" ry="6.7644958" x="460.35437" y="63.069424" id="rect3794-7-1-0-3" style="fill:#e8e8e8;fill-opacity:1;stroke:#383838;stroke-width:0.8117395;stroke-linecap:round;stroke-linejoin:round;stroke-miterlimit:4;stroke-opacity:1;stroke-dasharray:none;stroke-dashoffset:0;display:inline"/>
    <rect width="95.454552" height="47.727276" rx="6.7644958" ry="6.7644958" x="240.8089" y="63.069424" id="rect3794-7-1-0-0" style="fill:#e8e8e8;fill-opacity:1;stroke:#383838;stroke-width:0.8117395;stroke-linecap:round;stroke-linejoin:round;stroke-miterlimit:4;stroke-opacity:1;stroke-dasharray:none;stroke-dashoffset:0;display:inline"/>
    <rect width="95.454552" height="47.727276" rx="6.7644958" ry="6.7644958" x="84.263428" y="148.97852" id="rect3794-7-1-0-0-6" style="fill:#e8e8e8;fill-opacity:1;stroke:#383838;stroke-width:0.8117395;stroke-linecap:round;stroke-linejoin:round;stroke-miterlimit:4;stroke-opacity:1;stroke-dasharray:none;stroke-dashoffset:0;display:inline"/>
    <rect width="47.727276" height="47.727276" rx="6.7644958" ry="6.7644958" x="236.99071" y="148.97852" id="rect3794-77-9-8-4" style="fill:none;stroke:#383838;stroke-width:0.8117395;stroke-linecap:round;stroke-linejoin:round;stroke-miterlimit:4;stroke-opacity:1;stroke-dasharray:none;stroke-dashoffset:0;display:inline"/>
    <rect width="47.727276" height="47.727276" rx="6.7644958" ry="6.7644958" x="294.26346" y="148.97852" id="rect3794-77-9-48" style="fill:none;stroke:#383838;stroke-width:0.8117395;stroke-linecap:round;stroke-linejoin:round;stroke-miterlimit:4;stroke-opacity:1;stroke-dasharray:none;stroke-dashoffset:0;display:inline"/>
    <rect width="47.727276" height="47.727276" rx="6.7644958" ry="6.7644958" x="78.536156" y="234.88762" id="rect3794-77-9-4-6" style="fill:none;stroke:#383838;stroke-width:0.8117395;stroke-linecap:round;stroke-linejoin:round;stroke-miterlimit:4;stroke-opacity:1;stroke-dasharray:none;stroke-dashoffset:0;display:inline"/>
    <rect width="47.727276" height="47.727276" rx="6.7644958" ry="6.7644958" x="135.80888" y="234.88762" id="rect3794-77-9-5-4" style="fill:none;stroke:#383838;stroke-width:0.8117395;stroke-linecap:round;stroke-linejoin:round;stroke-miterlimit:4;stroke-opacity:1;stroke-dasharray:none;stroke-dashoffset:0;display:inline"/>
    <rect width="47.727276" height="47.727276" rx="6.7644958" ry="6.7644958" x="593.99072" y="63.069424" id="rect3794-77-9" style="fill:none;stroke:#383838;stroke-width:0.8117395;stroke-linecap:round;stroke-linejoin:round;stroke-miterlimit:4;stroke-opacity:1;stroke-dasharray:none;stroke-dashoffset:0;display:inline"/>
    <rect width="95.454552" height="47.727276" rx="6.7644958" ry="6.7644958" x="437.44528" y="148.97852" id="rect3794-7-1-0-6" style="fill:#e8e8e8;fill-opacity:1;stroke:#383838;stroke-width:0.8117395;stroke-linecap:round;stroke-linejoin:round;stroke-miterlimit:4;stroke-opacity:1;stroke-dasharray:none;stroke-dashoffset:0;display:inline"/>
    <rect width="95.454552" height="47.727276" rx="6.7644958" ry="6.7644958" x="571.08167" y="148.97852" id="rect3794-7-1-0-0-5" style="fill:#e8e8e8;fill-opacity:1;stroke:#383838;stroke-width:0.8117395;stroke-linecap:round;stroke-linejoin:round;stroke-miterlimit:4;stroke-opacity:1;stroke-dasharray:none;stroke-dashoffset:0;display:inline"/>
    <rect width="47.727276" height="47.727276" rx="6.7644958" ry="6.7644958" x="437.44528" y="234.88762" id="rect3794-77-9-4" style="fill:none;stroke:#383838;stroke-width:0.8117395;stroke-linecap:round;stroke-linejoin:round;stroke-miterlimit:4;stroke-opacity:1;stroke-dasharray:none;stroke-dashoffset:0;display:inline"/>
    <rect width="47.727276" height="47.727276" rx="6.7644958" ry="6.7644958" x="565.35437" y="234.88762" id="rect3794-77-9-5" style="fill:none;stroke:#383838;stroke-width:0.8117395;stroke-linecap:round;stroke-linejoin:round;stroke-miterlimit:4;stroke-opacity:1;stroke-dasharray:none;stroke-dashoffset:0;display:inline"/>
    <rect width="47.727276" height="47.727276" rx="6.7644958" ry="6.7644958" x="622.62714" y="234.88762" id="rect3794-77-9-8" style="fill:none;stroke:#383838;stroke-width:0.8117395;stroke-linecap:round;stroke-linejoin:round;stroke-miterlimit:4;stroke-opacity:1;stroke-dasharray:none;stroke-dashoffset:0;display:inline"/>
  </g>
  <g transform="translate(-36.639543,-60.65625)" id="layer2" style="display:inline">
    <path d="m 120,84.862183 a 2.5,2.5 0 1 1 -5,0 2.5,2.5 0 1 1 5,0 z" transform="matrix(1.9090911,0,0,1.9090911,-92.3275,-74.174376)" id="path4491-4-7" style="fill:#383838;fill-opacity:1;stroke:#383838;stroke-width:0;stroke-linecap:round;stroke-linejoin:round;stroke-miterlimit:4;stroke-opacity:1;stroke-dasharray:none;stroke-dashoffset:0;display:inline"/>
    <path d="m 120,84.862183 a 2.5,2.5 0 1 1 -5,0 2.5,2.5 0 1 1 5,0 z" transform="matrix(1.9090911,0,0,1.9090911,-45.554768,-74.122029)" id="path4491-44-0" style="fill:#383838;fill-opacity:1;stroke:#383838;stroke-width:0;stroke-linecap:round;stroke-linejoin:round;stroke-miterlimit:4;stroke-opacity:1;stroke-dasharray:none;stroke-dashoffset:0;display:inline"/>
    <path d="m 131.9907,145.16034 0,-53.454555" id="path4554-5-0" style="fill:none;stroke:#383838;stroke-width:1.4881891;stroke-linecap:round;stroke-linejoin:round;stroke-miterlimit:4;stroke-opacity:1;stroke-dasharray:none;marker-start:url(#Arrow1Mstart);display:inline"/>
    <path d="m 236.99071,87.887603 -53.45455,0" id="path4554-5-2-3" style="fill:none;stroke:#383838;stroke-width:1.4881891;stroke-linecap:round;stroke-linejoin:round;stroke-miterlimit:4;stroke-opacity:1;stroke-dasharray:none;marker-start:url(#Arrow1Mstart);display:inline"/>
    <path d="m 103.35434,87.887603 -63.000009,0" id="path4554-9-4" style="fill:none;stroke:#383838;stroke-width:1.4881891;stroke-linecap:round;stroke-linejoin:round;stroke-miterlimit:4;stroke-opacity:1;stroke-dasharray:none;marker-start:url(#Arrow1Mstart);display:inline"/>
    <path d="m 311.44527,145.16034 0,-53.454555" id="path4554-5-0-2-6" style="fill:none;stroke:#383838;stroke-width:1.4881891;stroke-linecap:round;stroke-linejoin:round;stroke-miterlimit:4;stroke-opacity:1;stroke-dasharray:none;marker-start:url(#Arrow1Mstart);display:inline"/>
    <path d="m 265.62708,145.16034 0,-53.454555" id="path4554-5-0-2" style="fill:none;stroke:#383838;stroke-width:1.4881891;stroke-linecap:round;stroke-linejoin:round;stroke-miterlimit:4;stroke-opacity:1;stroke-dasharray:none;marker-start:url(#Arrow1Mstart);display:inline"/>
    <path d="m 109.08161,231.06944 0,-53.45456" id="path4554-5-0-2-2" style="fill:none;stroke:#383838;stroke-width:1.4881891;stroke-linecap:round;stroke-linejoin:round;stroke-miterlimit:4;stroke-opacity:1;stroke-dasharray:none;marker-start:url(#Arrow1Mstart);display:inline"/>
    <path d="m 154.8998,231.06944 0,-53.45456" id="path4554-5-0-2-6-9" style="fill:none;stroke:#383838;stroke-width:1.4881891;stroke-linecap:round;stroke-linejoin:round;stroke-miterlimit:4;stroke-opacity:1;stroke-dasharray:none;marker-start:url(#Arrow1Mstart);display:inline"/>
    <path d="m 485.17256,145.16034 0,-53.454555" id="path4554-5-0-9" style="fill:none;stroke:#383838;stroke-width:1.4881891;stroke-linecap:round;stroke-linejoin:round;stroke-miterlimit:4;stroke-opacity:1;stroke-dasharray:none;marker-start:url(#Arrow1Mstart);display:inline"/>
    <path d="m 590.17257,87.887603 -53.45455,0" id="path4554-5-2-3-8" style="fill:none;stroke:#383838;stroke-width:1.4881891;stroke-linecap:round;stroke-linejoin:round;stroke-miterlimit:4;stroke-opacity:1;stroke-dasharray:none;marker-start:url(#Arrow1Mstart);display:inline"/>
    <path d="m 456.53619,87.887603 -63.00001,0" id="path4554-9-4-6" style="fill:none;stroke:#383838;stroke-width:1.4881891;stroke-linecap:round;stroke-linejoin:round;stroke-miterlimit:4;stroke-opacity:1;stroke-dasharray:none;marker-start:url(#Arrow1Mstart);display:inline"/>
    <path d="m 508.08165,63.069419 0,47.727281" id="path4405-1-3-3" style="fill:none;stroke:#383838;stroke-width:0.8117395;stroke-linecap:butt;stroke-linejoin:miter;stroke-miterlimit:4;stroke-opacity:1;stroke-dasharray:none;display:inline"/>
    <path d="m 288.53617,63.069419 0,47.727281" id="path4405-1-3-8" style="fill:none;stroke:#383838;stroke-width:0.8117395;stroke-linecap:butt;stroke-linejoin:miter;stroke-miterlimit:4;stroke-opacity:1;stroke-dasharray:none;display:inline"/>
    <path d="m 154.8998,63.069419 0,47.727281" id="path4405-1-3" style="fill:none;stroke:#383838;stroke-width:0.8117395;stroke-linecap:butt;stroke-linejoin:miter;stroke-miterlimit:4;stroke-opacity:1;stroke-dasharray:none;display:inline"/>
    <path d="m 131.9907,148.97852 0,47.72728" id="path4405-1-3-8-1" style="fill:none;stroke:#383838;stroke-width:0.8117395;stroke-linecap:butt;stroke-linejoin:miter;stroke-miterlimit:4;stroke-opacity:1;stroke-dasharray:none;display:inline"/>
    <path d="m 485.17256,148.97854 0,47.72727" id="path4405-1-3-84" style="fill:none;stroke:#383838;stroke-width:0.8117395;stroke-linecap:butt;stroke-linejoin:miter;stroke-miterlimit:4;stroke-opacity:1;stroke-dasharray:none;display:inline"/>
    <path d="m 618.80893,148.97852 0,47.72728" id="path4405-1-3-8-6" style="fill:none;stroke:#383838;stroke-width:0.8117395;stroke-linecap:butt;stroke-linejoin:miter;stroke-miterlimit:4;stroke-opacity:1;stroke-dasharray:none;display:inline"/>
    <path d="m 462.26346,231.06944 0,-53.45454" id="path4554-5-0-7" style="fill:none;stroke:#383838;stroke-width:1.4881891;stroke-linecap:round;stroke-linejoin:round;stroke-miterlimit:4;stroke-opacity:1;stroke-dasharray:none;marker-start:url(#Arrow1Mstart);display:inline"/>
    <path d="m 567.26347,173.79672 -53.45455,0" id="path4554-5-2-3-2" style="fill:none;stroke:#383838;stroke-width:1.4881891;stroke-linecap:round;stroke-linejoin:round;stroke-miterlimit:4;stroke-opacity:1;stroke-dasharray:none;marker-start:url(#Arrow1Mstart);display:inline"/>
    <path d="m 595.89984,231.06942 0,-53.45454" id="path4554-5-0-2-26" style="fill:none;stroke:#383838;stroke-width:1.4881891;stroke-linecap:round;stroke-linejoin:round;stroke-miterlimit:4;stroke-opacity:1;stroke-dasharray:none;marker-start:url(#Arrow1Mstart);display:inline"/>
    <path d="m 641.71803,231.06942 0,-53.45454" id="path4554-5-0-2-6-91" style="fill:none;stroke:#383838;stroke-width:1.4881891;stroke-linecap:round;stroke-linejoin:round;stroke-miterlimit:4;stroke-opacity:1;stroke-dasharray:none;marker-start:url(#Arrow1Mstart);display:inline"/>
  </g>
  <g transform="translate(-36.639543,-60.65625)" id="layer3" style="display:inline">
    <path d="m 120,84.862183 a 2.5,2.5 0 1 1 -5,0 2.5,2.5 0 1 1 5,0 z" transform="matrix(1.9090911,0,0,1.9090911,260.85435,-74.174376)" id="path4491-4-7-3" style="fill:#383838;fill-opacity:1;stroke:#383838;stroke-width:0;stroke-linecap:round;stroke-linejoin:round;stroke-miterlimit:4;stroke-opacity:1;stroke-dasharray:none;stroke-dashoffset:0;display:inline"/>
    <path d="m 120,84.862183 a 2.5,2.5 0 1 1 -5,0 2.5,2.5 0 1 1 5,0 z" transform="matrix(1.9090911,0,0,1.9090911,307.62708,-74.122029)" id="path4491-44-0-7" style="fill:#383838;fill-opacity:1;stroke:#383838;stroke-width:0;stroke-linecap:round;stroke-linejoin:round;stroke-miterlimit:4;stroke-opacity:1;stroke-dasharray:none;stroke-dashoffset:0;display:inline"/>
    <path d="m 120,84.862183 a 2.5,2.5 0 1 1 -5,0 2.5,2.5 0 1 1 5,0 z" transform="matrix(1.9090911,0,0,1.9090911,237.94526,11.734742)" id="path4491-4-7-6" style="fill:#383838;fill-opacity:1;stroke:#383838;stroke-width:0;stroke-linecap:round;stroke-linejoin:round;stroke-miterlimit:4;stroke-opacity:1;stroke-dasharray:none;stroke-dashoffset:0;display:inline"/>
    <path d="m 120,84.862183 a 2.5,2.5 0 1 1 -5,0 2.5,2.5 0 1 1 5,0 z" transform="matrix(1.9090911,0,0,1.9090911,284.71799,11.78709)" id="path4491-44-0-6" style="fill:#383838;fill-opacity:1;stroke:#383838;stroke-width:0;stroke-linecap:round;stroke-linejoin:round;stroke-miterlimit:4;stroke-opacity:1;stroke-dasharray:none;stroke-dashoffset:0;display:inline"/>
    <text x="454.96799" y="266.45578" id="text3007-0-2" xml:space="preserve" style="font-size:20px;font-style:normal;font-variant:normal;font-weight:normal;font-stretch:normal;line-height:125%;letter-spacing:0px;word-spacing:0px;fill:#383838;fill-opacity:1;stroke:none;font-family:Inconsolata LGC;-inkscape-font-specification:Inconsolata LGC"><tspan x="454.96799" y="266.45578" id="tspan3009-8-5" style="font-weight:normal;-inkscape-font-specification:Inconsolata LGC">1</tspan></text>
    <text x="611.51343" y="94.637619" id="text3007-0" xml:space="preserve" style="font-size:20px;font-style:normal;font-variant:normal;font-weight:normal;font-stretch:normal;line-height:125%;letter-spacing:0px;word-spacing:0px;fill:#383838;fill-opacity:1;stroke:none;font-family:Inconsolata LGC;-inkscape-font-specification:Inconsolata LGC"><tspan x="611.51343" y="94.637619" id="tspan3009-8" style="font-weight:normal;-inkscape-font-specification:Inconsolata LGC">4</tspan></text>
    <path d="m 120,84.862183 a 2.5,2.5 0 1 1 -5,0 2.5,2.5 0 1 1 5,0 z" transform="matrix(1.9090911,0,0,1.9090911,371.58164,10.832525)" id="path4491-4-7-37-2" style="fill:#383838;fill-opacity:1;stroke:#383838;stroke-width:0;stroke-linecap:round;stroke-linejoin:round;stroke-miterlimit:4;stroke-opacity:1;stroke-dasharray:none;stroke-dashoffset:0;display:inline"/>
    <path d="m 120,84.862183 a 2.5,2.5 0 1 1 -5,0 2.5,2.5 0 1 1 5,0 z" transform="matrix(1.9090911,0,0,1.9090911,417.39982,10.832525)" id="path4491-44-0-8-5" style="fill:#383838;fill-opacity:1;stroke:#383838;stroke-width:0;stroke-linecap:round;stroke-linejoin:round;stroke-miterlimit:4;stroke-opacity:1;stroke-dasharray:none;stroke-dashoffset:0;display:inline"/>
    <text x="582.87708" y="266.45578" id="text3007-0-7" xml:space="preserve" style="font-size:20px;font-style:normal;font-variant:normal;font-weight:normal;font-stretch:normal;line-height:125%;letter-spacing:0px;word-spacing:0px;fill:#383838;fill-opacity:1;stroke:none;font-family:Inconsolata LGC;-inkscape-font-specification:Inconsolata LGC"><tspan x="582.87708" y="266.45578" id="tspan3009-8-52" style="font-weight:normal;-inkscape-font-specification:Inconsolata LGC">2</tspan></text>
    <text x="640.14984" y="266.45578" id="text3007-0-6" xml:space="preserve" style="font-size:20px;font-style:normal;font-variant:normal;font-weight:normal;font-stretch:normal;line-height:125%;letter-spacing:0px;word-spacing:0px;fill:#383838;fill-opacity:1;stroke:none;font-family:Inconsolata LGC;-inkscape-font-specification:Inconsolata LGC"><tspan x="640.14984" y="266.45578" id="tspan3009-8-6" style="font-weight:normal;-inkscape-font-specification:Inconsolata LGC">3</tspan></text>
    <path d="m 120,84.862183 a 2.5,2.5 0 1 1 -5,0 2.5,2.5 0 1 1 5,0 z" transform="matrix(1.9090911,0,0,1.9090911,-115.23659,10.832525)" id="path4491-4-7-37-7" style="fill:#383838;fill-opacity:1;stroke:#383838;stroke-width:0;stroke-linecap:round;stroke-linejoin:round;stroke-miterlimit:4;stroke-opacity:1;stroke-dasharray:none;stroke-dashoffset:0;display:inline"/>
    <path d="m 120,84.862183 a 2.5,2.5 0 1 1 -5,0 2.5,2.5 0 1 1 5,0 z" transform="matrix(1.9090911,0,0,1.9090911,-69.418407,10.832525)" id="path4491-44-0-8-2" style="fill:#383838;fill-opacity:1;stroke:#383838;stroke-width:0;stroke-linecap:round;stroke-linejoin:round;stroke-miterlimit:4;stroke-opacity:1;stroke-dasharray:none;stroke-dashoffset:0;display:inline"/>
    <path d="m 120,84.862183 a 2.5,2.5 0 1 1 -5,0 2.5,2.5 0 1 1 5,0 z" transform="matrix(1.9090911,0,0,1.9090911,41.308876,-75.076574)" id="path4491-4-7-37" style="fill:#383838;fill-opacity:1;stroke:#383838;stroke-width:0;stroke-linecap:round;stroke-linejoin:round;stroke-miterlimit:4;stroke-opacity:1;stroke-dasharray:none;stroke-dashoffset:0;display:inline"/>
    <path d="m 120,84.862183 a 2.5,2.5 0 1 1 -5,0 2.5,2.5 0 1 1 5,0 z" transform="matrix(1.9090911,0,0,1.9090911,87.127063,-75.076574)" id="path4491-44-0-8" style="fill:#383838;fill-opacity:1;stroke:#383838;stroke-width:0;stroke-linecap:round;stroke-linejoin:round;stroke-miterlimit:4;stroke-opacity:1;stroke-dasharray:none;stroke-dashoffset:0;display:inline"/>
    <text x="254.51341" y="180.54669" id="text3007-0-6-7" xml:space="preserve" style="font-size:20px;font-style:normal;font-variant:normal;font-weight:normal;font-stretch:normal;line-height:125%;letter-spacing:0px;word-spacing:0px;fill:#383838;fill-opacity:1;stroke:none;font-family:Inconsolata LGC;-inkscape-font-specification:Inconsolata LGC"><tspan x="254.51341" y="180.54669" id="tspan3009-8-6-4" style="font-weight:normal;-inkscape-font-specification:Inconsolata LGC">3</tspan></text>
    <text x="311.78616" y="180.54669" id="text3007-0-3" xml:space="preserve" style="font-size:20px;font-style:normal;font-variant:normal;font-weight:normal;font-stretch:normal;line-height:125%;letter-spacing:0px;word-spacing:0px;fill:#383838;fill-opacity:1;stroke:none;font-family:Inconsolata LGC;-inkscape-font-specification:Inconsolata LGC"><tspan x="311.78616" y="180.54669" id="tspan3009-8-3" style="font-weight:normal;-inkscape-font-specification:Inconsolata LGC">4</tspan></text>
    <text x="96.058853" y="266.45578" id="text3007-0-2-1" xml:space="preserve" style="font-size:20px;font-style:normal;font-variant:normal;font-weight:normal;font-stretch:normal;line-height:125%;letter-spacing:0px;word-spacing:0px;fill:#383838;fill-opacity:1;stroke:none;font-family:Inconsolata LGC;-inkscape-font-specification:Inconsolata LGC"><tspan x="96.058853" y="266.45578" id="tspan3009-8-5-5" style="font-weight:normal;-inkscape-font-specification:Inconsolata LGC">1</tspan></text>
    <text x="153.33159" y="266.45578" id="text3007-0-7-6" xml:space="preserve" style="font-size:20px;font-style:normal;font-variant:normal;font-weight:normal;font-stretch:normal;line-height:125%;letter-spacing:0px;word-spacing:0px;fill:#383838;fill-opacity:1;stroke:none;font-family:Inconsolata LGC;-inkscape-font-specification:Inconsolata LGC"><tspan x="153.33159" y="266.45578" id="tspan3009-8-52-6" style="font-weight:normal;-inkscape-font-specification:Inconsolata LGC">2</tspan></text>
    <text x="40.354332" y="330.34216" id="text4089" xml:space="preserve" style="font-size:20px;font-style:normal;font-variant:normal;font-weight:normal;font-stretch:normal;line-height:125%;letter-spacing:0px;word-spacing:0px;fill:#383838;fill-opacity:1;stroke:none;font-family:Inconsolata LGC;-inkscape-font-specification:Inconsolata LGC"><tspan x="40.354332" y="330.34216" id="tspan4091">(cons (cons 1 2) </tspan><tspan x="40.354332" y="356.59216" id="tspan4095" xml:space="preserve">      (cons 3 4))</tspan></text>
    <text x="383.42859" y="330.36218" id="text6463" xml:space="preserve" style="font-size:20px;font-style:normal;font-variant:normal;font-weight:500;font-stretch:normal;text-align:center;line-height:125%;letter-spacing:0px;word-spacing:0px;text-anchor:middle;fill:#383838;fill-opacity:1;stroke:none;font-family:Inconsolata LGC;-inkscape-font-specification:Inconsolata LGC Medium"><tspan x="383.42859" y="330.36218" id="tspan6465" style="text-align:start;text-anchor:start">(cons (cons 1</tspan><tspan x="383.42859" y="356.61218" id="tspan6469" xml:space="preserve" style="text-align:start;text-anchor:start">            (cons 2 3)) </tspan><tspan x="383.42859" y="382.86218" id="tspan6479" xml:space="preserve" style="text-align:start;text-anchor:start">      4)</tspan></text>
  </g>
</svg>
