<?xml version="1.0" encoding="UTF-8" standalone="no"?>
<!-- Created with Inkscape (http://www.inkscape.org/) -->
<?xml-stylesheet href="../../css/fonts/fonts.css" type="text/css"?>
<svg xmlns:dc="http://purl.org/dc/elements/1.1/" xmlns:cc="http://creativecommons.org/ns#" xmlns:rdf="http://www.w3.org/1999/02/22-rdf-syntax-ns#" xmlns:svg="http://www.w3.org/2000/svg" xmlns="http://www.w3.org/2000/svg" xmlns:sodipodi="http://sodipodi.sourceforge.net/DTD/sodipodi-0.dtd" xmlns:inkscape="http://www.inkscape.org/namespaces/inkscape" version="1.1" preserveAspectRatio="xMinYMin meet" viewBox="0 0 672.61399 419.03449" id="svg2" style="display:inline" width="100%" height="100%">
  
  <title id="title4453">SICP Figure 1.5</title>
  <defs id="defs4">
    <marker refX="0" refY="0" orient="auto" id="EmptyTriangleInL" style="overflow:visible">
      <path d="m 5.77,0 -8.65,5 0,-10 8.65,5 z" transform="matrix(-0.8,0,0,-0.8,4.8,0)" id="path3954" style="fill:#383838;fill-rule:evenodd;stroke:#383838;stroke-width:1pt;marker-start:none"/>
    </marker>
    <marker refX="0" refY="0" orient="auto" id="EmptyTriangleOutL" style="overflow:visible">
      <path d="m 5.77,0 -8.65,5 0,-10 8.65,5 z" transform="matrix(0.8,0,0,0.8,-4.8,0)" id="path3963" style="fill:#383838;fill-rule:evenodd;stroke:#383838;stroke-width:1pt;marker-start:none"/>
    </marker>
    <marker refX="0" refY="0" orient="auto" id="EmptyTriangleOutM" style="overflow:visible">
      <path d="m 5.77,0 -8.65,5 0,-10 8.65,5 z" transform="matrix(0.4,0,0,0.4,-1.8,0)" id="path3966" style="fill:#383838;fill-rule:evenodd;stroke:#383838;stroke-width:1pt;marker-start:none"/>
    </marker>
    <marker refX="0" refY="0" orient="auto" id="EmptyTriangleInL-6" style="overflow:visible">
      <path d="m 5.77,0 -8.65,5 0,-10 8.65,5 z" transform="matrix(-0.8,0,0,-0.8,4.8,0)" id="path3954-0" style="fill:#383838;fill-rule:evenodd;stroke:#383838;stroke-width:1pt;marker-start:none"/>
    </marker>
    <marker refX="0" refY="0" orient="auto" id="EmptyTriangleInL-9" style="overflow:visible">
      <path d="m 5.77,0 -8.65,5 0,-10 8.65,5 z" transform="matrix(-0.8,0,0,-0.8,4.8,0)" id="path3954-9" style="fill:#383838;fill-rule:evenodd;stroke:#383838;stroke-width:1pt;marker-start:none"/>
    </marker>
    <marker refX="0" refY="0" orient="auto" id="EmptyTriangleInL-66" style="overflow:visible">
      <path d="m 5.77,0 -8.65,5 0,-10 8.65,5 z" transform="matrix(-0.8,0,0,-0.8,4.8,0)" id="path3954-1" style="fill:#383838;fill-rule:evenodd;stroke:#383838;stroke-width:1pt;marker-start:none"/>
    </marker>
    <marker refX="0" refY="0" orient="auto" id="EmptyTriangleInL-8" style="overflow:visible">
      <path d="m 5.77,0 -8.65,5 0,-10 8.65,5 z" transform="matrix(-0.8,0,0,-0.8,4.8,0)" id="path3954-5" style="fill:#383838;fill-rule:evenodd;stroke:#383838;stroke-width:1pt;marker-start:none"/>
    </marker>
    <marker refX="0" refY="0" orient="auto" id="EmptyTriangleInL-0" style="overflow:visible">
      <path d="m 5.77,0 -8.65,5 0,-10 8.65,5 z" transform="matrix(-0.8,0,0,-0.8,4.8,0)" id="path3954-7" style="fill:#383838;fill-rule:evenodd;stroke:#383838;stroke-width:1pt;marker-start:none"/>
    </marker>
    <marker refX="0" refY="0" orient="auto" id="EmptyTriangleInL-7" style="overflow:visible">
      <path d="m 5.77,0 -8.65,5 0,-10 8.65,5 z" transform="matrix(-0.8,0,0,-0.8,4.8,0)" id="path3954-13" style="fill:#383838;fill-rule:evenodd;stroke:#383838;stroke-width:1pt;marker-start:none"/>
    </marker>
    <marker refX="0" refY="0" orient="auto" id="EmptyTriangleInL-3" style="overflow:visible">
      <path d="m 5.77,0 -8.65,5 0,-10 8.65,5 z" transform="matrix(-0.8,0,0,-0.8,4.8,0)" id="path3954-96" style="fill:#383838;fill-rule:evenodd;stroke:#383838;stroke-width:1pt;marker-start:none"/>
    </marker>
    <marker refX="0" refY="0" orient="auto" id="EmptyTriangleInL-81" style="overflow:visible">
      <path d="m 5.77,0 -8.65,5 0,-10 8.65,5 z" transform="matrix(-0.8,0,0,-0.8,4.8,0)" id="path3954-75" style="fill:#383838;fill-rule:evenodd;stroke:#383838;stroke-width:1pt;marker-start:none"/>
    </marker>
    <marker refX="0" refY="0" orient="auto" id="EmptyTriangleInL-77" style="overflow:visible">
      <path d="m 5.77,0 -8.65,5 0,-10 8.65,5 z" transform="matrix(-0.8,0,0,-0.8,4.8,0)" id="path3954-3" style="fill:#383838;fill-rule:evenodd;stroke:#383838;stroke-width:1pt;marker-start:none"/>
    </marker>
    <marker refX="0" refY="0" orient="auto" id="EmptyTriangleInL-89" style="overflow:visible">
      <path d="m 5.77,0 -8.65,5 0,-10 8.65,5 z" transform="matrix(-0.8,0,0,-0.8,4.8,0)" id="path3954-39" style="fill:#383838;fill-rule:evenodd;stroke:#383838;stroke-width:1pt;marker-start:none"/>
    </marker>
    <marker refX="0" refY="0" orient="auto" id="EmptyTriangleInL-07" style="overflow:visible">
      <path d="m 5.77,0 -8.65,5 0,-10 8.65,5 z" transform="matrix(-0.8,0,0,-0.8,4.8,0)" id="path3954-6" style="fill:#383838;fill-rule:evenodd;stroke:#383838;stroke-width:1pt;marker-start:none"/>
    </marker>
    <marker refX="0" refY="0" orient="auto" id="EmptyTriangleInL-82" style="overflow:visible">
      <path d="m 5.77,0 -8.65,5 0,-10 8.65,5 z" transform="matrix(-0.8,0,0,-0.8,4.8,0)" id="path3954-53" style="fill:#383838;fill-rule:evenodd;stroke:#383838;stroke-width:1pt;marker-start:none"/>
    </marker>
  </defs>
  <metadata id="metadata_1.5">
  <!--
    <rdf:RDF>
      <cc:Work rdf:about="">
        <dc:format>image/svg+xml</dc:format>
        <dc:type rdf:resource="http://purl.org/dc/dcmitype/StillImage"></dc:type>
        <dc:title>SICP Figure 1.5</dc:title>
        <cc:license rdf:resource="http://creativecommons.org/licenses/by-sa/3.0/"></cc:license>
        <dc:description>Based on the diagram in Abelson, Sussman &amp; Sussman's "Structure and Interpretation of Computer Programs", 2nd ed.</dc:description>
        <dc:source>http://mitpress.mit.edu/sicp/full-text/book/book-Z-H-11.html#%_fig_1.5</dc:source>
        <dc:creator>
          <cc:Agent>
            <dc:title>Andres Raba</dc:title>
          </cc:Agent>
        </dc:creator>
        <dc:date>2012-11-17</dc:date>
        <dc:subject>
          <rdf:Bag>
            <rdf:li>fib</rdf:li>
            <rdf:li>Fibonacci</rdf:li>
            <rdf:li>number</rdf:li>
            <rdf:li>sequence</rdf:li>
            <rdf:li>tree</rdf:li>
            <rdf:li>recursion</rdf:li>
            <rdf:li>process</rdf:li>
            <rdf:li>branch</rdf:li>
          </rdf:Bag>
        </dc:subject>
      </cc:Work>
      <cc:License rdf:about="http://creativecommons.org/licenses/by-sa/3.0/">
        <cc:permits rdf:resource="http://creativecommons.org/ns#Reproduction"></cc:permits>
        <cc:permits rdf:resource="http://creativecommons.org/ns#Distribution"></cc:permits>
        <cc:requires rdf:resource="http://creativecommons.org/ns#Notice"></cc:requires>
        <cc:requires rdf:resource="http://creativecommons.org/ns#Attribution"></cc:requires>
        <cc:permits rdf:resource="http://creativecommons.org/ns#DerivativeWorks"></cc:permits>
        <cc:requires rdf:resource="http://creativecommons.org/ns#ShareAlike"></cc:requires>
      </cc:License>
    </rdf:RDF>
  -->
</metadata>
  <g transform="translate(-118.35993,76.348353)" id="layer2" style="display:inline">
    <text x="131.70334" y="-62.671783" id="text4148" xml:space="preserve" style="font-size:45.81818771px;font-style:normal;font-variant:normal;font-weight:normal;font-stretch:normal;line-height:125%;letter-spacing:0px;word-spacing:0px;fill:#383838;fill-opacity:1;stroke:none;font-family:LMMono12;-inkscape-font-specification:LMMono12"><tspan x="131.70334" y="-62.671783" dx="0 0 0 0 0 0 0 0 0 0 0 0 0 0 0 0 0 0 0 0 0 0 0 0 0 0 0 0" id="tspan4182" style="font-size:20px;font-style:normal;font-variant:normal;font-weight:normal;font-stretch:normal;font-family:Inconsolata LGC;-inkscape-font-specification:Inconsolata LGC">                            </tspan></text>
        <text x="-212.85715" y="-163.62717" transform="translate(119.375,120.50487)" id="text4978" xml:space="preserve" style="font-size:11px;font-style:normal;font-variant:normal;font-weight:normal;font-stretch:normal;line-height:125%;letter-spacing:0px;word-spacing:0px;fill:#383838;fill-opacity:1;stroke:none;font-family:Inconsolata LGC;-inkscape-font-specification:Inconsolata LGC"><tspan x="-212.85715" y="-163.62717" id="tspan4980"/></text>
    <text x="204.28571" y="10.658553" transform="translate(119.375,120.50487)" id="text5042" xml:space="preserve" style="font-size:24px;font-style:normal;font-variant:normal;font-weight:normal;font-stretch:normal;text-align:center;line-height:125%;letter-spacing:0px;word-spacing:0px;text-anchor:middle;fill:#383838;fill-opacity:1;stroke:none;font-family:Inconsolata LGC;-inkscape-font-specification:Inconsolata LGC"><tspan x="204.28571" y="10.658553" id="tspan5044"/></text>
    <text x="521.49103" y="-59.808353" id="text5046" xml:space="preserve" style="font-size:45.81818771px;font-style:normal;font-variant:normal;font-weight:normal;font-stretch:normal;text-align:center;line-height:125%;letter-spacing:0px;word-spacing:0px;text-anchor:middle;fill:#383838;fill-opacity:1;stroke:none;font-family:Inconsolata LGC;-inkscape-font-specification:Inconsolata LGC"><tspan x="521.49103" y="-59.808353" id="tspan5048" style="font-size:20px">fib5</tspan></text>
    <text x="122.14286" y="44.22998" transform="translate(119.375,120.50487)" id="text5050" xml:space="preserve" style="font-size:24px;font-style:normal;font-variant:normal;font-weight:normal;font-stretch:normal;text-align:center;line-height:125%;letter-spacing:0px;word-spacing:0px;text-anchor:middle;fill:#383838;fill-opacity:1;stroke:none;font-family:Inconsolata LGC;-inkscape-font-specification:Inconsolata LGC"><tspan x="122.14286" y="44.22998" id="tspan5052"/></text>
    <text x="352.52679" y="16.073187" id="text5054" xml:space="preserve" style="font-size:20px;font-style:normal;font-variant:normal;font-weight:normal;font-stretch:normal;text-align:center;line-height:125%;letter-spacing:0px;word-spacing:0px;text-anchor:middle;fill:#383838;fill-opacity:1;stroke:none;font-family:Inconsolata LGC;-inkscape-font-specification:Inconsolata LGC"><tspan x="352.52679" y="16.073187" id="tspan5056">fib4</tspan></text>
    <text x="687.14362" y="15.922465" id="text5058" xml:space="preserve" style="font-size:20px;font-style:normal;font-variant:normal;font-weight:normal;font-stretch:normal;text-align:center;line-height:125%;letter-spacing:0px;word-spacing:0px;text-anchor:middle;fill:#383838;fill-opacity:1;stroke:none;font-family:Inconsolata LGC;-inkscape-font-specification:Inconsolata LGC"><tspan x="687.14362" y="15.922465" id="tspan5060">fib3</tspan></text>
    <text x="256.23447" y="94.575264" id="text5062" xml:space="preserve" style="font-size:20px;font-style:normal;font-variant:normal;font-weight:normal;font-stretch:normal;text-align:center;line-height:125%;letter-spacing:0px;word-spacing:0px;text-anchor:middle;fill:#383838;fill-opacity:1;stroke:none;font-family:Inconsolata LGC;-inkscape-font-specification:Inconsolata LGC"><tspan x="256.23447" y="94.575264" id="tspan5064">fib3</tspan></text>
    <text x="440.80753" y="94.448578" id="text5066" xml:space="preserve" style="font-size:20px;font-style:normal;font-variant:normal;font-weight:normal;font-stretch:normal;text-align:center;line-height:125%;letter-spacing:0px;word-spacing:0px;text-anchor:middle;fill:#383838;fill-opacity:1;stroke:none;font-family:Inconsolata LGC;-inkscape-font-specification:Inconsolata LGC"><tspan x="440.80753" y="94.448578" id="tspan5068">fib2</tspan></text>
    <text x="616.63397" y="94.365906" id="text5070" xml:space="preserve" style="font-size:20px;font-style:normal;font-variant:normal;font-weight:normal;font-stretch:normal;text-align:center;line-height:125%;letter-spacing:0px;word-spacing:0px;text-anchor:middle;fill:#383838;fill-opacity:1;stroke:none;font-family:Inconsolata LGC;-inkscape-font-specification:Inconsolata LGC"><tspan x="616.63397" y="94.365906" id="tspan5072">fib2</tspan></text>
    <text x="751.71667" y="94.448578" id="text5074" xml:space="preserve" style="font-size:20px;font-style:normal;font-variant:normal;font-weight:normal;font-stretch:normal;text-align:center;line-height:125%;letter-spacing:0px;word-spacing:0px;text-anchor:middle;fill:#383838;fill-opacity:1;stroke:none;font-family:Inconsolata LGC;-inkscape-font-specification:Inconsolata LGC"><tspan x="751.71667" y="94.448578" id="tspan5076">fib1</tspan></text>
    <text x="203.53474" y="173.6662" id="text5078" xml:space="preserve" style="font-size:20px;font-style:normal;font-variant:normal;font-weight:normal;font-stretch:normal;text-align:center;line-height:125%;letter-spacing:0px;word-spacing:0px;text-anchor:middle;fill:#383838;fill-opacity:1;stroke:none;font-family:Inconsolata LGC;-inkscape-font-specification:Inconsolata LGC"><tspan x="203.53474" y="173.6662" id="tspan5080">fib2</tspan></text>
    <text x="305.89017" y="173.62218" id="text5082" xml:space="preserve" style="font-size:20px;font-style:normal;font-variant:normal;font-weight:normal;font-stretch:normal;text-align:center;line-height:125%;letter-spacing:0px;word-spacing:0px;text-anchor:middle;fill:#383838;fill-opacity:1;stroke:none;font-family:Inconsolata LGC;-inkscape-font-specification:Inconsolata LGC"><tspan x="305.89017" y="173.62218" id="tspan5084">fib1</tspan></text>
    <text x="393.08023" y="173.62218" id="text5086" xml:space="preserve" style="font-size:20px;font-style:normal;font-variant:normal;font-weight:normal;font-stretch:normal;text-align:center;line-height:125%;letter-spacing:0px;word-spacing:0px;text-anchor:middle;fill:#383838;fill-opacity:1;stroke:none;font-family:Inconsolata LGC;-inkscape-font-specification:Inconsolata LGC"><tspan x="393.08023" y="173.62218" id="tspan5088">fib1</tspan></text>
    <text x="478.98935" y="173.53947" id="text5090" xml:space="preserve" style="font-size:20px;font-style:normal;font-variant:normal;font-weight:normal;font-stretch:normal;text-align:center;line-height:125%;letter-spacing:0px;word-spacing:0px;text-anchor:middle;fill:#383838;fill-opacity:1;stroke:none;font-family:Inconsolata LGC;-inkscape-font-specification:Inconsolata LGC"><tspan x="478.98935" y="173.53947" id="tspan5092">fib0</tspan></text>
    <text x="567.62567" y="173.62218" id="text5094" xml:space="preserve" style="font-size:20px;font-style:normal;font-variant:normal;font-weight:normal;font-stretch:normal;text-align:center;line-height:125%;letter-spacing:0px;word-spacing:0px;text-anchor:middle;fill:#383838;fill-opacity:1;stroke:none;font-family:Inconsolata LGC;-inkscape-font-specification:Inconsolata LGC"><tspan x="567.62567" y="173.62218" id="tspan5096">fib1</tspan></text>
    <text x="663.87909" y="173.6662" id="text5098" xml:space="preserve" style="font-size:20px;font-style:normal;font-variant:normal;font-weight:normal;font-stretch:normal;text-align:center;line-height:125%;letter-spacing:0px;word-spacing:0px;text-anchor:middle;fill:#383838;fill-opacity:1;stroke:none;font-family:Inconsolata LGC;-inkscape-font-specification:Inconsolata LGC"><tspan x="663.87909" y="173.6662" id="tspan5100">fib0</tspan></text>
    <text x="305.24268" y="227.68558" id="text5102" xml:space="preserve" style="font-size:20px;font-style:normal;font-variant:normal;font-weight:normal;font-stretch:normal;text-align:center;line-height:125%;letter-spacing:0px;word-spacing:0px;text-anchor:middle;fill:#383838;fill-opacity:1;stroke:none;font-family:Inconsolata LGC;-inkscape-font-specification:Inconsolata LGC"><tspan x="305.24268" y="227.68558" id="tspan5104">1</tspan></text>
    <text x="392.9975" y="226.80403" id="text5106" xml:space="preserve" style="font-size:20px;font-style:normal;font-variant:normal;font-weight:normal;font-stretch:normal;text-align:center;line-height:125%;letter-spacing:0px;word-spacing:0px;text-anchor:middle;fill:#383838;fill-opacity:1;stroke:none;font-family:Inconsolata LGC;-inkscape-font-specification:Inconsolata LGC"><tspan x="392.9975" y="226.80403" id="tspan5108">1</tspan></text>
    <text x="566.97815" y="227.12074" id="text5110" xml:space="preserve" style="font-size:20px;font-style:normal;font-variant:normal;font-weight:normal;font-stretch:normal;text-align:center;line-height:125%;letter-spacing:0px;word-spacing:0px;text-anchor:middle;fill:#383838;fill-opacity:1;stroke:none;font-family:Inconsolata LGC;-inkscape-font-specification:Inconsolata LGC"><tspan x="566.97815" y="227.12074" id="tspan5112">1</tspan></text>
    <text x="479.30603" y="227.20348" id="text5114" xml:space="preserve" style="font-size:20px;font-style:normal;font-variant:normal;font-weight:normal;font-stretch:normal;text-align:center;line-height:125%;letter-spacing:0px;word-spacing:0px;text-anchor:middle;fill:#383838;fill-opacity:1;stroke:none;font-family:Inconsolata LGC;-inkscape-font-specification:Inconsolata LGC"><tspan x="479.30603" y="227.20348" id="tspan5116">0</tspan></text>
    <text x="664.36121" y="227.28615" id="text5118" xml:space="preserve" style="font-size:20px;font-style:normal;font-variant:normal;font-weight:normal;font-stretch:normal;text-align:center;line-height:125%;letter-spacing:0px;word-spacing:0px;text-anchor:middle;fill:#383838;fill-opacity:1;stroke:none;font-family:Inconsolata LGC;-inkscape-font-specification:Inconsolata LGC"><tspan x="664.36121" y="227.28615" id="tspan5120">0</tspan></text>
    <text x="240.66965" y="306.12897" id="text5122" xml:space="preserve" style="font-size:20px;font-style:normal;font-variant:normal;font-weight:normal;font-stretch:normal;text-align:center;line-height:125%;letter-spacing:0px;word-spacing:0px;text-anchor:middle;fill:#383838;fill-opacity:1;stroke:none;font-family:Inconsolata LGC;-inkscape-font-specification:Inconsolata LGC"><tspan x="240.66965" y="306.12897" id="tspan5124">0</tspan></text>
    <text x="154.04443" y="306.29437" id="text5126" xml:space="preserve" style="font-size:20px;font-style:normal;font-variant:normal;font-weight:normal;font-stretch:normal;text-align:center;line-height:125%;letter-spacing:0px;word-spacing:0px;text-anchor:middle;fill:#383838;fill-opacity:1;stroke:none;font-family:Inconsolata LGC;-inkscape-font-specification:Inconsolata LGC"><tspan x="154.04443" y="306.29437" id="tspan5128">1</tspan></text>
    <text x="154.44385" y="252.75708" id="text5130" xml:space="preserve" style="font-size:20px;font-style:normal;font-variant:normal;font-weight:normal;font-stretch:normal;text-align:center;line-height:125%;letter-spacing:0px;word-spacing:0px;text-anchor:middle;fill:#383838;fill-opacity:1;stroke:none;font-family:Inconsolata LGC;-inkscape-font-specification:Inconsolata LGC"><tspan x="154.44385" y="252.75708" id="tspan5132">fib1</tspan></text>
    <text x="240.35294" y="252.7131" id="text5134" xml:space="preserve" style="font-size:20px;font-style:normal;font-variant:normal;font-weight:normal;font-stretch:normal;text-align:center;line-height:125%;letter-spacing:0px;word-spacing:0px;text-anchor:middle;fill:#383838;fill-opacity:1;stroke:none;font-family:Inconsolata LGC;-inkscape-font-specification:Inconsolata LGC"><tspan x="240.35294" y="252.7131" id="tspan5136">fib0</tspan></text>
    <text x="752.02832" y="148.74535" id="text5110-3" xml:space="preserve" style="font-size:20px;font-style:normal;font-variant:normal;font-weight:normal;font-stretch:normal;text-align:center;line-height:125%;letter-spacing:0px;word-spacing:0px;text-anchor:middle;fill:#383838;fill-opacity:1;stroke:none;display:inline;font-family:Inconsolata LGC;-inkscape-font-specification:Inconsolata LGC"><tspan x="752.02832" y="148.74535" id="tspan5112-6">1</tspan></text>
  </g>
  <g transform="translate(-118.35993,76.348353)" id="layer3" style="display:inline">
    <path d="m 203.57416,148.2968 c 8.78852,-26.3655 39.93328,-21.97125 53.11603,-43.94227 13.18253,21.97102 43.9423,17.57677 48.33653,43.94227" id="path5042" style="fill:none;stroke:#383838;stroke-width:0.86585552;stroke-linecap:round;stroke-linejoin:round;stroke-miterlimit:4;stroke-opacity:1;stroke-dasharray:none"/>
    <path d="m 392.9115,148.2968 c 8.78849,-26.3655 35.1538,-21.97125 48.33653,-43.94227 13.18275,21.97102 35.15401,17.57677 39.54824,43.94227" id="path5044" style="fill:none;stroke:#383838;stroke-width:0.86585552;stroke-linecap:round;stroke-linejoin:round;stroke-miterlimit:4;stroke-opacity:1;stroke-dasharray:none"/>
    <path d="m 568.68097,148.2968 c 8.78837,-26.3655 35.15387,-21.97125 48.33663,-43.94227 13.18275,21.97102 39.54804,17.57677 48.33654,43.94227" id="path5046" style="fill:none;stroke:#383838;stroke-width:0.86585552;stroke-linecap:round;stroke-linejoin:round;stroke-miterlimit:4;stroke-opacity:1;stroke-dasharray:none"/>
    <path d="m 155.62266,227.39308 c 8.7885,-26.3655 35.15395,-21.97127 48.33651,-43.94244 8.78852,21.97117 32.6714,17.57694 37.06563,43.94244" id="path5048" style="fill:none;stroke:#383838;stroke-width:0.86585552;stroke-linecap:round;stroke-linejoin:round;stroke-miterlimit:4;stroke-opacity:1;stroke-dasharray:none"/>
    <path d="m 353.36327,-9.8957791 c 17.577,-35.1539089 149.40406,-13.1827139 166.98106,-43.9423719 17.57698,30.759658 149.40404,8.788463 166.98107,43.9423719" id="path4206" style="fill:none;stroke:#383838;stroke-width:0.86585552;stroke-linecap:round;stroke-linejoin:round;stroke-miterlimit:4;stroke-opacity:1;stroke-dasharray:none;display:inline"/>
    <path d="m 256.69019,69.200521 c 17.57678,-35.153966 79.09627,-13.182751 96.67308,-43.942315 17.577,30.759564 70.30778,8.788349 87.88476,43.942315" id="path4976" style="fill:none;stroke:#383838;stroke-width:0.86456692;stroke-linecap:round;stroke-linejoin:round;stroke-miterlimit:4;stroke-opacity:1;stroke-dasharray:none;display:inline"/>
    <path d="m 617.0176,69.200521 c 17.577,-35.153966 52.73077,-13.182751 70.3078,-43.942315 17.57698,30.759564 46.62101,8.788349 64.19802,43.942315" id="path4978" style="fill:none;stroke:#383838;stroke-width:0.86585552;stroke-linecap:round;stroke-linejoin:round;stroke-miterlimit:4;stroke-opacity:1;stroke-dasharray:none;display:inline"/>
    <path d="m 305.90553,183.45064 0,17.57694" id="path4980-1" style="fill:none;stroke:#383838;stroke-width:0.86585552;stroke-linecap:round;stroke-linejoin:round;stroke-miterlimit:4;stroke-opacity:1;stroke-dasharray:none;display:inline"/>
    <path d="m 393.79032,183.45064 0,17.57694" id="path4980-2" style="fill:none;stroke:#383838;stroke-width:0.86585552;stroke-linecap:round;stroke-linejoin:round;stroke-miterlimit:4;stroke-opacity:1;stroke-dasharray:none;display:inline"/>
    <path d="m 479.91736,183.45064 0,17.57694" id="path4980-4" style="fill:none;stroke:#383838;stroke-width:0.86585552;stroke-linecap:round;stroke-linejoin:round;stroke-miterlimit:4;stroke-opacity:1;stroke-dasharray:none;display:inline"/>
    <path d="m 567.80203,183.45064 0,17.57694" id="path4980-5" style="fill:none;stroke:#383838;stroke-width:0.86585552;stroke-linecap:round;stroke-linejoin:round;stroke-miterlimit:4;stroke-opacity:1;stroke-dasharray:none;display:inline"/>
    <path d="m 664.47533,183.45064 0,17.57694" id="path4980-3" style="fill:none;stroke:#383838;stroke-width:0.86585552;stroke-linecap:round;stroke-linejoin:round;stroke-miterlimit:4;stroke-opacity:1;stroke-dasharray:none;display:inline"/>
    <path d="m 752.36011,104.35453 0,17.57677" id="path4980" style="fill:none;stroke:#383838;stroke-width:0.86585552;stroke-linecap:round;stroke-linejoin:round;stroke-miterlimit:4;stroke-opacity:1;stroke-dasharray:none;display:inline"/>
    <path d="m 154.74385,262.54686 0,17.577" id="path4980-6" style="fill:none;stroke:#383838;stroke-width:0.86585552;stroke-linecap:round;stroke-linejoin:round;stroke-miterlimit:4;stroke-opacity:1;stroke-dasharray:none;display:inline"/>
    <path d="m 240.8708,262.54686 0,17.577" id="path4980-24" style="fill:none;stroke:#383838;stroke-width:0.86585552;stroke-linecap:round;stroke-linejoin:round;stroke-miterlimit:4;stroke-opacity:1;stroke-dasharray:none;display:inline"/>
    <path d="m 484.09399,-71.370064 -7.85714,6.785714 9.64286,3.571428" id="path8100" style="fill:none;stroke:#383838;stroke-width:1px;stroke-linecap:butt;stroke-linejoin:miter;stroke-opacity:1"/>
    <path d="m 256.90693,28.338068 -2.0702,10.173242 9.81461,-3.06809" id="path8100-6" style="fill:none;stroke:#383838;stroke-width:1px;stroke-linecap:butt;stroke-linejoin:miter;stroke-opacity:1;display:inline"/>
    <path d="m 146.79295,341.18614 8.92532,-5.30275 -8.86717,-5.20704" id="path8100-68" style="fill:none;stroke:#383838;stroke-width:1px;stroke-linecap:butt;stroke-linejoin:miter;stroke-opacity:1;display:inline"/>
    <path d="m 280.86825,287.91275 -4.40227,-9.40216 -6.05121,8.31401" id="path8100-0" style="fill:none;stroke:#383838;stroke-width:1px;stroke-linecap:butt;stroke-linejoin:miter;stroke-opacity:1;display:inline"/>
    <path d="m 346.24718,64.865496 8.98415,-5.202461 -8.80829,-5.306024" id="path8100-3" style="fill:none;stroke:#383838;stroke-width:1px;stroke-linecap:butt;stroke-linejoin:miter;stroke-opacity:1;display:inline"/>
    <path d="m 389.79715,260.42655 8.85232,-5.42374 -8.93721,-5.08587" id="path8100-1" style="fill:none;stroke:#383838;stroke-width:1px;stroke-linecap:butt;stroke-linejoin:miter;stroke-opacity:1;display:inline"/>
    <path d="m 486.75984,67.923679 -9.82524,-3.35339 1.78859,10.126242" id="path8100-31" style="fill:none;stroke:#383838;stroke-width:1px;stroke-linecap:butt;stroke-linejoin:miter;stroke-opacity:1;display:inline"/>
    <path d="m 583.70764,-7.5211117 9.14931,-4.9061773 -8.63024,-5.590953" id="path8100-9" style="fill:none;stroke:#383838;stroke-width:1px;stroke-linecap:butt;stroke-linejoin:miter;stroke-opacity:1;display:inline"/>
    <path d="m 606.63445,202.56254 -4.38489,-9.41028 -6.06655,8.30282" id="path8100-8" style="fill:none;stroke:#383838;stroke-width:1px;stroke-linecap:butt;stroke-linejoin:miter;stroke-opacity:1;display:inline"/>
    <path d="m 680.46853,60.921426 8.85232,-5.423735 -8.9372,-5.085879" id="path8100-66" style="fill:none;stroke:#383838;stroke-width:1px;stroke-linecap:butt;stroke-linejoin:miter;stroke-opacity:1;display:inline"/>
    <path d="m 737.86533,11.273584 -6.52179,-8.0775539 -3.88881,9.5192949" id="path8100-19" style="fill:none;stroke:#383838;stroke-width:1px;stroke-linecap:butt;stroke-linejoin:miter;stroke-opacity:1;display:inline"/>
    <path d="m 566.71715,-71.017106 -9.6269,3.886292 7.97387,6.492853" id="path8100-2" style="fill:none;stroke:#383838;stroke-width:1px;stroke-linecap:butt;stroke-linejoin:miter;stroke-opacity:1;display:inline"/>
  </g>
  <g transform="translate(-118.35993,76.348353)" id="layer4" style="display:inline">
    <path d="m 477.40566,-64.879114 c 0,0 -114.01434,20.091658 -150.73128,40.266724 -36.71692,20.1750843 -47.98979,40.601844 -70.93236,62.065833 -18.31337,17.133119 -37.83329,33.379771 -53.19923,53.199249 -15.77459,20.346578 -25.09298,52.461658 -39.44779,74.330068 -14.35482,21.86839 -33.74607,33.49007 -39.12093,58.66809 -7.45179,34.90712 -5.66349,84.23217 12.0696,106.39853 7.3852,9.23147 26.1959,7.33641 35.4662,0 30.95681,-24.49889 4.51519,-114.85982 27.21474,-115.26506 24.13691,-0.4309 -4.77576,90.66723 25.98451,115.26506 8.07887,6.46037 22.58724,5.9729 31.0329,0 17.91503,-12.66978 19.72395,-46.28939 21.93351,-62.06579 2.20957,-15.77641 0.95066,-21.12394 -2.1,-31.03295 -6.55037,-21.27672 -29.14722,-35.85095 -33.74839,-57.6325 -3.07398,-14.55195 -9.45564,-41.03992 5.04836,-44.33274 10.16683,-2.30815 16.75342,10.2804 18.96327,17.73311 3.76654,23.95493 10.33901,45.62145 17.11798,66.49908 4.28868,13.31387 6.13244,28.00776 17.118,34.85111 6.27148,3.90676 15.95952,4.00865 22.16636,0 11.9374,-7.70971 16.10731,-38.02125 17.73311,-57.01747 1.26013,-14.72375 5.65513,-30.68003 0,-44.33272 -7.9976,-19.30781 -36.33518,-25.02489 -44.33276,-44.33271 -3.95856,-9.55689 -4.62609,-21.780706 0,-31.032944 4.43329,-8.866526 26.59965,-17.733051 57.63258,-17.733051 16.52183,0 35.64664,8.112014 44.33272,22.166342 4.66141,7.542342 2.86305,18.208072 0,26.599653 -6.02897,17.67093 -29.70746,26.2191 -34.23602,44.33271 -7.99733,31.98823 -8.68226,76.2503 16.50293,97.53201 7.90116,6.67655 22.91637,6.413 31.03291,0 30.98753,-24.48371 6.2605,-115.26512 27.40561,-115.26512 16.39514,0 3.94472,39.89947 7.04646,61.34899 2.61772,18.1024 6.84252,43.15645 23.18045,53.91613 7.09764,4.67429 18.03734,5.76906 25.49565,0 14.83289,-11.47335 16.46854,-32.51601 19.83354,-50.18617 4.05816,-21.31002 5.5411,-44.1056 0,-65.07895 C 506.05421,105.40865 489.71151,77.267577 468.5391,55.186513 449.2418,35.061027 397.60676,38.736046 397.60676,10.853789 c 0,-35.466179 93.0987,-8.8665448 124.13161,-39.899452 31.03291,31.0329072 124.13163,0 124.13163,39.899452 0,26.409852 -29.56505,30.042356 -53.19927,44.332724 -23.97395,14.495748 -47.41482,39.678016 -54.11216,70.932357 -4.63287,21.62 -6.88304,44.39809 -3.81818,66.3324 2.82326,20.20531 3.50114,45.98144 20.13136,57.79925 7.86137,5.58646 20.67775,6.23415 28.93243,0 36.36639,-27.46514 2.32216,-115.26512 32.22149,-115.26512 26.563,0 3.52327,88.39735 34.89269,111.44694 8.33595,6.12507 22.85663,8.25252 31.03289,0 9.75734,-9.84836 15.19241,-25.99333 17.7331,-40.51457 3.31818,-18.96487 2.24456,-39.35906 -3.81818,-57.63254 -7.20657,-21.72106 -36.71205,-34.75504 -37.31145,-57.632538 -0.53481,-20.41227 9.76672,-34.51444 24.01164,-35.466179 15.80929,-1.056262 30.87302,10.16192 31.64799,35.466179 0.91661,29.928578 8.9771,61.957698 25.36944,79.798888 6.99869,7.61727 24.92215,8.34645 31.03292,0 15.23526,-20.80915 21.72596,-57.81593 17.73309,-88.665433 C 784.86926,54.894938 749.0576,43.35452 735.76561,19.720334 731.18413,11.574127 732.36385,0.70269317 726.89906,-6.8793006 718.25846,-18.867496 704.67697,-26.923708 691.43288,-33.478935 652.51203,-52.743001 566.07109,-65.912104 566.07109,-65.912104" id="path5050" style="fill:none;stroke:#383838;stroke-width:0.94250661;stroke-linecap:round;stroke-linejoin:round;stroke-miterlimit:4;stroke-opacity:1;stroke-dasharray:0.94250668, 2.82752002;stroke-dashoffset:0;display:inline"/>
  </g>
</svg>
