<?xml version="1.0" encoding="UTF-8" standalone="no"?>
<!-- Created with Inkscape (http://www.inkscape.org/) -->
<?xml-stylesheet href="../../css/fonts/fonts.css" type="text/css"?>
<svg xmlns:dc="http://purl.org/dc/elements/1.1/" xmlns:cc="http://creativecommons.org/ns#" xmlns:rdf="http://www.w3.org/1999/02/22-rdf-syntax-ns#" xmlns:svg="http://www.w3.org/2000/svg" xmlns="http://www.w3.org/2000/svg" preserveAspectRatio="xMinYMin meet" viewBox="0 0 672 416" id="svg5767" version="1.1">
  <defs id="defs5769">
    <marker refX="0" refY="0" orient="auto" id="Arrow1Mend" style="overflow:visible">
      <path d="M 0,0 5,-5 -12.5,0 5,5 0,0 z" transform="matrix(-0.4,0,0,-0.4,-4,0)" id="path4415" style="fill:#383838;fill-rule:evenodd;stroke:#383838;stroke-width:1pt;marker-start:none"/>
    </marker>
    <marker refX="0" refY="0" orient="auto" id="marker5789" style="overflow:visible">
      <path d="M 0,0 5,-5 -12.5,0 5,5 0,0 z" transform="matrix(-0.4,0,0,-0.4,-4,0)" id="path5791" style="fill:#383838;fill-rule:evenodd;stroke:#383838;stroke-width:1pt;marker-start:none"/>
    </marker>
    <marker refX="0" refY="0" orient="auto" id="marker5793" style="overflow:visible">
      <path d="M 0,0 5,-5 -12.5,0 5,5 0,0 z" transform="matrix(-0.4,0,0,-0.4,-4,0)" id="path5795" style="fill:#383838;fill-rule:evenodd;stroke:#383838;stroke-width:1pt;marker-start:none"/>
    </marker>
    <marker refX="0" refY="0" orient="auto" id="marker5797" style="overflow:visible">
      <path d="M 0,0 5,-5 -12.5,0 5,5 0,0 z" transform="matrix(-0.4,0,0,-0.4,-4,0)" id="path5799" style="fill:#383838;fill-rule:evenodd;stroke:#383838;stroke-width:1pt;marker-start:none"/>
    </marker>
    <marker refX="0" refY="0" orient="auto" id="marker5801" style="overflow:visible">
      <path d="M 0,0 5,-5 -12.5,0 5,5 0,0 z" transform="matrix(-0.4,0,0,-0.4,-4,0)" id="path5803" style="fill:#383838;fill-rule:evenodd;stroke:#383838;stroke-width:1pt;marker-start:none"/>
    </marker>
    <marker refX="0" refY="0" orient="auto" id="Arrow1Mend-7" style="overflow:visible">
      <path d="M 0,0 5,-5 -12.5,0 5,5 0,0 z" transform="matrix(-0.4,0,0,-0.4,-4,0)" id="path4415-9" style="fill:#383838;fill-rule:evenodd;stroke:#383838;stroke-width:1pt;marker-start:none"/>
    </marker>
    <marker refX="0" refY="0" orient="auto" id="marker6673" style="overflow:visible">
      <path d="M 0,0 5,-5 -12.5,0 5,5 0,0 z" transform="matrix(-0.4,0,0,-0.4,-4,0)" id="path6675" style="fill:#383838;fill-rule:evenodd;stroke:#383838;stroke-width:1pt;marker-start:none"/>
    </marker>
    <marker refX="0" refY="0" orient="auto" id="Arrow1Mend-5" style="overflow:visible">
      <path d="M 0,0 5,-5 -12.5,0 5,5 0,0 z" transform="matrix(-0.4,0,0,-0.4,-4,0)" id="path4415-8" style="fill:#383838;fill-rule:evenodd;stroke:#383838;stroke-width:1pt;marker-start:none"/>
    </marker>
    <marker refX="0" refY="0" orient="auto" id="marker6673-8" style="overflow:visible">
      <path d="M 0,0 5,-5 -12.5,0 5,5 0,0 z" transform="matrix(-0.4,0,0,-0.4,-4,0)" id="path6675-9" style="fill:#383838;fill-rule:evenodd;stroke:#383838;stroke-width:1pt;marker-start:none"/>
    </marker>
    <marker refX="0" refY="0" orient="auto" id="Arrow1Mend-73" style="overflow:visible">
      <path d="M 0,0 5,-5 -12.5,0 5,5 0,0 z" transform="matrix(-0.4,0,0,-0.4,-4,0)" id="path4415-0" style="fill:#383838;fill-rule:evenodd;stroke:#383838;stroke-width:1pt;marker-start:none"/>
    </marker>
    <marker refX="0" refY="0" orient="auto" id="marker6673-2" style="overflow:visible">
      <path d="M 0,0 5,-5 -12.5,0 5,5 0,0 z" transform="matrix(-0.4,0,0,-0.4,-4,0)" id="path6675-3" style="fill:#383838;fill-rule:evenodd;stroke:#383838;stroke-width:1pt;marker-start:none"/>
    </marker>
    <marker refX="0" refY="0" orient="auto" id="Arrow1Mend-77" style="overflow:visible">
      <path d="M 0,0 5,-5 -12.5,0 5,5 0,0 z" transform="matrix(-0.4,0,0,-0.4,-4,0)" id="path4415-09" style="fill:#383838;fill-rule:evenodd;stroke:#383838;stroke-width:1pt;marker-start:none"/>
    </marker>
  </defs>
  <metadata id="metadata_4.6">
  <!--
    <rdf:RDF>
      <cc:Work rdf:about="">
        <dc:format>image/svg+xml</dc:format>
        <dc:type rdf:resource="http://purl.org/dc/dcmitype/StillImage"></dc:type>
        <dc:title></dc:title>
        <cc:license rdf:resource="http://creativecommons.org/licenses/by-sa/3.0/"></cc:license>
        <dc:description>Based on the diagram in Abelson, Sussman &amp; Sussman's "Structure and Interpretation of Computer Programs", 2nd ed.</dc:description>
        <dc:source>http://mitpress.mit.edu/sicp/full-text/book/book-Z-H-29.html#%_fig_4.6</dc:source>
        <dc:creator>
          <cc:Agent>
            <dc:title>Andres Raba</dc:title>
          </cc:Agent>
        </dc:creator>
        <dc:date>2012-11-17</dc:date>
        <dc:subject>
          <rdf:Bag>
            <rdf:li>parallel</rdf:li>
            <rdf:li>query</rdf:li>
            <rdf:li>frame</rdf:li>
            <rdf:li>stream</rdf:li>
            <rdf:li>or</rdf:li>
            <rdf:li>combination</rdf:li>
            <rdf:li>merge</rdf:li>
          </rdf:Bag>
        </dc:subject>
      </cc:Work>
      <cc:License rdf:about="http://creativecommons.org/licenses/by-sa/3.0/">
        <cc:permits rdf:resource="http://creativecommons.org/ns#Reproduction"></cc:permits>
        <cc:permits rdf:resource="http://creativecommons.org/ns#Distribution"></cc:permits>
        <cc:requires rdf:resource="http://creativecommons.org/ns#Notice"></cc:requires>
        <cc:requires rdf:resource="http://creativecommons.org/ns#Attribution"></cc:requires>
        <cc:permits rdf:resource="http://creativecommons.org/ns#DerivativeWorks"></cc:permits>
        <cc:requires rdf:resource="http://creativecommons.org/ns#ShareAlike"></cc:requires>
      </cc:License>
    </rdf:RDF>
  -->
</metadata>
  <g transform="translate(-26.639543,-49.28125)" id="layer9" style="display:inline">
    <path d="m 198.35432,51.77767 313.09089,0 c 11.45454,0 15.27272,3.81818 15.27272,15.27272 l 0,313.0909 c 0,11.45453 -3.81818,15.27271 -15.27272,15.27271 l -313.09089,0 c -11.4155,0 -15.27273,-3.68678 -15.27273,-15.27271 l 0,-313.0909 c 0,-11.45454 3.81818,-15.27272 15.27273,-15.27272 z" id="rect4940-7" style="fill:#e8e8e8;fill-opacity:1;stroke:#383838;stroke-width:1.01467419;stroke-linecap:round;stroke-linejoin:round;stroke-miterlimit:4;stroke-opacity:1;stroke-dasharray:none;stroke-dashoffset:0;display:inline"/>
  </g>
  <g transform="translate(-26.639543,-49.28125)" id="layer11" style="display:inline">
    <path d="m 237,128.36218 a 1,1 0 1 1 -2,0 1,1 0 1 1 2,0 z" transform="matrix(1.9090908,0,0,1.9090908,-133.79339,121.73971)" id="path9674-69-6-1-2" style="fill:#383838;fill-opacity:1;stroke:#383838;stroke-width:1.0629921;stroke-linecap:round;stroke-linejoin:round;stroke-miterlimit:4;stroke-opacity:1;stroke-dasharray:none;stroke-dashoffset:0;display:inline"/>
    <path d="m 237,128.36218 a 1,1 0 1 1 -2,0 1,1 0 1 1 2,0 z" transform="matrix(1.9090908,0,0,1.9090908,-238.89475,-31.09007)" id="path9674-69-6-1-6" style="fill:#383838;fill-opacity:1;stroke:#383838;stroke-width:1.0629921;stroke-linecap:round;stroke-linejoin:round;stroke-miterlimit:4;stroke-opacity:1;stroke-dasharray:none;stroke-dashoffset:0;display:inline"/>
    <path d="m 316.71795,366.77764 -28.63636,0 c -5.72728,0 -9.54546,-3.81818 -9.54546,-9.54546 l -7e-5,-197.80287" id="path8845-1-4-8" style="fill:none;stroke:#383838;stroke-width:1.48818886;stroke-linecap:round;stroke-linejoin:round;stroke-miterlimit:4;stroke-opacity:1;stroke-dasharray:none;marker-end:url(#Arrow1Mend)"/>
    <path d="m 316.71795,366.77764 28.63636,0 c 5.72727,0 9.54545,-3.81818 9.54545,-9.54546 l 8e-5,-25.90294" id="path8845-1-2" style="fill:none;stroke:#383838;stroke-width:1.48818886;stroke-linecap:round;stroke-linejoin:round;stroke-miterlimit:4;stroke-opacity:1;stroke-dasharray:none;marker-end:url(#Arrow1Mend)"/>
    <path d="m 211.71795,214.05038 0,-76.36364 c 0,-5.72727 3.81819,-9.54544 9.54546,-9.54544 l 25.66188,-8e-5" id="path8845-1-4-1" style="fill:none;stroke:#383838;stroke-width:1.48818886;stroke-linecap:round;stroke-linejoin:round;stroke-miterlimit:4;stroke-opacity:1;stroke-dasharray:none;marker-end:url(#Arrow1Mend)"/>
    <path d="m 211.71795,214.05038 0,76.36363 c 0,5.72727 3.81819,9.54545 9.54546,9.54545 l 102.14605,8e-5" id="path8845-1-6" style="fill:none;stroke:#383838;stroke-width:1.48818886;stroke-linecap:round;stroke-linejoin:round;stroke-miterlimit:4;stroke-opacity:1;stroke-dasharray:none;marker-end:url(#Arrow1Mend)"/>
    <path d="m 307.17249,128.1413 124.0909,0 c 5.72728,0 9.54546,3.81818 9.54546,9.54545 l 8e-5,44.87332" id="path8845-1-4-88" style="fill:none;stroke:#383838;stroke-width:1.48818886;stroke-linecap:butt;stroke-linejoin:round;stroke-miterlimit:4;stroke-opacity:1;stroke-dasharray:none;marker-end:url(#Arrow1Mend)"/>
    <path d="m 383.53613,299.95946 47.72726,0 c 5.72728,0 9.54546,-3.81818 9.54546,-9.54545 l 8e-5,-45.11439" id="path8845-1-0" style="fill:none;stroke:#383838;stroke-width:1.48818886;stroke-linecap:butt;stroke-linejoin:round;stroke-miterlimit:4;stroke-opacity:1;stroke-dasharray:none;marker-end:url(#Arrow1Mend)"/>
    <path d="m 498.08157,214.05038 194.04543,0" id="path8845-6-0-7" style="fill:none;stroke:#383838;stroke-width:1.48818886;stroke-linecap:butt;stroke-linejoin:round;stroke-miterlimit:4;stroke-opacity:1;stroke-dasharray:none;marker-end:url(#Arrow1Mend)"/>
    <path d="m 316.71795,366.77764 0,66.81818" id="path5605-6" style="fill:none;stroke:#383838;stroke-width:1.48818886;stroke-linecap:round;stroke-linejoin:round;stroke-miterlimit:4;stroke-opacity:1;stroke-dasharray:none"/>
    <path d="m 211.71795,214.05038 -181.363619,0" id="path5605-7" style="fill:none;stroke:#383838;stroke-width:1.48818886;stroke-linecap:round;stroke-linejoin:round;stroke-miterlimit:4;stroke-opacity:1;stroke-dasharray:none"/>
  </g>
  <g transform="translate(-26.639543,-49.28125)" id="layer10" style="display:inline">
    <g transform="matrix(1.9090908,0,0,1.9090908,-55.554755,-0.45923)" id="g3124">
      <g transform="translate(35,-121.4848)" id="g6635" style="fill:#ffffff;fill-opacity:1;stroke-width:0.53149605;stroke-miterlimit:4;stroke-dasharray:none;display:inline">
        <rect width="60" height="30" rx="3.5433071" ry="3.5433071" x="195" y="218.84698" id="rect6788-7-9" style="fill:#ffffff;fill-opacity:1;stroke:#383838;stroke-width:0.53149605;stroke-linecap:round;stroke-linejoin:round;stroke-miterlimit:4;stroke-opacity:1;stroke-dasharray:none;stroke-dashoffset:0;display:inline"/>
      </g>
      <text x="260" y="116.11977" id="text8841-2" xml:space="preserve" style="font-size:10.477px;font-style:normal;font-variant:normal;font-weight:normal;font-stretch:normal;text-align:center;line-height:125%;letter-spacing:0px;word-spacing:0px;text-anchor:middle;fill:#383838;fill-opacity:1;stroke:none;font-family:Inconsolata LGC;-inkscape-font-specification:Inconsolata LGC"><tspan x="260" y="116.11977" id="tspan8843-9">merge</tspan></text>
    </g>
    <g transform="matrix(1.9090908,0,0,1.9090908,-26.918393,9.08623)" id="g3110">
      <g id="g3105" style="display:inline">
        <rect width="30" height="30" rx="3.5433071" ry="3.5433071" x="145" y="47.362183" id="rect6788-7-2-7-4" style="fill:#ffffff;fill-opacity:1;stroke:#383838;stroke-width:0.53149605;stroke-linecap:round;stroke-linejoin:round;stroke-miterlimit:4;stroke-opacity:1;stroke-dasharray:none;stroke-dashoffset:0;display:inline"/>
      </g>
      <text x="160" y="66.624847" id="text6689-7" xml:space="preserve" style="font-size:10.477px;font-style:normal;font-variant:normal;font-weight:normal;font-stretch:normal;text-align:center;line-height:125%;letter-spacing:0px;word-spacing:0px;text-anchor:middle;fill:#383838;fill-opacity:1;stroke:none;font-family:Inconsolata LGC;-inkscape-font-specification:Sans"><tspan x="160" y="66.624847" id="tspan6691-7">A</tspan></text>
    </g>
    <g transform="matrix(1.9090908,0,0,1.9090908,-26.918393,-10.00468)" id="g3117">
      <rect width="30" height="30" rx="3.5433071" ry="3.5433071" x="185" y="147.36218" id="rect6788-7-2-7-9-3" style="fill:#ffffff;fill-opacity:1;stroke:#383838;stroke-width:0.53149605;stroke-linecap:round;stroke-linejoin:round;stroke-miterlimit:4;stroke-opacity:1;stroke-dasharray:none;stroke-dashoffset:0;display:inline"/>
      <text x="200" y="166.62485" id="text6689-9-7" xml:space="preserve" style="font-size:10.477px;font-style:normal;font-variant:normal;font-weight:normal;font-stretch:normal;text-align:center;line-height:125%;letter-spacing:0px;word-spacing:0px;text-anchor:middle;fill:#383838;fill-opacity:1;stroke:none;font-family:Inconsolata LGC;-inkscape-font-specification:Sans"><tspan x="200" y="166.62485" id="tspan6691-9-3">B</tspan></text>
    </g>
    <text x="459.89975" y="84.232208" id="text5625-6" xml:space="preserve" style="font-size:20px;font-style:normal;font-variant:normal;font-weight:normal;font-stretch:normal;text-align:center;line-height:125%;letter-spacing:0px;word-spacing:0px;text-anchor:middle;fill:#383838;fill-opacity:1;stroke:none;font-family:Inconsolata LGC;-inkscape-font-specification:Inconsolata LGC"><tspan x="459.89975" y="84.232208" id="tspan5627-1">(or A B)</tspan></text>
    <text x="316.71796" y="462.23218" id="text5629-5" xml:space="preserve" style="font-size:24.81818008px;font-style:normal;font-variant:normal;font-weight:normal;font-stretch:normal;text-align:center;line-height:125%;letter-spacing:0px;word-spacing:0px;text-anchor:middle;fill:#383838;fill-opacity:1;stroke:none;font-family:Linux Biolinum O;-inkscape-font-specification:Linux Biolinum O"><tspan x="316.71796" y="462.23218" id="tspan5631-3">data base</tspan></text>
    <text x="157.30515" y="137.68675" id="text5637-5" xml:space="preserve" style="font-size:24.81818008px;font-style:normal;font-variant:normal;font-weight:normal;font-stretch:normal;text-align:end;line-height:120.00000477%;letter-spacing:0px;word-spacing:0px;text-anchor:end;fill:#383838;fill-opacity:1;stroke:none;font-family:Linux Biolinum O;-inkscape-font-specification:Linux Biolinum O"><tspan x="163.50969" y="137.68675" id="tspan5639-90" style="line-height:120.00000477%">input </tspan><tspan x="157.30515" y="167.46857" id="tspan3132" style="line-height:120.00000477%">stream</tspan><tspan x="157.30515" y="197.25038" id="tspan5641-0" style="line-height:120.00000477%">of frames</tspan></text>
    <text x="555.35431" y="137.68675" id="text5637-3-6" xml:space="preserve" style="font-size:24.81818008px;font-style:normal;font-variant:normal;font-weight:normal;font-stretch:normal;text-align:start;line-height:120.00000477%;letter-spacing:0px;word-spacing:0px;text-anchor:start;fill:#383838;fill-opacity:1;stroke:none;font-family:Linux Biolinum O;-inkscape-font-specification:Linux Biolinum O"><tspan x="555.35431" y="137.68675" id="tspan5639-9-0" style="line-height:120.00000477%">output </tspan><tspan x="555.35431" y="167.46857" id="tspan3130" style="line-height:120.00000477%">stream</tspan><tspan x="555.35431" y="197.25038" id="tspan5641-4-5" style="line-height:120.00000477%">of frames</tspan></text>
  </g>
</svg>
