<?xml version="1.0" encoding="UTF-8" standalone="no"?>
<!-- Created with Inkscape (http://www.inkscape.org/) -->
<?xml-stylesheet href="../../css/fonts/fonts.css" type="text/css"?>
<svg xmlns:dc="http://purl.org/dc/elements/1.1/" xmlns:cc="http://creativecommons.org/ns#" xmlns:rdf="http://www.w3.org/1999/02/22-rdf-syntax-ns#" xmlns:svg="http://www.w3.org/2000/svg" xmlns="http://www.w3.org/2000/svg" preserveAspectRatio="xMinYMin meet" viewBox="0 0 684 468" id="svg4152" style="display:inline" version="1.1">
  <defs id="defs4154">
    <marker refX="0" refY="0" orient="auto" id="Arrow1Mend-6" style="overflow:visible">
      <path d="M 0,0 5,-5 -12.5,0 5,5 0,0 z" transform="matrix(-0.4,0,0,-0.4,-4,0)" id="path3809-6-2" style="fill:#383838;fill-rule:evenodd;stroke:#383838;stroke-width:1pt;marker-start:none"/>
    </marker>
    <marker refX="0" refY="0" orient="auto" id="marker5058" style="overflow:visible">
      <path d="M 0,0 5,-5 -12.5,0 5,5 0,0 z" transform="matrix(-0.4,0,0,-0.4,-4,0)" id="path5060" style="fill:#383838;fill-rule:evenodd;stroke:#383838;stroke-width:1pt;marker-start:none"/>
    </marker>
    <marker refX="0" refY="0" orient="auto" id="marker5062" style="overflow:visible">
      <path d="M 0,0 5,-5 -12.5,0 5,5 0,0 z" transform="matrix(-0.4,0,0,-0.4,-4,0)" id="path5064" style="fill:#383838;fill-rule:evenodd;stroke:#383838;stroke-width:1pt;marker-start:none"/>
    </marker>
    <marker refX="0" refY="0" orient="auto" id="marker5066" style="overflow:visible">
      <path d="M 0,0 5,-5 -12.5,0 5,5 0,0 z" transform="matrix(-0.4,0,0,-0.4,-4,0)" id="path5068" style="fill:#383838;fill-rule:evenodd;stroke:#383838;stroke-width:1pt;marker-start:none"/>
    </marker>
    <marker refX="0" refY="0" orient="auto" id="Arrow1Mend" style="overflow:visible">
      <path d="M 0,0 5,-5 -12.5,0 5,5 0,0 z" transform="matrix(-0.4,0,0,-0.4,-4,0)" id="path3809" style="fill:#383838;fill-rule:evenodd;stroke:#383838;stroke-width:1pt;marker-start:none"/>
    </marker>
    <marker refX="0" refY="0" orient="auto" id="marker5072" style="overflow:visible">
      <path d="M 0,0 5,-5 -12.5,0 5,5 0,0 z" transform="matrix(-0.4,0,0,-0.4,-4,0)" id="path5074" style="fill:#383838;fill-rule:evenodd;stroke:#383838;stroke-width:1pt;marker-start:none"/>
    </marker>
    <marker refX="0" refY="0" orient="auto" id="Arrow1Mend-3" style="overflow:visible">
      <path d="M 0,0 5,-5 -12.5,0 5,5 0,0 z" transform="matrix(-0.4,0,0,-0.4,-4,0)" id="path3809-6" style="fill:#383838;fill-rule:evenodd;stroke:#383838;stroke-width:1pt;marker-start:none"/>
    </marker>
    <marker refX="0" refY="0" orient="auto" id="Arrow1Mend-6-4" style="overflow:visible">
      <path d="M 0,0 5,-5 -12.5,0 5,5 0,0 z" transform="matrix(-0.4,0,0,-0.4,-4,0)" id="path3809-6-2-9" style="fill:#383838;fill-rule:evenodd;stroke:#383838;stroke-width:1pt;marker-start:none"/>
    </marker>
    <marker refX="0" refY="0" orient="auto" id="Arrow1Mend-4" style="overflow:visible">
      <path d="M 0,0 5,-5 -12.5,0 5,5 0,0 z" transform="matrix(-0.4,0,0,-0.4,-4,0)" id="path3809-68" style="fill:#383838;fill-rule:evenodd;stroke:#383838;stroke-width:1pt;marker-start:none"/>
    </marker>
  </defs>
  <metadata id="metadata_3.7">
  <!--
    <rdf:RDF>
      <cc:Work rdf:about="">
        <dc:format>image/svg+xml</dc:format>
        <dc:type rdf:resource="http://purl.org/dc/dcmitype/StillImage"></dc:type>
        <dc:title></dc:title>
        <cc:license rdf:resource="http://creativecommons.org/licenses/by-sa/3.0/"></cc:license>
        <dc:description>Based on the diagram in Abelson, Sussman &amp; Sussman's "Structure and Interpretation of Computer Programs", 2nd ed.</dc:description>
        <dc:source>http://mitpress.mit.edu/sicp/full-text/book/book-Z-H-21.html#%_fig_3.7</dc:source>
        <dc:creator>
          <cc:Agent>
            <dc:title>Andres Raba</dc:title>
          </cc:Agent>
        </dc:creator>
        <dc:date>2012-11-17</dc:date>
        <dc:subject>
          <rdf:Bag>
            <rdf:li>environment</rdf:li>
          </rdf:Bag>
        </dc:subject>
      </cc:Work>
      <cc:License rdf:about="http://creativecommons.org/licenses/by-sa/3.0/">
        <cc:permits rdf:resource="http://creativecommons.org/ns#Reproduction"></cc:permits>
        <cc:permits rdf:resource="http://creativecommons.org/ns#Distribution"></cc:permits>
        <cc:requires rdf:resource="http://creativecommons.org/ns#Notice"></cc:requires>
        <cc:requires rdf:resource="http://creativecommons.org/ns#Attribution"></cc:requires>
        <cc:permits rdf:resource="http://creativecommons.org/ns#DerivativeWorks"></cc:permits>
        <cc:requires rdf:resource="http://creativecommons.org/ns#ShareAlike"></cc:requires>
      </cc:License>
    </rdf:RDF>
  -->
</metadata>
  <g transform="translate(-47.852066,-49.375)" id="layer2" style="display:inline">
    <path d="m 146.04369,54.87504 563.18257,0 c 5.72728,0 9.54547,3.81818 9.54547,9.54546 l 0,85.9092 c 0,5.72728 -3.81819,9.54547 -9.54547,9.54547 l -563.18257,0 c -5.72728,0 -9.54547,-3.81819 -9.54547,-9.54547 l 0,-85.9092 c 0,-5.72728 3.81819,-9.54546 9.54547,-9.54546 z" id="rect5327" style="fill:#e8e8e8;fill-opacity:1;stroke:#383838;stroke-width:1.01467562;stroke-linecap:round;stroke-linejoin:round;stroke-miterlimit:4;stroke-opacity:1;stroke-dasharray:none;stroke-dashoffset:0"/>
    <path d="m 260.5893,293.51171 143.01154,0 c 5.89775,0 9.71594,-3.81819 9.71594,-9.54547 l 0,-24.81821" id="path3795" style="fill:none;stroke:#383838;stroke-width:1.48819089;stroke-linecap:round;stroke-linejoin:round;stroke-miterlimit:4;stroke-opacity:1;stroke-dasharray:none;marker-end:url(#Arrow1Mend)"/>
    <path d="m 209.04378,131.23876 14.38637,0 c 5.89774,0 9.71593,3.81819 9.71593,9.54547 l 0,127.90926" id="path3795-5" style="fill:none;stroke:#383838;stroke-width:1.48819089;stroke-linecap:round;stroke-linejoin:round;stroke-miterlimit:4;stroke-opacity:1;stroke-dasharray:none;marker-end:url(#Arrow1Mend)"/>
    <path d="m 88.77089,132.16422 43.90915,0" id="path4451" style="fill:none;stroke:#383838;stroke-width:1.48819089;stroke-linecap:round;stroke-linejoin:round;stroke-miterlimit:4;stroke-opacity:1;stroke-dasharray:none;marker-end:url(#Arrow1Mend-6)"/>
    <path d="m 210.95287,298.38671 0,51.54552" id="path4451-5" style="fill:none;stroke:#383838;stroke-width:1.48819089;stroke-linecap:round;stroke-linejoin:round;stroke-miterlimit:4;stroke-opacity:1;stroke-dasharray:none;marker-end:url(#Arrow1Mend-6)"/>
    <path d="m 190,179.86218 a 2.5,2.5 0 1 1 -5,0 2.5,2.5 0 1 1 5,0 z" transform="matrix(1.9090935,0,0,1.9090935,-147.00215,-49.75969)" id="path5407" style="fill:#383838;fill-opacity:1;stroke:#383838;stroke-width:0.35433072;stroke-linecap:round;stroke-linejoin:round;stroke-miterlimit:4;stroke-opacity:1;stroke-dasharray:none;stroke-dashoffset:0"/>
    <path d="m 190,179.86218 a 2.5,2.5 0 1 1 -5,0 2.5,2.5 0 1 1 5,0 z" transform="matrix(1.9090935,0,0,1.9090935,-102.24073,-49.75969)" id="path5407-7" style="fill:#383838;fill-opacity:1;stroke:#383838;stroke-width:0.35433072;stroke-linecap:round;stroke-linejoin:round;stroke-miterlimit:4;stroke-opacity:1;stroke-dasharray:none;stroke-dashoffset:0"/>
    <path d="m 199.17081,180.36218 a 11.170807,11.170807 0 1 1 -22.34162,0 11.170807,11.170807 0 1 1 22.34162,0 z" transform="matrix(1.9958703,0,0,1.9958703,-119.40708,-66.36552)" id="path5435-9" style="fill:none;stroke:#383838;stroke-width:0.50838757;stroke-linecap:round;stroke-linejoin:round;stroke-miterlimit:4;stroke-opacity:1;stroke-dasharray:none;stroke-dashoffset:0"/>
    <path d="m 199.17081,180.36218 a 11.170807,11.170807 0 1 1 -22.34162,0 11.170807,11.170807 0 1 1 22.34162,0 z" transform="matrix(1.9958703,0,0,1.9958703,-164.27076,-66.36551)" id="path5435-9-6" style="fill:none;stroke:#383838;stroke-width:0.50838757;stroke-linecap:round;stroke-linejoin:round;stroke-miterlimit:4;stroke-opacity:1;stroke-dasharray:none;stroke-dashoffset:0"/>
    <path d="m 327.40757,198.05703 171.81841,0 c 5.72728,0 9.54547,3.81819 9.54547,9.54547 l 0,38.18187 c 0,5.72728 -3.81819,9.54547 -9.54547,9.54547 l -171.81841,0 c -5.72728,0 -9.54547,-3.81819 -9.54547,-9.54547 l 0,-38.18187 c 0,-5.72728 3.81819,-9.54547 9.54547,-9.54547 z" id="rect5327-2" style="fill:#e8e8e8;fill-opacity:1;stroke:#383838;stroke-width:1.01467562;stroke-linecap:round;stroke-linejoin:round;stroke-miterlimit:4;stroke-opacity:1;stroke-dasharray:none;stroke-dashoffset:0"/>
    <path d="m 293.04389,226.69344 21.00003,0" id="path4451-8" style="fill:none;stroke:#383838;stroke-width:1.48819089;stroke-linecap:round;stroke-linejoin:round;stroke-miterlimit:4;stroke-opacity:1;stroke-dasharray:none;marker-end:url(#Arrow1Mend-6)"/>
    <path d="m 413.31678,198.05703 0,-34.36368" id="path4451-8-3" style="fill:none;stroke:#383838;stroke-width:1.48819089;stroke-linecap:round;stroke-linejoin:round;stroke-miterlimit:4;stroke-opacity:1;stroke-dasharray:none;marker-end:url(#Arrow1Mend-6)"/>
    <path d="m 346.4985,87.59267 235.32985,0 c 5.89774,0 9.71593,3.81818 9.71593,9.54545 l 0,104.7371" id="path3795-5-0-1" style="fill:none;stroke:#383838;stroke-width:1.48819089;stroke-linecap:round;stroke-linejoin:round;stroke-miterlimit:4;stroke-opacity:1;stroke-dasharray:none;marker-end:url(#Arrow1Mend)"/>
    <path d="m 618.54434,226.58145 52.50005,0 c 5.89775,0 9.71593,-3.81819 9.71593,-9.54547 l 0,-53.34263" id="path3795-7" style="fill:none;stroke:#383838;stroke-width:1.48819089;stroke-linecap:round;stroke-linejoin:round;stroke-miterlimit:4;stroke-opacity:1;stroke-dasharray:none;marker-end:url(#Arrow1Mend)"/>
    <path d="m 568.90791,231.45645 0,67.78254" id="path4451-5-3" style="fill:none;stroke:#383838;stroke-width:1.48819089;stroke-linecap:round;stroke-linejoin:round;stroke-miterlimit:4;stroke-opacity:1;stroke-dasharray:none;marker-end:url(#Arrow1Mend-6)"/>
    <path d="m 190,179.86218 a 2.5,2.5 0 1 1 -5,0 2.5,2.5 0 1 1 5,0 z" transform="matrix(1.9090935,0,0,1.9090935,210.95289,-116.68995)" id="path5407-5" style="fill:#383838;fill-opacity:1;stroke:#383838;stroke-width:0.35433072;stroke-linecap:round;stroke-linejoin:round;stroke-miterlimit:4;stroke-opacity:1;stroke-dasharray:none;stroke-dashoffset:0"/>
    <path d="m 190,179.86218 a 2.5,2.5 0 1 1 -5,0 2.5,2.5 0 1 1 5,0 z" transform="matrix(1.9090935,0,0,1.9090935,255.71431,-116.68995)" id="path5407-7-5" style="fill:#383838;fill-opacity:1;stroke:#383838;stroke-width:0.35433072;stroke-linecap:round;stroke-linejoin:round;stroke-miterlimit:4;stroke-opacity:1;stroke-dasharray:none;stroke-dashoffset:0"/>
    <path d="m 199.17081,180.36218 a 11.170808,11.170808 0 1 1 -22.34162,0 11.170808,11.170808 0 1 1 22.34162,0 z" transform="matrix(1.9958703,0,0,1.9958703,238.54796,-133.29578)" id="path5435-9-4" style="fill:none;stroke:#383838;stroke-width:0.50838757;stroke-linecap:round;stroke-linejoin:round;stroke-miterlimit:4;stroke-opacity:1;stroke-dasharray:none;stroke-dashoffset:0"/>
    <path d="m 199.17081,180.36218 a 11.170808,11.170808 0 1 1 -22.34162,0 11.170808,11.170808 0 1 1 22.34162,0 z" transform="matrix(1.9958703,0,0,1.9958703,193.68428,-133.29578)" id="path5435-9-6-0" style="fill:none;stroke:#383838;stroke-width:0.50838757;stroke-linecap:round;stroke-linejoin:round;stroke-miterlimit:4;stroke-opacity:1;stroke-dasharray:none;stroke-dashoffset:0"/>
  </g>
  <g transform="translate(-47.852066,-49.375)" id="layer3" style="display:inline">
    <text x="263.68433" y="233.78438" id="text6301" xml:space="preserve" style="font-size:20px;font-style:normal;font-variant:normal;font-weight:normal;font-stretch:normal;text-align:start;line-height:125%;letter-spacing:0px;word-spacing:0px;text-anchor:start;fill:#383838;fill-opacity:1;stroke:none;font-family:Inconsolata LGC;-inkscape-font-specification:Inconsolata LGC"><tspan x="263.68433" y="233.78438" id="tspan6303">E1</tspan></text>
    <text x="165.13463" y="93.0569" id="text5493" xml:space="preserve" style="font-size:20px;font-style:normal;font-variant:normal;font-weight:normal;font-stretch:normal;text-align:start;line-height:125%;letter-spacing:0px;word-spacing:0px;text-anchor:start;fill:#383838;fill-opacity:1;stroke:none;font-family:Inconsolata LGC;-inkscape-font-specification:Inconsolata LGC"><tspan x="165.13463" y="93.0569" id="tspan5495">make-withdraw:</tspan></text>
    <text x="165.13463" y="136.82968" id="text5473" xml:space="preserve" style="font-size:20px;font-style:normal;font-variant:normal;font-weight:normal;font-stretch:normal;text-align:start;line-height:125%;letter-spacing:0px;word-spacing:0px;text-anchor:start;fill:#383838;fill-opacity:1;stroke:none;font-family:Inconsolata LGC;-inkscape-font-specification:Inconsolata LGC"><tspan x="165.13463" y="136.82968" id="tspan5475">W1:</tspan></text>
    <text x="60.134483" y="93.076271" id="text5477" xml:space="preserve" style="font-size:20px;font-style:normal;font-variant:normal;font-weight:normal;font-stretch:normal;text-align:start;line-height:120.00000477%;letter-spacing:0px;word-spacing:0px;text-anchor:start;fill:#383838;fill-opacity:1;stroke:none;font-family:Inconsolata LGC;-inkscape-font-specification:Inconsolata LGC"><tspan x="60.134483" y="93.076271" id="tspan5479" style="font-size:24.81821442px;font-style:normal;font-variant:normal;font-weight:normal;font-stretch:normal;line-height:120.00000477%;font-family:Linux Biolinum O;-inkscape-font-specification:Linux Biolinum O">global</tspan><tspan x="60.134483" y="122.85813" id="tspan5507" style="font-size:24.81821442px;font-style:normal;font-variant:normal;font-weight:normal;font-stretch:normal;line-height:120.00000477%;font-family:Linux Biolinum O;-inkscape-font-specification:Linux Biolinum O">env</tspan></text>
    <text x="413.31677" y="232.97269" id="text6297" xml:space="preserve" style="font-size:20px;font-style:normal;font-variant:normal;font-weight:normal;font-stretch:normal;text-align:center;line-height:125%;letter-spacing:0px;word-spacing:0px;text-anchor:middle;fill:#383838;fill-opacity:1;stroke:none;font-family:Inconsolata LGC;-inkscape-font-specification:Inconsolata LGC"><tspan x="413.31677" y="232.97269" id="tspan6299">balance: 100</tspan></text>
    <text x="489.68054" y="331.6936" id="text5497-1" xml:space="preserve" style="font-size:24.81821442px;font-style:normal;font-variant:normal;font-weight:normal;font-stretch:normal;text-align:start;line-height:120.00000477%;letter-spacing:0px;word-spacing:0px;text-anchor:start;fill:#383838;fill-opacity:1;stroke:none;font-family:Linux Biolinum O;-inkscape-font-specification:Sans"><tspan x="489.68054" y="331.6936" id="tspan5499-5" style="line-height:120.00000477%">parameters:  <tspan id="tspan5505" style="font-size:20px;font-style:normal;font-variant:normal;font-weight:normal;font-stretch:normal;line-height:120.00000477%;font-family:Inconsolata LGC;-inkscape-font-specification:Inconsolata LGC">balance</tspan></tspan><tspan x="489.68054" y="364.94177" id="tspan5501-8" style="line-height:120.00000477%">body:  <tspan id="tspan5503-8" style="font-size:20px;font-style:normal;font-variant:normal;font-weight:normal;font-stretch:normal;line-height:120.00000477%;font-family:Inconsolata LGC;-inkscape-font-specification:Inconsolata LGC">...</tspan></tspan></text>
    <text x="59.852066" y="384.20331" id="text5497" xml:space="preserve" style="font-size:24.81821442px;font-style:normal;font-variant:normal;font-weight:normal;font-stretch:normal;text-align:start;line-height:120.00000477%;letter-spacing:0px;word-spacing:0px;text-anchor:start;fill:#383838;fill-opacity:1;stroke:none;font-family:Linux Biolinum O;-inkscape-font-specification:Sans"><tspan x="59.852066" y="384.20331" id="tspan5499" style="line-height:120.00000477%">parameters:  <tspan dx="4.7727337" id="tspan5868" style="font-size:20px;font-style:normal;font-variant:normal;font-weight:normal;font-stretch:normal;line-height:120.00000477%;font-family:Inconsolata LGC;-inkscape-font-specification:Inconsolata LGC">amount</tspan></tspan><tspan x="59.852066" y="417.45148" id="tspan5501" xml:space="preserve" style="line-height:120.00000477%">body:  <tspan dx="4.9636426" id="tspan5503" xml:space="preserve" style="font-size:20px;font-style:normal;font-variant:normal;font-weight:normal;font-stretch:normal;line-height:120.00000477%;font-family:Inconsolata LGC;-inkscape-font-specification:Inconsolata LGC">(if (&gt;= balance amount)</tspan></tspan><tspan x="59.852066" y="448.5553" id="tspan5910" xml:space="preserve" style="font-size:20px;font-style:normal;font-variant:normal;font-weight:normal;font-stretch:normal;line-height:139.99999762%;font-family:Inconsolata LGC;-inkscape-font-specification:Inconsolata LGC">          (begin (set! balance (- balance amount))</tspan><tspan x="59.852066" y="477.95532" id="tspan5912" xml:space="preserve" style="font-size:20px;font-style:normal;font-variant:normal;font-weight:normal;font-stretch:normal;line-height:139.99999762%;font-family:Inconsolata LGC;-inkscape-font-specification:Inconsolata LGC">                 balance)</tspan><tspan x="59.852066" y="507.35535" id="tspan5914" xml:space="preserve" style="font-size:20px;font-style:normal;font-variant:normal;font-weight:normal;font-stretch:normal;line-height:139.99999762%;font-family:Inconsolata LGC;-inkscape-font-specification:Inconsolata LGC">          "insufficient funds")</tspan></text>
  </g>
</svg>
