<?xml version="1.0" encoding="UTF-8" standalone="no"?>
<!-- Created with Inkscape (http://www.inkscape.org/) -->
<?xml-stylesheet href="../../css/fonts/fonts.css" type="text/css"?>
<svg xmlns:dc="http://purl.org/dc/elements/1.1/" xmlns:cc="http://creativecommons.org/ns#" xmlns:rdf="http://www.w3.org/1999/02/22-rdf-syntax-ns#" xmlns:svg="http://www.w3.org/2000/svg" xmlns="http://www.w3.org/2000/svg" preserveAspectRatio="xMinYMin meet" viewBox="0 0 687 234" id="svg9764" version="1.1">
  <title id="title3252">SICP Figure 3.32</title>
  <defs id="defs9766">
    <marker refX="0" refY="0" orient="auto" id="Arrow1Mend" style="overflow:visible">
      <path d="M 0,0 5,-5 -12.5,0 5,5 0,0 z" transform="matrix(-0.4,0,0,-0.4,-4,0)" id="path4415" style="fill:#383838;fill-rule:evenodd;stroke:#383838;stroke-width:1pt;marker-start:none"/>
    </marker>
    <marker refX="0" refY="0" orient="auto" id="Arrow1Mend-4" style="overflow:visible">
      <path d="M 0,0 5,-5 -12.5,0 5,5 0,0 z" transform="matrix(-0.4,0,0,-0.4,-4,0)" id="path4415-5" style="fill:#383838;fill-rule:evenodd;stroke:#383838;stroke-width:1pt;marker-start:none"/>
    </marker>
    <marker refX="0" refY="0" orient="auto" id="Arrow1Mend-5" style="overflow:visible">
      <path d="M 0,0 5,-5 -12.5,0 5,5 0,0 z" transform="matrix(-0.4,0,0,-0.4,-4,0)" id="path4415-1" style="fill:#383838;fill-rule:evenodd;stroke:#383838;stroke-width:1pt;marker-start:none"/>
    </marker>
    <marker refX="0" refY="0" orient="auto" id="Arrow1Mend-54" style="overflow:visible">
      <path d="M 0,0 5,-5 -12.5,0 5,5 0,0 z" transform="matrix(-0.4,0,0,-0.4,-4,0)" id="path4415-16" style="fill:#383838;fill-rule:evenodd;stroke:#383838;stroke-width:1pt;marker-start:none"/>
    </marker>
    <marker refX="0" refY="0" orient="auto" id="Arrow1Mend-2" style="overflow:visible">
      <path d="M 0,0 5,-5 -12.5,0 5,5 0,0 z" transform="matrix(-0.4,0,0,-0.4,-4,0)" id="path4415-8" style="fill:#383838;fill-rule:evenodd;stroke:#383838;stroke-width:1pt;marker-start:none"/>
    </marker>
    <marker refX="0" refY="0" orient="auto" id="Arrow1Mend-8" style="overflow:visible">
      <path d="M 0,0 5,-5 -12.5,0 5,5 0,0 z" transform="matrix(-0.4,0,0,-0.4,-4,0)" id="path4415-2" style="fill:#383838;fill-rule:evenodd;stroke:#383838;stroke-width:1pt;marker-start:none"/>
    </marker>
    <marker refX="0" refY="0" orient="auto" id="Arrow1Mend-7" style="overflow:visible">
      <path d="M 0,0 5,-5 -12.5,0 5,5 0,0 z" transform="matrix(-0.4,0,0,-0.4,-4,0)" id="path4415-4" style="fill:#383838;fill-rule:evenodd;stroke:#383838;stroke-width:1pt;marker-start:none"/>
    </marker>
    <marker refX="0" refY="0" orient="auto" id="Arrow1Mend-0" style="overflow:visible">
      <path d="M 0,0 5,-5 -12.5,0 5,5 0,0 z" transform="matrix(-0.4,0,0,-0.4,-4,0)" id="path4415-3" style="fill:#383838;fill-rule:evenodd;stroke:#383838;stroke-width:1pt;marker-start:none"/>
    </marker>
  </defs>
  <metadata id="metadata_3.32">
  <!--
    <rdf:RDF>
      <cc:Work rdf:about="">
        <dc:format>image/svg+xml</dc:format>
        <dc:type rdf:resource="http://purl.org/dc/dcmitype/StillImage"></dc:type>
        <dc:title>SICP Figure 3.32</dc:title>
        <cc:license rdf:resource="http://creativecommons.org/licenses/by-sa/3.0/"></cc:license>
        <dc:description>Based on the diagram in Abelson, Sussman &amp; Sussman's "Structure and Interpretation of Computer Programs", 2nd ed.</dc:description>
        <dc:source>http://mitpress.mit.edu/sicp/full-text/book/book-Z-H-24.html#%_fig_3.32</dc:source>
        <dc:creator>
          <cc:Agent>
            <dc:title>Andres Raba</dc:title>
          </cc:Agent>
        </dc:creator>
        <dc:date>2012-11-17</dc:date>
        <dc:subject>
          <rdf:Bag>
            <rdf:li>signal</rdf:li>
            <rdf:li>processing</rdf:li>
            <rdf:li>system</rdf:li>
            <rdf:li>integral</rdf:li>
            <rdf:li>scale</rdf:li>
            <rdf:li>add</rdf:li>
            <rdf:li>cons</rdf:li>
          </rdf:Bag>
        </dc:subject>
      </cc:Work>
      <cc:License rdf:about="http://creativecommons.org/licenses/by-sa/3.0/">
        <cc:permits rdf:resource="http://creativecommons.org/ns#Reproduction"></cc:permits>
        <cc:permits rdf:resource="http://creativecommons.org/ns#Distribution"></cc:permits>
        <cc:requires rdf:resource="http://creativecommons.org/ns#Notice"></cc:requires>
        <cc:requires rdf:resource="http://creativecommons.org/ns#Attribution"></cc:requires>
        <cc:permits rdf:resource="http://creativecommons.org/ns#DerivativeWorks"></cc:permits>
        <cc:requires rdf:resource="http://creativecommons.org/ns#ShareAlike"></cc:requires>
      </cc:License>
    </rdf:RDF>
  -->
</metadata>
  <g transform="translate(-44.59375,-127.83774)" id="layer7" style="display:inline">
    <path d="m 475.35434,185.35992 c -5.72727,-1.90909 -9.54545,1.90909 -9.54545,6.7645 l 0,91.47097 c 0,4.85539 3.81818,8.67357 9.54545,6.76448 L 578.4452,244.54171 c 7.63636,-3.81818 7.63636,-9.54545 0,-13.36363 z" id="rect6788-0-5" style="fill:#e8e8e8;fill-opacity:1;stroke:#383838;stroke-width:1.01467383;stroke-linecap:round;stroke-linejoin:round;stroke-miterlimit:4;stroke-opacity:1;stroke-dasharray:none;stroke-dashoffset:0;display:inline"/>
    <path d="m 398.99074,271.09859 62.99997,0" id="path8845" style="fill:none;stroke:#383838;stroke-width:1.48818827;stroke-linecap:butt;stroke-linejoin:round;stroke-miterlimit:4;stroke-opacity:1;stroke-dasharray:none;marker-end:url(#Arrow1Mend)"/>
    <path d="m 429.53618,156.55319 0,38.1818 c 0,5.72727 3.81818,9.54545 9.54545,9.54545 l 22.90908,0" id="path8845-1" style="fill:none;stroke:#383838;stroke-width:1.48818827;stroke-linecap:round;stroke-linejoin:round;stroke-miterlimit:4;stroke-opacity:1;stroke-dasharray:5.95275287, 5.95275287;stroke-dashoffset:0;marker-end:url(#Arrow1Mend)"/>
    <path d="m 208.25221,237.75774 69.23858,0" id="path8845-7" style="fill:none;stroke:#383838;stroke-width:1.48818827;stroke-linecap:butt;stroke-linejoin:round;stroke-miterlimit:4;stroke-opacity:1;stroke-dasharray:none;marker-end:url(#Arrow1Mend)"/>
    <path d="m 584.34293,237.75774 133.46583,0" id="path8845-1-3" style="fill:none;stroke:#383838;stroke-width:1.48818827;stroke-linecap:butt;stroke-linejoin:round;stroke-miterlimit:4;stroke-opacity:1;stroke-dasharray:none;marker-end:url(#Arrow1Mend)"/>
    <path d="m 608.99064,238.64406 0,108.81813 c 0,5.72726 -3.81818,9.54544 -9.54545,9.54544 l -343.6362,0 c -5.72727,0 -9.54545,-3.81818 -9.54545,-9.54544 l 0.0537,-33.23881 c 0,-6.00094 3.62689,-9.64741 9.49174,-9.64741 l 21.5115,0" id="path8845-7-8" style="fill:none;stroke:#383838;stroke-width:1.48818827;stroke-linecap:round;stroke-linejoin:round;stroke-miterlimit:4;stroke-opacity:1;stroke-dasharray:none;marker-end:url(#Arrow1Mend)"/>
    <path d="m 237,128.36218 a 1,1 0 1 1 -2,0 1,1 0 1 1 2,0 z" transform="matrix(1.90909,0,0,1.90909,158.4454,-7.2972459)" id="path9674-69" style="fill:#383838;fill-opacity:1;stroke:#383838;stroke-width:1.0629921;stroke-linecap:round;stroke-linejoin:round;stroke-miterlimit:4;stroke-opacity:1;stroke-dasharray:none;stroke-dashoffset:0"/>
    <path d="m 290.17261,218.87134 c -5.72727,-1.90909 -9.54545,1.90909 -9.54545,6.7645 l 0,91.47097 c 0,4.85539 3.81818,8.67357 9.54545,6.76448 l 103.09086,-45.81816 c 7.63636,-3.81818 7.63636,-9.54545 0,-13.36363 z" id="rect6788-0-5-5" style="fill:#e8e8e8;fill-opacity:1;stroke:#383838;stroke-width:1.01467383;stroke-linecap:round;stroke-linejoin:round;stroke-miterlimit:4;stroke-opacity:1;stroke-dasharray:none;stroke-dashoffset:0;display:inline"/>
    <rect width="152.7272" height="104.99995" rx="6.764492" ry="6.764492" x="55.354553" y="185.18954" id="rect6788" style="fill:#e8e8e8;fill-opacity:1;stroke:#383838;stroke-width:1.01467383;stroke-linecap:round;stroke-linejoin:round;stroke-miterlimit:4;stroke-opacity:1;stroke-dasharray:none;stroke-dashoffset:0;display:inline"/>
    <path d="m 55.35455,357.00763 66.81814,0 c 5.72727,0 9.54545,-3.81818 9.54545,-9.54544 l 0,-54.47724" id="path8845-1-7" style="fill:none;stroke:#383838;stroke-width:1.48909009;stroke-linecap:round;stroke-linejoin:round;stroke-miterlimit:4;stroke-opacity:1;stroke-dasharray:none;stroke-dashoffset:0;marker-end:url(#Arrow1Mend);display:inline"/>
  </g>
  <g transform="translate(-44.59375,-127.83774)" id="layer8" style="display:inline">
    <text x="297.80896" y="277.03043" id="text9178-7" xml:space="preserve" style="font-size:20px;font-style:normal;font-variant:normal;font-weight:normal;font-stretch:normal;text-align:start;line-height:125%;letter-spacing:0px;word-spacing:0px;text-anchor:start;fill:#383838;fill-opacity:1;stroke:none;font-family:Inconsolata LGC;-inkscape-font-specification:Inconsolata LGC"><tspan x="297.80896" y="277.03043" id="tspan9180-6">add</tspan></text>
    <text x="482.99072" y="243.51898" id="text9178" xml:space="preserve" style="font-size:20px;font-style:normal;font-variant:normal;font-weight:normal;font-stretch:normal;text-align:start;line-height:125%;letter-spacing:0px;word-spacing:0px;text-anchor:start;fill:#383838;fill-opacity:1;stroke:none;font-family:Inconsolata LGC;-inkscape-font-specification:Inconsolata LGC"><tspan x="482.99072" y="243.51898" id="tspan9180">cons</tspan></text>
    <text x="427.62708" y="147.00774" id="text10580" xml:space="preserve" style="font-size:20px;font-style:normal;font-variant:normal;font-weight:normal;font-stretch:normal;text-align:center;line-height:125%;letter-spacing:0px;word-spacing:0px;text-anchor:middle;fill:#383838;fill-opacity:1;stroke:none;font-family:Inconsolata LGC;-inkscape-font-specification:Inconsolata LGC"><tspan x="427.62708" y="147.00774" id="tspan10582">initial-value</tspan></text>
    <text x="647.17242" y="223.37134" id="text10576" xml:space="preserve" style="font-size:20px;font-style:normal;font-variant:normal;font-weight:normal;font-stretch:normal;text-align:center;line-height:125%;letter-spacing:0px;word-spacing:0px;text-anchor:middle;fill:#383838;fill-opacity:1;stroke:none;font-family:Inconsolata LGC;-inkscape-font-specification:Inconsolata LGC"><tspan x="647.17242" y="223.37134" id="tspan10578">integral</tspan></text>
    <text x="131.71814" y="243.48489" id="text8815" xml:space="preserve" style="font-size:20px;font-style:normal;font-variant:normal;font-weight:normal;font-stretch:normal;text-align:center;line-height:125%;letter-spacing:0px;word-spacing:0px;text-anchor:middle;fill:#383838;fill-opacity:1;stroke:none;font-family:Inconsolata LGC;-inkscape-font-specification:Inconsolata LGC"><tspan x="131.71814" y="243.48489" id="tspan8821">scale: <tspan id="tspan4060" style="font-style:oblique;-inkscape-font-specification:Inconsolata LGC Oblique">dt</tspan></tspan></text>
    <text x="58.490913" y="343.30319" id="text10572-4" xml:space="preserve" style="font-size:20px;font-style:normal;font-variant:normal;font-weight:normal;font-stretch:normal;text-align:start;line-height:125%;letter-spacing:0px;word-spacing:0px;text-anchor:start;fill:#383838;fill-opacity:1;stroke:none;display:inline;font-family:Inconsolata LGC;-inkscape-font-specification:Inconsolata LGC"><tspan x="58.490913" y="343.30319" id="tspan10574-4">input</tspan></text>
  </g>
</svg>
