<?xml version="1.0" encoding="UTF-8" standalone="no"?>
<!-- Created with Inkscape (http://www.inkscape.org/) -->
<?xml-stylesheet href="../../css/fonts/fonts.css" type="text/css"?>
<svg xmlns:dc="http://purl.org/dc/elements/1.1/" xmlns:cc="http://creativecommons.org/ns#" xmlns:rdf="http://www.w3.org/1999/02/22-rdf-syntax-ns#" xmlns:svg="http://www.w3.org/2000/svg" xmlns="http://www.w3.org/2000/svg" preserveAspectRatio="xMinYMin meet" viewBox="0 0 626 323" id="svg7429" version="1.1">
  <title id="title3892">SICP Figure 3.31</title>
  <defs id="defs7431">
    <marker refX="0" refY="0" orient="auto" id="Arrow1Mend" style="overflow:visible">
      <path d="M 0,0 5,-5 -12.5,0 5,5 0,0 z" transform="matrix(-0.4,0,0,-0.4,-4,0)" id="path4415" style="fill:#383838;fill-rule:evenodd;stroke:#383838;stroke-width:1pt;marker-start:none"/>
    </marker>
    <marker refX="0" refY="0" orient="auto" id="Arrow1Mend-2" style="overflow:visible">
      <path d="M 0,0 5,-5 -12.5,0 5,5 0,0 z" transform="matrix(-0.4,0,0,-0.4,-4,0)" id="path4415-9" style="fill:#383838;fill-rule:evenodd;stroke:#383838;stroke-width:1pt;marker-start:none"/>
    </marker>
    <marker refX="0" refY="0" orient="auto" id="Arrow1Mend-0" style="overflow:visible">
      <path d="M 0,0 5,-5 -12.5,0 5,5 0,0 z" transform="matrix(-0.4,0,0,-0.4,-4,0)" id="path4415-0" style="fill:#383838;fill-rule:evenodd;stroke:#383838;stroke-width:1pt;marker-start:none"/>
    </marker>
    <marker refX="0" refY="0" orient="auto" id="Arrow1Mend-20" style="overflow:visible">
      <path d="M 0,0 5,-5 -12.5,0 5,5 0,0 z" transform="matrix(-0.4,0,0,-0.4,-4,0)" id="path4415-4" style="fill:#383838;fill-rule:evenodd;stroke:#383838;stroke-width:1pt;marker-start:none"/>
    </marker>
    <marker refX="0" refY="0" orient="auto" id="Arrow1Mend-5" style="overflow:visible">
      <path d="M 0,0 5,-5 -12.5,0 5,5 0,0 z" transform="matrix(-0.4,0,0,-0.4,-4,0)" id="path4415-02" style="fill:#383838;fill-rule:evenodd;stroke:#383838;stroke-width:1pt;marker-start:none"/>
    </marker>
    <marker refX="0" refY="0" orient="auto" id="Arrow1Mend-200" style="overflow:visible">
      <path d="M 0,0 5,-5 -12.5,0 5,5 0,0 z" transform="matrix(-0.4,0,0,-0.4,-4,0)" id="path4415-6" style="fill:#383838;fill-rule:evenodd;stroke:#383838;stroke-width:1pt;marker-start:none"/>
    </marker>
    <marker refX="0" refY="0" orient="auto" id="Arrow1Mend-8" style="overflow:visible">
      <path d="M 0,0 5,-5 -12.5,0 5,5 0,0 z" transform="matrix(-0.4,0,0,-0.4,-4,0)" id="path4415-1" style="fill:#383838;fill-rule:evenodd;stroke:#383838;stroke-width:1pt;marker-start:none"/>
    </marker>
    <marker refX="0" refY="0" orient="auto" id="Arrow1Mend-9" style="overflow:visible">
      <path d="M 0,0 5,-5 -12.5,0 5,5 0,0 z" transform="matrix(-0.4,0,0,-0.4,-4,0)" id="path4415-15" style="fill:#383838;fill-rule:evenodd;stroke:#383838;stroke-width:1pt;marker-start:none"/>
    </marker>
    <marker refX="0" refY="0" orient="auto" id="Arrow1Mend-58" style="overflow:visible">
      <path d="M 0,0 5,-5 -12.5,0 5,5 0,0 z" transform="matrix(-0.4,0,0,-0.4,-4,0)" id="path4415-40" style="fill:#383838;fill-rule:evenodd;stroke:#383838;stroke-width:1pt;marker-start:none"/>
    </marker>
  </defs>
  <metadata id="metadata_3.31">
  <!--
    <rdf:RDF>
      <cc:Work rdf:about="">
        <dc:format>image/svg+xml</dc:format>
        <dc:type rdf:resource="http://purl.org/dc/dcmitype/StillImage"></dc:type>
        <dc:title>SICP Figure 3.31</dc:title>
        <cc:license rdf:resource="http://creativecommons.org/licenses/by-sa/3.0/"></cc:license>
        <dc:description>Based on the diagram in Abelson, Sussman &amp; Sussman's "Structure and Interpretation of Computer Programs", 2nd ed.</dc:description>
        <dc:source>http://mitpress.mit.edu/sicp/full-text/book/book-Z-H-24.html#%_fig_3.31</dc:source>
        <dc:creator>
          <cc:Agent>
            <dc:title>Andres Raba</dc:title>
          </cc:Agent>
        </dc:creator>
        <dc:date>2012-11-17</dc:date>
        <dc:subject>
          <rdf:Bag>
            <rdf:li>signal</rdf:li>
            <rdf:li>processing</rdf:li>
            <rdf:li>system</rdf:li>
            <rdf:li>infinite</rdf:li>
            <rdf:li>stream</rdf:li>
            <rdf:li>prime</rdf:li>
            <rdf:li>sieve</rdf:li>
            <rdf:li>car</rdf:li>
            <rdf:li>cdr</rdf:li>
            <rdf:li>cons</rdf:li>
            <rdf:li>filter</rdf:li>
            <rdf:li>divisibility</rdf:li>
            <rdf:li>Henderson</rdf:li>
            <rdf:li>diagram</rdf:li>
          </rdf:Bag>
        </dc:subject>
      </cc:Work>
      <cc:License rdf:about="http://creativecommons.org/licenses/by-sa/3.0/">
        <cc:permits rdf:resource="http://creativecommons.org/ns#Reproduction"></cc:permits>
        <cc:permits rdf:resource="http://creativecommons.org/ns#Distribution"></cc:permits>
        <cc:requires rdf:resource="http://creativecommons.org/ns#Notice"></cc:requires>
        <cc:requires rdf:resource="http://creativecommons.org/ns#Attribution"></cc:requires>
        <cc:permits rdf:resource="http://creativecommons.org/ns#DerivativeWorks"></cc:permits>
        <cc:requires rdf:resource="http://creativecommons.org/ns#ShareAlike"></cc:requires>
      </cc:License>
    </rdf:RDF>
  -->
</metadata>
  <g transform="translate(-59.545387,-70.03125)" id="layer4" style="display:inline">
    <path d="m 103.58443,73.549455 524.99952,0 c 11.45454,0 15.27272,3.818179 15.27272,15.272714 l 0,284.454291 c 0,11.45453 -3.81818,15.27271 -15.27272,15.27271 l -524.99952,0 c -11.41549,0 -15.27271,-3.68677 -15.27271,-15.27271 l 0,-284.454291 c 0,-11.454535 3.81818,-15.272714 15.27271,-15.272714 z" id="rect4940" style="fill:#e8e8e8;fill-opacity:1;stroke:#383838;stroke-width:1.01467335;stroke-linecap:round;stroke-linejoin:round;stroke-miterlimit:4;stroke-opacity:1;stroke-dasharray:none;stroke-dashoffset:0"/>
  </g>
  <g transform="translate(-59.545387,-70.03125)" id="layer6" style="display:inline">
    <rect width="162.27258" height="104.9999" rx="6.7644892" ry="6.7644892" x="284.94791" y="254.91293" id="rect6788" style="fill:#ffffff;fill-opacity:1;stroke:#383838;stroke-width:1.01467335;stroke-linecap:round;stroke-linejoin:round;stroke-miterlimit:4;stroke-opacity:1;stroke-dasharray:none;stroke-dashoffset:0;display:inline"/>
    <path d="m 409.0387,254.91292 0,-44.39117" id="path8845" style="fill:none;stroke:#383838;stroke-width:1.69112229;stroke-linecap:butt;stroke-linejoin:round;stroke-miterlimit:4;stroke-opacity:1;stroke-dasharray:none;stroke-dashoffset:0;marker-end:url(#Arrow1Mend)"/>
    <path d="m 227.67523,202.48114 c 5.72727,-1.90909 9.54544,1.90909 9.54544,6.7645 l 0,91.47094 c 0,4.85539 -3.81817,8.67356 -9.54544,6.76447 L 124.58441,261.66291 c -7.63635,-3.81818 -7.63635,-9.54545 0,-13.36363 z" id="rect6788-0" style="fill:#ffffff;fill-opacity:1;stroke:#383838;stroke-width:1.01467335;stroke-linecap:round;stroke-linejoin:round;stroke-miterlimit:4;stroke-opacity:1;stroke-dasharray:none;stroke-dashoffset:0;display:inline"/>
    <path d="m 237.22067,278.84472 43.90905,0" id="path8845-1" style="fill:none;stroke:#383838;stroke-width:1.69112229;stroke-linecap:butt;stroke-linejoin:round;stroke-miterlimit:4;stroke-opacity:1;stroke-dasharray:none;stroke-dashoffset:0;marker-end:url(#Arrow1Mend)"/>
    <path d="m 447.39095,183.39025 44.07949,0" id="path8845-9-4" style="fill:none;stroke:#383838;stroke-width:1.69112229;stroke-linecap:butt;stroke-linejoin:round;stroke-miterlimit:4;stroke-opacity:1;stroke-dasharray:none;stroke-dashoffset:0;marker-end:url(#Arrow1Mend)"/>
    <path d="m 65.402648,254.91292 49.636322,0" id="path8845-1-1" style="fill:none;stroke:#383838;stroke-width:1.69112229;stroke-linecap:round;stroke-linejoin:round;stroke-miterlimit:4;stroke-opacity:1;stroke-dasharray:none;stroke-dashoffset:0;marker-end:url(#Arrow1Mend)"/>
    <path d="m 237.22067,231.11754 254.24977,0" id="path8845-1-7" style="fill:none;stroke:#383838;stroke-width:1.69145298;stroke-linecap:butt;stroke-linejoin:round;stroke-miterlimit:4;stroke-opacity:1;stroke-dasharray:6.76581204, 6.76581204;stroke-dashoffset:0;marker-end:url(#Arrow1Mend)"/>
    <path d="m 323.12969,232.00385 0,19.57301" id="path8845-1-7-3" style="fill:none;stroke:#383838;stroke-width:1.69112229;stroke-linecap:round;stroke-linejoin:round;stroke-miterlimit:4;stroke-opacity:1;stroke-dasharray:6.76448921, 6.76448921;stroke-dashoffset:0;marker-end:url(#Arrow1Mend)"/>
    <path d="m 237,128.36218 a 1,1 0 1 1 -2,0 1,1 0 1 1 2,0 z" transform="matrix(1.9090892,0,0,1.9090892,-127.58582,-13.93735)" id="path9674-6" style="fill:#383838;fill-opacity:1;stroke:#383838;stroke-width:1.41732287;stroke-linecap:round;stroke-linejoin:round;stroke-miterlimit:4;stroke-opacity:1;stroke-dasharray:none;stroke-dashoffset:0"/>
  </g>
  <g transform="translate(-59.545387,-70.03125)" id="layer5" style="display:inline">
    <text x="304.03879" y="287.36743" id="text8815" xml:space="preserve" style="font-size:20px;font-style:normal;font-variant:normal;font-weight:normal;font-stretch:normal;text-align:start;line-height:125%;letter-spacing:0px;word-spacing:0px;text-anchor:start;fill:#383838;fill-opacity:1;stroke:none;font-family:Inconsolata LGC;-inkscape-font-specification:Inconsolata LGC"><tspan x="304.03879" y="287.36743" id="tspan8817">filter:</tspan><tspan x="304.03879" y="313.6174" id="tspan8819">not</tspan><tspan x="304.03879" y="339.86737" id="tspan8821">divisible?</tspan></text>
    <g transform="translate(-110,-80)" id="g3031">
      <rect width="162.27258" height="104.9999" rx="6.7644892" ry="6.7644892" x="394.94791" y="182.18579" id="rect6788-7" style="fill:#ffffff;fill-opacity:1;stroke:#383838;stroke-width:1.01467335;stroke-linecap:round;stroke-linejoin:round;stroke-miterlimit:4;stroke-opacity:1;stroke-dasharray:none;stroke-dashoffset:0;display:inline"/>
      <text x="414.03879" y="214.64029" id="text8841" xml:space="preserve" style="font-size:20px;font-style:normal;font-variant:normal;font-weight:normal;font-stretch:normal;text-align:start;line-height:125%;letter-spacing:0px;word-spacing:0px;text-anchor:start;fill:#383838;fill-opacity:1;stroke:none;font-family:Inconsolata LGC;-inkscape-font-specification:Inconsolata LGC"><tspan x="414.03879" y="214.64029" id="tspan8843">sieve</tspan></text>
    </g>
    <text x="117.0844" y="113.64033" id="text8841-0" xml:space="preserve" style="font-size:20px;font-style:normal;font-variant:normal;font-weight:normal;font-stretch:normal;text-align:start;line-height:125%;letter-spacing:0px;word-spacing:0px;text-anchor:start;fill:#383838;fill-opacity:1;stroke:none;font-family:Inconsolata LGC;-inkscape-font-specification:Inconsolata LGC"><tspan x="117.0844" y="113.64033" id="tspan8843-3">sieve</tspan></text>
    <text x="230.52916" y="236.84477" id="text9060" xml:space="preserve" style="font-size:20px;font-style:normal;font-variant:normal;font-weight:normal;font-stretch:normal;text-align:end;line-height:125%;letter-spacing:0px;word-spacing:0px;text-anchor:end;fill:#383838;fill-opacity:1;stroke:none;font-family:Inconsolata LGC;-inkscape-font-specification:Inconsolata LGC"><tspan x="230.52916" y="236.84477" id="tspan9062">car</tspan></text>
    <text x="230.52916" y="284.57202" id="text9064" xml:space="preserve" style="font-size:20px;font-style:normal;font-variant:normal;font-weight:normal;font-stretch:normal;text-align:end;line-height:125%;letter-spacing:0px;word-spacing:0px;text-anchor:end;fill:#383838;fill-opacity:1;stroke:none;font-family:Inconsolata LGC;-inkscape-font-specification:Inconsolata LGC"><tspan x="230.52916" y="284.57202" id="tspan9066">cdr</tspan></text>
    <g transform="matrix(1.9090892,0,0,1.9090892,-96.86993,-93.23273)" id="g3038">
      <path d="m 315,129.89789 c -3,-1 -5,1 -5,3.54331 l 0,47.91339 c 0,2.5433 2,4.5433 5,3.5433 l 54,-24 c 4,-2 4,-5 0,-7 z" id="rect6788-0-5" style="fill:#ffffff;fill-opacity:1;stroke:#383838;stroke-width:0.53149605;stroke-linecap:round;stroke-linejoin:round;stroke-miterlimit:4;stroke-opacity:1;stroke-dasharray:none;stroke-dashoffset:0;display:inline"/>
      <path d="m 372,157.36218 33,0" id="path8845-1-6" style="fill:none;stroke:#383838;stroke-width:0.88582677;stroke-linecap:butt;stroke-linejoin:round;stroke-miterlimit:4;stroke-opacity:1;stroke-dasharray:none;stroke-dashoffset:0;marker-end:url(#Arrow1Mend);display:inline"/>
      <text x="315" y="160.36218" id="text9178" xml:space="preserve" style="font-size:10.477px;font-style:normal;font-variant:normal;font-weight:normal;font-stretch:normal;text-align:start;line-height:125%;letter-spacing:0px;word-spacing:0px;text-anchor:start;fill:#383838;fill-opacity:1;stroke:none;font-family:Inconsolata LGC;-inkscape-font-specification:Inconsolata LGC"><tspan x="315" y="160.36218" id="tspan9180">cons</tspan></text>
    </g>
  </g>
</svg>
