<?xml version="1.0" encoding="UTF-8" standalone="no"?>
<!-- Created with Inkscape (http://www.inkscape.org/) -->
<?xml-stylesheet href="../../css/fonts/fonts.css" type="text/css"?>
<svg xmlns:dc="http://purl.org/dc/elements/1.1/" xmlns:cc="http://creativecommons.org/ns#" xmlns:rdf="http://www.w3.org/1999/02/22-rdf-syntax-ns#" xmlns:svg="http://www.w3.org/2000/svg" xmlns="http://www.w3.org/2000/svg" preserveAspectRatio="xMinYMin meet" viewBox="0 0 695 659" id="svg6540" style="display:inline" version="1.1">
  <defs id="defs6542">
    <marker refX="0" refY="0" orient="auto" id="Arrow1Mend-6" style="overflow:visible">
      <path d="M 0,0 5,-5 -12.5,0 5,5 0,0 z" transform="matrix(-0.4,0,0,-0.4,-4,0)" id="path3809-6-2" style="fill:#383838;fill-rule:evenodd;stroke:#383838;stroke-width:1pt;marker-start:none"/>
    </marker>
    <marker refX="0" refY="0" orient="auto" id="marker7129" style="overflow:visible">
      <path d="M 0,0 5,-5 -12.5,0 5,5 0,0 z" transform="matrix(-0.4,0,0,-0.4,-4,0)" id="path7131" style="fill:#383838;fill-rule:evenodd;stroke:#383838;stroke-width:1pt;marker-start:none"/>
    </marker>
    <marker refX="0" refY="0" orient="auto" id="Arrow1Mend" style="overflow:visible">
      <path d="M 0,0 5,-5 -12.5,0 5,5 0,0 z" transform="matrix(-0.4,0,0,-0.4,-4,0)" id="path3809" style="fill:#383838;fill-rule:evenodd;stroke:#383838;stroke-width:1pt;marker-start:none"/>
    </marker>
    <marker refX="0" refY="0" orient="auto" id="marker7135" style="overflow:visible">
      <path d="M 0,0 5,-5 -12.5,0 5,5 0,0 z" transform="matrix(-0.4,0,0,-0.4,-4,0)" id="path7137" style="fill:#383838;fill-rule:evenodd;stroke:#383838;stroke-width:1pt;marker-start:none"/>
    </marker>
    <marker refX="0" refY="0" orient="auto" id="marker7139" style="overflow:visible">
      <path d="M 0,0 5,-5 -12.5,0 5,5 0,0 z" transform="matrix(-0.4,0,0,-0.4,-4,0)" id="path7141" style="fill:#383838;fill-rule:evenodd;stroke:#383838;stroke-width:1pt;marker-start:none"/>
    </marker>
    <marker refX="0" refY="0" orient="auto" id="marker7143" style="overflow:visible">
      <path d="M 0,0 5,-5 -12.5,0 5,5 0,0 z" transform="matrix(-0.4,0,0,-0.4,-4,0)" id="path7145" style="fill:#383838;fill-rule:evenodd;stroke:#383838;stroke-width:1pt;marker-start:none"/>
    </marker>
    <marker refX="0" refY="0" orient="auto" id="marker7147" style="overflow:visible">
      <path d="M 0,0 5,-5 -12.5,0 5,5 0,0 z" transform="matrix(-0.4,0,0,-0.4,-4,0)" id="path7149" style="fill:#383838;fill-rule:evenodd;stroke:#383838;stroke-width:1pt;marker-start:none"/>
    </marker>
    <marker refX="0" refY="0" orient="auto" id="marker7151" style="overflow:visible">
      <path d="M 0,0 5,-5 -12.5,0 5,5 0,0 z" transform="matrix(-0.4,0,0,-0.4,-4,0)" id="path7153" style="fill:#383838;fill-rule:evenodd;stroke:#383838;stroke-width:1pt;marker-start:none"/>
    </marker>
    <marker refX="0" refY="0" orient="auto" id="marker7155" style="overflow:visible">
      <path d="M 0,0 5,-5 -12.5,0 5,5 0,0 z" transform="matrix(-0.4,0,0,-0.4,-4,0)" id="path7157" style="fill:#383838;fill-rule:evenodd;stroke:#383838;stroke-width:1pt;marker-start:none"/>
    </marker>
    <marker refX="0" refY="0" orient="auto" id="marker7159" style="overflow:visible">
      <path d="M 0,0 5,-5 -12.5,0 5,5 0,0 z" transform="matrix(-0.4,0,0,-0.4,-4,0)" id="path7161" style="fill:#383838;fill-rule:evenodd;stroke:#383838;stroke-width:1pt;marker-start:none"/>
    </marker>
    <marker refX="0" refY="0" orient="auto" id="marker7163" style="overflow:visible">
      <path d="M 0,0 5,-5 -12.5,0 5,5 0,0 z" transform="matrix(-0.4,0,0,-0.4,-4,0)" id="path7165" style="fill:#383838;fill-rule:evenodd;stroke:#383838;stroke-width:1pt;marker-start:none"/>
    </marker>
    <marker refX="0" refY="0" orient="auto" id="Arrow1Mend-6-0" style="overflow:visible">
      <path d="M 0,0 5,-5 -12.5,0 5,5 0,0 z" transform="matrix(-0.4,0,0,-0.4,-4,0)" id="path3809-6-2-7" style="fill:#383838;fill-rule:evenodd;stroke:#383838;stroke-width:1pt;marker-start:none"/>
    </marker>
    <marker refX="0" refY="0" orient="auto" id="Arrow1Mend-6-9" style="overflow:visible">
      <path d="M 0,0 5,-5 -12.5,0 5,5 0,0 z" transform="matrix(-0.4,0,0,-0.4,-4,0)" id="path3809-6-2-5" style="fill:#383838;fill-rule:evenodd;stroke:#383838;stroke-width:1pt;marker-start:none"/>
    </marker>
    <marker refX="0" refY="0" orient="auto" id="Arrow1Mend-3" style="overflow:visible">
      <path d="M 0,0 5,-5 -12.5,0 5,5 0,0 z" transform="matrix(-0.4,0,0,-0.4,-4,0)" id="path3809-6" style="fill:#383838;fill-rule:evenodd;stroke:#383838;stroke-width:1pt;marker-start:none"/>
    </marker>
    <marker refX="0" refY="0" orient="auto" id="marker7736" style="overflow:visible">
      <path d="M 0,0 5,-5 -12.5,0 5,5 0,0 z" transform="matrix(-0.4,0,0,-0.4,-4,0)" id="path7738" style="fill:#383838;fill-rule:evenodd;stroke:#383838;stroke-width:1pt;marker-start:none"/>
    </marker>
    <marker refX="0" refY="0" orient="auto" id="Arrow1Mend-6-5" style="overflow:visible">
      <path d="M 0,0 5,-5 -12.5,0 5,5 0,0 z" transform="matrix(-0.4,0,0,-0.4,-4,0)" id="path3809-6-2-52" style="fill:#383838;fill-rule:evenodd;stroke:#383838;stroke-width:1pt;marker-start:none"/>
    </marker>
    <marker refX="0" refY="0" orient="auto" id="Arrow1Mend-6-3" style="overflow:visible">
      <path d="M 0,0 5,-5 -12.5,0 5,5 0,0 z" transform="matrix(-0.4,0,0,-0.4,-4,0)" id="path3809-6-2-6" style="fill:#383838;fill-rule:evenodd;stroke:#383838;stroke-width:1pt;marker-start:none"/>
    </marker>
    <marker refX="0" refY="0" orient="auto" id="Arrow1Mend-6-4" style="overflow:visible">
      <path d="M 0,0 5,-5 -12.5,0 5,5 0,0 z" transform="matrix(-0.4,0,0,-0.4,-4,0)" id="path3809-6-2-9" style="fill:#383838;fill-rule:evenodd;stroke:#383838;stroke-width:1pt;marker-start:none"/>
    </marker>
  </defs>
  <metadata id="metadata_3.11">
  <!--
    <rdf:RDF>
      <cc:Work rdf:about="">
        <dc:format>image/svg+xml</dc:format>
        <dc:type rdf:resource="http://purl.org/dc/dcmitype/StillImage"></dc:type>
        <dc:title></dc:title>
        <cc:license rdf:resource="http://creativecommons.org/licenses/by-sa/3.0/"></cc:license>
        <dc:description>Based on the diagram in Abelson, Sussman &amp; Sussman's "Structure and Interpretation of Computer Programs", 2nd ed.</dc:description>
        <dc:source>http://mitpress.mit.edu/sicp/full-text/book/book-Z-H-21.html#%_fig_3.11</dc:source>
        <dc:creator>
          <cc:Agent>
            <dc:title>Andres Raba</dc:title>
          </cc:Agent>
        </dc:creator>
        <dc:date>2012-11-17</dc:date>
        <dc:subject>
          <rdf:Bag>
            <rdf:li>environment</rdf:li>
            <rdf:li>sqrt</rdf:li>
          </rdf:Bag>
        </dc:subject>
      </cc:Work>
      <cc:License rdf:about="http://creativecommons.org/licenses/by-sa/3.0/">
        <cc:permits rdf:resource="http://creativecommons.org/ns#Reproduction"></cc:permits>
        <cc:permits rdf:resource="http://creativecommons.org/ns#Distribution"></cc:permits>
        <cc:requires rdf:resource="http://creativecommons.org/ns#Notice"></cc:requires>
        <cc:requires rdf:resource="http://creativecommons.org/ns#Attribution"></cc:requires>
        <cc:permits rdf:resource="http://creativecommons.org/ns#DerivativeWorks"></cc:permits>
        <cc:requires rdf:resource="http://creativecommons.org/ns#ShareAlike"></cc:requires>
      </cc:License>
    </rdf:RDF>
  -->
</metadata>
  <g transform="translate(-37.487411,-48.5)" id="layer4" style="display:inline">
    <path d="m 273.82938,206.63409 62.82947,0 c 5.89773,0 9.71591,-3.81818 9.71591,-9.54545 l 0,-54.31646" id="path3795" style="fill:none;stroke:#383838;stroke-width:1.48818731;stroke-linecap:round;stroke-linejoin:round;stroke-miterlimit:4;stroke-opacity:1;stroke-dasharray:none;marker-end:url(#Arrow1Mend)"/>
    <path d="m 228.8635,206.73636 -59.08916,0 c -5.72726,0 -9.54544,3.81817 -9.27555,9.54365 l -0.26989,42.41084" id="path4451-5" style="fill:none;stroke:#383838;stroke-width:1.48818731;stroke-linecap:round;stroke-linejoin:round;stroke-miterlimit:4;stroke-opacity:1;stroke-dasharray:none;marker-end:url(#Arrow1Mend-6)"/>
    <path d="m 189.50001,179.86218 a 2.000006,2.000006 0 1 1 -4.00002,0 2.000006,2.000006 0 1 1 4.00002,0 z" transform="matrix(1.9090888,0,0,1.9090888,-128.03382,-136.63651)" id="path5407" style="fill:#383838;fill-opacity:1;stroke:#383838;stroke-width:1.35354328;stroke-linecap:round;stroke-linejoin:round;stroke-miterlimit:4;stroke-opacity:1;stroke-dasharray:none;stroke-dashoffset:0"/>
    <path d="m 189.50001,179.86218 a 2.000006,2.000006 0 1 1 -4.00002,0 2.000006,2.000006 0 1 1 4.00002,0 z" transform="matrix(1.9090888,0,0,1.9090888,-83.272506,-136.63651)" id="path5407-7" style="fill:#383838;fill-opacity:1;stroke:#383838;stroke-width:1.35354328;stroke-linecap:round;stroke-linejoin:round;stroke-miterlimit:4;stroke-opacity:1;stroke-dasharray:none;stroke-dashoffset:0"/>
    <path d="m 199.24156,180.36218 a 11.241558,11.241558 0 1 1 -22.48312,0 11.241558,11.241558 0 1 1 22.48312,0 z" transform="matrix(1.9958655,0,0,1.9958655,-100.43881,-153.2423)" id="path5435-9" style="fill:none;stroke:#383838;stroke-width:0.50838757;stroke-linecap:round;stroke-linejoin:round;stroke-miterlimit:4;stroke-opacity:1;stroke-dasharray:none;stroke-dashoffset:0"/>
    <path d="m 199.18117,180.36218 a 11.181169,11.181169 0 1 1 -22.36234,0 11.181169,11.181169 0 1 1 22.36234,0 z" transform="matrix(1.9958655,0,0,1.9958655,-145.30238,-153.24228)" id="path5435-9-6" style="fill:none;stroke:#383838;stroke-width:0.50838757;stroke-linecap:round;stroke-linejoin:round;stroke-miterlimit:4;stroke-opacity:1;stroke-dasharray:none;stroke-dashoffset:0"/>
    <path d="m 551.87454,206.73636 0,-64.16645" id="path4451-8-3-2" style="fill:none;stroke:#383838;stroke-width:1.48818731;stroke-linecap:butt;stroke-linejoin:round;stroke-miterlimit:4;stroke-opacity:1;stroke-dasharray:none;marker-end:url(#Arrow1Mend-6)"/>
    <path d="m 642.28352,426.28157 28.46587,0 c 5.89773,0 9.71591,-3.81818 9.71591,-9.54544 l 0,-54.17767" id="path3795-1" style="fill:none;stroke:#383838;stroke-width:1.48818731;stroke-linecap:round;stroke-linejoin:round;stroke-miterlimit:4;stroke-opacity:1;stroke-dasharray:none;marker-end:url(#Arrow1Mend)"/>
    <path d="m 592.64721,431.15656 0,51.5454" id="path4451-5-7" style="fill:none;stroke:#383838;stroke-width:1.48818731;stroke-linecap:round;stroke-linejoin:round;stroke-miterlimit:4;stroke-opacity:1;stroke-dasharray:none;marker-end:url(#Arrow1Mend-6)"/>
    <path d="m 189.55359,179.86218 a 2.053586,2.053586 0 1 1 -4.10718,0 2.053586,2.053586 0 1 1 4.10718,0 z" transform="matrix(1.9090888,0,0,1.9090888,234.69306,83.01101)" id="path5407-8" style="fill:#383838;fill-opacity:1;stroke:#383838;stroke-width:1.24724412;stroke-linecap:round;stroke-linejoin:round;stroke-miterlimit:4;stroke-opacity:1;stroke-dasharray:none;stroke-dashoffset:0"/>
    <path d="m 189.55359,179.86218 a 2.053586,2.053586 0 1 1 -4.10718,0 2.053586,2.053586 0 1 1 4.10718,0 z" transform="matrix(1.9090888,0,0,1.9090888,279.45438,83.01101)" id="path5407-7-4" style="fill:#383838;fill-opacity:1;stroke:#383838;stroke-width:1.24724412;stroke-linecap:round;stroke-linejoin:round;stroke-miterlimit:4;stroke-opacity:1;stroke-dasharray:none;stroke-dashoffset:0"/>
    <path d="m 199.28795,180.36218 a 11.287951,11.287951 0 1 1 -22.5759,0 11.287951,11.287951 0 1 1 22.5759,0 z" transform="matrix(1.9958655,0,0,1.9958655,262.28806,66.40522)" id="path5435-9-0" style="fill:none;stroke:#383838;stroke-width:0.50838757;stroke-linecap:round;stroke-linejoin:round;stroke-miterlimit:4;stroke-opacity:1;stroke-dasharray:none;stroke-dashoffset:0"/>
    <path d="m 199.22757,180.36218 a 11.227572,11.227572 0 1 1 -22.45514,0 11.227572,11.227572 0 1 1 22.45514,0 z" transform="matrix(1.9958655,0,0,1.9958655,217.42449,66.40524)" id="path5435-9-6-8" style="fill:none;stroke:#383838;stroke-width:0.50838757;stroke-linecap:round;stroke-linejoin:round;stroke-miterlimit:4;stroke-opacity:1;stroke-dasharray:none;stroke-dashoffset:0"/>
    <text x="364.41254" y="287.6767" id="text7796" xml:space="preserve" style="font-size:11px;font-style:normal;font-variant:normal;font-weight:normal;font-stretch:normal;text-align:start;line-height:125%;letter-spacing:0px;word-spacing:0px;text-anchor:start;fill:#383838;fill-opacity:1;stroke:none;font-family:Inconsolata LGC;-inkscape-font-specification:Inconsolata LGC"><tspan x="364.41254" y="287.6767" id="tspan7798"/></text>
    <path d="m 470.46553,607.20426 0,-244.6458" id="path4451-8-3-2-6" style="fill:none;stroke:#383838;stroke-width:1.48818731;stroke-linecap:butt;stroke-linejoin:round;stroke-miterlimit:4;stroke-opacity:1;stroke-dasharray:none;marker-end:url(#Arrow1Mend-6)"/>
    <path d="m 413.19286,464.0226 0,-101.46414" id="path4451-8-3-2-6-9" style="fill:none;stroke:#383838;stroke-width:1.48818731;stroke-linecap:butt;stroke-linejoin:round;stroke-miterlimit:4;stroke-opacity:1;stroke-dasharray:none;marker-end:url(#Arrow1Mend-6)"/>
    <path d="m 136.37499,54.00926 572.72664,0 c 5.72727,0 9.54544,3.81817 9.54544,9.54544 l 0,66.81812 c 0,5.72725 -3.81817,9.54543 -9.54544,9.54543 l -572.72664,0 c -5.72727,0 -9.54545,-3.81818 -9.54545,-9.54543 l 0,-66.81812 c 0,-5.72727 3.81818,-9.54544 9.54545,-9.54544 z" id="rect5327" style="fill:#e8e8e8;fill-opacity:1;stroke:#383838;stroke-width:1.01467311;stroke-linecap:round;stroke-linejoin:round;stroke-miterlimit:4;stroke-opacity:1;stroke-dasharray:none;stroke-dashoffset:0;display:inline"/>
    <path d="m 394.10198,206.73636 314.99965,0 c 5.72727,0 9.54544,3.81817 9.54544,9.54544 l 0,133.63624 c 0,5.72724 -3.81817,9.54542 -9.54544,9.54542 l -314.99965,0 c -5.72727,0 -9.54545,-3.81818 -9.54545,-9.54542 l 0,-133.63624 c 0,-5.72727 3.81818,-9.54544 9.54545,-9.54544 z" id="rect5327-4" style="fill:#e8e8e8;fill-opacity:1;stroke:#383838;stroke-width:1.01467311;stroke-linecap:round;stroke-linejoin:round;stroke-miterlimit:4;stroke-opacity:1;stroke-dasharray:none;stroke-dashoffset:0;display:inline"/>
    <path d="m 298.64753,464.46335 133.63622,0 c 5.72727,0 9.54545,3.81817 9.54545,9.54544 l 0,38.18178 c 0,5.72726 -3.81818,9.54544 -9.54545,9.54544 l -133.63622,0 c -5.72726,0 -9.54544,-3.81818 -9.54544,-9.54544 l 0,-38.18178 c 0,-5.72727 3.81818,-9.54544 9.54544,-9.54544 z" id="rect5327-2-0" style="fill:#e8e8e8;fill-opacity:1;stroke:#383838;stroke-width:1.01467311;stroke-linecap:round;stroke-linejoin:round;stroke-miterlimit:4;stroke-opacity:1;stroke-dasharray:none;stroke-dashoffset:0"/>
    <path d="m 403.64742,607.64501 133.63622,0 c 5.72726,0 9.54544,3.81818 9.54544,9.54544 l 0,38.18178 c 0,5.72726 -3.81818,9.54544 -9.54544,9.54544 l -133.63622,0 c -5.72727,0 -9.54544,-3.81818 -9.54544,-9.54544 l 0,-38.18178 c 0,-5.72726 3.81817,-9.54544 9.54544,-9.54544 z" id="rect5327-2-0-3" style="fill:#e8e8e8;fill-opacity:1;stroke:#383838;stroke-width:1.01467311;stroke-linecap:round;stroke-linejoin:round;stroke-miterlimit:4;stroke-opacity:1;stroke-dasharray:none;stroke-dashoffset:0"/>
    <path d="m 224.63642,96.47194 17.76117,0 c 5.89773,0 9.71591,3.81818 9.71591,9.54545 l 0,73.99172" id="path3795-5" style="fill:none;stroke:#383838;stroke-width:1.48818731;stroke-linecap:round;stroke-linejoin:round;stroke-miterlimit:4;stroke-opacity:1;stroke-dasharray:none;marker-end:url(#Arrow1Mend);display:inline"/>
    <path d="m 585.01086,267.8272 20.1136,0 c 5.89773,0 9.71591,3.81818 9.71591,9.54544 l 0,122.18169" id="path3795-5-5" style="fill:none;stroke:#383838;stroke-width:1.48818731;stroke-linecap:round;stroke-linejoin:round;stroke-miterlimit:4;stroke-opacity:1;stroke-dasharray:none;marker-end:url(#Arrow1Mend);display:inline"/>
  </g>
  <g transform="translate(-37.487411,-48.5)" id="layer5" style="display:inline">
    <text x="48.82962" y="290.05444" id="text5497" xml:space="preserve" style="font-size:20px;font-style:normal;font-variant:normal;font-weight:normal;font-stretch:normal;text-align:start;line-height:170.00000477%;letter-spacing:0px;word-spacing:0px;text-anchor:start;fill:#383838;fill-opacity:1;stroke:none;font-family:Inconsolata LGC;-inkscape-font-specification:Inconsolata LGC"><tspan x="48.82962" y="290.05444" dx="0 0 0 0 0 0 0 0 0 0 0 0 5.1545401" id="tspan5499" style="line-height:120.00000477%"><tspan id="tspan7412" style="font-size:24.81815529px;font-style:normal;font-variant:normal;font-weight:normal;font-stretch:normal;line-height:120.00000477%;font-family:Linux Biolinum O;-inkscape-font-specification:Linux Biolinum O">parameters:</tspan> x</tspan><tspan x="48.82962" y="323.30252" id="tspan3092" style="font-size:24.81815529px;font-style:normal;font-variant:normal;font-weight:normal;font-stretch:normal;line-height:120.00000477%;font-family:Linux Biolinum O;-inkscape-font-specification:Linux Biolinum O">body:</tspan><tspan x="48.82962" y="355.48514" dx="0" id="tspan3100" style="font-style:normal;font-variant:normal;font-weight:normal;font-stretch:normal;line-height:170.00000477%;font-family:Inconsolata LGC;-inkscape-font-specification:Inconsolata LGC">(define good-enough? ...)</tspan><tspan x="48.82962" y="386.63992" id="tspan7406" style="font-style:normal;font-variant:normal;font-weight:normal;font-stretch:normal;line-height:139.99999762%;font-family:Inconsolata LGC;-inkscape-font-specification:Inconsolata LGC">(define improve ...)</tspan><tspan x="48.82962" y="416.03989" id="tspan7408" style="font-style:normal;font-variant:normal;font-weight:normal;font-stretch:normal;line-height:139.99999762%;font-family:Inconsolata LGC;-inkscape-font-specification:Inconsolata LGC">(define sqrt-iter ...)</tspan><tspan x="48.82962" y="445.43985" id="tspan7410" style="font-style:normal;font-variant:normal;font-weight:normal;font-stretch:normal;line-height:139.99999762%;font-family:Inconsolata LGC;-inkscape-font-specification:Inconsolata LGC">(sqrt-iter 1.0)</tspan></text>
    <path d="m 79.10232,120.82737 43.90904,0" id="path4451" style="fill:none;stroke:#383838;stroke-width:1.48818731;stroke-linecap:round;stroke-linejoin:round;stroke-miterlimit:4;stroke-opacity:1;stroke-dasharray:none;marker-end:url(#Arrow1Mend-6)"/>
    <text x="48.69323" y="82.645576" id="text5477" xml:space="preserve" style="font-size:20px;font-style:normal;font-variant:normal;font-weight:normal;font-stretch:normal;text-align:start;line-height:120.00000477%;letter-spacing:0px;word-spacing:0px;text-anchor:start;fill:#383838;fill-opacity:1;stroke:none;font-family:Inconsolata LGC;-inkscape-font-specification:Inconsolata LGC"><tspan x="48.69323" y="82.645576" id="tspan5479" style="font-size:24.81815529px;font-style:normal;font-variant:normal;font-weight:normal;font-stretch:normal;line-height:120.00000477%;font-family:Linux Biolinum O;-inkscape-font-specification:Linux Biolinum O">global</tspan><tspan x="48.69323" y="112.42736" id="tspan5507" style="font-size:24.81815529px;font-style:normal;font-variant:normal;font-weight:normal;font-stretch:normal;line-height:120.00000477%;font-family:Linux Biolinum O;-inkscape-font-specification:Linux Biolinum O">env</tspan></text>
    <text x="155.46587" y="101.73648" id="text5473" xml:space="preserve" style="font-size:20px;font-style:normal;font-variant:normal;font-weight:normal;font-stretch:normal;text-align:start;line-height:125%;letter-spacing:0px;word-spacing:0px;text-anchor:start;fill:#383838;fill-opacity:1;stroke:none;font-family:Inconsolata LGC;-inkscape-font-specification:Inconsolata LGC"><tspan x="155.46587" y="101.73648" id="tspan5475">sqrt:</tspan></text>
    <path d="m 355.9202,283.09991 24.81815,0" id="path4451-8-7" style="fill:none;stroke:#383838;stroke-width:1.48818731;stroke-linecap:round;stroke-linejoin:round;stroke-miterlimit:4;stroke-opacity:1;stroke-dasharray:none;marker-end:url(#Arrow1Mend-6)"/>
    <text x="325.37479" y="290.19086" id="text6301-3" xml:space="preserve" style="font-size:20px;font-style:normal;font-variant:normal;font-weight:normal;font-stretch:normal;text-align:start;line-height:125%;letter-spacing:0px;word-spacing:0px;text-anchor:start;fill:#383838;fill-opacity:1;stroke:none;font-family:Inconsolata LGC;-inkscape-font-specification:Inconsolata LGC"><tspan x="325.37479" y="290.19086" id="tspan6303-9">E1</tspan></text>
    <text x="413.19287" y="244.91814" id="text7591" xml:space="preserve" style="font-size:20px;font-style:normal;font-variant:normal;font-weight:normal;font-stretch:normal;text-align:start;line-height:125%;letter-spacing:0px;word-spacing:0px;text-anchor:start;fill:#383838;fill-opacity:1;stroke:none;font-family:Inconsolata LGC;-inkscape-font-specification:Inconsolata LGC"><tspan x="413.19287" y="244.91814" id="tspan7593">x:2</tspan></text>
    <text x="413.19287" y="273.55447" id="text7595" xml:space="preserve" style="font-size:20px;font-style:normal;font-variant:normal;font-weight:normal;font-stretch:normal;text-align:start;line-height:125%;letter-spacing:0px;word-spacing:0px;text-anchor:start;fill:#383838;fill-opacity:1;stroke:none;font-family:Inconsolata LGC;-inkscape-font-specification:Inconsolata LGC"><tspan x="413.19287" y="273.55447" id="tspan7597">good-enough?:</tspan></text>
    <text x="413.19287" y="302.1908" id="text7599" xml:space="preserve" style="font-size:20px;font-style:normal;font-variant:normal;font-weight:normal;font-stretch:normal;text-align:start;line-height:125%;letter-spacing:0px;word-spacing:0px;text-anchor:start;fill:#383838;fill-opacity:1;stroke:none;font-family:Inconsolata LGC;-inkscape-font-specification:Inconsolata LGC"><tspan x="413.19287" y="302.1908" id="tspan7601">improve: ...</tspan></text>
    <text x="413.19287" y="330.82715" id="text7603" xml:space="preserve" style="font-size:20px;font-style:normal;font-variant:normal;font-weight:normal;font-stretch:normal;text-align:start;line-height:125%;letter-spacing:0px;word-spacing:0px;text-anchor:start;fill:#383838;fill-opacity:1;stroke:none;font-family:Inconsolata LGC;-inkscape-font-specification:Inconsolata LGC"><tspan x="413.19287" y="330.82715" id="tspan7605">sqrt-iter: ...</tspan></text>
    <text x="498.06299" y="512.3089" id="text7800" xml:space="preserve" style="font-size:20px;font-style:normal;font-variant:normal;font-weight:normal;font-stretch:normal;text-align:start;line-height:120.00000477%;letter-spacing:0px;word-spacing:0px;text-anchor:start;fill:#383838;fill-opacity:1;stroke:none;font-family:Inconsolata LGC;-inkscape-font-specification:Inconsolata LGC"><tspan x="498.06299" y="512.3089" dx="0 0 0 0 0 0 0 0 0 0 0 0 5.1545401" id="tspan7802" style="line-height:120.00000477%"><tspan id="tspan7808" style="font-size:24.81815529px;font-style:normal;font-variant:normal;font-weight:normal;font-stretch:normal;line-height:120.00000477%;font-family:Linux Biolinum O;-inkscape-font-specification:Linux Biolinum O">parameters:</tspan> guess</tspan><tspan x="498.06299" y="545.55701" dx="0 0 0 0 0 0 2.8636332" id="tspan7804" style="line-height:120.00000477%"><tspan id="tspan7810" xml:space="preserve" style="font-size:24.81815529px;font-style:normal;font-variant:normal;font-weight:normal;font-stretch:normal;line-height:120.00000477%;font-family:Linux Biolinum O;-inkscape-font-specification:Linux Biolinum O">body:</tspan> (&lt; (abs ...)</tspan><tspan x="498.06299" y="573.63062" id="tspan7806" xml:space="preserve">         ...)</tspan></text>
    <text x="365.46564" y="498.99399" id="text6297-6" xml:space="preserve" style="font-size:20px;font-style:normal;font-variant:normal;font-weight:normal;font-stretch:normal;text-align:center;line-height:125%;letter-spacing:0px;word-spacing:0px;text-anchor:middle;fill:#383838;fill-opacity:1;stroke:none;display:inline;font-family:Inconsolata LGC;-inkscape-font-specification:Inconsolata LGC"><tspan x="365.46564" y="498.99399" id="tspan6299-0">guess: 1</tspan></text>
    <text x="470.46552" y="642.17566" id="text6297-6-2" xml:space="preserve" style="font-size:20px;font-style:normal;font-variant:normal;font-weight:normal;font-stretch:normal;text-align:center;line-height:125%;letter-spacing:0px;word-spacing:0px;text-anchor:middle;fill:#383838;fill-opacity:1;stroke:none;display:inline;font-family:Inconsolata LGC;-inkscape-font-specification:Inconsolata LGC"><tspan x="470.46552" y="642.17566" id="tspan6299-0-4">guess: 1</tspan></text>
    <text x="441.82919" y="554.19055" id="text7827" xml:space="preserve" style="font-size:20px;font-style:normal;font-variant:normal;font-weight:normal;font-stretch:normal;text-align:end;line-height:125%;letter-spacing:0px;word-spacing:0px;text-anchor:end;fill:#383838;fill-opacity:1;stroke:none;display:inline;font-family:Inconsolata LGC;-inkscape-font-specification:Inconsolata LGC"><tspan x="441.82919" y="554.19055" id="tspan7829"><tspan id="tspan7831" style="font-size:24.81815529px;font-style:normal;font-variant:normal;font-weight:normal;font-stretch:normal;text-align:end;text-anchor:end;font-family:Linux Biolinum O;-inkscape-font-specification:Linux Biolinum O">call to</tspan> sqrt-iter</tspan></text>
    <g transform="matrix(1.9090888,0,0,1.9090888,-589.07876,-134.10725)" id="g7819" style="stroke-width:0.77952754;stroke-miterlimit:4;stroke-dasharray:none;display:inline">
      <path d="m 445,328.53734 13,0" id="path4451-8-2" style="fill:none;stroke:#383838;stroke-width:0.77952754;stroke-linecap:round;stroke-linejoin:round;stroke-miterlimit:4;stroke-opacity:1;stroke-dasharray:none;marker-end:url(#Arrow1Mend-6)"/>
      <text x="429" y="332.25165" id="text6301-1" xml:space="preserve" style="font-size:11px;font-style:normal;font-variant:normal;font-weight:normal;font-stretch:normal;text-align:start;line-height:125%;letter-spacing:0px;word-spacing:0px;text-anchor:start;fill:#383838;fill-opacity:1;stroke:none;font-family:Inconsolata LGC;-inkscape-font-specification:Inconsolata LGC"><tspan x="429" y="332.25165" id="tspan6303-0">E2</tspan></text>
    </g>
    <text x="470.46552" y="697.37219" id="text7827-9" xml:space="preserve" style="font-size:20px;font-style:normal;font-variant:normal;font-weight:normal;font-stretch:normal;text-align:center;line-height:125%;letter-spacing:0px;word-spacing:0px;text-anchor:middle;fill:#383838;fill-opacity:1;stroke:none;display:inline;font-family:Inconsolata LGC;-inkscape-font-specification:Inconsolata LGC"><tspan x="470.46552" y="697.37219" id="tspan7829-2"><tspan id="tspan7831-2" style="font-size:24.81815529px;font-style:normal;font-variant:normal;font-weight:normal;font-stretch:normal;text-align:center;text-anchor:middle;font-family:Linux Biolinum O;-inkscape-font-specification:Linux Biolinum O">call to</tspan> good-enough?</tspan></text>
    <g transform="matrix(1.9090888,0,0,1.9090888,-503.16977,-148.71119)" id="g7945" style="stroke-width:0.77952754;stroke-miterlimit:4;stroke-dasharray:none;display:inline">
      <path d="m 455,411.18703 13,0" id="path4451-8-2-4" style="fill:none;stroke:#383838;stroke-width:0.77952754;stroke-linecap:round;stroke-linejoin:round;stroke-miterlimit:4;stroke-opacity:1;stroke-dasharray:none;marker-end:url(#Arrow1Mend-6)"/>
      <text x="439" y="414.90134" id="text6301-1-2" xml:space="preserve" style="font-size:11px;font-style:normal;font-variant:normal;font-weight:normal;font-stretch:normal;text-align:start;line-height:125%;letter-spacing:0px;word-spacing:0px;text-anchor:start;fill:#383838;fill-opacity:1;stroke:none;font-family:Inconsolata LGC;-inkscape-font-specification:Inconsolata LGC"><tspan x="439" y="414.90134" id="tspan6303-0-4">E3</tspan></text>
    </g>
  </g>
</svg>
