<?xml version="1.0" encoding="UTF-8" standalone="no"?>
<!-- Created with Inkscape (http://www.inkscape.org/) -->
<?xml-stylesheet href="../../css/fonts/fonts.css" type="text/css"?>
<svg xmlns:dc="http://purl.org/dc/elements/1.1/" xmlns:cc="http://creativecommons.org/ns#" xmlns:rdf="http://www.w3.org/1999/02/22-rdf-syntax-ns#" xmlns:svg="http://www.w3.org/2000/svg" xmlns="http://www.w3.org/2000/svg" preserveAspectRatio="xMinYMin meet" viewBox="0 0 558 448" id="svg3493" version="1.1">
  <defs id="defs3495">
    <marker refX="0" refY="0" orient="auto" id="Arrow1Mstart" style="overflow:visible">
      <path d="M 0,0 5,-5 -12.5,0 5,5 0,0 z" transform="matrix(0.4,0,0,0.4,4,0)" id="path4565" style="fill:#383838;fill-rule:evenodd;stroke:#383838;stroke-width:1pt;marker-start:none"/>
    </marker>
    <marker refX="0" refY="0" orient="auto" id="marker4296" style="overflow:visible">
      <path d="M 0,0 5,-5 -12.5,0 5,5 0,0 z" transform="matrix(0.4,0,0,0.4,4,0)" id="path4298" style="fill:#383838;fill-rule:evenodd;stroke:#383838;stroke-width:1pt;marker-start:none"/>
    </marker>
    <marker refX="0" refY="0" orient="auto" id="marker4300" style="overflow:visible">
      <path d="M 0,0 5,-5 -12.5,0 5,5 0,0 z" transform="matrix(0.4,0,0,0.4,4,0)" id="path4302" style="fill:#383838;fill-rule:evenodd;stroke:#383838;stroke-width:1pt;marker-start:none"/>
    </marker>
    <marker refX="0" refY="0" orient="auto" id="marker4304" style="overflow:visible">
      <path d="M 0,0 5,-5 -12.5,0 5,5 0,0 z" transform="matrix(0.4,0,0,0.4,4,0)" id="path4306" style="fill:#383838;fill-rule:evenodd;stroke:#383838;stroke-width:1pt;marker-start:none"/>
    </marker>
    <marker refX="0" refY="0" orient="auto" id="marker4308" style="overflow:visible">
      <path d="M 0,0 5,-5 -12.5,0 5,5 0,0 z" transform="matrix(0.4,0,0,0.4,4,0)" id="path4310" style="fill:#383838;fill-rule:evenodd;stroke:#383838;stroke-width:1pt;marker-start:none"/>
    </marker>
    <marker refX="0" refY="0" orient="auto" id="Arrow1Mstart-5" style="overflow:visible">
      <path d="M 0,0 5,-5 -12.5,0 5,5 0,0 z" transform="matrix(0.4,0,0,0.4,4,0)" id="path4565-7" style="fill:#383838;fill-rule:evenodd;stroke:#383838;stroke-width:1pt;marker-start:none"/>
    </marker>
    <marker refX="0" refY="0" orient="auto" id="marker4296-0" style="overflow:visible">
      <path d="M 0,0 5,-5 -12.5,0 5,5 0,0 z" transform="matrix(0.4,0,0,0.4,4,0)" id="path4298-7" style="fill:#383838;fill-rule:evenodd;stroke:#383838;stroke-width:1pt;marker-start:none"/>
    </marker>
    <marker refX="0" refY="0" orient="auto" id="marker4300-8" style="overflow:visible">
      <path d="M 0,0 5,-5 -12.5,0 5,5 0,0 z" transform="matrix(0.4,0,0,0.4,4,0)" id="path4302-9" style="fill:#383838;fill-rule:evenodd;stroke:#383838;stroke-width:1pt;marker-start:none"/>
    </marker>
    <marker refX="0" refY="0" orient="auto" id="marker4304-9" style="overflow:visible">
      <path d="M 0,0 5,-5 -12.5,0 5,5 0,0 z" transform="matrix(0.4,0,0,0.4,4,0)" id="path4306-3" style="fill:#383838;fill-rule:evenodd;stroke:#383838;stroke-width:1pt;marker-start:none"/>
    </marker>
    <marker refX="0" refY="0" orient="auto" id="marker4308-9" style="overflow:visible">
      <path d="M 0,0 5,-5 -12.5,0 5,5 0,0 z" transform="matrix(0.4,0,0,0.4,4,0)" id="path4310-4" style="fill:#383838;fill-rule:evenodd;stroke:#383838;stroke-width:1pt;marker-start:none"/>
    </marker>
    <marker refX="0" refY="0" orient="auto" id="Arrow1Mstart-6" style="overflow:visible">
      <path d="M 0,0 5,-5 -12.5,0 5,5 0,0 z" transform="matrix(0.4,0,0,0.4,4,0)" id="path4565-5" style="fill:#383838;fill-rule:evenodd;stroke:#383838;stroke-width:1pt;marker-start:none"/>
    </marker>
    <marker refX="0" refY="0" orient="auto" id="Arrow1Mstart-8" style="overflow:visible">
      <path d="M 0,0 5,-5 -12.5,0 5,5 0,0 z" transform="matrix(0.4,0,0,0.4,4,0)" id="path4565-1" style="fill:#383838;fill-rule:evenodd;stroke:#383838;stroke-width:1pt;marker-start:none"/>
    </marker>
    <marker refX="0" refY="0" orient="auto" id="marker4752" style="overflow:visible">
      <path d="M 0,0 5,-5 -12.5,0 5,5 0,0 z" transform="matrix(0.4,0,0,0.4,4,0)" id="path4754" style="fill:#383838;fill-rule:evenodd;stroke:#383838;stroke-width:1pt;marker-start:none"/>
    </marker>
    <marker refX="0" refY="0" orient="auto" id="marker4756" style="overflow:visible">
      <path d="M 0,0 5,-5 -12.5,0 5,5 0,0 z" transform="matrix(0.4,0,0,0.4,4,0)" id="path4758" style="fill:#383838;fill-rule:evenodd;stroke:#383838;stroke-width:1pt;marker-start:none"/>
    </marker>
    <marker refX="0" refY="0" orient="auto" id="Arrow1Mstart-4" style="overflow:visible">
      <path d="M 0,0 5,-5 -12.5,0 5,5 0,0 z" transform="matrix(0.4,0,0,0.4,4,0)" id="path4565-4" style="fill:#383838;fill-rule:evenodd;stroke:#383838;stroke-width:1pt;marker-start:none"/>
    </marker>
    <marker refX="0" refY="0" orient="auto" id="marker4813" style="overflow:visible">
      <path d="M 0,0 5,-5 -12.5,0 5,5 0,0 z" transform="matrix(0.4,0,0,0.4,4,0)" id="path4815" style="fill:#383838;fill-rule:evenodd;stroke:#383838;stroke-width:1pt;marker-start:none"/>
    </marker>
    <marker refX="0" refY="0" orient="auto" id="marker4817" style="overflow:visible">
      <path d="M 0,0 5,-5 -12.5,0 5,5 0,0 z" transform="matrix(0.4,0,0,0.4,4,0)" id="path4819" style="fill:#383838;fill-rule:evenodd;stroke:#383838;stroke-width:1pt;marker-start:none"/>
    </marker>
    <marker refX="0" refY="0" orient="auto" id="Arrow1Mstart-9" style="overflow:visible">
      <path d="M 0,0 5,-5 -12.5,0 5,5 0,0 z" transform="matrix(0.4,0,0,0.4,4,0)" id="path4565-8" style="fill:#383838;fill-rule:evenodd;stroke:#383838;stroke-width:1pt;marker-start:none"/>
    </marker>
    <marker refX="0" refY="0" orient="auto" id="marker4813-5" style="overflow:visible">
      <path d="M 0,0 5,-5 -12.5,0 5,5 0,0 z" transform="matrix(0.4,0,0,0.4,4,0)" id="path4815-5" style="fill:#383838;fill-rule:evenodd;stroke:#383838;stroke-width:1pt;marker-start:none"/>
    </marker>
    <marker refX="0" refY="0" orient="auto" id="marker4817-2" style="overflow:visible">
      <path d="M 0,0 5,-5 -12.5,0 5,5 0,0 z" transform="matrix(0.4,0,0,0.4,4,0)" id="path4819-1" style="fill:#383838;fill-rule:evenodd;stroke:#383838;stroke-width:1pt;marker-start:none"/>
    </marker>
    <marker refX="0" refY="0" orient="auto" id="Arrow1Mstart-1" style="overflow:visible">
      <path d="M 0,0 5,-5 -12.5,0 5,5 0,0 z" transform="matrix(0.4,0,0,0.4,4,0)" id="path4565-6" style="fill:#383838;fill-rule:evenodd;stroke:#383838;stroke-width:1pt;marker-start:none"/>
    </marker>
    <marker refX="0" refY="0" orient="auto" id="Arrow1Mstart-62" style="overflow:visible">
      <path d="M 0,0 5,-5 -12.5,0 5,5 0,0 z" transform="matrix(0.4,0,0,0.4,4,0)" id="path4565-81" style="fill:#383838;fill-rule:evenodd;stroke:#383838;stroke-width:1pt;marker-start:none"/>
    </marker>
    <marker refX="0" refY="0" orient="auto" id="marker5222" style="overflow:visible">
      <path d="M 0,0 5,-5 -12.5,0 5,5 0,0 z" transform="matrix(0.4,0,0,0.4,4,0)" id="path5224" style="fill:#383838;fill-rule:evenodd;stroke:#383838;stroke-width:1pt;marker-start:none"/>
    </marker>
    <marker refX="0" refY="0" orient="auto" id="marker5226" style="overflow:visible">
      <path d="M 0,0 5,-5 -12.5,0 5,5 0,0 z" transform="matrix(0.4,0,0,0.4,4,0)" id="path5228" style="fill:#383838;fill-rule:evenodd;stroke:#383838;stroke-width:1pt;marker-start:none"/>
    </marker>
  </defs>
  <metadata id="metadata_3.14">
  <!--
    <rdf:RDF>
      <cc:Work rdf:about="">
        <dc:format>image/svg+xml</dc:format>
        <dc:type rdf:resource="http://purl.org/dc/dcmitype/StillImage"></dc:type>
        <dc:title></dc:title>
        <cc:license rdf:resource="http://creativecommons.org/licenses/by-sa/3.0/"></cc:license>
        <dc:description>Based on the diagram in Abelson, Sussman &amp; Sussman's "Structure and Interpretation of Computer Programs", 2nd ed.</dc:description>
        <dc:source>http://mitpress.mit.edu/sicp/full-text/book/book-Z-H-22.html#%_fig_3.14</dc:source>
        <dc:creator>
          <cc:Agent>
            <dc:title>Andres Raba</dc:title>
          </cc:Agent>
        </dc:creator>
        <dc:date>2012-11-17</dc:date>
        <dc:subject>
          <rdf:Bag>
            <rdf:li>list</rdf:li>
            <rdf:li>define</rdf:li>
          </rdf:Bag>
        </dc:subject>
      </cc:Work>
      <cc:License rdf:about="http://creativecommons.org/licenses/by-sa/3.0/">
        <cc:permits rdf:resource="http://creativecommons.org/ns#Reproduction"></cc:permits>
        <cc:permits rdf:resource="http://creativecommons.org/ns#Distribution"></cc:permits>
        <cc:requires rdf:resource="http://creativecommons.org/ns#Notice"></cc:requires>
        <cc:requires rdf:resource="http://creativecommons.org/ns#Attribution"></cc:requires>
        <cc:permits rdf:resource="http://creativecommons.org/ns#DerivativeWorks"></cc:permits>
        <cc:requires rdf:resource="http://creativecommons.org/ns#ShareAlike"></cc:requires>
      </cc:License>
    </rdf:RDF>
  -->
</metadata>
  <g transform="translate(-99.119296,-63.59375)" id="layer4" style="display:inline">
    <rect width="95.454346" height="47.727173" rx="6.7644811" ry="6.7644811" x="196.70955" y="67.08577" id="rect3794-7-1-0-2" style="fill:#e8e8e8;fill-opacity:1;stroke:#383838;stroke-width:1.01467216;stroke-linecap:round;stroke-linejoin:round;stroke-miterlimit:4;stroke-opacity:1;stroke-dasharray:none;stroke-dashoffset:0"/>
    <rect width="95.454346" height="47.727173" rx="6.7644811" ry="6.7644811" x="397.16367" y="77.57605" id="rect3794-7-1-0" style="fill:#e8e8e8;fill-opacity:1;stroke:#383838;stroke-width:1.01467216;stroke-linecap:round;stroke-linejoin:round;stroke-miterlimit:4;stroke-opacity:1;stroke-dasharray:none;stroke-dashoffset:0"/>
    <rect width="95.454346" height="47.727173" rx="6.7644811" ry="6.7644811" x="549.89062" y="77.57605" id="rect3794-7-1-0-6" style="fill:#e8e8e8;fill-opacity:1;stroke:#383838;stroke-width:1.01467216;stroke-linecap:round;stroke-linejoin:round;stroke-miterlimit:4;stroke-opacity:1;stroke-dasharray:none;stroke-dashoffset:0"/>
    <rect width="95.454346" height="47.727173" rx="6.7644811" ry="6.7644811" x="397.16367" y="230.30301" id="rect3794-7-1-0-5" style="fill:#e8e8e8;fill-opacity:1;stroke:#383838;stroke-width:1.01467216;stroke-linecap:round;stroke-linejoin:round;stroke-miterlimit:4;stroke-opacity:1;stroke-dasharray:none;stroke-dashoffset:0"/>
    <rect width="95.454346" height="47.727173" rx="6.7644811" ry="6.7644811" x="549.89062" y="230.30301" id="rect3794-7-1-0-6-6" style="fill:#e8e8e8;fill-opacity:1;stroke:#383838;stroke-width:1.01467216;stroke-linecap:round;stroke-linejoin:round;stroke-miterlimit:4;stroke-opacity:1;stroke-dasharray:none;stroke-dashoffset:0"/>
    <rect width="95.454346" height="47.727173" rx="6.7644811" ry="6.7644811" x="196.70955" y="306.66647" id="rect3794-7-1-0-2-4" style="fill:#e8e8e8;fill-opacity:1;stroke:#383838;stroke-width:1.01467216;stroke-linecap:round;stroke-linejoin:round;stroke-miterlimit:4;stroke-opacity:1;stroke-dasharray:none;stroke-dashoffset:0"/>
    <rect width="95.454346" height="47.727173" rx="6.7644811" ry="6.7644811" x="397.16367" y="383.02997" id="rect3794-7-1-0-0" style="fill:#e8e8e8;fill-opacity:1;stroke:#383838;stroke-width:1.01467216;stroke-linecap:round;stroke-linejoin:round;stroke-miterlimit:4;stroke-opacity:1;stroke-dasharray:none;stroke-dashoffset:0"/>
    <rect width="95.454346" height="47.727173" rx="6.7644811" ry="6.7644811" x="549.89062" y="383.02997" id="rect3794-7-1-0-6-67" style="fill:#e8e8e8;fill-opacity:1;stroke:#383838;stroke-width:1.01467216;stroke-linecap:round;stroke-linejoin:round;stroke-miterlimit:4;stroke-opacity:1;stroke-dasharray:none;stroke-dashoffset:0"/>
  </g>
  <g transform="translate(-99.119296,-63.59375)" id="layer2">
    <rect width="47.727173" height="47.727173" rx="6.7644811" ry="6.7644811" x="397.16367" y="153.93951" id="rect3794-77-9-4" style="fill:none;stroke:#383838;stroke-width:1.01467216;stroke-linecap:round;stroke-linejoin:round;stroke-miterlimit:4;stroke-opacity:1;stroke-dasharray:none;stroke-dashoffset:0;display:inline"/>
    <rect width="47.727173" height="47.727173" rx="6.7644811" ry="6.7644811" x="549.89062" y="153.93951" id="rect3794-77-9-5" style="fill:none;stroke:#383838;stroke-width:1.01467216;stroke-linecap:round;stroke-linejoin:round;stroke-miterlimit:4;stroke-opacity:1;stroke-dasharray:none;stroke-dashoffset:0;display:inline"/>
    <path d="m 546.07244,102.39417 -72.5453,0" id="path4554-5-2-3" style="fill:none;stroke:#383838;stroke-width:1.48818576;stroke-linecap:round;stroke-linejoin:round;stroke-miterlimit:4;stroke-opacity:1;stroke-dasharray:none;marker-start:url(#Arrow1Mstart);display:inline"/>
    <path d="m 120,84.862183 a 2.5,2.5 0 1 1 -5,0 2.5,2.5 0 1 1 5,0 z" transform="matrix(1.9090869,0,0,1.9090869,244.43672,-59.6151)" id="path4491-44-0" style="fill:#383838;fill-opacity:1;stroke:#383838;stroke-width:0;stroke-linecap:round;stroke-linejoin:round;stroke-miterlimit:4;stroke-opacity:1;stroke-dasharray:none;stroke-dashoffset:0;display:inline"/>
    <path d="m 120,84.862183 a 2.5,2.5 0 1 1 -5,0 2.5,2.5 0 1 1 5,0 z" transform="matrix(1.9090869,0,0,1.9090869,197.66409,-59.66745)" id="path4491-4-7" style="fill:#383838;fill-opacity:1;stroke:#383838;stroke-width:0;stroke-linecap:round;stroke-linejoin:round;stroke-miterlimit:4;stroke-opacity:1;stroke-dasharray:none;stroke-dashoffset:0;display:inline"/>
    <path d="m 421.9818,150.12134 0,-43.90899" id="path4554-5-0" style="fill:none;stroke:#383838;stroke-width:1.48818576;stroke-linecap:round;stroke-linejoin:round;stroke-miterlimit:4;stroke-opacity:1;stroke-dasharray:none;marker-start:url(#Arrow1Mstart);display:inline"/>
    <path d="m 597.61779,77.576043 0,47.727167" id="path4405-1-3-84" style="fill:none;stroke:#383838;stroke-width:1.01467216;stroke-linecap:butt;stroke-linejoin:miter;stroke-miterlimit:4;stroke-opacity:1;stroke-dasharray:none"/>
    <path d="m 120,84.862183 a 2.5,2.5 0 1 1 -5,0 2.5,2.5 0 1 1 5,0 z" transform="matrix(1.9090869,0,0,1.9090869,350.39104,-59.66745)" id="path4491-4-7-6" style="fill:#383838;fill-opacity:1;stroke:#383838;stroke-width:0;stroke-linecap:round;stroke-linejoin:round;stroke-miterlimit:4;stroke-opacity:1;stroke-dasharray:none;stroke-dashoffset:0;display:inline"/>
    <path d="m 574.70875,150.12134 0,-43.90899" id="path4554-5-0-7" style="fill:none;stroke:#383838;stroke-width:1.48818576;stroke-linecap:round;stroke-linejoin:round;stroke-miterlimit:4;stroke-opacity:1;stroke-dasharray:none;marker-start:url(#Arrow1Mstart);display:inline"/>
    <path d="M 597.61779,125.30321 643.43587,79.485129" id="path4373" style="fill:none;stroke:#383838;stroke-width:1.01467216;stroke-linecap:butt;stroke-linejoin:round;stroke-miterlimit:4;stroke-opacity:1;stroke-dasharray:none"/>
    <path d="m 393.34549,91.903892 -120.27247,0" id="path4554-5-2-3-8" style="fill:none;stroke:#383838;stroke-width:1.48818576;stroke-linecap:round;stroke-linejoin:round;stroke-miterlimit:4;stroke-opacity:1;stroke-dasharray:none;marker-start:url(#Arrow1Mstart);display:inline"/>
    <path d="m 120,84.862183 a 2.5,2.5 0 1 1 -5,0 2.5,2.5 0 1 1 5,0 z" transform="matrix(1.9090869,0,0,1.9090869,43.982601,-70.10538)" id="path4491-44-0-62" style="fill:#383838;fill-opacity:1;stroke:#383838;stroke-width:0;stroke-linecap:round;stroke-linejoin:round;stroke-miterlimit:4;stroke-opacity:1;stroke-dasharray:none;stroke-dashoffset:0;display:inline"/>
    <path d="m 120,84.862183 a 2.5,2.5 0 1 1 -5,0 2.5,2.5 0 1 1 5,0 z" transform="matrix(1.9090869,0,0,1.9090869,-2.790028,-70.15772)" id="path4491-4-7-9" style="fill:#383838;fill-opacity:1;stroke:#383838;stroke-width:0;stroke-linecap:round;stroke-linejoin:round;stroke-miterlimit:4;stroke-opacity:1;stroke-dasharray:none;stroke-dashoffset:0;display:inline"/>
    <path d="m 393.34549,254.23477 -162.20409,0.10481 c -5.79584,0 -9.61373,-3.99123 -9.61373,-9.88947 l 0,-151.601372" id="path4554-5-0-2" style="fill:none;stroke:#383838;stroke-width:1.48818576;stroke-linecap:round;stroke-linejoin:round;stroke-miterlimit:4;stroke-opacity:1;stroke-dasharray:none;marker-start:url(#Arrow1Mstart);display:inline"/>
    <path d="m 192.89137,91.903892 -62.99987,0" id="path4554-9-4-6" style="fill:none;stroke:#383838;stroke-width:1.48818576;stroke-linecap:round;stroke-linejoin:round;stroke-miterlimit:4;stroke-opacity:1;stroke-dasharray:none;marker-start:url(#Arrow1Mstart);display:inline"/>
    <path d="m 244.43672,67.085763 0,47.727177" id="path4405-1-3-7" style="fill:none;stroke:#383838;stroke-width:1.01467216;stroke-linecap:butt;stroke-linejoin:miter;stroke-miterlimit:4;stroke-opacity:1;stroke-dasharray:none"/>
    <rect width="47.727173" height="47.727173" rx="6.7644811" ry="6.7644811" x="397.16367" y="306.66647" id="rect3794-77-9-4-4" style="fill:none;stroke:#383838;stroke-width:1.01467216;stroke-linecap:round;stroke-linejoin:round;stroke-miterlimit:4;stroke-opacity:1;stroke-dasharray:none;stroke-dashoffset:0;display:inline"/>
    <rect width="47.727173" height="47.727173" rx="6.7644811" ry="6.7644811" x="549.89062" y="306.66647" id="rect3794-77-9-5-9" style="fill:none;stroke:#383838;stroke-width:1.01467216;stroke-linecap:round;stroke-linejoin:round;stroke-miterlimit:4;stroke-opacity:1;stroke-dasharray:none;stroke-dashoffset:0;display:inline"/>
    <path d="m 546.07246,255.12112 -72.5453,0" id="path4554-5-2-3-85" style="fill:none;stroke:#383838;stroke-width:1.48818576;stroke-linecap:round;stroke-linejoin:round;stroke-miterlimit:4;stroke-opacity:1;stroke-dasharray:none;marker-start:url(#Arrow1Mstart);display:inline"/>
    <path d="m 120,84.862183 a 2.5,2.5 0 1 1 -5,0 2.5,2.5 0 1 1 5,0 z" transform="matrix(1.9090869,0,0,1.9090869,244.43674,93.111848)" id="path4491-44-0-1" style="fill:#383838;fill-opacity:1;stroke:#383838;stroke-width:0;stroke-linecap:round;stroke-linejoin:round;stroke-miterlimit:4;stroke-opacity:1;stroke-dasharray:none;stroke-dashoffset:0;display:inline"/>
    <path d="m 120,84.862183 a 2.5,2.5 0 1 1 -5,0 2.5,2.5 0 1 1 5,0 z" transform="matrix(1.9090869,0,0,1.9090869,197.66409,93.059501)" id="path4491-4-7-7" style="fill:#383838;fill-opacity:1;stroke:#383838;stroke-width:0;stroke-linecap:round;stroke-linejoin:round;stroke-miterlimit:4;stroke-opacity:1;stroke-dasharray:none;stroke-dashoffset:0;display:inline"/>
    <path d="m 421.98182,302.84829 0,-43.90899" id="path4554-5-0-27" style="fill:none;stroke:#383838;stroke-width:1.48818576;stroke-linecap:round;stroke-linejoin:round;stroke-miterlimit:4;stroke-opacity:1;stroke-dasharray:none;marker-start:url(#Arrow1Mstart);display:inline"/>
    <path d="m 597.61779,230.30299 0,47.72717" id="path4405-1-3-84-0" style="fill:none;stroke:#383838;stroke-width:1.01467216;stroke-linecap:butt;stroke-linejoin:miter;stroke-miterlimit:4;stroke-opacity:1;stroke-dasharray:none"/>
    <path d="m 120,84.862183 a 2.5,2.5 0 1 1 -5,0 2.5,2.5 0 1 1 5,0 z" transform="matrix(1.9090869,0,0,1.9090869,350.39106,93.059501)" id="path4491-4-7-6-8" style="fill:#383838;fill-opacity:1;stroke:#383838;stroke-width:0;stroke-linecap:round;stroke-linejoin:round;stroke-miterlimit:4;stroke-opacity:1;stroke-dasharray:none;stroke-dashoffset:0;display:inline"/>
    <path d="m 574.70877,302.84829 0,-43.90899" id="path4554-5-0-7-2" style="fill:none;stroke:#383838;stroke-width:1.48818576;stroke-linecap:round;stroke-linejoin:round;stroke-miterlimit:4;stroke-opacity:1;stroke-dasharray:none;marker-start:url(#Arrow1Mstart);display:inline"/>
    <path d="m 597.61779,278.03016 45.81808,-45.81808" id="path4373-3" style="fill:none;stroke:#383838;stroke-width:1.01467216;stroke-linecap:butt;stroke-linejoin:round;stroke-miterlimit:4;stroke-opacity:1;stroke-dasharray:none"/>
    <path d="m 444.89084,230.30299 0,47.72717" id="path4405-1-3-3" style="fill:none;stroke:#383838;stroke-width:1.01467216;stroke-linecap:butt;stroke-linejoin:miter;stroke-miterlimit:4;stroke-opacity:1;stroke-dasharray:none"/>
    <rect width="47.727173" height="47.727173" rx="6.7644811" ry="6.7644811" x="397.16367" y="459.39343" id="rect3794-77-9-4-42" style="fill:none;stroke:#383838;stroke-width:1.01467216;stroke-linecap:round;stroke-linejoin:round;stroke-miterlimit:4;stroke-opacity:1;stroke-dasharray:none;stroke-dashoffset:0;display:inline"/>
    <rect width="47.727173" height="47.727173" rx="6.7644811" ry="6.7644811" x="549.89062" y="459.39343" id="rect3794-77-9-5-6" style="fill:none;stroke:#383838;stroke-width:1.01467216;stroke-linecap:round;stroke-linejoin:round;stroke-miterlimit:4;stroke-opacity:1;stroke-dasharray:none;stroke-dashoffset:0;display:inline"/>
    <path d="m 546.07246,407.84807 -72.5453,0" id="path4554-5-2-3-7" style="fill:none;stroke:#383838;stroke-width:1.48818576;stroke-linecap:round;stroke-linejoin:round;stroke-miterlimit:4;stroke-opacity:1;stroke-dasharray:none;marker-start:url(#Arrow1Mstart);display:inline"/>
    <path d="m 120,84.862183 a 2.5,2.5 0 1 1 -5,0 2.5,2.5 0 1 1 5,0 z" transform="matrix(1.9090869,0,0,1.9090869,244.43674,245.8388)" id="path4491-44-0-9" style="fill:#383838;fill-opacity:1;stroke:#383838;stroke-width:0;stroke-linecap:round;stroke-linejoin:round;stroke-miterlimit:4;stroke-opacity:1;stroke-dasharray:none;stroke-dashoffset:0;display:inline"/>
    <path d="m 120,84.862183 a 2.5,2.5 0 1 1 -5,0 2.5,2.5 0 1 1 5,0 z" transform="matrix(1.9090869,0,0,1.9090869,197.66409,245.78645)" id="path4491-4-7-8" style="fill:#383838;fill-opacity:1;stroke:#383838;stroke-width:0;stroke-linecap:round;stroke-linejoin:round;stroke-miterlimit:4;stroke-opacity:1;stroke-dasharray:none;stroke-dashoffset:0;display:inline"/>
    <path d="m 421.98182,455.57524 0,-43.90899" id="path4554-5-0-6" style="fill:none;stroke:#383838;stroke-width:1.48818576;stroke-linecap:round;stroke-linejoin:round;stroke-miterlimit:4;stroke-opacity:1;stroke-dasharray:none;marker-start:url(#Arrow1Mstart);display:inline"/>
    <path d="m 597.61779,383.02994 0,47.72717" id="path4405-1-3-84-1" style="fill:none;stroke:#383838;stroke-width:1.01467216;stroke-linecap:butt;stroke-linejoin:miter;stroke-miterlimit:4;stroke-opacity:1;stroke-dasharray:none"/>
    <path d="m 120,84.862183 a 2.5,2.5 0 1 1 -5,0 2.5,2.5 0 1 1 5,0 z" transform="matrix(1.9090869,0,0,1.9090869,350.39106,245.78645)" id="path4491-4-7-6-0" style="fill:#383838;fill-opacity:1;stroke:#383838;stroke-width:0;stroke-linecap:round;stroke-linejoin:round;stroke-miterlimit:4;stroke-opacity:1;stroke-dasharray:none;stroke-dashoffset:0;display:inline"/>
    <path d="m 574.70877,455.57524 0,-43.90899" id="path4554-5-0-7-0" style="fill:none;stroke:#383838;stroke-width:1.48818576;stroke-linecap:round;stroke-linejoin:round;stroke-miterlimit:4;stroke-opacity:1;stroke-dasharray:none;marker-start:url(#Arrow1Mstart);display:inline"/>
    <path d="m 597.61779,430.75711 45.81808,-45.81808" id="path4373-0" style="fill:none;stroke:#383838;stroke-width:1.01467216;stroke-linecap:butt;stroke-linejoin:round;stroke-miterlimit:4;stroke-opacity:1;stroke-dasharray:none"/>
    <path d="m 444.89084,383.02994 0,47.72717" id="path4405-1-3-9" style="fill:none;stroke:#383838;stroke-width:1.01467216;stroke-linecap:butt;stroke-linejoin:miter;stroke-miterlimit:4;stroke-opacity:1;stroke-dasharray:none"/>
    <path d="m 393.34549,416.42926 -62.99986,0" id="path4554-9-4-6-9" style="fill:none;stroke:#383838;stroke-width:1.48818576;stroke-linecap:round;stroke-linejoin:round;stroke-miterlimit:4;stroke-opacity:1;stroke-dasharray:none;marker-start:url(#Arrow1Mstart);display:inline"/>
  </g>
  <g transform="translate(-99.119296,-63.59375)" id="layer3">
    <text x="414.68634" y="183.63277" id="text3007-0-2" xml:space="preserve" style="font-size:20px;font-style:normal;font-variant:normal;font-weight:normal;font-stretch:normal;line-height:125%;letter-spacing:0px;word-spacing:0px;fill:#383838;fill-opacity:1;stroke:none;font-family:Inconsolata LGC;-inkscape-font-specification:Inconsolata LGC"><tspan x="414.68634" y="183.63277" id="tspan3009-8-5" style="font-weight:normal;-inkscape-font-specification:Inconsolata LGC">c</tspan></text>
    <text x="567.75421" y="184.14409" id="text3007-0-7" xml:space="preserve" style="font-size:20px;font-style:normal;font-variant:normal;font-weight:normal;font-stretch:normal;line-height:125%;letter-spacing:0px;word-spacing:0px;fill:#383838;fill-opacity:1;stroke:none;font-family:Inconsolata LGC;-inkscape-font-specification:Inconsolata LGC"><tspan x="567.75421" y="184.14409" id="tspan3009-8-52" style="font-weight:normal;-inkscape-font-specification:Inconsolata LGC">d</tspan></text>
    <text x="320.8002" y="422.15643" id="text4978" xml:space="preserve" style="font-size:20px;font-style:normal;font-variant:normal;font-weight:normal;font-stretch:normal;text-align:end;line-height:125%;letter-spacing:0px;word-spacing:0px;text-anchor:end;fill:#383838;fill-opacity:1;stroke:none;font-family:Inconsolata LGC;-inkscape-font-specification:Inconsolata LGC"><tspan x="320.8002" y="422.15643" id="tspan4980">y</tspan></text>
    <text x="120.34607" y="96.744781" id="text4974" xml:space="preserve" style="font-size:20px;font-style:normal;font-variant:normal;font-weight:normal;font-stretch:normal;text-align:end;line-height:125%;letter-spacing:0px;word-spacing:0px;text-anchor:end;fill:#383838;fill-opacity:1;stroke:none;font-family:Inconsolata LGC;-inkscape-font-specification:Inconsolata LGC"><tspan x="120.34607" y="96.744781" id="tspan4976">x</tspan></text>
    <text x="414.68634" y="489.08633" id="text3007-0-2-3" xml:space="preserve" style="font-size:20px;font-style:normal;font-variant:normal;font-weight:normal;font-stretch:normal;line-height:125%;letter-spacing:0px;word-spacing:0px;fill:#383838;fill-opacity:1;stroke:none;font-family:Inconsolata LGC;-inkscape-font-specification:Inconsolata LGC"><tspan x="414.68634" y="489.08633" id="tspan3009-8-5-3" style="font-weight:normal;-inkscape-font-specification:Inconsolata LGC">e</tspan></text>
    <text x="567.2428" y="489.93869" id="text3007-0-7-5" xml:space="preserve" style="font-size:20px;font-style:normal;font-variant:normal;font-weight:normal;font-stretch:normal;line-height:125%;letter-spacing:0px;word-spacing:0px;fill:#383838;fill-opacity:1;stroke:none;font-family:Inconsolata LGC;-inkscape-font-specification:Inconsolata LGC"><tspan x="567.2428" y="489.93869" id="tspan3009-8-52-1" style="font-weight:normal;-inkscape-font-specification:Inconsolata LGC">f</tspan></text>
    <text x="414.85681" y="336.35938" id="text3007-0-2-9" xml:space="preserve" style="font-size:20px;font-style:normal;font-variant:normal;font-weight:normal;font-stretch:normal;line-height:125%;letter-spacing:0px;word-spacing:0px;fill:#383838;fill-opacity:1;stroke:none;font-family:Inconsolata LGC;-inkscape-font-specification:Inconsolata LGC"><tspan x="414.85681" y="336.35938" id="tspan3009-8-5-1" style="font-weight:normal;-inkscape-font-specification:Inconsolata LGC">a</tspan></text>
    <text x="567.07233" y="336.87079" id="text3007-0-7-1" xml:space="preserve" style="font-size:20px;font-style:normal;font-variant:normal;font-weight:normal;font-stretch:normal;line-height:125%;letter-spacing:0px;word-spacing:0px;fill:#383838;fill-opacity:1;stroke:none;font-family:Inconsolata LGC;-inkscape-font-specification:Inconsolata LGC"><tspan x="567.07233" y="336.87079" id="tspan3009-8-52-2" style="font-weight:normal;-inkscape-font-specification:Inconsolata LGC">b</tspan></text>
    <path d="m 393.34549,111.45749 -43.90899,0 c -5.72727,0 -9.54544,3.81817 -9.54544,9.54545 l 0,201.00442 c 0,5.65906 -3.81817,9.47724 -9.54543,9.47724 l -57.27261,0" id="path4554-5-2-3-8-5" style="fill:none;stroke:#383838;stroke-width:1.48818576;stroke-linecap:round;stroke-linejoin:round;stroke-miterlimit:4;stroke-opacity:1;stroke-dasharray:none;marker-start:url(#Arrow1Mstart);display:inline"/>
    <path d="m 120,84.862183 a 2.5,2.5 0 1 1 -5,0 2.5,2.5 0 1 1 5,0 z" transform="matrix(1.9090869,0,0,1.9090869,43.982608,169.47532)" id="path4491-44-0-62-6" style="fill:#383838;fill-opacity:1;stroke:#383838;stroke-width:0;stroke-linecap:round;stroke-linejoin:round;stroke-miterlimit:4;stroke-opacity:1;stroke-dasharray:none;stroke-dashoffset:0;display:inline"/>
    <path d="m 120,84.862183 a 2.5,2.5 0 1 1 -5,0 2.5,2.5 0 1 1 5,0 z" transform="matrix(1.9090869,0,0,1.9090869,-2.79002,169.42298)" id="path4491-4-7-9-6" style="fill:#383838;fill-opacity:1;stroke:#383838;stroke-width:0;stroke-linecap:round;stroke-linejoin:round;stroke-miterlimit:4;stroke-opacity:1;stroke-dasharray:none;stroke-dashoffset:0;display:inline"/>
    <path d="m 393.34549,397.25298 -162.20409,0.10481 c -5.79584,0 -9.61373,-3.99123 -9.61373,-9.88947 l 0,-52.16605" id="path4554-5-0-2-1" style="fill:none;stroke:#383838;stroke-width:1.48818576;stroke-linecap:round;stroke-linejoin:round;stroke-miterlimit:4;stroke-opacity:1;stroke-dasharray:none;marker-start:url(#Arrow1Mstart);display:inline"/>
    <path d="m 192.89137,331.4846 -62.99987,0" id="path4554-9-4-6-5" style="fill:none;stroke:#383838;stroke-width:1.48818576;stroke-linecap:round;stroke-linejoin:round;stroke-miterlimit:4;stroke-opacity:1;stroke-dasharray:none;marker-start:url(#Arrow1Mstart);display:inline"/>
    <path d="m 244.43672,306.66647 0,47.72717" id="path4405-1-3-7-6" style="fill:none;stroke:#383838;stroke-width:1.01467216;stroke-linecap:butt;stroke-linejoin:miter;stroke-miterlimit:4;stroke-opacity:1;stroke-dasharray:none"/>
    <text x="120.34607" y="336.3255" id="text4974-4" xml:space="preserve" style="font-size:20px;font-style:normal;font-variant:normal;font-weight:normal;font-stretch:normal;text-align:end;line-height:125%;letter-spacing:0px;word-spacing:0px;text-anchor:end;fill:#383838;fill-opacity:1;stroke:none;font-family:Inconsolata LGC;-inkscape-font-specification:Inconsolata LGC"><tspan x="120.34607" y="336.3255" id="tspan4976-5">z</tspan></text>
  </g>
  <path d="m 345.77154,13.982293 0,47.727167" id="path4405-1-3" style="fill:none;stroke:#383838;stroke-width:1.01467216;stroke-linecap:butt;stroke-linejoin:miter;stroke-miterlimit:4;stroke-opacity:1;stroke-dasharray:none"/>
</svg>
