<?xml version="1.0" encoding="UTF-8" standalone="no"?>
<!-- Created with Inkscape (http://www.inkscape.org/) -->
<?xml-stylesheet href="../../css/fonts/fonts.css" type="text/css"?>
<svg xmlns:dc="http://purl.org/dc/elements/1.1/" xmlns:cc="http://creativecommons.org/ns#" xmlns:rdf="http://www.w3.org/1999/02/22-rdf-syntax-ns#" xmlns:svg="http://www.w3.org/2000/svg" xmlns="http://www.w3.org/2000/svg" preserveAspectRatio="xMinYMin meet" viewBox="0 0 683 506" id="svg4152" style="display:inline" version="1.1">
  <defs id="defs4154">
    <marker refX="0" refY="0" orient="auto" id="Arrow1Mend-6" style="overflow:visible">
      <path d="M 0,0 5,-5 -12.5,0 5,5 0,0 z" transform="matrix(-0.4,0,0,-0.4,-4,0)" id="path3809-6-2" style="fill:#383838;fill-rule:evenodd;stroke:#383838;stroke-width:1pt;marker-start:none"/>
    </marker>
    <marker refX="0" refY="0" orient="auto" id="marker5058" style="overflow:visible">
      <path d="M 0,0 5,-5 -12.5,0 5,5 0,0 z" transform="matrix(-0.4,0,0,-0.4,-4,0)" id="path5060" style="fill:#383838;fill-rule:evenodd;stroke:#383838;stroke-width:1pt;marker-start:none"/>
    </marker>
    <marker refX="0" refY="0" orient="auto" id="marker5062" style="overflow:visible">
      <path d="M 0,0 5,-5 -12.5,0 5,5 0,0 z" transform="matrix(-0.4,0,0,-0.4,-4,0)" id="path5064" style="fill:#383838;fill-rule:evenodd;stroke:#383838;stroke-width:1pt;marker-start:none"/>
    </marker>
    <marker refX="0" refY="0" orient="auto" id="marker5066" style="overflow:visible">
      <path d="M 0,0 5,-5 -12.5,0 5,5 0,0 z" transform="matrix(-0.4,0,0,-0.4,-4,0)" id="path5068" style="fill:#383838;fill-rule:evenodd;stroke:#383838;stroke-width:1pt;marker-start:none"/>
    </marker>
    <marker refX="0" refY="0" orient="auto" id="Arrow1Mend" style="overflow:visible">
      <path d="M 0,0 5,-5 -12.5,0 5,5 0,0 z" transform="matrix(-0.4,0,0,-0.4,-4,0)" id="path3809" style="fill:#383838;fill-rule:evenodd;stroke:#383838;stroke-width:1pt;marker-start:none"/>
    </marker>
    <marker refX="0" refY="0" orient="auto" id="marker5072" style="overflow:visible">
      <path d="M 0,0 5,-5 -12.5,0 5,5 0,0 z" transform="matrix(-0.4,0,0,-0.4,-4,0)" id="path5074" style="fill:#383838;fill-rule:evenodd;stroke:#383838;stroke-width:1pt;marker-start:none"/>
    </marker>
    <marker refX="0" refY="0" orient="auto" id="Arrow1Mend-3" style="overflow:visible">
      <path d="M 0,0 5,-5 -12.5,0 5,5 0,0 z" transform="matrix(-0.4,0,0,-0.4,-4,0)" id="path3809-6" style="fill:#383838;fill-rule:evenodd;stroke:#383838;stroke-width:1pt;marker-start:none"/>
    </marker>
    <marker refX="0" refY="0" orient="auto" id="Arrow1Mend-6-4" style="overflow:visible">
      <path d="M 0,0 5,-5 -12.5,0 5,5 0,0 z" transform="matrix(-0.4,0,0,-0.4,-4,0)" id="path3809-6-2-9" style="fill:#383838;fill-rule:evenodd;stroke:#383838;stroke-width:1pt;marker-start:none"/>
    </marker>
    <marker refX="0" refY="0" orient="auto" id="Arrow1Mend-4" style="overflow:visible">
      <path d="M 0,0 5,-5 -12.5,0 5,5 0,0 z" transform="matrix(-0.4,0,0,-0.4,-4,0)" id="path3809-68" style="fill:#383838;fill-rule:evenodd;stroke:#383838;stroke-width:1pt;marker-start:none"/>
    </marker>
    <marker refX="0" refY="0" orient="auto" id="Arrow1Mend-6-9" style="overflow:visible">
      <path d="M 0,0 5,-5 -12.5,0 5,5 0,0 z" transform="matrix(-0.4,0,0,-0.4,-4,0)" id="path3809-6-2-3" style="fill:#383838;fill-rule:evenodd;stroke:#383838;stroke-width:1pt;marker-start:none"/>
    </marker>
  </defs>
  <metadata id="metadata_3.8">
  <!--
    <rdf:RDF>
      <cc:Work rdf:about="">
        <dc:format>image/svg+xml</dc:format>
        <dc:type rdf:resource="http://purl.org/dc/dcmitype/StillImage"></dc:type>
        <dc:title></dc:title>
        <cc:license rdf:resource="http://creativecommons.org/licenses/by-sa/3.0/"></cc:license>
        <dc:description>Based on the diagram in Abelson, Sussman &amp; Sussman's "Structure and Interpretation of Computer Programs", 2nd ed.</dc:description>
        <dc:source>http://mitpress.mit.edu/sicp/full-text/book/book-Z-H-21.html#%_fig_3.8</dc:source>
        <dc:creator>
          <cc:Agent>
            <dc:title>Andres Raba</dc:title>
          </cc:Agent>
        </dc:creator>
        <dc:date>2012-11-17</dc:date>
        <dc:subject>
          <rdf:Bag>
            <rdf:li>environment</rdf:li>
          </rdf:Bag>
        </dc:subject>
      </cc:Work>
      <cc:License rdf:about="http://creativecommons.org/licenses/by-sa/3.0/">
        <cc:permits rdf:resource="http://creativecommons.org/ns#Reproduction"></cc:permits>
        <cc:permits rdf:resource="http://creativecommons.org/ns#Distribution"></cc:permits>
        <cc:requires rdf:resource="http://creativecommons.org/ns#Notice"></cc:requires>
        <cc:requires rdf:resource="http://creativecommons.org/ns#Attribution"></cc:requires>
        <cc:permits rdf:resource="http://creativecommons.org/ns#DerivativeWorks"></cc:permits>
        <cc:requires rdf:resource="http://creativecommons.org/ns#ShareAlike"></cc:requires>
      </cc:License>
    </rdf:RDF>
  -->
</metadata>
  <g transform="translate(-28.416001,-31.1875)" id="layer2" style="display:inline">
    <path d="m 125.53097,36.70547 563.18223,0 c 5.72728,0 9.54546,3.81818 9.54546,9.54546 l 0,85.90914 c 0,5.72728 -3.81818,9.54546 -9.54546,9.54546 l -563.18223,0 c -5.72728,0 -9.54546,-3.81818 -9.54546,-9.54546 l 0,-85.90914 c 0,-5.72728 3.81818,-9.54546 9.54546,-9.54546 z" id="rect5327" style="fill:#e8e8e8;fill-opacity:1;stroke:#383838;stroke-width:1.01467502;stroke-linecap:round;stroke-linejoin:round;stroke-miterlimit:4;stroke-opacity:1;stroke-dasharray:none;stroke-dashoffset:0"/>
    <path d="m 236.25832,289.6505 89.55688,0 c 5.89774,0 9.71592,-3.81818 9.71592,-9.54546 l 0,-39.12671" id="path3795" style="fill:none;stroke:#383838;stroke-width:1.48819005;stroke-linecap:round;stroke-linejoin:round;stroke-miterlimit:4;stroke-opacity:1;stroke-dasharray:none;marker-end:url(#Arrow1Mend)"/>
    <path d="m 188.53102,113.06915 14.38636,0 c 5.89774,0 9.71593,3.81818 9.71593,9.54546 l 0,141.27283" id="path3795-5" style="fill:none;stroke:#383838;stroke-width:1.48819005;stroke-linecap:round;stroke-linejoin:round;stroke-miterlimit:4;stroke-opacity:1;stroke-dasharray:none;marker-end:url(#Arrow1Mend)"/>
    <path d="m 68.2582,113.06915 43.90913,0" id="path4451" style="fill:none;stroke:#383838;stroke-width:1.48819005;stroke-linecap:round;stroke-linejoin:round;stroke-miterlimit:4;stroke-opacity:1;stroke-dasharray:none;marker-end:url(#Arrow1Mend-6)"/>
    <path d="m 190.44011,294.52551 0,51.54549" id="path4451-5" style="fill:none;stroke:#383838;stroke-width:1.48819005;stroke-linecap:round;stroke-linejoin:round;stroke-miterlimit:4;stroke-opacity:1;stroke-dasharray:none;marker-end:url(#Arrow1Mend-6)"/>
    <path d="m 190,179.86218 a 2.5,2.5 0 1 1 -5,0 2.5,2.5 0 1 1 5,0 z" transform="matrix(1.9090923,0,0,1.9090923,-167.5147,-53.62068)" id="path5407" style="fill:#383838;fill-opacity:1;stroke:#383838;stroke-width:0.35433072;stroke-linecap:round;stroke-linejoin:round;stroke-miterlimit:4;stroke-opacity:1;stroke-dasharray:none;stroke-dashoffset:0"/>
    <path d="m 190,179.86218 a 2.5,2.5 0 1 1 -5,0 2.5,2.5 0 1 1 5,0 z" transform="matrix(1.9090923,0,0,1.9090923,-122.7533,-53.62068)" id="path5407-7" style="fill:#383838;fill-opacity:1;stroke:#383838;stroke-width:0.35433072;stroke-linecap:round;stroke-linejoin:round;stroke-miterlimit:4;stroke-opacity:1;stroke-dasharray:none;stroke-dashoffset:0"/>
    <path d="m 199.17081,180.36218 a 11.170808,11.170808 0 1 1 -22.34162,0 11.170808,11.170808 0 1 1 22.34162,0 z" transform="matrix(1.9958691,0,0,1.9958691,-139.91964,-70.2265)" id="path5435-9" style="fill:none;stroke:#383838;stroke-width:0.50838757;stroke-linecap:round;stroke-linejoin:round;stroke-miterlimit:4;stroke-opacity:1;stroke-dasharray:none;stroke-dashoffset:0"/>
    <path d="m 199.17081,180.36218 a 11.170808,11.170808 0 1 1 -22.34162,0 11.170808,11.170808 0 1 1 22.34162,0 z" transform="matrix(1.9958691,0,0,1.9958691,-184.78329,-70.22649)" id="path5435-9-6" style="fill:none;stroke:#383838;stroke-width:0.50838757;stroke-linecap:round;stroke-linejoin:round;stroke-miterlimit:4;stroke-opacity:1;stroke-dasharray:none;stroke-dashoffset:0"/>
    <path d="m 297.17882,179.88738 171.8183,0 c 5.72728,0 9.54546,3.81818 9.54546,9.54546 l 0,38.18184 c 0,5.72728 -3.81818,9.54547 -9.54546,9.54547 l -171.8183,0 c -5.72728,0 -9.54547,-3.81819 -9.54547,-9.54547 l 0,-38.18184 c 0,-5.72728 3.81819,-9.54546 9.54547,-9.54546 z" id="rect5327-2" style="fill:#e8e8e8;fill-opacity:1;stroke:#383838;stroke-width:1.01467502;stroke-linecap:round;stroke-linejoin:round;stroke-miterlimit:4;stroke-opacity:1;stroke-dasharray:none;stroke-dashoffset:0"/>
    <path d="m 264.89471,208.52376 18.92046,0" id="path4451-8" style="fill:none;stroke:#383838;stroke-width:1.48819005;stroke-linecap:round;stroke-linejoin:round;stroke-miterlimit:4;stroke-opacity:1;stroke-dasharray:none;marker-end:url(#Arrow1Mend-6)"/>
    <path d="m 383.08797,179.88738 0,-34.36367" id="path4451-8-3" style="fill:none;stroke:#383838;stroke-width:1.48819005;stroke-linecap:round;stroke-linejoin:round;stroke-miterlimit:4;stroke-opacity:1;stroke-dasharray:none;marker-end:url(#Arrow1Mend-6)"/>
    <path d="m 392.63343,275.34199 171.81831,0 c 5.72728,0 9.54546,3.81819 9.54546,9.54546 l 0,38.18185 c 0,5.72728 -3.81818,9.54546 -9.54546,9.54546 l -171.81831,0 c -5.72728,0 -9.54546,-3.81818 -9.54546,-9.54546 l 0,-38.18185 c 0,-5.72727 3.81818,-9.54546 9.54546,-9.54546 z" id="rect5327-2-7" style="fill:#e8e8e8;fill-opacity:1;stroke:#383838;stroke-width:1.01467502;stroke-linecap:round;stroke-linejoin:round;stroke-miterlimit:4;stroke-opacity:1;stroke-dasharray:none;stroke-dashoffset:0;display:inline"/>
  </g>
  <g transform="translate(-28.416001,-31.1875)" id="layer3" style="display:inline">
    <text x="236.25833" y="215.6147" id="text6301" xml:space="preserve" style="font-size:20px;font-style:normal;font-variant:normal;font-weight:normal;font-stretch:normal;text-align:start;line-height:125%;letter-spacing:0px;word-spacing:0px;text-anchor:start;fill:#383838;fill-opacity:1;stroke:none;font-family:Inconsolata LGC;-inkscape-font-specification:Inconsolata LGC"><tspan x="236.25833" y="215.6147" id="tspan6303">E1</tspan></text>
    <text x="144.62189" y="74.887306" id="text5493" xml:space="preserve" style="font-size:20px;font-style:normal;font-variant:normal;font-weight:normal;font-stretch:normal;text-align:start;line-height:125%;letter-spacing:0px;word-spacing:0px;text-anchor:start;fill:#383838;fill-opacity:1;stroke:none;font-family:Inconsolata LGC;-inkscape-font-specification:Inconsolata LGC"><tspan x="144.62189" y="74.887306" id="tspan5495">make-withdraw: ...</tspan></text>
    <text x="144.62189" y="118.66006" id="text5473" xml:space="preserve" style="font-size:20px;font-style:normal;font-variant:normal;font-weight:normal;font-stretch:normal;text-align:start;line-height:125%;letter-spacing:0px;word-spacing:0px;text-anchor:start;fill:#383838;fill-opacity:1;stroke:none;font-family:Inconsolata LGC;-inkscape-font-specification:Inconsolata LGC"><tspan x="144.62189" y="118.66006" id="tspan5475">W1:</tspan></text>
    <text x="39.621819" y="74.887306" id="text5477" xml:space="preserve" style="font-size:20px;font-style:normal;font-variant:normal;font-weight:normal;font-stretch:normal;text-align:start;line-height:120.00000477%;letter-spacing:0px;word-spacing:0px;text-anchor:start;fill:#383838;fill-opacity:1;stroke:none;font-family:Inconsolata LGC;-inkscape-font-specification:Inconsolata LGC"><tspan x="39.621819" y="74.887306" id="tspan5479" style="font-size:24.81819916px;font-style:normal;font-variant:normal;font-weight:normal;font-stretch:normal;line-height:120.00000477%;font-family:Linux Biolinum O;-inkscape-font-specification:Linux Biolinum O">global</tspan><tspan x="39.621819" y="104.66914" id="tspan5507" style="font-size:24.81819916px;font-style:normal;font-variant:normal;font-weight:normal;font-stretch:normal;line-height:120.00000477%;font-family:Linux Biolinum O;-inkscape-font-specification:Linux Biolinum O">env</tspan></text>
    <text x="383.08795" y="215.82574" id="text6297" xml:space="preserve" style="font-size:20px;font-style:normal;font-variant:normal;font-weight:normal;font-stretch:normal;text-align:center;line-height:125%;letter-spacing:0px;word-spacing:0px;text-anchor:middle;fill:#383838;fill-opacity:1;stroke:none;font-family:Inconsolata LGC;-inkscape-font-specification:Inconsolata LGC"><tspan x="383.08795" y="215.82574" id="tspan6299">balance: 100</tspan></text>
    <text x="77.803673" y="380.34207" id="text5497" xml:space="preserve" style="font-size:24.81819916px;font-style:normal;font-variant:normal;font-weight:normal;font-stretch:normal;text-align:start;line-height:120.00000477%;letter-spacing:0px;word-spacing:0px;text-anchor:start;fill:#383838;fill-opacity:1;stroke:none;font-family:Linux Biolinum O;-inkscape-font-specification:Sans"><tspan x="77.803673" y="380.34207" id="tspan5499" style="line-height:120.00000477%">parameters:  <tspan dx="4.7727308" id="tspan5868" style="font-size:20px;font-style:normal;font-variant:normal;font-weight:normal;font-stretch:normal;line-height:120.00000477%;font-family:Inconsolata LGC;-inkscape-font-specification:Inconsolata LGC">amount</tspan></tspan><tspan x="77.803673" y="413.59021" id="tspan5914" style="font-style:normal;font-variant:normal;font-weight:normal;font-stretch:normal;line-height:120.00000477%;font-family:Linux Biolinum O;-inkscape-font-specification:Sans">body:  <tspan id="tspan5503" style="font-size:20px;font-style:normal;font-variant:normal;font-weight:normal;font-stretch:normal;line-height:120.00000477%;font-family:Inconsolata LGC;-inkscape-font-specification:Inconsolata LGC">...</tspan></tspan></text>
    <path d="m 430.81528,275.34199 0,-34.36366" id="path4451-8-3-0" style="fill:none;stroke:#383838;stroke-width:1.48819005;stroke-linecap:round;stroke-linejoin:round;stroke-miterlimit:4;stroke-opacity:1;stroke-dasharray:none;marker-end:url(#Arrow1Mend-6)"/>
    <text x="478.5426" y="311.28036" id="text6297-8" xml:space="preserve" style="font-size:20px;font-style:normal;font-variant:normal;font-weight:normal;font-stretch:normal;text-align:center;line-height:125%;letter-spacing:0px;word-spacing:0px;text-anchor:middle;fill:#383838;fill-opacity:1;stroke:none;font-family:Inconsolata LGC;-inkscape-font-specification:Inconsolata LGC"><tspan x="478.5426" y="311.28036" id="tspan6299-8">amount: 50</tspan></text>
    <text x="505.25055" y="187.98645" id="text6205" xml:space="preserve" style="font-size:24.81819916px;font-style:normal;font-variant:normal;font-weight:normal;font-stretch:normal;text-align:start;line-height:120.00000477%;letter-spacing:0px;word-spacing:0px;text-anchor:start;fill:#383838;fill-opacity:1;stroke:none;font-family:Linux Biolinum O;-inkscape-font-specification:Linux Biolinum O"><tspan x="505.25055" y="187.98645" id="tspan6207" style="font-size:22.90910721px;line-height:120.00000477%">Here is the balance</tspan><tspan x="505.25055" y="215.47739" id="tspan6209" style="font-size:22.90910721px;line-height:120.00000477%">that will be changed</tspan><tspan x="505.25055" y="242.96831" id="tspan6211" style="font-size:22.90910721px;line-height:120.00000477%">by the set!</tspan></text>
    <text x="348.46124" y="380.34207" id="text6213" xml:space="preserve" style="font-size:20px;font-style:normal;font-variant:normal;font-weight:normal;font-stretch:normal;text-align:start;line-height:139.99999762%;letter-spacing:0px;word-spacing:0px;text-anchor:start;fill:#383838;fill-opacity:1;stroke:none;font-family:Inconsolata LGC;-inkscape-font-specification:Inconsolata LGC"><tspan x="348.46124" y="380.34207" id="tspan6215" xml:space="preserve">(if (&gt;= balance amount)</tspan><tspan x="348.46124" y="409.7421" id="tspan6217" xml:space="preserve">    (begin (set! balance </tspan><tspan x="348.46124" y="439.14212" id="tspan6223" xml:space="preserve">                 (- balance </tspan><tspan x="348.46124" y="468.54214" id="tspan6225" xml:space="preserve">                    amount))</tspan><tspan x="348.46124" y="497.94217" id="tspan6219" xml:space="preserve">           balance)</tspan><tspan x="348.46124" y="527.34216" id="tspan6221" xml:space="preserve">    "insufficient funds")</tspan></text>
  </g>
</svg>
