<?xml version="1.0" encoding="UTF-8" standalone="no"?>
<!-- Created with Inkscape (http://www.inkscape.org/) -->
<?xml-stylesheet href="../../css/fonts/fonts.css" type="text/css"?>
<svg xmlns:dc="http://purl.org/dc/elements/1.1/" xmlns:cc="http://creativecommons.org/ns#" xmlns:rdf="http://www.w3.org/1999/02/22-rdf-syntax-ns#" xmlns:svg="http://www.w3.org/2000/svg" xmlns="http://www.w3.org/2000/svg" preserveAspectRatio="xMinYMin meet" viewBox="0 0 782 612" id="svg2" style="display:inline" version="1.1">
  <defs id="defs4">
    <marker refX="0" refY="0" orient="auto" id="Arrow1Mstart" style="overflow:visible">
      <path d="M 0,0 5,-5 -12.5,0 5,5 0,0 z" transform="matrix(0.4,0,0,0.4,4,0)" id="path4412" style="fill:#383838;fill-rule:evenodd;stroke:#383838;stroke-width:1pt;marker-start:none"/>
    </marker>
    <marker refX="0" refY="0" orient="auto" id="Arrow1Mend" style="overflow:visible">
      <path d="M 0,0 5,-5 -12.5,0 5,5 0,0 z" transform="matrix(-0.4,0,0,-0.4,-4,0)" id="path4415" style="fill:#383838;fill-rule:evenodd;stroke:#383838;stroke-width:1pt;marker-start:none"/>
    </marker>
    <marker refX="0" refY="0" orient="auto" id="Arrow1Lend" style="overflow:visible">
      <path d="M 0,0 5,-5 -12.5,0 5,5 0,0 z" transform="matrix(-0.8,0,0,-0.8,-10,0)" id="path4220" style="fill:#383838;fill-rule:evenodd;stroke:#383838;stroke-width:1pt;marker-start:none"/>
    </marker>
    <marker refX="0" refY="0" orient="auto" id="Arrow1Mend-6" style="overflow:visible">
      <path d="M 0,0 5,-5 -12.5,0 5,5 0,0 z" transform="matrix(-0.4,0,0,-0.4,-4,0)" id="path4415-1" style="fill:#383838;fill-rule:evenodd;stroke:#383838;stroke-width:1pt;marker-start:none"/>
    </marker>
    <marker refX="0" refY="0" orient="auto" id="Arrow1Mend-2" style="overflow:visible">
      <path d="M 0,0 5,-5 -12.5,0 5,5 0,0 z" transform="matrix(-0.4,0,0,-0.4,-4,0)" id="path4415-4" style="fill:#383838;fill-rule:evenodd;stroke:#383838;stroke-width:1pt;marker-start:none"/>
    </marker>
    <marker refX="0" refY="0" orient="auto" id="Arrow1Mstart-8" style="overflow:visible">
      <path d="M 0,0 5,-5 -12.5,0 5,5 0,0 z" transform="matrix(0.4,0,0,0.4,4,0)" id="path4412-3" style="fill:#383838;fill-rule:evenodd;stroke:#383838;stroke-width:1pt;marker-start:none"/>
    </marker>
    <marker refX="0" refY="0" orient="auto" id="Arrow1Mend-4" style="overflow:visible">
      <path d="M 0,0 5,-5 -12.5,0 5,5 0,0 z" transform="matrix(-0.4,0,0,-0.4,-4,0)" id="path4415-18" style="fill:#383838;fill-rule:evenodd;stroke:#383838;stroke-width:1pt;marker-start:none"/>
    </marker>
    <marker refX="0" refY="0" orient="auto" id="marker5313" style="overflow:visible">
      <path d="M 0,0 5,-5 -12.5,0 5,5 0,0 z" transform="matrix(-0.4,0,0,-0.4,-4,0)" id="path5315" style="fill:#383838;fill-rule:evenodd;stroke:#383838;stroke-width:1pt;marker-start:none"/>
    </marker>
    <marker refX="0" refY="0" orient="auto" id="Arrow1Mstart-2" style="overflow:visible">
      <path d="M 0,0 5,-5 -12.5,0 5,5 0,0 z" transform="matrix(0.4,0,0,0.4,4,0)" id="path4412-0" style="fill:#383838;fill-rule:evenodd;stroke:#383838;stroke-width:1pt;marker-start:none"/>
    </marker>
    <marker refX="0" refY="0" orient="auto" id="marker5348" style="overflow:visible">
      <path d="M 0,0 5,-5 -12.5,0 5,5 0,0 z" transform="matrix(0.4,0,0,0.4,4,0)" id="path5350" style="fill:#383838;fill-rule:evenodd;stroke:#383838;stroke-width:1pt;marker-start:none"/>
    </marker>
    <marker refX="0" refY="0" orient="auto" id="Arrow1Mstart-81" style="overflow:visible">
      <path d="M 0,0 5,-5 -12.5,0 5,5 0,0 z" transform="matrix(0.4,0,0,0.4,4,0)" id="path4412-4" style="fill:#383838;fill-rule:evenodd;stroke:#383838;stroke-width:1pt;marker-start:none"/>
    </marker>
    <marker refX="0" refY="0" orient="auto" id="marker5348-1" style="overflow:visible">
      <path d="M 0,0 5,-5 -12.5,0 5,5 0,0 z" transform="matrix(0.4,0,0,0.4,4,0)" id="path5350-5" style="fill:#383838;fill-rule:evenodd;stroke:#383838;stroke-width:1pt;marker-start:none"/>
    </marker>
    <marker refX="0" refY="0" orient="auto" id="Arrow1Mend-49" style="overflow:visible">
      <path d="M 0,0 5,-5 -12.5,0 5,5 0,0 z" transform="matrix(-0.4,0,0,-0.4,-4,0)" id="path4415-7" style="fill:#383838;fill-rule:evenodd;stroke:#383838;stroke-width:1pt;marker-start:none"/>
    </marker>
    <marker refX="0" refY="0" orient="auto" id="marker5400" style="overflow:visible">
      <path d="M 0,0 5,-5 -12.5,0 5,5 0,0 z" transform="matrix(-0.4,0,0,-0.4,-4,0)" id="path5402" style="fill:#383838;fill-rule:evenodd;stroke:#383838;stroke-width:1pt;marker-start:none"/>
    </marker>
    <marker refX="0" refY="0" orient="auto" id="Arrow1Mstart-88" style="overflow:visible">
      <path d="M 0,0 5,-5 -12.5,0 5,5 0,0 z" transform="matrix(0.4,0,0,0.4,4,0)" id="path4412-49" style="fill:#383838;fill-rule:evenodd;stroke:#383838;stroke-width:1pt;marker-start:none"/>
    </marker>
    <marker refX="0" refY="0" orient="auto" id="Arrow1Mend-9" style="overflow:visible">
      <path d="M 0,0 5,-5 -12.5,0 5,5 0,0 z" transform="matrix(-0.4,0,0,-0.4,-4,0)" id="path4415-3" style="fill:#383838;fill-rule:evenodd;stroke:#383838;stroke-width:1pt;marker-start:none"/>
    </marker>
    <marker refX="0" refY="0" orient="auto" id="Arrow1Mend-21" style="overflow:visible">
      <path d="M 0,0 5,-5 -12.5,0 5,5 0,0 z" transform="matrix(-0.4,0,0,-0.4,-4,0)" id="path4415-2" style="fill:#383838;fill-rule:evenodd;stroke:#383838;stroke-width:1pt;marker-start:none"/>
    </marker>
    <marker refX="0" refY="0" orient="auto" id="Arrow1Mend-23" style="overflow:visible">
      <path d="M 0,0 5,-5 -12.5,0 5,5 0,0 z" transform="matrix(-0.4,0,0,-0.4,-4,0)" id="path4415-9" style="fill:#383838;fill-rule:evenodd;stroke:#383838;stroke-width:1pt;marker-start:none"/>
    </marker>
    <marker refX="0" refY="0" orient="auto" id="Arrow1Mstart-88-3" style="overflow:visible">
      <path d="M 0,0 5,-5 -12.5,0 5,5 0,0 z" transform="matrix(0.4,0,0,0.4,4,0)" id="path4412-49-7" style="fill:#383838;fill-rule:evenodd;stroke:#383838;stroke-width:1pt;marker-start:none"/>
    </marker>
    <marker refX="0" refY="0" orient="auto" id="Arrow1Mstart-88-5" style="overflow:visible">
      <path d="M 0,0 5,-5 -12.5,0 5,5 0,0 z" transform="matrix(0.4,0,0,0.4,4,0)" id="path4412-49-2" style="fill:#383838;fill-rule:evenodd;stroke:#383838;stroke-width:1pt;marker-start:none"/>
    </marker>
    <marker refX="0" refY="0" orient="auto" id="Arrow1Mstart-88-4" style="overflow:visible">
      <path d="M 0,0 5,-5 -12.5,0 5,5 0,0 z" transform="matrix(0.4,0,0,0.4,4,0)" id="path4412-49-8" style="fill:#383838;fill-rule:evenodd;stroke:#383838;stroke-width:1pt;marker-start:none"/>
    </marker>
    <marker refX="0" refY="0" orient="auto" id="Arrow1Mstart-88-59" style="overflow:visible">
      <path d="M 0,0 5,-5 -12.5,0 5,5 0,0 z" transform="matrix(0.4,0,0,0.4,4,0)" id="path4412-49-87" style="fill:#383838;fill-rule:evenodd;stroke:#383838;stroke-width:1pt;marker-start:none"/>
    </marker>
    <marker refX="0" refY="0" orient="auto" id="Arrow1Mend-94" style="overflow:visible">
      <path d="M 0,0 5,-5 -12.5,0 5,5 0,0 z" transform="matrix(-0.4,0,0,-0.4,-4,0)" id="path4415-6" style="fill:#383838;fill-rule:evenodd;stroke:#383838;stroke-width:1pt;marker-start:none"/>
    </marker>
    <marker refX="0" refY="0" orient="auto" id="Arrow1Mstart-88-33" style="overflow:visible">
      <path d="M 0,0 5,-5 -12.5,0 5,5 0,0 z" transform="matrix(0.4,0,0,0.4,4,0)" id="path4412-49-29" style="fill:#383838;fill-rule:evenodd;stroke:#383838;stroke-width:1pt;marker-start:none"/>
    </marker>
    <marker refX="0" refY="0" orient="auto" id="Arrow1Mstart-88-0" style="overflow:visible">
      <path d="M 0,0 5,-5 -12.5,0 5,5 0,0 z" transform="matrix(0.4,0,0,0.4,4,0)" id="path4412-49-0" style="fill:#383838;fill-rule:evenodd;stroke:#383838;stroke-width:1pt;marker-start:none"/>
    </marker>
    <marker refX="0" refY="0" orient="auto" id="Arrow1Mend-0" style="overflow:visible">
      <path d="M 0,0 5,-5 -12.5,0 5,5 0,0 z" transform="matrix(-0.4,0,0,-0.4,-4,0)" id="path4415-90" style="fill:#383838;fill-rule:evenodd;stroke:#383838;stroke-width:1pt;marker-start:none"/>
    </marker>
    <marker refX="0" refY="0" orient="auto" id="Arrow1Mend-45" style="overflow:visible">
      <path d="M 0,0 5,-5 -12.5,0 5,5 0,0 z" transform="matrix(-0.4,0,0,-0.4,-4,0)" id="path4415-8" style="fill:#383838;fill-rule:evenodd;stroke:#383838;stroke-width:1pt;marker-start:none"/>
    </marker>
    <marker refX="0" refY="0" orient="auto" id="Arrow1Mstart-88-36" style="overflow:visible">
      <path d="M 0,0 5,-5 -12.5,0 5,5 0,0 z" transform="matrix(0.4,0,0,0.4,4,0)" id="path4412-49-875" style="fill:#383838;fill-rule:evenodd;stroke:#383838;stroke-width:1pt;marker-start:none"/>
    </marker>
    <marker refX="0" refY="0" orient="auto" id="Arrow1Mend-45-6" style="overflow:visible">
      <path d="M 0,0 5,-5 -12.5,0 5,5 0,0 z" transform="matrix(-0.4,0,0,-0.4,-4,0)" id="path4415-8-4" style="fill:#383838;fill-rule:evenodd;stroke:#383838;stroke-width:1pt;marker-start:none"/>
    </marker>
    <marker refX="0" refY="0" orient="auto" id="Arrow1Mend-45-2" style="overflow:visible">
      <path d="M 0,0 5,-5 -12.5,0 5,5 0,0 z" transform="matrix(-0.4,0,0,-0.4,-4,0)" id="path4415-8-8" style="fill:#383838;fill-rule:evenodd;stroke:#383838;stroke-width:1pt;marker-start:none"/>
    </marker>
    <marker refX="0" refY="0" orient="auto" id="Arrow1Mend-45-23" style="overflow:visible">
      <path d="M 0,0 5,-5 -12.5,0 5,5 0,0 z" transform="matrix(-0.4,0,0,-0.4,-4,0)" id="path4415-8-3" style="fill:#383838;fill-rule:evenodd;stroke:#383838;stroke-width:1pt;marker-start:none"/>
    </marker>
    <marker refX="0" refY="0" orient="auto" id="Arrow1Mstart-88-36-7" style="overflow:visible">
      <path d="M 0,0 5,-5 -12.5,0 5,5 0,0 z" transform="matrix(0.4,0,0,0.4,4,0)" id="path4412-49-875-3" style="fill:#383838;fill-rule:evenodd;stroke:#383838;stroke-width:1pt;marker-start:none"/>
    </marker>
    <marker refX="0" refY="0" orient="auto" id="Arrow1Mstart-88-36-4" style="overflow:visible">
      <path d="M 0,0 5,-5 -12.5,0 5,5 0,0 z" transform="matrix(0.4,0,0,0.4,4,0)" id="path4412-49-875-0" style="fill:#383838;fill-rule:evenodd;stroke:#383838;stroke-width:1pt;marker-start:none"/>
    </marker>
    <marker refX="0" refY="0" orient="auto" id="marker7338" style="overflow:visible">
      <path d="M 0,0 5,-5 -12.5,0 5,5 0,0 z" transform="matrix(0.4,0,0,0.4,4,0)" id="path7340" style="fill:#383838;fill-rule:evenodd;stroke:#383838;stroke-width:1pt;marker-start:none"/>
    </marker>
    <marker refX="0" refY="0" orient="auto" id="Arrow1Mend-45-5" style="overflow:visible">
      <path d="M 0,0 5,-5 -12.5,0 5,5 0,0 z" transform="matrix(-0.4,0,0,-0.4,-4,0)" id="path4415-8-1" style="fill:#383838;fill-rule:evenodd;stroke:#383838;stroke-width:1pt;marker-start:none"/>
    </marker>
    <marker refX="0" refY="0" orient="auto" id="marker7344" style="overflow:visible">
      <path d="M 0,0 5,-5 -12.5,0 5,5 0,0 z" transform="matrix(-0.4,0,0,-0.4,-4,0)" id="path7346" style="fill:#383838;fill-rule:evenodd;stroke:#383838;stroke-width:1pt;marker-start:none"/>
    </marker>
    <marker refX="0" refY="0" orient="auto" id="Arrow1Mstart-88-36-48" style="overflow:visible">
      <path d="M 0,0 5,-5 -12.5,0 5,5 0,0 z" transform="matrix(0.4,0,0,0.4,4,0)" id="path4412-49-875-04" style="fill:#383838;fill-rule:evenodd;stroke:#383838;stroke-width:1pt;marker-start:none"/>
    </marker>
    <marker refX="0" refY="0" orient="auto" id="marker7338-8" style="overflow:visible">
      <path d="M 0,0 5,-5 -12.5,0 5,5 0,0 z" transform="matrix(0.4,0,0,0.4,4,0)" id="path7340-7" style="fill:#383838;fill-rule:evenodd;stroke:#383838;stroke-width:1pt;marker-start:none"/>
    </marker>
    <marker refX="0" refY="0" orient="auto" id="Arrow1Mend-45-3" style="overflow:visible">
      <path d="M 0,0 5,-5 -12.5,0 5,5 0,0 z" transform="matrix(-0.4,0,0,-0.4,-4,0)" id="path4415-8-5" style="fill:#383838;fill-rule:evenodd;stroke:#383838;stroke-width:1pt;marker-start:none"/>
    </marker>
    <marker refX="0" refY="0" orient="auto" id="marker7344-9" style="overflow:visible">
      <path d="M 0,0 5,-5 -12.5,0 5,5 0,0 z" transform="matrix(-0.4,0,0,-0.4,-4,0)" id="path7346-8" style="fill:#383838;fill-rule:evenodd;stroke:#383838;stroke-width:1pt;marker-start:none"/>
    </marker>
  </defs>
  <metadata id="metadata_3.30">
  <!--
    <rdf:RDF>
      <cc:Work rdf:about="">
        <dc:format>image/svg+xml</dc:format>
        <dc:type rdf:resource="http://purl.org/dc/dcmitype/StillImage"></dc:type>
        <dc:title></dc:title>
        <cc:license rdf:resource="http://creativecommons.org/licenses/by-sa/3.0/"></cc:license>
        <dc:description>Based on the diagram in Abelson, Sussman &amp; Sussman's "Structure and Interpretation of Computer Programs", 2nd ed.</dc:description>
        <dc:source>http://mitpress.mit.edu/sicp/full-text/book/book-Z-H-23.html#%_fig_3.30</dc:source>
        <dc:creator>
          <cc:Agent>
            <dc:title>Andres Raba</dc:title>
          </cc:Agent>
        </dc:creator>
        <dc:date>2012-11-17</dc:date>
        <dc:subject>
          <rdf:Bag>
            <rdf:li>concurrent</rdf:li>
            <rdf:li>bank</rdf:li>
            <rdf:li>account</rdf:li>
            <rdf:li>deposit</rdf:li>
            <rdf:li>withdrawal</rdf:li>
          </rdf:Bag>
        </dc:subject>
      </cc:Work>
      <cc:License rdf:about="http://creativecommons.org/licenses/by-sa/3.0/">
        <cc:permits rdf:resource="http://creativecommons.org/ns#Reproduction"></cc:permits>
        <cc:permits rdf:resource="http://creativecommons.org/ns#Distribution"></cc:permits>
        <cc:requires rdf:resource="http://creativecommons.org/ns#Notice"></cc:requires>
        <cc:requires rdf:resource="http://creativecommons.org/ns#Attribution"></cc:requires>
        <cc:permits rdf:resource="http://creativecommons.org/ns#DerivativeWorks"></cc:permits>
        <cc:requires rdf:resource="http://creativecommons.org/ns#ShareAlike"></cc:requires>
      </cc:License>
    </rdf:RDF>
  -->
</metadata>
  <g transform="translate(-37.071745,-46.593111)" id="layer2" style="display:inline">
    <path d="m 340,117.36218 a 25,25 0 1 1 -50,0 25,25 0 1 1 50,0 z" transform="matrix(1.8613651,0,0,1.8613651,-219.94049,-57.41343)" id="path4049" style="fill:#e8e8e8;fill-opacity:1;stroke:#383838;stroke-width:0.62992126;stroke-linecap:round;stroke-linejoin:round;stroke-miterlimit:4;stroke-opacity:1;stroke-dasharray:none;stroke-dashoffset:0"/>
    <path d="m 340,117.36218 a 25,25 0 1 1 -50,0 25,25 0 1 1 50,0 z" transform="matrix(1.8613651,0,0,1.8613651,-416.41791,-57.41343)" id="path4049-6-8" style="fill:#e8e8e8;fill-opacity:1;stroke:#383838;stroke-width:0.62992126;stroke-linecap:round;stroke-linejoin:round;stroke-miterlimit:4;stroke-opacity:1;stroke-dasharray:none;stroke-dashoffset:0"/>
    <path d="m 340,117.36218 a 25,25 0 1 1 -50,0 25,25 0 1 1 50,0 z" transform="matrix(1.8613651,0,0,1.8613651,-416.41791,139.064)" id="path4049-6-8-2" style="fill:#e8e8e8;fill-opacity:1;stroke:#383838;stroke-width:0.62992126;stroke-linecap:round;stroke-linejoin:round;stroke-miterlimit:4;stroke-opacity:1;stroke-dasharray:none;stroke-dashoffset:0"/>
    <rect width="62.045502" height="41.36367" rx="7.3282089" ry="7.3282089" x="237.12805" y="238.59732" id="rect3977-4" style="fill:none;stroke:#383838;stroke-width:1.17251337;stroke-linecap:round;stroke-linejoin:round;stroke-miterlimit:4;stroke-opacity:1;stroke-dasharray:none;stroke-dashoffset:0"/>
    <path d="m 340,117.36218 a 25,25 0 1 1 -50,0 25,25 0 1 1 50,0 z" transform="matrix(1.8613651,0,0,1.8613651,-219.94049,139.064)" id="path4049-64" style="fill:#e8e8e8;fill-opacity:1;stroke:#383838;stroke-width:0.62992126;stroke-linecap:round;stroke-linejoin:round;stroke-miterlimit:4;stroke-opacity:1;stroke-dasharray:none;stroke-dashoffset:0"/>
    <path d="m 340,117.36218 a 25,25 0 1 1 -50,0 25,25 0 1 1 50,0 z" transform="matrix(1.8613651,0,0,1.8613651,173.01436,-57.41343)" id="path4049-0" style="fill:#e8e8e8;fill-opacity:1;stroke:#383838;stroke-width:0.62992126;stroke-linecap:round;stroke-linejoin:round;stroke-miterlimit:4;stroke-opacity:1;stroke-dasharray:none;stroke-dashoffset:0"/>
    <path d="m 340,117.36218 a 25,25 0 1 1 -50,0 25,25 0 1 1 50,0 z" transform="matrix(1.8613651,0,0,1.8613651,-23.463062,-57.41343)" id="path4049-6-8-7" style="fill:#e8e8e8;fill-opacity:1;stroke:#383838;stroke-width:0.62992126;stroke-linecap:round;stroke-linejoin:round;stroke-miterlimit:4;stroke-opacity:1;stroke-dasharray:none;stroke-dashoffset:0"/>
    <path d="m 340,117.36218 a 25,25 0 1 1 -50,0 25,25 0 1 1 50,0 z" transform="matrix(1.8613651,0,0,1.8613651,-23.463062,139.064)" id="path4049-6-8-2-0" style="fill:#e8e8e8;fill-opacity:1;stroke:#383838;stroke-width:0.62992126;stroke-linecap:round;stroke-linejoin:round;stroke-miterlimit:4;stroke-opacity:1;stroke-dasharray:none;stroke-dashoffset:0"/>
    <rect width="62.045502" height="41.36367" rx="7.3282089" ry="7.3282089" x="630.08289" y="238.59732" id="rect3977-4-1" style="fill:none;stroke:#383838;stroke-width:1.17251337;stroke-linecap:round;stroke-linejoin:round;stroke-miterlimit:4;stroke-opacity:1;stroke-dasharray:none;stroke-dashoffset:0"/>
    <path d="m 340,117.36218 a 25,25 0 1 1 -50,0 25,25 0 1 1 50,0 z" transform="matrix(1.8613651,0,0,1.8613651,173.01436,139.064)" id="path4049-64-1" style="fill:#e8e8e8;fill-opacity:1;stroke:#383838;stroke-width:0.62992126;stroke-linecap:round;stroke-linejoin:round;stroke-miterlimit:4;stroke-opacity:1;stroke-dasharray:none;stroke-dashoffset:0"/>
    <path d="m 340,117.36218 a 25,25 0 1 1 -50,0 25,25 0 1 1 50,0 z" transform="matrix(1.8613651,0,0,1.8613651,-416.41791,335.54142)" id="path4049-6-8-2-5" style="fill:#e8e8e8;fill-opacity:1;stroke:#383838;stroke-width:0.62992126;stroke-linecap:round;stroke-linejoin:round;stroke-miterlimit:4;stroke-opacity:1;stroke-dasharray:none;stroke-dashoffset:0"/>
    <path d="m 340,117.36218 a 25,25 0 1 1 -50,0 25,25 0 1 1 50,0 z" transform="matrix(1.8613651,0,0,1.8613651,-219.94049,335.54142)" id="path4049-64-3" style="fill:#e8e8e8;fill-opacity:1;stroke:#383838;stroke-width:0.62992126;stroke-linecap:round;stroke-linejoin:round;stroke-miterlimit:4;stroke-opacity:1;stroke-dasharray:none;stroke-dashoffset:0"/>
    <path d="m 340,117.36218 a 25,25 0 1 1 -50,0 25,25 0 1 1 50,0 z" transform="matrix(1.8613651,0,0,1.8613651,-23.463062,335.54142)" id="path4049-6-8-2-0-8" style="fill:#e8e8e8;fill-opacity:1;stroke:#383838;stroke-width:0.62992126;stroke-linecap:round;stroke-linejoin:round;stroke-miterlimit:4;stroke-opacity:1;stroke-dasharray:none;stroke-dashoffset:0"/>
    <path d="m 340,117.36218 a 25,25 0 1 1 -50,0 25,25 0 1 1 50,0 z" transform="matrix(1.8613651,0,0,1.8613651,173.01436,335.54142)" id="path4049-64-1-2" style="fill:#e8e8e8;fill-opacity:1;stroke:#383838;stroke-width:0.62992126;stroke-linecap:round;stroke-linejoin:round;stroke-miterlimit:4;stroke-opacity:1;stroke-dasharray:none;stroke-dashoffset:0"/>
    <rect width="62.045502" height="41.36367" rx="7.3282089" ry="7.3282089" x="433.60547" y="435.07474" id="rect3977-4-5" style="fill:none;stroke:#383838;stroke-width:1.17251337;stroke-linecap:round;stroke-linejoin:round;stroke-miterlimit:4;stroke-opacity:1;stroke-dasharray:none;stroke-dashoffset:0"/>
    <path d="m 71.67338,52.46081 0,558.40952" id="path4076" style="fill:none;stroke:#383838;stroke-width:1.6854881;stroke-linecap:round;stroke-linejoin:round;stroke-miterlimit:4;stroke-opacity:1;stroke-dasharray:none;marker-end:url(#Arrow1Lend)"/>
    <path d="m 323.40085,179.94954 c -30.43185,13.14773 -40.77276,23.48865 -44.90913,54.32673" id="path4401-39-1-1-9-87" style="fill:none;stroke:#383838;stroke-width:1.6854881;stroke-linecap:butt;stroke-linejoin:round;stroke-miterlimit:4;stroke-opacity:1;stroke-dasharray:none;marker-start:none;marker-end:url(#Arrow1Mend-45);display:inline"/>
    <path d="m 212.90075,180.13421 c 30.43185,13.14773 40.77277,23.48865 44.90913,54.32673" id="path4401-39-1-1-9-87-0" style="fill:none;stroke:#383838;stroke-width:1.6854881;stroke-linecap:butt;stroke-linejoin:round;stroke-miterlimit:4;stroke-opacity:1;stroke-dasharray:none;marker-start:none;marker-end:url(#Arrow1Mend-45);display:inline"/>
    <path d="M 322.47755,333.73373 C 292.0457,320.58599 282.62809,311.16838 278.49172,280.33029" id="path4401-39-1-1-9-87-1" style="fill:none;stroke:#383838;stroke-width:1.6854881;stroke-linecap:butt;stroke-linejoin:round;stroke-miterlimit:4;stroke-opacity:1;stroke-dasharray:none;marker-start:url(#Arrow1Mstart-88-36);marker-end:none;display:inline"/>
    <path d="m 213.82405,333.73375 c 30.43185,-13.14773 39.84947,-22.56535 43.98583,-53.40344" id="path4401-39-1-1-9-87-1-0" style="fill:none;stroke:#383838;stroke-width:1.6854881;stroke-linecap:butt;stroke-linejoin:round;stroke-miterlimit:4;stroke-opacity:1;stroke-dasharray:none;marker-start:url(#Arrow1Mstart-88-36);marker-end:none;display:inline"/>
    <path d="m 716.35571,179.94954 c -30.43186,13.14773 -40.77277,23.48865 -44.90914,54.32673" id="path4401-39-1-1-9-87-16" style="fill:none;stroke:#383838;stroke-width:1.6854881;stroke-linecap:butt;stroke-linejoin:round;stroke-miterlimit:4;stroke-opacity:1;stroke-dasharray:none;marker-start:none;marker-end:url(#Arrow1Mend-45);display:inline"/>
    <path d="m 605.8556,180.13421 c 30.43185,13.14773 40.77277,23.48865 44.90914,54.32673" id="path4401-39-1-1-9-87-0-2" style="fill:none;stroke:#383838;stroke-width:1.6854881;stroke-linecap:butt;stroke-linejoin:round;stroke-miterlimit:4;stroke-opacity:1;stroke-dasharray:none;marker-start:none;marker-end:url(#Arrow1Mend-45);display:inline"/>
    <path d="M 715.43241,333.73373 C 685.00056,320.58599 675.58294,311.16838 671.44657,280.33029" id="path4401-39-1-1-9-87-1-6" style="fill:none;stroke:#383838;stroke-width:1.6854881;stroke-linecap:butt;stroke-linejoin:round;stroke-miterlimit:4;stroke-opacity:1;stroke-dasharray:none;marker-start:url(#Arrow1Mstart-88-36);marker-end:none;display:inline"/>
    <path d="m 606.7789,333.73375 c 30.43185,-13.14773 39.84947,-22.56535 43.98584,-53.40344" id="path4401-39-1-1-9-87-1-0-4" style="fill:none;stroke:#383838;stroke-width:1.6854881;stroke-linecap:butt;stroke-linejoin:round;stroke-miterlimit:4;stroke-opacity:1;stroke-dasharray:none;marker-start:url(#Arrow1Mstart-88-36);marker-end:none;display:inline"/>
    <path d="m 519.87828,376.42697 c -30.43185,13.14773 -40.77277,23.48865 -44.90914,54.32673" id="path4401-39-1-1-9-87-6" style="fill:none;stroke:#383838;stroke-width:1.6854881;stroke-linecap:butt;stroke-linejoin:round;stroke-miterlimit:4;stroke-opacity:1;stroke-dasharray:none;marker-start:none;marker-end:url(#Arrow1Mend-45);display:inline"/>
    <path d="m 409.37818,376.61164 c 30.43185,13.14773 40.77276,23.48864 44.90913,54.32673" id="path4401-39-1-1-9-87-0-0" style="fill:none;stroke:#383838;stroke-width:1.6854881;stroke-linecap:butt;stroke-linejoin:round;stroke-miterlimit:4;stroke-opacity:1;stroke-dasharray:none;marker-start:none;marker-end:url(#Arrow1Mend-45);display:inline"/>
    <path d="M 518.95498,530.21115 C 488.52313,517.06342 479.10551,507.6458 474.96914,476.80772" id="path4401-39-1-1-9-87-1-60" style="fill:none;stroke:#383838;stroke-width:1.6854881;stroke-linecap:butt;stroke-linejoin:round;stroke-miterlimit:4;stroke-opacity:1;stroke-dasharray:none;marker-start:url(#Arrow1Mstart-88-36);marker-end:none;display:inline"/>
    <path d="m 410.30147,530.21117 c 30.43186,-13.14773 39.84947,-22.56535 43.98584,-53.40343" id="path4401-39-1-1-9-87-1-0-8" style="fill:none;stroke:#383838;stroke-width:1.6854881;stroke-linecap:butt;stroke-linejoin:round;stroke-miterlimit:4;stroke-opacity:1;stroke-dasharray:none;marker-start:url(#Arrow1Mstart-88-36);marker-end:none;display:inline"/>
  </g>
  <g transform="translate(-37.071745,-46.593111)" id="layer3" style="display:inline">
    <text x="366.09415" y="169.18138" id="text3954" xml:space="preserve" style="font-size:24.81820107px;font-style:normal;font-variant:normal;font-weight:normal;font-stretch:normal;text-align:center;line-height:125%;letter-spacing:0px;word-spacing:0px;text-anchor:middle;fill:#383838;fill-opacity:1;stroke:none;font-family:Linux Biolinum O;-inkscape-font-specification:Linux Biolinum O"><tspan x="366.09415" y="169.18138" id="tspan3956">$100</tspan></text>
    <text x="169.6167" y="169.18138" id="text3954-1-3" xml:space="preserve" style="font-size:24.81820107px;font-style:normal;font-variant:normal;font-weight:normal;font-stretch:normal;text-align:center;line-height:125%;letter-spacing:0px;word-spacing:0px;text-anchor:middle;fill:#383838;fill-opacity:1;stroke:none;font-family:Linux Biolinum O;-inkscape-font-specification:Linux Biolinum O"><tspan x="169.6167" y="169.18138" id="tspan3956-4-1">$7</tspan></text>
    <text x="563.09387" y="169.1814" id="text3954-1-3-0" xml:space="preserve" style="font-size:24.81820107px;font-style:normal;font-variant:normal;font-weight:normal;font-stretch:normal;text-align:center;line-height:125%;letter-spacing:0px;word-spacing:0px;text-anchor:middle;fill:#383838;fill-opacity:1;stroke:none;font-family:Linux Biolinum O;-inkscape-font-specification:Linux Biolinum O"><tspan x="563.09387" y="169.1814" id="tspan3956-4-1-2">$5</tspan></text>
    <text x="759.57129" y="169.1814" id="text3954-99" xml:space="preserve" style="font-size:24.81820107px;font-style:normal;font-variant:normal;font-weight:normal;font-stretch:normal;text-align:center;line-height:125%;letter-spacing:0px;word-spacing:0px;text-anchor:middle;fill:#383838;fill-opacity:1;stroke:none;font-family:Linux Biolinum O;-inkscape-font-specification:Linux Biolinum O"><tspan x="759.57129" y="169.1814" id="tspan3956-1">$300</tspan></text>
    <text x="562.57153" y="365.65884" id="text3954-1-3-1-4" xml:space="preserve" style="font-size:24.81820107px;font-style:normal;font-variant:normal;font-weight:normal;font-stretch:normal;text-align:center;line-height:125%;letter-spacing:0px;word-spacing:0px;text-anchor:middle;fill:#383838;fill-opacity:1;stroke:none;font-family:Linux Biolinum O;-inkscape-font-specification:Linux Biolinum O"><tspan x="562.57153" y="365.65884" id="tspan3956-4-1-0-0">$0</tspan></text>
    <text x="759.57129" y="365.65884" id="text3954-9-9" xml:space="preserve" style="font-size:24.81820107px;font-style:normal;font-variant:normal;font-weight:normal;font-stretch:normal;text-align:center;line-height:125%;letter-spacing:0px;word-spacing:0px;text-anchor:middle;fill:#383838;fill-opacity:1;stroke:none;font-family:Linux Biolinum O;-inkscape-font-specification:Linux Biolinum O"><tspan x="759.57129" y="365.65884" id="tspan3956-8-9">$305</tspan></text>
    <text x="759.57129" y="561.61401" id="text3954-9-9-0" xml:space="preserve" style="font-size:24.81820107px;font-style:normal;font-variant:normal;font-weight:normal;font-stretch:normal;text-align:center;line-height:125%;letter-spacing:0px;word-spacing:0px;text-anchor:middle;fill:#383838;fill-opacity:1;stroke:none;font-family:Linux Biolinum O;-inkscape-font-specification:Linux Biolinum O"><tspan x="759.57129" y="561.61401" id="tspan3956-8-9-7">$305</tspan></text>
    <text x="563.09387" y="561.61401" id="text3954-1-3-1-4-3" xml:space="preserve" style="font-size:24.81820107px;font-style:normal;font-variant:normal;font-weight:normal;font-stretch:normal;text-align:center;line-height:125%;letter-spacing:0px;word-spacing:0px;text-anchor:middle;fill:#383838;fill-opacity:1;stroke:none;font-family:Linux Biolinum O;-inkscape-font-specification:Linux Biolinum O"><tspan x="563.09387" y="561.61401" id="tspan3956-4-1-0-0-3">$25</tspan></text>
    <text x="366.61642" y="561.61401" id="text3954-9-4" xml:space="preserve" style="font-size:24.81820107px;font-style:normal;font-variant:normal;font-weight:normal;font-stretch:normal;text-align:center;line-height:125%;letter-spacing:0px;word-spacing:0px;text-anchor:middle;fill:#383838;fill-opacity:1;stroke:none;font-family:Linux Biolinum O;-inkscape-font-specification:Linux Biolinum O"><tspan x="366.61642" y="561.61401" id="tspan3956-8-7">$65</tspan></text>
    <text x="169.6167" y="561.61401" id="text3954-1-3-1-8" xml:space="preserve" style="font-size:24.81820107px;font-style:normal;font-variant:normal;font-weight:normal;font-stretch:normal;text-align:center;line-height:125%;letter-spacing:0px;word-spacing:0px;text-anchor:middle;fill:#383838;fill-opacity:1;stroke:none;font-family:Linux Biolinum O;-inkscape-font-specification:Linux Biolinum O"><tspan x="169.6167" y="561.61401" id="tspan3956-4-1-0-8">$17</tspan></text>
    <text x="169.6167" y="365.65884" id="text3954-1-3-1" xml:space="preserve" style="font-size:24.81820107px;font-style:normal;font-variant:normal;font-weight:normal;font-stretch:normal;text-align:center;line-height:125%;letter-spacing:0px;word-spacing:0px;text-anchor:middle;fill:#383838;fill-opacity:1;stroke:none;font-family:Linux Biolinum O;-inkscape-font-specification:Linux Biolinum O"><tspan x="169.6167" y="365.65884" id="tspan3956-4-1-0">$17</tspan></text>
    <text x="366.09415" y="365.65884" id="text3954-9" xml:space="preserve" style="font-size:24.81820107px;font-style:normal;font-variant:normal;font-weight:normal;font-stretch:normal;text-align:center;line-height:125%;letter-spacing:0px;word-spacing:0px;text-anchor:middle;fill:#383838;fill-opacity:1;stroke:none;font-family:Linux Biolinum O;-inkscape-font-specification:Linux Biolinum O"><tspan x="366.09415" y="365.65884" id="tspan3956-8">$90</tspan></text>
    <text x="268.15079" y="268.38016" id="text4187" xml:space="preserve" style="font-size:24.81820107px;font-style:normal;font-variant:normal;font-weight:normal;font-stretch:normal;text-align:center;line-height:125%;letter-spacing:0px;word-spacing:0px;text-anchor:middle;fill:#383838;fill-opacity:1;stroke:none;font-family:Linux Biolinum O;-inkscape-font-specification:Linux Biolinum O"><tspan x="268.15079" y="268.38016" id="tspan4189">W</tspan></text>
    <text x="465.15051" y="464.85751" id="text4187-6" xml:space="preserve" style="font-size:24.81820107px;font-style:normal;font-variant:normal;font-weight:normal;font-stretch:normal;text-align:center;line-height:125%;letter-spacing:0px;word-spacing:0px;text-anchor:middle;fill:#383838;fill-opacity:1;stroke:none;font-family:Linux Biolinum O;-inkscape-font-specification:Linux Biolinum O"><tspan x="465.15051" y="464.85751" id="tspan4189-9">W</tspan></text>
    <text x="660.58337" y="267.85785" id="text4183" xml:space="preserve" style="font-size:24.81820107px;font-style:normal;font-variant:normal;font-weight:normal;font-stretch:normal;text-align:center;line-height:125%;letter-spacing:0px;word-spacing:0px;text-anchor:middle;fill:#383838;fill-opacity:1;stroke:none;font-family:Linux Biolinum O;-inkscape-font-specification:Linux Biolinum O"><tspan x="660.58337" y="267.85785" id="tspan4185">D</tspan></text>
    <text x="71.67337" y="652.23401" id="text4041" xml:space="preserve" style="font-size:24.81820107px;font-style:normal;font-variant:normal;font-weight:normal;font-stretch:normal;text-align:center;line-height:125%;letter-spacing:0px;word-spacing:0px;text-anchor:middle;fill:#383838;fill-opacity:1;stroke:none;display:inline;font-family:Linux Biolinum O;-inkscape-font-specification:Linux Biolinum O"><tspan x="71.67337" y="652.23401" id="tspan4043">time</tspan></text>
    <text x="169.61658" y="73.142639" id="text3942" xml:space="preserve" style="font-size:24.81820107px;font-style:normal;font-variant:normal;font-weight:normal;font-stretch:normal;text-align:center;line-height:125%;letter-spacing:0px;word-spacing:0px;text-anchor:middle;fill:#383838;fill-opacity:1;stroke:none;display:inline;font-family:Linux Biolinum O;-inkscape-font-specification:Linux Biolinum O"><tspan x="169.61658" y="73.142639" id="tspan3944">Peter</tspan></text>
    <text x="366.31555" y="73.142639" id="text3946" xml:space="preserve" style="font-size:24.81820107px;font-style:normal;font-variant:normal;font-weight:normal;font-stretch:normal;text-align:center;line-height:125%;letter-spacing:0px;word-spacing:0px;text-anchor:middle;fill:#383838;fill-opacity:1;stroke:none;display:inline;font-family:Linux Biolinum O;-inkscape-font-specification:Linux Biolinum O"><tspan x="366.31555" y="73.142639" id="tspan3948">Bank1</tspan></text>
    <text x="562.75623" y="73.142639" id="text3950" xml:space="preserve" style="font-size:24.81820107px;font-style:normal;font-variant:normal;font-weight:normal;font-stretch:normal;text-align:center;line-height:125%;letter-spacing:0px;word-spacing:0px;text-anchor:middle;fill:#383838;fill-opacity:1;stroke:none;display:inline;font-family:Linux Biolinum O;-inkscape-font-specification:Linux Biolinum O"><tspan x="562.75623" y="73.142639" id="tspan3952">Paul</tspan></text>
    <text x="759.23364" y="73.142639" id="text3946-0" xml:space="preserve" style="font-size:24.81820107px;font-style:normal;font-variant:normal;font-weight:normal;font-stretch:normal;text-align:center;line-height:125%;letter-spacing:0px;word-spacing:0px;text-anchor:middle;fill:#383838;fill-opacity:1;stroke:none;display:inline;font-family:Linux Biolinum O;-inkscape-font-specification:Linux Biolinum O"><tspan x="759.23364" y="73.142639" id="tspan3948-6">Bank2</tspan></text>
  </g>
</svg>
