<?xml version="1.0" encoding="UTF-8" standalone="no"?>
<!-- Created with Inkscape (http://www.inkscape.org/) -->
<?xml-stylesheet href="../../css/fonts/fonts.css" type="text/css"?>
<svg xmlns:dc="http://purl.org/dc/elements/1.1/" xmlns:cc="http://creativecommons.org/ns#" xmlns:rdf="http://www.w3.org/1999/02/22-rdf-syntax-ns#" xmlns:svg="http://www.w3.org/2000/svg" xmlns="http://www.w3.org/2000/svg" preserveAspectRatio="xMinYMin meet" viewBox="0 0 671 361" id="svg3170" version="1.1">
  <defs id="defs3172">
    <marker refX="0" refY="0" orient="auto" id="Arrow1Mend-6" style="overflow:visible">
      <path d="M 0,0 5,-5 -12.5,0 5,5 0,0 z" transform="matrix(-0.4,0,0,-0.4,-4,0)" id="path3809-6-2" style="fill:#383838;fill-rule:evenodd;stroke:#383838;stroke-width:1pt;marker-start:none"/>
    </marker>
    <marker refX="0" refY="0" orient="auto" id="marker3973" style="overflow:visible">
      <path d="M 0,0 5,-5 -12.5,0 5,5 0,0 z" transform="matrix(-0.4,0,0,-0.4,-4,0)" id="path3975" style="fill:#383838;fill-rule:evenodd;stroke:#383838;stroke-width:1pt;marker-start:none"/>
    </marker>
    <marker refX="0" refY="0" orient="auto" id="marker3977" style="overflow:visible">
      <path d="M 0,0 5,-5 -12.5,0 5,5 0,0 z" transform="matrix(-0.4,0,0,-0.4,-4,0)" id="path3979" style="fill:#383838;fill-rule:evenodd;stroke:#383838;stroke-width:1pt;marker-start:none"/>
    </marker>
    <marker refX="0" refY="0" orient="auto" id="marker3981" style="overflow:visible">
      <path d="M 0,0 5,-5 -12.5,0 5,5 0,0 z" transform="matrix(-0.4,0,0,-0.4,-4,0)" id="path3983" style="fill:#383838;fill-rule:evenodd;stroke:#383838;stroke-width:1pt;marker-start:none"/>
    </marker>
    <marker refX="0" refY="0" orient="auto" id="Arrow1Mend" style="overflow:visible">
      <path d="M 0,0 5,-5 -12.5,0 5,5 0,0 z" transform="matrix(-0.4,0,0,-0.4,-4,0)" id="path3809" style="fill:#383838;fill-rule:evenodd;stroke:#383838;stroke-width:1pt;marker-start:none"/>
    </marker>
    <marker refX="0" refY="0" orient="auto" id="marker3987" style="overflow:visible">
      <path d="M 0,0 5,-5 -12.5,0 5,5 0,0 z" transform="matrix(-0.4,0,0,-0.4,-4,0)" id="path3989" style="fill:#383838;fill-rule:evenodd;stroke:#383838;stroke-width:1pt;marker-start:none"/>
    </marker>
    <marker refX="0" refY="0" orient="auto" id="Arrow1Mend-6-9" style="overflow:visible">
      <path d="M 0,0 5,-5 -12.5,0 5,5 0,0 z" transform="matrix(-0.4,0,0,-0.4,-4,0)" id="path3809-6-2-9" style="fill:#383838;fill-rule:evenodd;stroke:#383838;stroke-width:1pt;marker-start:none"/>
    </marker>
    <marker refX="0" refY="0" orient="auto" id="marker4149" style="overflow:visible">
      <path d="M 0,0 5,-5 -12.5,0 5,5 0,0 z" transform="matrix(-0.4,0,0,-0.4,-4,0)" id="path4151" style="fill:#383838;fill-rule:evenodd;stroke:#383838;stroke-width:1pt;marker-start:none"/>
    </marker>
    <marker refX="0" refY="0" orient="auto" id="Arrow1Mend-6-2" style="overflow:visible">
      <path d="M 0,0 5,-5 -12.5,0 5,5 0,0 z" transform="matrix(-0.4,0,0,-0.4,-4,0)" id="path3809-6-2-5" style="fill:#383838;fill-rule:evenodd;stroke:#383838;stroke-width:1pt;marker-start:none"/>
    </marker>
    <marker refX="0" refY="0" orient="auto" id="marker4580" style="overflow:visible">
      <path d="M 0,0 5,-5 -12.5,0 5,5 0,0 z" transform="matrix(-0.4,0,0,-0.4,-4,0)" id="path4582" style="fill:#383838;fill-rule:evenodd;stroke:#383838;stroke-width:1pt;marker-start:none"/>
    </marker>
    <marker refX="0" refY="0" orient="auto" id="Arrow1Mend-6-4" style="overflow:visible">
      <path d="M 0,0 5,-5 -12.5,0 5,5 0,0 z" transform="matrix(-0.4,0,0,-0.4,-4,0)" id="path3809-6-2-51" style="fill:#383838;fill-rule:evenodd;stroke:#383838;stroke-width:1pt;marker-start:none"/>
    </marker>
    <marker refX="0" refY="0" orient="auto" id="marker4680" style="overflow:visible">
      <path d="M 0,0 5,-5 -12.5,0 5,5 0,0 z" transform="matrix(-0.4,0,0,-0.4,-4,0)" id="path4682" style="fill:#383838;fill-rule:evenodd;stroke:#383838;stroke-width:1pt;marker-start:none"/>
    </marker>
  </defs>
  <metadata id="metadata_3.5">
  <!--
    <rdf:RDF>
      <cc:Work rdf:about="">
        <dc:format>image/svg+xml</dc:format>
        <dc:type rdf:resource="http://purl.org/dc/dcmitype/StillImage"></dc:type>
        <dc:title></dc:title>
        <cc:license rdf:resource="http://creativecommons.org/licenses/by-sa/3.0/"></cc:license>
        <dc:description>Based on the diagram in Abelson, Sussman &amp; Sussman's "Structure and Interpretation of Computer Programs", 2nd ed.</dc:description>
        <dc:source>http://mitpress.mit.edu/sicp/full-text/book/book-Z-H-21.html#%_fig_3.5</dc:source>
        <dc:creator>
          <cc:Agent>
            <dc:title>Andres Raba</dc:title>
          </cc:Agent>
        </dc:creator>
        <dc:date>2012-11-17</dc:date>
        <dc:subject>
          <rdf:Bag>
            <rdf:li>environment</rdf:li>
            <rdf:li>f</rdf:li>
            <rdf:li>square</rdf:li>
            <rdf:li>sum-of-squares</rdf:li>
          </rdf:Bag>
        </dc:subject>
      </cc:Work>
      <cc:License rdf:about="http://creativecommons.org/licenses/by-sa/3.0/">
        <cc:permits rdf:resource="http://creativecommons.org/ns#Reproduction"></cc:permits>
        <cc:permits rdf:resource="http://creativecommons.org/ns#Distribution"></cc:permits>
        <cc:requires rdf:resource="http://creativecommons.org/ns#Notice"></cc:requires>
        <cc:requires rdf:resource="http://creativecommons.org/ns#Attribution"></cc:requires>
        <cc:permits rdf:resource="http://creativecommons.org/ns#DerivativeWorks"></cc:permits>
        <cc:requires rdf:resource="http://creativecommons.org/ns#ShareAlike"></cc:requires>
      </cc:License>
    </rdf:RDF>
  -->
</metadata>
  <g transform="translate(-40,-45.46875)" id="layer2" style="display:inline">
    <path d="m 162.72743,50.978041 525.00076,0 c 5.72728,0 9.54547,3.818188 9.54547,9.545463 l 0,95.454686 c 0,5.72728 -3.81819,9.54547 -9.54547,9.54547 l -525.00076,0 c -5.72728,0 -9.54547,-3.81819 -9.54547,-9.54547 l 0,-95.454686 c 0,-5.727275 3.81819,-9.545463 9.54547,-9.545463 z" id="rect5327" style="fill:#e8e8e8;fill-opacity:1;stroke:#383838;stroke-width:1.01467574;stroke-linecap:round;stroke-linejoin:round;stroke-miterlimit:4;stroke-opacity:1;stroke-dasharray:none;stroke-dashoffset:0"/>
    <path d="m 115.00009,136.88725 34.36369,0" id="path4451" style="fill:none;stroke:#383838;stroke-width:1.48819113;stroke-linecap:round;stroke-linejoin:round;stroke-miterlimit:4;stroke-opacity:1;stroke-dasharray:none;marker-end:url(#Arrow1Mend-6)"/>
    <path d="m 468.18242,203.70553 66.81828,0 c 5.72728,0 9.54547,3.81819 9.54547,9.54547 l 0,66.8183 c 0,5.72728 -3.81819,9.54546 -9.54547,9.54546 l -66.81828,0 c -5.72728,0 -9.54547,-3.81818 -9.54547,-9.54546 l 0,-66.8183 c 0,-5.72728 3.81819,-9.54547 9.54547,-9.54547 z" id="rect5327-2" style="fill:#e8e8e8;fill-opacity:1;stroke:#383838;stroke-width:1.01467574;stroke-linecap:round;stroke-linejoin:round;stroke-miterlimit:4;stroke-opacity:1;stroke-dasharray:none;stroke-dashoffset:0"/>
    <path d="m 430.00055,260.97834 24.81822,0" id="path4451-8" style="fill:none;stroke:#383838;stroke-width:1.48819113;stroke-linecap:round;stroke-linejoin:round;stroke-miterlimit:4;stroke-opacity:1;stroke-dasharray:none;marker-end:url(#Arrow1Mend-6)"/>
    <path d="m 501.86429,203.70555 0,-34.36371" id="path4451-8-3" style="fill:none;stroke:#383838;stroke-width:1.48819113;stroke-linecap:round;stroke-linejoin:round;stroke-miterlimit:4;stroke-opacity:1;stroke-dasharray:none;marker-end:url(#Arrow1Mend-6)"/>
    <path d="m 162.72743,203.70553 66.81828,0 c 5.72728,0 9.54547,3.81819 9.54547,9.54547 l 0,66.8183 c 0,5.72728 -3.81819,9.54546 -9.54547,9.54546 l -66.81828,0 c -5.72728,0 -9.54547,-3.81818 -9.54547,-9.54546 l 0,-66.8183 c 0,-5.72728 3.81819,-9.54547 9.54547,-9.54547 z" id="rect5327-2-7" style="fill:#e8e8e8;fill-opacity:1;stroke:#383838;stroke-width:1.01467574;stroke-linecap:round;stroke-linejoin:round;stroke-miterlimit:4;stroke-opacity:1;stroke-dasharray:none;stroke-dashoffset:0"/>
    <path d="m 124.54556,260.97834 24.81822,0" id="path4451-8-5" style="fill:none;stroke:#383838;stroke-width:1.48819113;stroke-linecap:round;stroke-linejoin:round;stroke-miterlimit:4;stroke-opacity:1;stroke-dasharray:none;marker-end:url(#Arrow1Mend-6)"/>
    <path d="m 196.40931,203.70555 0,-34.36371" id="path4451-8-3-5" style="fill:none;stroke:#383838;stroke-width:1.48819113;stroke-linecap:round;stroke-linejoin:round;stroke-miterlimit:4;stroke-opacity:1;stroke-dasharray:none;marker-end:url(#Arrow1Mend-6)"/>
    <path d="m 315.45493,203.70553 66.81828,0 c 5.72728,0 9.54546,3.81819 9.54546,9.54547 l 0,66.8183 c 0,5.72728 -3.81818,9.54546 -9.54546,9.54546 l -66.81828,0 c -5.72728,0 -9.54547,-3.81818 -9.54547,-9.54546 l 0,-66.8183 c 0,-5.72728 3.81819,-9.54547 9.54547,-9.54547 z" id="rect5327-2-9" style="fill:#e8e8e8;fill-opacity:1;stroke:#383838;stroke-width:1.01467574;stroke-linecap:round;stroke-linejoin:round;stroke-miterlimit:4;stroke-opacity:1;stroke-dasharray:none;stroke-dashoffset:0"/>
    <path d="m 277.27305,260.97834 24.81822,0" id="path4451-8-9" style="fill:none;stroke:#383838;stroke-width:1.48819113;stroke-linecap:round;stroke-linejoin:round;stroke-miterlimit:4;stroke-opacity:1;stroke-dasharray:none;marker-end:url(#Arrow1Mend-6)"/>
    <path d="m 349.13682,203.70555 0,-34.36371" id="path4451-8-3-57" style="fill:none;stroke:#383838;stroke-width:1.48819113;stroke-linecap:round;stroke-linejoin:round;stroke-miterlimit:4;stroke-opacity:1;stroke-dasharray:none;marker-end:url(#Arrow1Mend-6)"/>
    <path d="m 620.90992,203.70553 66.81827,0 c 5.72728,0 9.54547,3.81819 9.54547,9.54547 l 0,66.8183 c 0,5.72728 -3.81819,9.54546 -9.54547,9.54546 l -66.81827,0 c -5.72729,0 -9.54547,-3.81818 -9.54547,-9.54546 l 0,-66.8183 c 0,-5.72728 3.81818,-9.54547 9.54547,-9.54547 z" id="rect5327-2-6" style="fill:#e8e8e8;fill-opacity:1;stroke:#383838;stroke-width:1.01467574;stroke-linecap:round;stroke-linejoin:round;stroke-miterlimit:4;stroke-opacity:1;stroke-dasharray:none;stroke-dashoffset:0"/>
    <path d="m 582.72804,260.97834 24.81822,0" id="path4451-8-34" style="fill:none;stroke:#383838;stroke-width:1.48819113;stroke-linecap:round;stroke-linejoin:round;stroke-miterlimit:4;stroke-opacity:1;stroke-dasharray:none;marker-end:url(#Arrow1Mend-6)"/>
    <path d="m 654.59181,203.70555 0,-34.36371" id="path4451-8-3-3" style="fill:none;stroke:#383838;stroke-width:1.48819113;stroke-linecap:round;stroke-linejoin:round;stroke-miterlimit:4;stroke-opacity:1;stroke-dasharray:none;marker-end:url(#Arrow1Mend-6)"/>
  </g>
  <g transform="translate(-40,-45.46875)" id="layer3" style="display:inline">
    <text x="611.36444" y="337.3421" id="text6293-5" xml:space="preserve" style="font-size:20px;font-style:normal;font-variant:normal;font-weight:normal;font-stretch:normal;text-align:start;line-height:125%;letter-spacing:0px;word-spacing:0px;text-anchor:start;fill:#383838;fill-opacity:1;stroke:none;font-family:Inconsolata LGC;-inkscape-font-specification:Inconsolata LGC"><tspan x="611.36444" y="337.3421" dy="0 0 0" id="tspan6295-8">(* x x)</tspan></text>
    <text x="629.90808" y="238.62122" id="text6297-4" xml:space="preserve" style="font-size:20px;font-style:normal;font-variant:normal;font-weight:normal;font-stretch:normal;text-align:start;line-height:125%;letter-spacing:0px;word-spacing:0px;text-anchor:start;fill:#383838;fill-opacity:1;stroke:none;font-family:Inconsolata LGC;-inkscape-font-specification:Inconsolata LGC"><tspan x="629.90808" y="238.62122" id="tspan6299-6">x:10</tspan></text>
    <text x="567.45532" y="251.43288" id="text6301-1" xml:space="preserve" style="font-size:20px;font-style:normal;font-variant:normal;font-weight:normal;font-stretch:normal;text-align:start;line-height:125%;letter-spacing:0px;word-spacing:0px;text-anchor:start;fill:#383838;fill-opacity:1;stroke:none;font-family:Inconsolata LGC;-inkscape-font-specification:Inconsolata LGC"><tspan x="567.45532" y="251.43288" id="tspan6303-99">E4</tspan></text>
    <text x="460.54605" y="337.3421" id="text6293" xml:space="preserve" style="font-size:20px;font-style:normal;font-variant:normal;font-weight:normal;font-stretch:normal;text-align:start;line-height:125%;letter-spacing:0px;word-spacing:0px;text-anchor:start;fill:#383838;fill-opacity:1;stroke:none;font-family:Inconsolata LGC;-inkscape-font-specification:Inconsolata LGC"><tspan x="460.54605" y="337.3421" dy="0 0 0" id="tspan6295">(* x x)</tspan></text>
    <text x="477.18054" y="238.62122" id="text6297" xml:space="preserve" style="font-size:20px;font-style:normal;font-variant:normal;font-weight:normal;font-stretch:normal;text-align:start;line-height:125%;letter-spacing:0px;word-spacing:0px;text-anchor:start;fill:#383838;fill-opacity:1;stroke:none;font-family:Inconsolata LGC;-inkscape-font-specification:Inconsolata LGC"><tspan x="477.18054" y="238.62122" id="tspan6299">x:6</tspan></text>
    <text x="414.72778" y="251.43288" id="text6301" xml:space="preserve" style="font-size:20px;font-style:normal;font-variant:normal;font-weight:normal;font-stretch:normal;text-align:start;line-height:125%;letter-spacing:0px;word-spacing:0px;text-anchor:start;fill:#383838;fill-opacity:1;stroke:none;font-family:Inconsolata LGC;-inkscape-font-specification:Inconsolata LGC"><tspan x="414.72778" y="251.43288" id="tspan6303">E3</tspan></text>
    <text x="269.63669" y="337.3421" id="text6293-6" xml:space="preserve" style="font-size:20px;font-style:normal;font-variant:normal;font-weight:normal;font-stretch:normal;text-align:start;line-height:139.99999762%;letter-spacing:0px;word-spacing:0px;text-anchor:start;fill:#383838;fill-opacity:1;stroke:none;font-family:Inconsolata LGC;-inkscape-font-specification:Inconsolata LGC"><tspan x="269.63669" y="337.3421" dy="0" id="tspan6295-6" xml:space="preserve">(+ (square x)</tspan><tspan x="269.63669" y="366.74216" dy="0 0 0 0 0 0 0 0 0 0 0 0 0 0 0" id="tspan4730" xml:space="preserve">   (square y))</tspan></text>
    <text x="324.45303" y="238.62122" id="text6297-1" xml:space="preserve" style="font-size:20px;font-style:normal;font-variant:normal;font-weight:normal;font-stretch:normal;text-align:start;line-height:125%;letter-spacing:0px;word-spacing:0px;text-anchor:start;fill:#383838;fill-opacity:1;stroke:none;font-family:Inconsolata LGC;-inkscape-font-specification:Inconsolata LGC"><tspan x="324.45303" y="238.62122" id="tspan6299-83">x:6</tspan></text>
    <text x="325.0004" y="266.70566" id="text6297-5-2" xml:space="preserve" style="font-size:20px;font-style:normal;font-variant:normal;font-weight:normal;font-stretch:normal;text-align:start;line-height:125%;letter-spacing:0px;word-spacing:0px;text-anchor:start;fill:#383838;fill-opacity:1;stroke:none;font-family:Inconsolata LGC;-inkscape-font-specification:Inconsolata LGC"><tspan x="325.0004" y="266.70566" id="tspan6299-9-9">y:10</tspan></text>
    <text x="262.00031" y="251.43288" id="text6301-5" xml:space="preserve" style="font-size:20px;font-style:normal;font-variant:normal;font-weight:normal;font-stretch:normal;text-align:start;line-height:125%;letter-spacing:0px;word-spacing:0px;text-anchor:start;fill:#383838;fill-opacity:1;stroke:none;font-family:Inconsolata LGC;-inkscape-font-specification:Inconsolata LGC"><tspan x="262.00031" y="251.43288" id="tspan6303-9">E2</tspan></text>
    <text x="52" y="337.3421" id="text6293-4" xml:space="preserve" style="font-size:20px;font-style:normal;font-variant:normal;font-weight:normal;font-stretch:normal;text-align:start;line-height:139.99999762%;letter-spacing:0px;word-spacing:0px;text-anchor:start;fill:#383838;fill-opacity:1;stroke:none;font-family:Inconsolata LGC;-inkscape-font-specification:Inconsolata LGC"><tspan x="52" y="337.3421" id="tspan6295-2" xml:space="preserve">(sum-of-squares</tspan><tspan x="52" y="366.74216" id="tspan4564" xml:space="preserve">  (+ a 1)</tspan><tspan x="52" y="396.14218" dy="0 0 0 0 0" id="tspan4566" xml:space="preserve">  (* a 2))</tspan></text>
    <text x="171.72554" y="238.62122" id="text6297-9" xml:space="preserve" style="font-size:20px;font-style:normal;font-variant:normal;font-weight:normal;font-stretch:normal;text-align:start;line-height:125%;letter-spacing:0px;word-spacing:0px;text-anchor:start;fill:#383838;fill-opacity:1;stroke:none;font-family:Inconsolata LGC;-inkscape-font-specification:Inconsolata LGC"><tspan x="171.72554" y="238.62122" id="tspan6299-8">a:5</tspan></text>
    <text x="109.27281" y="251.43288" id="text6301-2" xml:space="preserve" style="font-size:20px;font-style:normal;font-variant:normal;font-weight:normal;font-stretch:normal;text-align:start;line-height:125%;letter-spacing:0px;word-spacing:0px;text-anchor:start;fill:#383838;fill-opacity:1;stroke:none;font-family:Inconsolata LGC;-inkscape-font-specification:Inconsolata LGC"><tspan x="109.27281" y="251.43288" id="tspan6303-1">E1</tspan></text>
    <text x="76.818207" y="194.16006" id="text5485" xml:space="preserve" style="font-size:20px;font-style:normal;font-variant:normal;font-weight:normal;font-stretch:normal;text-align:start;line-height:125%;letter-spacing:0px;word-spacing:0px;text-anchor:start;fill:#383838;fill-opacity:1;stroke:none;font-family:Inconsolata LGC;-inkscape-font-specification:Inconsolata LGC"><tspan x="76.818207" y="194.16006" dy="0 0 0 0 0" id="tspan5589">(f 5)</tspan></text>
    <text x="76.818207" y="98.705383" id="text5477" xml:space="preserve" style="font-size:20px;font-style:normal;font-variant:normal;font-weight:normal;font-stretch:normal;text-align:start;line-height:120.00000477%;letter-spacing:0px;word-spacing:0px;text-anchor:start;fill:#383838;fill-opacity:1;stroke:none;font-family:Inconsolata LGC;-inkscape-font-specification:Inconsolata LGC"><tspan x="76.818207" y="98.705383" id="tspan5479" style="font-size:24.81821823px;font-style:normal;font-variant:normal;font-weight:normal;font-stretch:normal;line-height:120.00000477%;font-family:Linux Biolinum O;-inkscape-font-specification:Linux Biolinum O">global</tspan><tspan x="76.818207" y="128.48724" id="tspan5507" style="font-size:24.81821823px;font-style:normal;font-variant:normal;font-weight:normal;font-stretch:normal;line-height:120.00000477%;font-family:Linux Biolinum O;-inkscape-font-specification:Linux Biolinum O">env</tspan></text>
  </g>
</svg>
