<?xml version="1.0" encoding="UTF-8" standalone="no"?>
<!-- Created with Inkscape (http://www.inkscape.org/) -->
<?xml-stylesheet href="../../css/fonts/fonts.css" type="text/css"?>
<svg xmlns:dc="http://purl.org/dc/elements/1.1/" xmlns:cc="http://creativecommons.org/ns#" xmlns:rdf="http://www.w3.org/1999/02/22-rdf-syntax-ns#" xmlns:svg="http://www.w3.org/2000/svg" xmlns="http://www.w3.org/2000/svg" preserveAspectRatio="xMinYMin meet" viewBox="0 0 360 228" id="svg2" version="1.1">
  <defs id="defs4">
    <marker refX="0" refY="0" orient="auto" id="Arrow1Mstart" style="overflow:visible">
      <path d="M 0,0 5,-5 -12.5,0 5,5 0,0 z" transform="matrix(0.4,0,0,0.4,4,0)" id="path4565" style="fill:#383838;fill-rule:evenodd;stroke:#383838;stroke-width:1pt;marker-start:none"/>
    </marker>
    <marker refX="0" refY="0" orient="auto" id="marker5346" style="overflow:visible">
      <path d="M 0,0 5,-5 -12.5,0 5,5 0,0 z" transform="matrix(0.4,0,0,0.4,4,0)" id="path5348" style="fill:#383838;fill-rule:evenodd;stroke:#383838;stroke-width:1pt;marker-start:none"/>
    </marker>
    <marker refX="0" refY="0" orient="auto" id="marker5350" style="overflow:visible">
      <path d="M 0,0 5,-5 -12.5,0 5,5 0,0 z" transform="matrix(0.4,0,0,0.4,4,0)" id="path5352" style="fill:#383838;fill-rule:evenodd;stroke:#383838;stroke-width:1pt;marker-start:none"/>
    </marker>
    <marker refX="0" refY="0" orient="auto" id="Arrow1Mstart-3" style="overflow:visible">
      <path d="M 0,0 5,-5 -12.5,0 5,5 0,0 z" transform="matrix(0.4,0,0,0.4,4,0)" id="path4565-9" style="fill:#383838;fill-rule:evenodd;stroke:#383838;stroke-width:1pt;marker-start:none"/>
    </marker>
    <marker refX="0" refY="0" orient="auto" id="marker5586" style="overflow:visible">
      <path d="M 0,0 5,-5 -12.5,0 5,5 0,0 z" transform="matrix(0.4,0,0,0.4,4,0)" id="path5588" style="fill:#383838;fill-rule:evenodd;stroke:#383838;stroke-width:1pt;marker-start:none"/>
    </marker>
    <marker refX="0" refY="0" orient="auto" id="Arrow1Mstart-4" style="overflow:visible">
      <path d="M 0,0 5,-5 -12.5,0 5,5 0,0 z" transform="matrix(0.4,0,0,0.4,4,0)" id="path4565-3" style="fill:#383838;fill-rule:evenodd;stroke:#383838;stroke-width:1pt;marker-start:none"/>
    </marker>
    <marker refX="0" refY="0" orient="auto" id="Arrow1Mstart-5" style="overflow:visible">
      <path d="M 0,0 5,-5 -12.5,0 5,5 0,0 z" transform="matrix(0.4,0,0,0.4,4,0)" id="path4565-38" style="fill:#383838;fill-rule:evenodd;stroke:#383838;stroke-width:1pt;marker-start:none"/>
    </marker>
    <marker refX="0" refY="0" orient="auto" id="Arrow1Mstart-0" style="overflow:visible">
      <path d="M 0,0 5,-5 -12.5,0 5,5 0,0 z" transform="matrix(0.4,0,0,0.4,4,0)" id="path4565-6" style="fill:#383838;fill-rule:evenodd;stroke:#383838;stroke-width:1pt;marker-start:none"/>
    </marker>
  </defs>
  <metadata id="metadata_3.16">
  <!--
    <rdf:RDF>
      <cc:Work rdf:about="">
        <dc:format>image/svg+xml</dc:format>
        <dc:type rdf:resource="http://purl.org/dc/dcmitype/StillImage"></dc:type>
        <dc:title></dc:title>
        <cc:license rdf:resource="http://creativecommons.org/licenses/by-sa/3.0/"></cc:license>
        <dc:description>Based on the diagram in Abelson, Sussman &amp; Sussman's "Structure and Interpretation of Computer Programs", 2nd ed.</dc:description>
        <dc:source>http://mitpress.mit.edu/sicp/full-text/book/book-Z-H-22.html#%_fig_3.16</dc:source>
        <dc:creator>
          <cc:Agent>
            <dc:title>Andres Raba</dc:title>
          </cc:Agent>
        </dc:creator>
        <dc:date>2012-11-17</dc:date>
        <dc:subject>
          <rdf:Bag>
            <rdf:li>list</rdf:li>
            <rdf:li>cons</rdf:li>
          </rdf:Bag>
        </dc:subject>
      </cc:Work>
      <cc:License rdf:about="http://creativecommons.org/licenses/by-sa/3.0/">
        <cc:permits rdf:resource="http://creativecommons.org/ns#Reproduction"></cc:permits>
        <cc:permits rdf:resource="http://creativecommons.org/ns#Distribution"></cc:permits>
        <cc:requires rdf:resource="http://creativecommons.org/ns#Notice"></cc:requires>
        <cc:requires rdf:resource="http://creativecommons.org/ns#Attribution"></cc:requires>
        <cc:permits rdf:resource="http://creativecommons.org/ns#DerivativeWorks"></cc:permits>
        <cc:requires rdf:resource="http://creativecommons.org/ns#ShareAlike"></cc:requires>
      </cc:License>
    </rdf:RDF>
  -->
</metadata>
  <g transform="translate(-77.556602,-44.0625)" id="layer2" style="display:inline">
    <rect width="95.454567" height="47.727283" rx="6.7644968" ry="6.7644968" x="187.67584" y="47.575085" id="rect3794-7-1-0" style="fill:#e8e8e8;fill-opacity:1;stroke:#383838;stroke-width:1.01467454;stroke-linecap:round;stroke-linejoin:round;stroke-miterlimit:4;stroke-opacity:1;stroke-dasharray:none;stroke-dashoffset:0"/>
    <rect width="95.454567" height="47.727283" rx="6.7644968" ry="6.7644968" x="187.67584" y="143.02962" id="rect3794-7-1-0-5" style="fill:#e8e8e8;fill-opacity:1;stroke:#383838;stroke-width:1.01467454;stroke-linecap:round;stroke-linejoin:round;stroke-miterlimit:4;stroke-opacity:1;stroke-dasharray:none;stroke-dashoffset:0"/>
    <rect width="95.454567" height="47.727283" rx="6.7644968" ry="6.7644968" x="330.8577" y="143.02962" id="rect3794-7-1-0-6-6" style="fill:#e8e8e8;fill-opacity:1;stroke:#383838;stroke-width:1.01467454;stroke-linecap:round;stroke-linejoin:round;stroke-miterlimit:4;stroke-opacity:1;stroke-dasharray:none;stroke-dashoffset:0"/>
  </g>
  <g transform="translate(-77.556602,-44.0625)" id="layer1" style="display:inline">
    <rect width="47.727283" height="47.727283" rx="6.7644968" ry="6.7644968" x="187.67584" y="219.39331" id="rect3794-77-9-4-4" style="fill:none;stroke:#383838;stroke-width:1.01467454;stroke-linecap:round;stroke-linejoin:round;stroke-miterlimit:4;stroke-opacity:1;stroke-dasharray:none;stroke-dashoffset:0;display:inline"/>
    <rect width="47.727283" height="47.727283" rx="6.7644968" ry="6.7644968" x="330.85773" y="219.39331" id="rect3794-77-9-5-9" style="fill:none;stroke:#383838;stroke-width:1.01467454;stroke-linecap:round;stroke-linejoin:round;stroke-miterlimit:4;stroke-opacity:1;stroke-dasharray:none;stroke-dashoffset:0;display:inline"/>
    <path d="m 327.03951,167.84784 -62.99997,0" id="path4554-5-2-3-85" style="fill:none;stroke:#383838;stroke-width:1.48818934;stroke-linecap:round;stroke-linejoin:round;stroke-miterlimit:4;stroke-opacity:1;stroke-dasharray:none;marker-start:url(#Arrow1Mstart);display:inline"/>
    <path d="m 120,84.862183 a 2.5,2.5 0 1 1 -5,0 2.5,2.5 0 1 1 5,0 z" transform="matrix(1.9090914,0,0,1.9090914,34.948562,5.838178)" id="path4491-44-0-1" style="fill:#383838;fill-opacity:1;stroke:#383838;stroke-width:0;stroke-linecap:round;stroke-linejoin:round;stroke-miterlimit:4;stroke-opacity:1;stroke-dasharray:none;stroke-dashoffset:0;display:inline"/>
    <path d="m 120,84.862183 a 2.5,2.5 0 1 1 -5,0 2.5,2.5 0 1 1 5,0 z" transform="matrix(1.9090914,0,0,1.9090914,-11.824202,5.785831)" id="path4491-4-7-7" style="fill:#383838;fill-opacity:1;stroke:#383838;stroke-width:0;stroke-linecap:round;stroke-linejoin:round;stroke-miterlimit:4;stroke-opacity:1;stroke-dasharray:none;stroke-dashoffset:0;display:inline"/>
    <path d="m 212.49407,215.57512 0,-43.9091" id="path4554-5-0-27" style="fill:none;stroke:#383838;stroke-width:1.48818934;stroke-linecap:round;stroke-linejoin:round;stroke-miterlimit:4;stroke-opacity:1;stroke-dasharray:none;marker-start:url(#Arrow1Mstart);display:inline"/>
    <path d="m 378.58498,143.02965 0,47.72728" id="path4405-1-3-84-0" style="fill:none;stroke:#383838;stroke-width:1.01467454;stroke-linecap:butt;stroke-linejoin:miter;stroke-miterlimit:4;stroke-opacity:1;stroke-dasharray:none"/>
    <path d="m 120,84.862183 a 2.5,2.5 0 1 1 -5,0 2.5,2.5 0 1 1 5,0 z" transform="matrix(1.9090914,0,0,1.9090914,131.35768,5.785831)" id="path4491-4-7-6-8" style="fill:#383838;fill-opacity:1;stroke:#383838;stroke-width:0;stroke-linecap:round;stroke-linejoin:round;stroke-miterlimit:4;stroke-opacity:1;stroke-dasharray:none;stroke-dashoffset:0;display:inline"/>
    <path d="m 355.67592,215.57512 0,-43.9091" id="path4554-5-0-7-2" style="fill:none;stroke:#383838;stroke-width:1.48818934;stroke-linecap:round;stroke-linejoin:round;stroke-miterlimit:4;stroke-opacity:1;stroke-dasharray:none;marker-start:url(#Arrow1Mstart);display:inline"/>
    <path d="m 378.58498,190.75693 45.81819,-45.81819" id="path4373-3" style="fill:none;stroke:#383838;stroke-width:1.01467454;stroke-linecap:butt;stroke-linejoin:round;stroke-miterlimit:4;stroke-opacity:1;stroke-dasharray:none"/>
    <path d="m 235.40313,143.02965 0,47.72728" id="path4405-1-3-3" style="fill:none;stroke:#383838;stroke-width:1.01467454;stroke-linecap:butt;stroke-linejoin:miter;stroke-miterlimit:4;stroke-opacity:1;stroke-dasharray:none"/>
    <path d="m 120,84.862183 a 2.5,2.5 0 1 1 -5,0 2.5,2.5 0 1 1 5,0 z" transform="matrix(1.9090914,0,0,1.9090914,34.948537,-89.61639)" id="path4491-44-0" style="fill:#383838;fill-opacity:1;stroke:#383838;stroke-width:0;stroke-linecap:round;stroke-linejoin:round;stroke-miterlimit:4;stroke-opacity:1;stroke-dasharray:none;stroke-dashoffset:0;display:inline"/>
    <path d="m 120,84.862183 a 2.5,2.5 0 1 1 -5,0 2.5,2.5 0 1 1 5,0 z" transform="matrix(1.9090914,0,0,1.9090914,-11.824208,-89.66874)" id="path4491-4-7" style="fill:#383838;fill-opacity:1;stroke:#383838;stroke-width:0;stroke-linecap:round;stroke-linejoin:round;stroke-miterlimit:4;stroke-opacity:1;stroke-dasharray:none;stroke-dashoffset:0;display:inline"/>
    <path d="m 212.49405,139.21147 0,-63.000022" id="path4554-5-0" style="fill:none;stroke:#383838;stroke-width:1.48818934;stroke-linecap:round;stroke-linejoin:round;stroke-miterlimit:4;stroke-opacity:1;stroke-dasharray:none;marker-start:url(#Arrow1Mstart);display:inline"/>
    <path d="m 235.40313,47.57508 0,47.727284" id="path4405-1-3" style="fill:none;stroke:#383838;stroke-width:1.01467454;stroke-linecap:butt;stroke-linejoin:miter;stroke-miterlimit:4;stroke-opacity:1;stroke-dasharray:none"/>
    <path d="m 259.369,139.21147 0,-63.00001" id="path4554-5-0-6" style="fill:none;stroke:#383838;stroke-width:1.48818934;stroke-linecap:round;stroke-linejoin:round;stroke-miterlimit:4;stroke-opacity:1;stroke-dasharray:none;marker-start:url(#Arrow1Mstart);display:inline"/>
    <path d="m 183.85766,72.393266 -63.00002,0" id="path4554-9-4-6" style="fill:none;stroke:#383838;stroke-width:1.48818934;stroke-linecap:round;stroke-linejoin:round;stroke-miterlimit:4;stroke-opacity:1;stroke-dasharray:none;marker-start:url(#Arrow1Mstart);display:inline"/>
    <path d="m 183.85766,167.84784 -63.00002,0" id="path4554-9-4-6-5" style="fill:none;stroke:#383838;stroke-width:1.48818934;stroke-linecap:round;stroke-linejoin:round;stroke-miterlimit:4;stroke-opacity:1;stroke-dasharray:none;marker-start:url(#Arrow1Mstart);display:inline"/>
  </g>
  <g transform="translate(-77.556602,-44.0625)" id="layer5" style="display:inline">
    <text x="111.3122" y="77.234169" id="text4974" xml:space="preserve" style="font-size:20px;font-style:normal;font-variant:normal;font-weight:normal;font-stretch:normal;text-align:end;line-height:125%;letter-spacing:0px;word-spacing:0px;text-anchor:end;fill:#383838;fill-opacity:1;stroke:none;display:inline;font-family:Inconsolata LGC;-inkscape-font-specification:Inconsolata LGC"><tspan x="111.3122" y="77.234169" id="tspan4976">z1</tspan></text>
    <text x="111.3122" y="172.68875" id="text4974-8" xml:space="preserve" style="font-size:20px;font-style:normal;font-variant:normal;font-weight:normal;font-stretch:normal;text-align:end;line-height:125%;letter-spacing:0px;word-spacing:0px;text-anchor:end;fill:#383838;fill-opacity:1;stroke:none;display:inline;font-family:Inconsolata LGC;-inkscape-font-specification:Inconsolata LGC"><tspan x="111.3122" y="172.68875" id="tspan4976-9">x</tspan></text>
    <text x="205.36902" y="249.0863" id="text3007-0-2-9" xml:space="preserve" style="font-size:20px;font-style:normal;font-variant:normal;font-weight:normal;font-stretch:normal;line-height:125%;letter-spacing:0px;word-spacing:0px;fill:#383838;fill-opacity:1;stroke:none;display:inline;font-family:Inconsolata LGC;-inkscape-font-specification:Inconsolata LGC"><tspan x="205.36902" y="249.0863" id="tspan3009-8-5-1" style="font-weight:normal;-inkscape-font-specification:Inconsolata LGC">a</tspan></text>
    <text x="348.03949" y="249.59772" id="text3007-0-7-1" xml:space="preserve" style="font-size:20px;font-style:normal;font-variant:normal;font-weight:normal;font-stretch:normal;line-height:125%;letter-spacing:0px;word-spacing:0px;fill:#383838;fill-opacity:1;stroke:none;display:inline;font-family:Inconsolata LGC;-inkscape-font-specification:Inconsolata LGC"><tspan x="348.03949" y="249.59772" id="tspan3009-8-52-2" style="font-weight:normal;-inkscape-font-specification:Inconsolata LGC">b</tspan></text>
  </g>
</svg>
