<?xml version="1.0" encoding="UTF-8" standalone="no"?>
<!-- Created with Inkscape (http://www.inkscape.org/) -->
<?xml-stylesheet href="../../css/fonts/fonts.css" type="text/css"?>
<svg xmlns:dc="http://purl.org/dc/elements/1.1/" xmlns:cc="http://creativecommons.org/ns#" xmlns:rdf="http://www.w3.org/1999/02/22-rdf-syntax-ns#" xmlns:svg="http://www.w3.org/2000/svg" xmlns="http://www.w3.org/2000/svg" preserveAspectRatio="xMinYMin meet" viewBox="0 0 627 415" id="svg6455" style="display:inline" version="1.1">
  <defs id="defs6457">
    <marker refX="0" refY="0" orient="auto" id="Arrow1Mend-6" style="overflow:visible">
      <path d="M 0,0 5,-5 -12.5,0 5,5 0,0 z" transform="matrix(-0.4,0,0,-0.4,-4,0)" id="path3809-6-2" style="fill:#383838;fill-rule:evenodd;stroke:#383838;stroke-width:1pt;marker-start:none"/>
    </marker>
    <marker refX="0" refY="0" orient="auto" id="marker6488" style="overflow:visible">
      <path d="M 0,0 5,-5 -12.5,0 5,5 0,0 z" transform="matrix(-0.4,0,0,-0.4,-4,0)" id="path6490" style="fill:#383838;fill-rule:evenodd;stroke:#383838;stroke-width:1pt;marker-start:none"/>
    </marker>
    <marker refX="0" refY="0" orient="auto" id="Arrow1Mend" style="overflow:visible">
      <path d="M 0,0 5,-5 -12.5,0 5,5 0,0 z" transform="matrix(-0.4,0,0,-0.4,-4,0)" id="path3809" style="fill:#383838;fill-rule:evenodd;stroke:#383838;stroke-width:1pt;marker-start:none"/>
    </marker>
    <marker refX="0" refY="0" orient="auto" id="marker6494" style="overflow:visible">
      <path d="M 0,0 5,-5 -12.5,0 5,5 0,0 z" transform="matrix(-0.4,0,0,-0.4,-4,0)" id="path6496" style="fill:#383838;fill-rule:evenodd;stroke:#383838;stroke-width:1pt;marker-start:none"/>
    </marker>
    <marker refX="0" refY="0" orient="auto" id="Arrow1Mend-6-0" style="overflow:visible">
      <path d="M 0,0 5,-5 -12.5,0 5,5 0,0 z" transform="matrix(-0.4,0,0,-0.4,-4,0)" id="path3809-6-2-4" style="fill:#383838;fill-rule:evenodd;stroke:#383838;stroke-width:1pt;marker-start:none"/>
    </marker>
    <marker refX="0" refY="0" orient="auto" id="Arrow1Mend-4" style="overflow:visible">
      <path d="M 0,0 5,-5 -12.5,0 5,5 0,0 z" transform="matrix(-0.4,0,0,-0.4,-4,0)" id="path3809-6" style="fill:#383838;fill-rule:evenodd;stroke:#383838;stroke-width:1pt;marker-start:none"/>
    </marker>
    <marker refX="0" refY="0" orient="auto" id="Arrow1Mend-7" style="overflow:visible">
      <path d="M 0,0 5,-5 -12.5,0 5,5 0,0 z" transform="matrix(-0.4,0,0,-0.4,-4,0)" id="path3809-5" style="fill:#383838;fill-rule:evenodd;stroke:#383838;stroke-width:1pt;marker-start:none"/>
    </marker>
    <marker refX="0" refY="0" orient="auto" id="Arrow1Mend-6-5" style="overflow:visible">
      <path d="M 0,0 5,-5 -12.5,0 5,5 0,0 z" transform="matrix(-0.4,0,0,-0.4,-4,0)" id="path3809-6-2-2" style="fill:#383838;fill-rule:evenodd;stroke:#383838;stroke-width:1pt;marker-start:none"/>
    </marker>
    <marker refX="0" refY="0" orient="auto" id="Arrow1Mend-48" style="overflow:visible">
      <path d="M 0,0 5,-5 -12.5,0 5,5 0,0 z" transform="matrix(-0.4,0,0,-0.4,-4,0)" id="path3809-54" style="fill:#383838;fill-rule:evenodd;stroke:#383838;stroke-width:1pt;marker-start:none"/>
    </marker>
    <marker refX="0" refY="0" orient="auto" id="Arrow1Mend-2" style="overflow:visible">
      <path d="M 0,0 5,-5 -12.5,0 5,5 0,0 z" transform="matrix(-0.4,0,0,-0.4,-4,0)" id="path3809-3" style="fill:#383838;fill-rule:evenodd;stroke:#383838;stroke-width:1pt;marker-start:none"/>
    </marker>
  </defs>
  <metadata id="metadata_3.4">
  <!--
    <rdf:RDF>
      <cc:Work rdf:about="">
        <dc:format>image/svg+xml</dc:format>
        <dc:type rdf:resource="http://purl.org/dc/dcmitype/StillImage"></dc:type>
        <dc:title></dc:title>
        <cc:license rdf:resource="http://creativecommons.org/licenses/by-sa/3.0/"></cc:license>
        <dc:description>Based on the diagram in Abelson, Sussman &amp; Sussman's "Structure and Interpretation of Computer Programs", 2nd ed.</dc:description>
        <dc:source>http://mitpress.mit.edu/sicp/full-text/book/book-Z-H-21.html#%_fig_3.4</dc:source>
        <dc:creator>
          <cc:Agent>
            <dc:title>Andres Raba</dc:title>
          </cc:Agent>
        </dc:creator>
        <dc:date>2012-11-17</dc:date>
        <dc:subject>
          <rdf:Bag>
            <rdf:li>environment</rdf:li>
            <rdf:li>define</rdf:li>
            <rdf:li>f</rdf:li>
            <rdf:li>square</rdf:li>
            <rdf:li>sum-of-squares</rdf:li>
          </rdf:Bag>
        </dc:subject>
      </cc:Work>
      <cc:License rdf:about="http://creativecommons.org/licenses/by-sa/3.0/">
        <cc:permits rdf:resource="http://creativecommons.org/ns#Reproduction"></cc:permits>
        <cc:permits rdf:resource="http://creativecommons.org/ns#Distribution"></cc:permits>
        <cc:requires rdf:resource="http://creativecommons.org/ns#Notice"></cc:requires>
        <cc:requires rdf:resource="http://creativecommons.org/ns#Attribution"></cc:requires>
        <cc:permits rdf:resource="http://creativecommons.org/ns#DerivativeWorks"></cc:permits>
        <cc:requires rdf:resource="http://creativecommons.org/ns#ShareAlike"></cc:requires>
      </cc:License>
    </rdf:RDF>
  -->
</metadata>
  <g transform="translate(-78,-54.90625)" id="layer8" style="display:inline">
    <path d="m 175.90909,60.42831 505.90912,0 c 5.72727,0 9.54545,3.81818 9.54545,9.54545 l 0,105 c 0,5.72727 -3.81818,9.54546 -9.54545,9.54546 l -505.90912,0 c -5.72727,0 -9.54545,-3.81819 -9.54545,-9.54546 l 0,-105 c 0,-5.72727 3.81818,-9.54545 9.54545,-9.54545 z" id="rect5327" style="fill:#e8e8e8;fill-opacity:1;stroke:#383838;stroke-width:1.01467431;stroke-linecap:round;stroke-linejoin:round;stroke-miterlimit:4;stroke-opacity:1;stroke-dasharray:none;stroke-dashoffset:0"/>
    <path d="m 286.63637,257.91693 28.4659,0 c 5.89774,0 9.71592,-3.81818 9.71592,-9.54546 l 0,-60.03405" id="path3795" style="fill:none;stroke:#383838;stroke-width:1.48818898;stroke-linecap:round;stroke-linejoin:round;stroke-miterlimit:4;stroke-opacity:1;stroke-dasharray:none;marker-end:url(#Arrow1Mend)"/>
    <path d="m 223.63637,155.88285 25.8409,0 c 5.89774,0 9.71592,3.81818 9.71592,9.54546 l 0,66.81818" id="path3795-5" style="fill:none;stroke:#383838;stroke-width:1.48818898;stroke-linecap:round;stroke-linejoin:round;stroke-miterlimit:4;stroke-opacity:1;stroke-dasharray:none;marker-end:url(#Arrow1Mend)"/>
    <path d="m 109.09091,155.88285 53.45455,0" id="path4451" style="fill:none;stroke:#383838;stroke-width:1.48818898;stroke-linecap:round;stroke-linejoin:round;stroke-miterlimit:4;stroke-opacity:1;stroke-dasharray:none;marker-end:url(#Arrow1Mend-6)"/>
    <path d="m 237.00001,262.79193 0,51.54545" id="path4451-5" style="fill:none;stroke:#383838;stroke-width:1.48818898;stroke-linecap:round;stroke-linejoin:round;stroke-miterlimit:4;stroke-opacity:1;stroke-dasharray:none;marker-end:url(#Arrow1Mend-6)"/>
    <path d="m 190,179.86218 a 2.5,2.5 0 1 1 -5,0 2.5,2.5 0 1 1 5,0 z" transform="matrix(1.909091,0,0,1.909091,-120.95455,-85.35405)" id="path5407" style="fill:#383838;fill-opacity:1;stroke:#383838;stroke-width:0.35433072;stroke-linecap:round;stroke-linejoin:round;stroke-miterlimit:4;stroke-opacity:1;stroke-dasharray:none;stroke-dashoffset:0"/>
    <path d="m 190,179.86218 a 2.5,2.5 0 1 1 -5,0 2.5,2.5 0 1 1 5,0 z" transform="matrix(1.909091,0,0,1.909091,-76.193186,-85.35405)" id="path5407-7" style="fill:#383838;fill-opacity:1;stroke:#383838;stroke-width:0.35433072;stroke-linecap:round;stroke-linejoin:round;stroke-miterlimit:4;stroke-opacity:1;stroke-dasharray:none;stroke-dashoffset:0"/>
    <path d="m 199.17081,180.36218 a 11.170808,11.170808 0 1 1 -22.34162,0 11.170808,11.170808 0 1 1 22.34162,0 z" transform="matrix(1.9958678,0,0,1.9958678,-93.359513,-101.95986)" id="path5435-9" style="fill:none;stroke:#383838;stroke-width:0.50838757;stroke-linecap:round;stroke-linejoin:round;stroke-miterlimit:4;stroke-opacity:1;stroke-dasharray:none;stroke-dashoffset:0"/>
    <path d="m 199.17081,180.36218 a 11.170808,11.170808 0 1 1 -22.34162,0 11.170808,11.170808 0 1 1 22.34162,0 z" transform="matrix(1.9958678,0,0,1.9958678,-138.22313,-101.95984)" id="path5435-9-6" style="fill:none;stroke:#383838;stroke-width:0.50838757;stroke-linecap:round;stroke-linejoin:round;stroke-miterlimit:4;stroke-opacity:1;stroke-dasharray:none;stroke-dashoffset:0"/>
    <path d="m 286.63637,122.4641 131.14772,0 c 5.89773,0 9.71592,3.81818 9.71592,9.54544 l 0,100.23695" id="path3795-5-0" style="fill:none;stroke:#383838;stroke-width:1.48818898;stroke-linecap:round;stroke-linejoin:round;stroke-miterlimit:4;stroke-opacity:1;stroke-dasharray:none;marker-end:url(#Arrow1Mend)"/>
    <path d="m 387.81819,88.382871 201.78409,0 c 5.89773,0 9.71592,3.818182 9.71592,9.545443 l 0,134.318176" id="path3795-5-0-1" style="fill:none;stroke:#383838;stroke-width:1.48818898;stroke-linecap:round;stroke-linejoin:round;stroke-miterlimit:4;stroke-opacity:1;stroke-dasharray:none;marker-end:url(#Arrow1Mend)"/>
    <path d="m 199.17081,180.36218 a 11.170807,11.170807 0 1 1 -22.34162,0 11.170807,11.170807 0 1 1 22.34162,0 z" transform="matrix(1.9958678,0,0,1.9958678,74.640485,-101.95986)" id="path5435-9-0" style="fill:none;stroke:#383838;stroke-width:0.50838757;stroke-linecap:round;stroke-linejoin:round;stroke-miterlimit:4;stroke-opacity:1;stroke-dasharray:none;stroke-dashoffset:0"/>
    <path d="m 199.17081,180.36218 a 11.170808,11.170808 0 1 1 -22.34162,0 11.170808,11.170808 0 1 1 22.34162,0 z" transform="matrix(1.9958678,0,0,1.9958678,29.776873,-101.95984)" id="path5435-9-6-2" style="fill:none;stroke:#383838;stroke-width:0.50838757;stroke-linecap:round;stroke-linejoin:round;stroke-miterlimit:4;stroke-opacity:1;stroke-dasharray:none;stroke-dashoffset:0"/>
    <path d="m 190,179.86218 a 2.5,2.5 0 1 1 -5,0 2.5,2.5 0 1 1 5,0 z" transform="matrix(1.909091,0,0,1.909091,47.04546,-85.35405)" id="path5407-77" style="fill:#383838;fill-opacity:1;stroke:#383838;stroke-width:0.35433072;stroke-linecap:round;stroke-linejoin:round;stroke-miterlimit:4;stroke-opacity:1;stroke-dasharray:none;stroke-dashoffset:0"/>
    <path d="m 190,179.86218 a 2.5,2.5 0 1 1 -5,0 2.5,2.5 0 1 1 5,0 z" transform="matrix(1.909091,0,0,1.909091,91.806821,-85.35405)" id="path5407-7-1" style="fill:#383838;fill-opacity:1;stroke:#383838;stroke-width:0.35433072;stroke-linecap:round;stroke-linejoin:round;stroke-miterlimit:4;stroke-opacity:1;stroke-dasharray:none;stroke-dashoffset:0"/>
    <path d="m 405.00001,262.79191 0,51.54546" id="path4451-5-0" style="fill:none;stroke:#383838;stroke-width:1.48818898;stroke-linecap:round;stroke-linejoin:round;stroke-miterlimit:4;stroke-opacity:1;stroke-dasharray:none;marker-end:url(#Arrow1Mend-6)"/>
    <path d="m 454.63638,257.91691 28.4659,0 c 5.89774,0 9.71592,-3.81818 9.71592,-9.54545 l 0,-60.03406" id="path3795-2" style="fill:none;stroke:#383838;stroke-width:1.48818898;stroke-linecap:round;stroke-linejoin:round;stroke-miterlimit:4;stroke-opacity:1;stroke-dasharray:none;marker-end:url(#Arrow1Mend)"/>
    <path d="m 626.45457,257.91689 28.4659,0 c 5.89774,0 9.71592,-3.81818 9.71592,-9.54545 l 0,-60.03406" id="path3795-2-7" style="fill:none;stroke:#383838;stroke-width:1.48818898;stroke-linecap:round;stroke-linejoin:round;stroke-miterlimit:4;stroke-opacity:1;stroke-dasharray:none;marker-end:url(#Arrow1Mend)"/>
    <path d="m 199.17081,180.36218 a 11.170808,11.170808 0 1 1 -22.34162,0 11.170808,11.170808 0 1 1 22.34162,0 z" transform="matrix(1.9958678,0,0,1.9958678,246.45867,-101.95986)" id="path5435-9-0-8" style="fill:none;stroke:#383838;stroke-width:0.50838757;stroke-linecap:round;stroke-linejoin:round;stroke-miterlimit:4;stroke-opacity:1;stroke-dasharray:none;stroke-dashoffset:0"/>
    <path d="m 190,179.86218 a 2.5,2.5 0 1 1 -5,0 2.5,2.5 0 1 1 5,0 z" transform="matrix(1.909091,0,0,1.909091,263.62501,-85.35406)" id="path5407-7-1-0" style="fill:#383838;fill-opacity:1;stroke:#383838;stroke-width:0.35433072;stroke-linecap:round;stroke-linejoin:round;stroke-miterlimit:4;stroke-opacity:1;stroke-dasharray:none;stroke-dashoffset:0"/>
    <path d="m 190,179.86218 a 2.5,2.5 0 1 1 -5,0 2.5,2.5 0 1 1 5,0 z" transform="matrix(1.909091,0,0,1.909091,218.86364,-85.35406)" id="path5407-77-0" style="fill:#383838;fill-opacity:1;stroke:#383838;stroke-width:0.35433072;stroke-linecap:round;stroke-linejoin:round;stroke-miterlimit:4;stroke-opacity:1;stroke-dasharray:none;stroke-dashoffset:0"/>
    <path d="m 576.8182,262.79189 0,51.54546" id="path4451-5-0-6" style="fill:none;stroke:#383838;stroke-width:1.48818898;stroke-linecap:round;stroke-linejoin:round;stroke-miterlimit:4;stroke-opacity:1;stroke-dasharray:none;marker-end:url(#Arrow1Mend-6)"/>
    <path d="m 199.17081,180.36218 a 11.170808,11.170808 0 1 1 -22.34162,0 11.170808,11.170808 0 1 1 22.34162,0 z" transform="matrix(1.9958678,0,0,1.9958678,201.59505,-101.95984)" id="path5435-9-6-2-1" style="fill:none;stroke:#383838;stroke-width:0.50838757;stroke-linecap:round;stroke-linejoin:round;stroke-miterlimit:4;stroke-opacity:1;stroke-dasharray:none;stroke-dashoffset:0"/>
  </g>
  <g transform="translate(-78,-54.90625)" id="layer9" style="display:inline">
    <text x="195" y="127.24649" id="text7282" xml:space="preserve" style="font-size:20px;font-style:normal;font-variant:normal;font-weight:normal;font-stretch:normal;text-align:start;line-height:125%;letter-spacing:0px;word-spacing:0px;text-anchor:start;fill:#383838;fill-opacity:1;stroke:none;font-family:Inconsolata LGC;-inkscape-font-specification:Inconsolata LGC"><tspan x="195" y="127.24649" id="tspan7284">square:</tspan></text>
    <text x="195" y="93.847099" id="text5493" xml:space="preserve" style="font-size:20px;font-style:normal;font-variant:normal;font-weight:normal;font-stretch:normal;text-align:start;line-height:125%;letter-spacing:0px;word-spacing:0px;text-anchor:start;fill:#383838;fill-opacity:1;stroke:none;font-family:Inconsolata LGC;-inkscape-font-specification:Inconsolata LGC"><tspan x="195" y="93.847099" id="tspan5495">sum-of-squares:</tspan></text>
    <text x="195" y="161.47377" id="text5473" xml:space="preserve" style="font-size:20px;font-style:normal;font-variant:normal;font-weight:normal;font-stretch:normal;text-align:start;line-height:125%;letter-spacing:0px;word-spacing:0px;text-anchor:start;fill:#383838;fill-opacity:1;stroke:none;font-family:Inconsolata LGC;-inkscape-font-specification:Inconsolata LGC"><tspan x="195" y="161.47377" id="tspan5475">f:</tspan></text>
    <text x="90" y="111.97376" id="text5477" xml:space="preserve" style="font-size:20px;font-style:normal;font-variant:normal;font-weight:normal;font-stretch:normal;text-align:start;line-height:120.00000477%;letter-spacing:0px;word-spacing:0px;text-anchor:start;fill:#383838;fill-opacity:1;stroke:none;font-family:Inconsolata LGC;-inkscape-font-specification:Inconsolata LGC"><tspan x="90" y="111.97376" id="tspan5479" style="font-size:24.81818199px;font-style:normal;font-variant:normal;font-weight:normal;font-stretch:normal;line-height:120.00000477%;font-family:Linux Biolinum O;-inkscape-font-specification:Linux Biolinum O">global</tspan><tspan x="90" y="141.75558" id="tspan5507" style="font-size:24.81818199px;font-style:normal;font-variant:normal;font-weight:normal;font-stretch:normal;line-height:120.00000477%;font-family:Linux Biolinum O;-inkscape-font-specification:Linux Biolinum O">env</tspan></text>
    <text x="90" y="346.79196" id="text5497" xml:space="preserve" style="font-size:24.81818199px;font-style:normal;font-variant:normal;font-weight:normal;font-stretch:normal;text-align:start;line-height:120.00000477%;letter-spacing:0px;word-spacing:0px;text-anchor:start;fill:#383838;fill-opacity:1;stroke:none;font-family:Linux Biolinum O;-inkscape-font-specification:Sans"><tspan x="90" y="346.79196" id="tspan5499" style="line-height:120.00000477%">parameters: <tspan id="tspan7268" style="font-size:20px;font-style:normal;font-variant:normal;font-weight:normal;font-stretch:normal;line-height:120.00000477%;font-family:Inconsolata LGC;-inkscape-font-specification:Inconsolata LGC">a</tspan></tspan><tspan x="90" y="380.04007" id="tspan5501" style="line-height:120.00000477%">body: </tspan><tspan x="90" y="407.67755" id="tspan3079" style="font-size:20px;line-height:139.99999762%"><tspan dy="0" id="tspan3081" xml:space="preserve" style="font-size:20px;font-style:normal;font-variant:normal;font-weight:normal;font-stretch:normal;line-height:139.99999762%;font-family:Inconsolata LGC;-inkscape-font-specification:Inconsolata LGC">(sum-of-squares</tspan></tspan><tspan x="90" y="434.04742" id="tspan7270" xml:space="preserve" style="font-size:20px;font-style:normal;font-variant:normal;font-weight:normal;font-stretch:normal;line-height:120.00000477%;font-family:Inconsolata LGC;-inkscape-font-specification:Inconsolata LGC"> (+ a 1)</tspan><tspan x="90" y="459.24744" id="tspan7274" xml:space="preserve" style="font-size:20px;line-height:120.00000477%"><tspan dy="0 0 0 0" id="tspan7276" xml:space="preserve" style="font-size:20px;font-style:normal;font-variant:normal;font-weight:normal;font-stretch:normal;line-height:120.00000477%;font-family:Inconsolata LGC;-inkscape-font-specification:Inconsolata LGC"> (* a 2))</tspan></tspan></text>
    <text x="319.09091" y="346.79196" id="text5497-6" xml:space="preserve" style="font-size:24.81818199px;font-style:normal;font-variant:normal;font-weight:normal;font-stretch:normal;text-align:start;line-height:139.99999762%;letter-spacing:0px;word-spacing:0px;text-anchor:start;fill:#383838;fill-opacity:1;stroke:none;font-family:Linux Biolinum O;-inkscape-font-specification:Sans"><tspan x="319.09091" y="346.79196" id="tspan5499-8" style="line-height:120.00000477%">parameters: <tspan id="tspan7508" style="font-size:20px;font-style:normal;font-variant:normal;font-weight:normal;font-stretch:normal;line-height:120.00000477%;font-family:Inconsolata LGC;-inkscape-font-specification:Inconsolata LGC">x</tspan></tspan><tspan x="319.09091" y="380.04007" id="tspan7274-5" style="line-height:120.00000477%">body: <tspan dy="0" id="tspan5503-6" style="font-size:20px;font-style:normal;font-variant:normal;font-weight:normal;font-stretch:normal;line-height:120.00000477%;font-family:Inconsolata LGC;-inkscape-font-specification:Inconsolata LGC">(* x x)</tspan></tspan></text>
    <text x="510.00003" y="346.79196" id="text5497-1" xml:space="preserve" style="font-size:24.81818199px;font-style:normal;font-variant:normal;font-weight:normal;font-stretch:normal;text-align:start;line-height:139.99999762%;letter-spacing:0px;word-spacing:0px;text-anchor:start;fill:#383838;fill-opacity:1;stroke:none;font-family:Linux Biolinum O;-inkscape-font-specification:Sans"><tspan x="510.00003" y="346.79196" id="tspan5499-2" style="line-height:120.00000477%">parameters: <tspan dx="0 0 3.0545456" id="tspan7517" style="font-size:20px;font-style:normal;font-variant:normal;font-weight:normal;font-stretch:normal;line-height:120.00000477%;font-family:Inconsolata LGC;-inkscape-font-specification:Inconsolata LGC">x,y</tspan></tspan><tspan x="510.00003" y="380.04007" id="tspan5501-8" style="line-height:120.00000477%">body: </tspan><tspan x="510.00003" y="407.67755" id="tspan3083" style="font-size:20px"><tspan dy="0" id="tspan3085" xml:space="preserve" style="font-size:20px;font-style:normal;font-variant:normal;font-weight:normal;font-stretch:normal;line-height:139.99999762%;font-family:Inconsolata LGC;-inkscape-font-specification:Inconsolata LGC">(+ (square x)</tspan></tspan><tspan x="510.00003" y="437.07755" id="tspan7270-5" xml:space="preserve" style="font-size:20px;font-style:normal;font-variant:normal;font-weight:normal;font-stretch:normal;line-height:139.99999762%;font-family:Inconsolata LGC;-inkscape-font-specification:Inconsolata LGC">   (square y))</tspan><tspan x="510.00003" y="466.47754" id="tspan7274-6"/></text>
  </g>
</svg>
