<?xml version="1.0" encoding="UTF-8" standalone="no"?>
<!-- Created with Inkscape (http://www.inkscape.org/) -->
<?xml-stylesheet href="../../css/fonts/fonts.css" type="text/css"?>
<svg xmlns:dc="http://purl.org/dc/elements/1.1/" xmlns:cc="http://creativecommons.org/ns#" xmlns:rdf="http://www.w3.org/1999/02/22-rdf-syntax-ns#" xmlns:svg="http://www.w3.org/2000/svg" xmlns="http://www.w3.org/2000/svg" preserveAspectRatio="xMinYMin meet" viewBox="0 0 551 208" id="svg2" version="1.1">
  <defs id="defs4">
    <marker refX="0" refY="0" orient="auto" id="Arrow1Mstart" style="overflow:visible">
      <path d="M 0,0 5,-5 -12.5,0 5,5 0,0 z" transform="matrix(0.4,0,0,0.4,4,0)" id="path4565" style="fill:#383838;fill-rule:evenodd;stroke:#383838;stroke-width:1pt;marker-start:none"/>
    </marker>
    <marker refX="0" refY="0" orient="auto" id="marker5346" style="overflow:visible">
      <path d="M 0,0 5,-5 -12.5,0 5,5 0,0 z" transform="matrix(0.4,0,0,0.4,4,0)" id="path5348" style="fill:#383838;fill-rule:evenodd;stroke:#383838;stroke-width:1pt;marker-start:none"/>
    </marker>
    <marker refX="0" refY="0" orient="auto" id="marker5350" style="overflow:visible">
      <path d="M 0,0 5,-5 -12.5,0 5,5 0,0 z" transform="matrix(0.4,0,0,0.4,4,0)" id="path5352" style="fill:#383838;fill-rule:evenodd;stroke:#383838;stroke-width:1pt;marker-start:none"/>
    </marker>
    <marker refX="0" refY="0" orient="auto" id="Arrow1Mstart-3" style="overflow:visible">
      <path d="M 0,0 5,-5 -12.5,0 5,5 0,0 z" transform="matrix(0.4,0,0,0.4,4,0)" id="path4565-9" style="fill:#383838;fill-rule:evenodd;stroke:#383838;stroke-width:1pt;marker-start:none"/>
    </marker>
    <marker refX="0" refY="0" orient="auto" id="marker5586" style="overflow:visible">
      <path d="M 0,0 5,-5 -12.5,0 5,5 0,0 z" transform="matrix(0.4,0,0,0.4,4,0)" id="path5588" style="fill:#383838;fill-rule:evenodd;stroke:#383838;stroke-width:1pt;marker-start:none"/>
    </marker>
    <marker refX="0" refY="0" orient="auto" id="Arrow1Mstart-4" style="overflow:visible">
      <path d="M 0,0 5,-5 -12.5,0 5,5 0,0 z" transform="matrix(0.4,0,0,0.4,4,0)" id="path4565-3" style="fill:#383838;fill-rule:evenodd;stroke:#383838;stroke-width:1pt;marker-start:none"/>
    </marker>
    <marker refX="0" refY="0" orient="auto" id="Arrow1Mstart-5" style="overflow:visible">
      <path d="M 0,0 5,-5 -12.5,0 5,5 0,0 z" transform="matrix(0.4,0,0,0.4,4,0)" id="path4565-38" style="fill:#383838;fill-rule:evenodd;stroke:#383838;stroke-width:1pt;marker-start:none"/>
    </marker>
    <marker refX="0" refY="0" orient="auto" id="Arrow1Mstart-0" style="overflow:visible">
      <path d="M 0,0 5,-5 -12.5,0 5,5 0,0 z" transform="matrix(0.4,0,0,0.4,4,0)" id="path4565-6" style="fill:#383838;fill-rule:evenodd;stroke:#383838;stroke-width:1pt;marker-start:none"/>
    </marker>
    <marker refX="0" refY="0" orient="auto" id="Arrow1Mstart-47" style="overflow:visible">
      <path d="M 0,0 5,-5 -12.5,0 5,5 0,0 z" transform="matrix(0.4,0,0,0.4,4,0)" id="path4565-64" style="fill:#383838;fill-rule:evenodd;stroke:#383838;stroke-width:1pt;marker-start:none"/>
    </marker>
    <marker refX="0" refY="0" orient="auto" id="marker5743" style="overflow:visible">
      <path d="M 0,0 5,-5 -12.5,0 5,5 0,0 z" transform="matrix(0.4,0,0,0.4,4,0)" id="path5745" style="fill:#383838;fill-rule:evenodd;stroke:#383838;stroke-width:1pt;marker-start:none"/>
    </marker>
    <marker refX="0" refY="0" orient="auto" id="marker5747" style="overflow:visible">
      <path d="M 0,0 5,-5 -12.5,0 5,5 0,0 z" transform="matrix(0.4,0,0,0.4,4,0)" id="path5749" style="fill:#383838;fill-rule:evenodd;stroke:#383838;stroke-width:1pt;marker-start:none"/>
    </marker>
    <marker refX="0" refY="0" orient="auto" id="Arrow1Mstart-1" style="overflow:visible">
      <path d="M 0,0 5,-5 -12.5,0 5,5 0,0 z" transform="matrix(0.4,0,0,0.4,4,0)" id="path4565-8" style="fill:#383838;fill-rule:evenodd;stroke:#383838;stroke-width:1pt;marker-start:none"/>
    </marker>
    <marker refX="0" refY="0" orient="auto" id="marker5819" style="overflow:visible">
      <path d="M 0,0 5,-5 -12.5,0 5,5 0,0 z" transform="matrix(0.4,0,0,0.4,4,0)" id="path5821" style="fill:#383838;fill-rule:evenodd;stroke:#383838;stroke-width:1pt;marker-start:none"/>
    </marker>
  </defs>
  <metadata id="metadata_3.17">
  <!--
    <rdf:RDF>
      <cc:Work rdf:about="">
        <dc:format>image/svg+xml</dc:format>
        <dc:type rdf:resource="http://purl.org/dc/dcmitype/StillImage"></dc:type>
        <dc:title></dc:title>
        <cc:license rdf:resource="http://creativecommons.org/licenses/by-sa/3.0/"></cc:license>
        <dc:description>Based on the diagram in Abelson, Sussman &amp; Sussman's "Structure and Interpretation of Computer Programs", 2nd ed.</dc:description>
        <dc:source>http://mitpress.mit.edu/sicp/full-text/book/book-Z-H-22.html#%_fig_3.17</dc:source>
        <dc:creator>
          <cc:Agent>
            <dc:title>Andres Raba</dc:title>
          </cc:Agent>
        </dc:creator>
        <dc:date>2012-11-17</dc:date>
        <dc:subject>
          <rdf:Bag>
            <rdf:li>list</rdf:li>
            <rdf:li>cons</rdf:li>
          </rdf:Bag>
        </dc:subject>
      </cc:Work>
      <cc:License rdf:about="http://creativecommons.org/licenses/by-sa/3.0/">
        <cc:permits rdf:resource="http://creativecommons.org/ns#Reproduction"></cc:permits>
        <cc:permits rdf:resource="http://creativecommons.org/ns#Distribution"></cc:permits>
        <cc:requires rdf:resource="http://creativecommons.org/ns#Notice"></cc:requires>
        <cc:requires rdf:resource="http://creativecommons.org/ns#Attribution"></cc:requires>
        <cc:permits rdf:resource="http://creativecommons.org/ns#DerivativeWorks"></cc:permits>
        <cc:requires rdf:resource="http://creativecommons.org/ns#ShareAlike"></cc:requires>
      </cc:License>
    </rdf:RDF>
  -->
</metadata>
  <g transform="translate(-17.556601,-43.15625)" id="layer2" style="display:inline">
    <rect width="95.454544" height="47.727272" rx="6.7644954" ry="6.7644954" x="127.67581" y="46.66605" id="rect3794-7-1-0-5-6" style="fill:#e8e8e8;fill-opacity:1;stroke:#383838;stroke-width:1.01467431;stroke-linecap:round;stroke-linejoin:round;stroke-miterlimit:4;stroke-opacity:1;stroke-dasharray:none;stroke-dashoffset:0"/>
    <rect width="95.454544" height="47.727272" rx="6.7644954" ry="6.7644954" x="318.5849" y="46.666023" id="rect3794-7-1-0-5" style="fill:#e8e8e8;fill-opacity:1;stroke:#383838;stroke-width:1.01467431;stroke-linecap:round;stroke-linejoin:round;stroke-miterlimit:4;stroke-opacity:1;stroke-dasharray:none;stroke-dashoffset:0"/>
    <rect width="95.454544" height="47.727272" rx="6.7644954" ry="6.7644954" x="461.76672" y="46.666023" id="rect3794-7-1-0-6-6" style="fill:#e8e8e8;fill-opacity:1;stroke:#383838;stroke-width:1.01467431;stroke-linecap:round;stroke-linejoin:round;stroke-miterlimit:4;stroke-opacity:1;stroke-dasharray:none;stroke-dashoffset:0"/>
    <rect width="95.454544" height="47.727272" rx="6.7644954" ry="6.7644954" x="318.5849" y="199.39333" id="rect3794-7-1-0-5-8" style="fill:#e8e8e8;fill-opacity:1;stroke:#383838;stroke-width:1.01467431;stroke-linecap:round;stroke-linejoin:round;stroke-miterlimit:4;stroke-opacity:1;stroke-dasharray:none;stroke-dashoffset:0"/>
    <rect width="95.454544" height="47.727272" rx="6.7644954" ry="6.7644954" x="461.76672" y="199.39333" id="rect3794-7-1-0-6-6-6" style="fill:#e8e8e8;fill-opacity:1;stroke:#383838;stroke-width:1.01467431;stroke-linecap:round;stroke-linejoin:round;stroke-miterlimit:4;stroke-opacity:1;stroke-dasharray:none;stroke-dashoffset:0"/>
  </g>
  <g transform="translate(-17.556601,-43.15625)" id="layer1" style="display:inline">
    <rect width="47.727272" height="47.727272" rx="6.7644954" ry="6.7644954" x="318.5849" y="123.02969" id="rect3794-77-9-4-4" style="fill:none;stroke:#383838;stroke-width:1.01467431;stroke-linecap:round;stroke-linejoin:round;stroke-miterlimit:4;stroke-opacity:1;stroke-dasharray:none;stroke-dashoffset:0;display:inline"/>
    <rect width="47.727272" height="47.727272" rx="6.7644954" ry="6.7644954" x="461.76675" y="123.02969" id="rect3794-77-9-5-9" style="fill:none;stroke:#383838;stroke-width:1.01467431;stroke-linecap:round;stroke-linejoin:round;stroke-miterlimit:4;stroke-opacity:1;stroke-dasharray:none;stroke-dashoffset:0;display:inline"/>
    <path d="m 457.94854,70.631914 -66.81818,0" id="path4554-5-2-3-85" style="fill:none;stroke:#383838;stroke-width:1.48818898;stroke-linecap:round;stroke-linejoin:round;stroke-miterlimit:4;stroke-opacity:1;stroke-dasharray:none;marker-start:url(#Arrow1Mstart);display:inline"/>
    <path d="m 120,84.862183 a 2.5,2.5 0 1 1 -5,0 2.5,2.5 0 1 1 5,0 z" transform="matrix(1.9090909,0,0,1.9090909,165.85767,-91.54812)" id="path4491-44-0-1" style="fill:#383838;fill-opacity:1;stroke:#383838;stroke-width:0;stroke-linecap:round;stroke-linejoin:round;stroke-miterlimit:4;stroke-opacity:1;stroke-dasharray:none;stroke-dashoffset:0;display:inline"/>
    <path d="m 120,84.862183 a 2.5,2.5 0 1 1 -5,0 2.5,2.5 0 1 1 5,0 z" transform="matrix(1.9090909,0,0,1.9090909,118.06218,-91.43001)" id="path4491-4-7-7" style="fill:#383838;fill-opacity:1;stroke:#383838;stroke-width:0;stroke-linecap:round;stroke-linejoin:round;stroke-miterlimit:4;stroke-opacity:1;stroke-dasharray:none;stroke-dashoffset:0;display:inline"/>
    <path d="m 342.55081,119.2115 0,-47.727273" id="path4554-5-0-27" style="fill:none;stroke:#383838;stroke-width:1.48818898;stroke-linecap:round;stroke-linejoin:round;stroke-miterlimit:4;stroke-opacity:1;stroke-dasharray:none;marker-start:url(#Arrow1Mstart);display:inline"/>
    <path d="m 509.49399,46.666046 0,47.727272" id="path4405-1-3-84-0" style="fill:none;stroke:#383838;stroke-width:1.01467431;stroke-linecap:butt;stroke-linejoin:miter;stroke-miterlimit:4;stroke-opacity:1;stroke-dasharray:none"/>
    <path d="m 120,84.862183 a 2.5,2.5 0 1 1 -5,0 2.5,2.5 0 1 1 5,0 z" transform="matrix(1.9090909,0,0,1.9090909,261.24398,-91.43001)" id="path4491-4-7-6-8" style="fill:#383838;fill-opacity:1;stroke:#383838;stroke-width:0;stroke-linecap:round;stroke-linejoin:round;stroke-miterlimit:4;stroke-opacity:1;stroke-dasharray:none;stroke-dashoffset:0;display:inline"/>
    <path d="m 485.73263,119.2115 0,-47.727273" id="path4554-5-0-7-2" style="fill:none;stroke:#383838;stroke-width:1.48818898;stroke-linecap:round;stroke-linejoin:round;stroke-miterlimit:4;stroke-opacity:1;stroke-dasharray:none;marker-start:url(#Arrow1Mstart);display:inline"/>
    <path d="M 509.49399,94.393318 555.31217,48.575137" id="path4373-3" style="fill:none;stroke:#383838;stroke-width:1.01467431;stroke-linecap:butt;stroke-linejoin:round;stroke-miterlimit:4;stroke-opacity:1;stroke-dasharray:none"/>
    <path d="m 366.31218,46.666046 0,47.727272" id="path4405-1-3-3" style="fill:none;stroke:#383838;stroke-width:1.01467431;stroke-linecap:butt;stroke-linejoin:miter;stroke-miterlimit:4;stroke-opacity:1;stroke-dasharray:none"/>
    <path d="m 123.85763,70.597913 -62.999995,0" id="path4554-9-4-6" style="fill:none;stroke:#383838;stroke-width:1.48818898;stroke-linecap:round;stroke-linejoin:round;stroke-miterlimit:4;stroke-opacity:1;stroke-dasharray:none;marker-start:url(#Arrow1Mstart);display:inline"/>
    <path d="m 457.94854,223.35918 -66.81818,0" id="path4554-5-2-3-85-4" style="fill:none;stroke:#383838;stroke-width:1.48818898;stroke-linecap:round;stroke-linejoin:round;stroke-miterlimit:4;stroke-opacity:1;stroke-dasharray:none;marker-start:url(#Arrow1Mstart);display:inline"/>
    <path d="m 120,84.862183 a 2.5,2.5 0 1 1 -5,0 2.5,2.5 0 1 1 5,0 z" transform="matrix(1.9090909,0,0,1.9090909,165.85767,61.179107)" id="path4491-44-0-1-8" style="fill:#383838;fill-opacity:1;stroke:#383838;stroke-width:0;stroke-linecap:round;stroke-linejoin:round;stroke-miterlimit:4;stroke-opacity:1;stroke-dasharray:none;stroke-dashoffset:0;display:inline"/>
    <path d="m 120,84.862183 a 2.5,2.5 0 1 1 -5,0 2.5,2.5 0 1 1 5,0 z" transform="matrix(1.9090909,0,0,1.9090909,118.06218,61.297223)" id="path4491-4-7-7-2" style="fill:#383838;fill-opacity:1;stroke:#383838;stroke-width:0;stroke-linecap:round;stroke-linejoin:round;stroke-miterlimit:4;stroke-opacity:1;stroke-dasharray:none;stroke-dashoffset:0;display:inline"/>
    <path d="m 342.55081,174.57513 0,47.72728" id="path4554-5-0-27-1" style="fill:none;stroke:#383838;stroke-width:1.48818898;stroke-linecap:round;stroke-linejoin:round;stroke-miterlimit:4;stroke-opacity:1;stroke-dasharray:none;marker-start:url(#Arrow1Mstart);display:inline"/>
    <path d="m 509.49399,199.39332 0,47.72727" id="path4405-1-3-84-0-6" style="fill:none;stroke:#383838;stroke-width:1.01467431;stroke-linecap:butt;stroke-linejoin:miter;stroke-miterlimit:4;stroke-opacity:1;stroke-dasharray:none"/>
    <path d="m 120,84.862183 a 2.5,2.5 0 1 1 -5,0 2.5,2.5 0 1 1 5,0 z" transform="matrix(1.9090909,0,0,1.9090909,261.24398,61.297223)" id="path4491-4-7-6-8-8" style="fill:#383838;fill-opacity:1;stroke:#383838;stroke-width:0;stroke-linecap:round;stroke-linejoin:round;stroke-miterlimit:4;stroke-opacity:1;stroke-dasharray:none;stroke-dashoffset:0;display:inline"/>
    <path d="m 485.73263,174.57513 0,47.72728" id="path4554-5-0-7-2-2" style="fill:none;stroke:#383838;stroke-width:1.48818898;stroke-linecap:round;stroke-linejoin:round;stroke-miterlimit:4;stroke-opacity:1;stroke-dasharray:none;marker-start:url(#Arrow1Mstart);display:inline"/>
    <path d="m 509.49399,247.12059 45.81818,-45.81818" id="path4373-3-4" style="fill:none;stroke:#383838;stroke-width:1.01467431;stroke-linecap:butt;stroke-linejoin:round;stroke-miterlimit:4;stroke-opacity:1;stroke-dasharray:none"/>
    <path d="m 366.31218,199.39332 0,47.72727" id="path4405-1-3-3-2" style="fill:none;stroke:#383838;stroke-width:1.01467431;stroke-linecap:butt;stroke-linejoin:miter;stroke-miterlimit:4;stroke-opacity:1;stroke-dasharray:none"/>
    <path d="m 314.76672,70.631914 -114.54545,0" id="path4554-5-2-3-85-7" style="fill:none;stroke:#383838;stroke-width:1.48818898;stroke-linecap:round;stroke-linejoin:round;stroke-miterlimit:4;stroke-opacity:1;stroke-dasharray:none;marker-start:url(#Arrow1Mstart);display:inline"/>
    <path d="m 120,84.862183 a 2.5,2.5 0 1 1 -5,0 2.5,2.5 0 1 1 5,0 z" transform="matrix(1.9090909,0,0,1.9090909,-25.051419,-91.54811)" id="path4491-44-0-1-1" style="fill:#383838;fill-opacity:1;stroke:#383838;stroke-width:0;stroke-linecap:round;stroke-linejoin:round;stroke-miterlimit:4;stroke-opacity:1;stroke-dasharray:none;stroke-dashoffset:0;display:inline"/>
    <path d="m 120,84.862183 a 2.5,2.5 0 1 1 -5,0 2.5,2.5 0 1 1 5,0 z" transform="matrix(1.9090909,0,0,1.9090909,-72.846895,-91.43)" id="path4491-4-7-7-4" style="fill:#383838;fill-opacity:1;stroke:#383838;stroke-width:0;stroke-linecap:round;stroke-linejoin:round;stroke-miterlimit:4;stroke-opacity:1;stroke-dasharray:none;stroke-dashoffset:0;display:inline"/>
    <path d="m 314.76672,223.32515 -153.682,0.16055 c -5.91983,0 -9.44299,-3.86137 -9.44299,-9.70607 l 0,-142.295441" id="path4554-5-0-27-2" style="fill:none;stroke:#383838;stroke-width:1.48818898;stroke-linecap:round;stroke-linejoin:round;stroke-miterlimit:4;stroke-opacity:1;stroke-dasharray:none;marker-start:url(#Arrow1Mstart);display:inline"/>
    <path d="m 175.40309,46.666046 0,47.727272" id="path4405-1-3-3-3" style="fill:none;stroke:#383838;stroke-width:1.01467431;stroke-linecap:butt;stroke-linejoin:miter;stroke-miterlimit:4;stroke-opacity:1;stroke-dasharray:none"/>
  </g>
  <g transform="translate(-17.556601,-43.15625)" id="layer6" style="display:inline">
    <text x="336.27808" y="152.72267" id="text3007-0-2-9" xml:space="preserve" style="font-size:20px;font-style:normal;font-variant:normal;font-weight:normal;font-stretch:normal;line-height:125%;letter-spacing:0px;word-spacing:0px;fill:#383838;fill-opacity:1;stroke:none;font-family:Inconsolata LGC;-inkscape-font-specification:Inconsolata LGC"><tspan x="336.27808" y="152.72267" id="tspan3009-8-5-1" style="font-weight:normal;-inkscape-font-specification:Inconsolata LGC">a</tspan></text>
    <text x="478.94855" y="153.2341" id="text3007-0-7-1" xml:space="preserve" style="font-size:20px;font-style:normal;font-variant:normal;font-weight:normal;font-stretch:normal;line-height:125%;letter-spacing:0px;word-spacing:0px;fill:#383838;fill-opacity:1;stroke:none;font-family:Inconsolata LGC;-inkscape-font-specification:Inconsolata LGC"><tspan x="478.94855" y="153.2341" id="tspan3009-8-52-2" style="font-weight:normal;-inkscape-font-specification:Inconsolata LGC">b</tspan></text>
    <text x="51.312195" y="76.291061" id="text4974" xml:space="preserve" style="font-size:20px;font-style:normal;font-variant:normal;font-weight:normal;font-stretch:normal;text-align:end;line-height:125%;letter-spacing:0px;word-spacing:0px;text-anchor:end;fill:#383838;fill-opacity:1;stroke:none;font-family:Inconsolata LGC;-inkscape-font-specification:Inconsolata LGC"><tspan x="51.312195" y="76.291061" id="tspan4976">z2</tspan></text>
  </g>
</svg>
